<?xml version="1.0" encoding="UTF-8"?>
<!DOCTYPE svg PUBLIC "-//W3C//DTD SVG 1.1//EN" "http://www.w3.org/Graphics/SVG/1.1/DTD/svg11.dtd">
<svg xmlns="http://www.w3.org/2000/svg" version="1.1" width="200px" height="200px" style="shape-rendering:geometricPrecision; text-rendering:geometricPrecision; image-rendering:optimizeQuality; fill-rule:evenodd; clip-rule:evenodd" xmlns:xlink="http://www.w3.org/1999/xlink">
<g><path style="opacity:0.09" fill="#f0e6e5" d="M 109.5,8.5 C 109.897,7.47498 110.563,7.30831 111.5,8C 110.906,8.46434 110.239,8.63101 109.5,8.5 Z"/></g>
<g><path style="opacity:1" fill="#e1d9d6" d="M 112.5,9.5 C 113.386,8.2241 114.386,8.2241 115.5,9.5C 114.575,10.5624 113.575,10.5624 112.5,9.5 Z"/></g>
<g><path style="opacity:0.569" fill="#e9e5e4" d="M 87.5,15.5 C 87.8966,14.475 88.5632,14.3083 89.5,15C 88.9056,15.4643 88.2389,15.631 87.5,15.5 Z"/></g>
<g><path style="opacity:1" fill="#e4dad9" d="M 80.5,16.5 C 80.8966,15.475 81.5632,15.3083 82.5,16C 81.9056,16.4643 81.2389,16.631 80.5,16.5 Z"/></g>
<g><path style="opacity:1" fill="#fcdbd0" d="M 124.5,15.5 C 122.167,14.8333 119.833,14.1667 117.5,13.5C 117.5,14.5 117.5,15.5 117.5,16.5C 109.167,16.5 100.833,16.5 92.5,16.5C 94.984,15.6311 97.6507,14.9644 100.5,14.5C 104.638,14.5206 108.805,14.8539 113,15.5C 116.89,11.5479 120.723,11.5479 124.5,15.5 Z"/></g>
<g><path style="opacity:1" fill="#e5cfd5" d="M 133.5,18.5 C 132.211,19.5009 130.878,19.3342 129.5,18C 130.881,16.4658 132.214,16.6325 133.5,18.5 Z"/></g>
<g><path style="opacity:1" fill="#fa9272" d="M 88.5,18.5 C 95.8876,18.2534 103.221,18.7534 110.5,20C 111.056,20.3826 111.389,20.8826 111.5,21.5C 107.412,22.0012 103.412,22.0012 99.5,21.5C 94.8003,20.1086 90.4669,20.7752 86.5,23.5C 85.1667,23.5 83.8333,23.5 82.5,23.5C 84.8669,22.3107 86.8669,20.644 88.5,18.5 Z"/></g>
<g><path style="opacity:1" fill="#cc4e34" d="M 88.5,18.5 C 96.6563,17.3434 104.99,17.1768 113.5,18C 114.244,19.0386 115.244,19.5386 116.5,19.5C 118.636,20.4026 120.636,21.5693 122.5,23C 121.906,23.4643 121.239,23.631 120.5,23.5C 117.829,21.8819 114.829,21.2153 111.5,21.5C 111.389,20.8826 111.056,20.3826 110.5,20C 103.221,18.7534 95.8876,18.2534 88.5,18.5 Z"/></g>
<g><path style="opacity:1" fill="#eea591" d="M 124.5,15.5 C 124.611,16.1174 124.944,16.6174 125.5,17C 122.149,17.0572 119.149,17.8906 116.5,19.5C 115.244,19.5386 114.244,19.0386 113.5,18C 104.99,17.1768 96.6563,17.3434 88.5,18.5C 84.4296,18.4318 80.763,19.4318 77.5,21.5C 76.8333,21.5 76.1667,21.5 75.5,21.5C 75.5,21.1667 75.5,20.8333 75.5,20.5C 78.2908,19.2811 81.1241,17.9478 84,16.5C 86.6213,16.7036 89.4547,16.7036 92.5,16.5C 100.833,16.5 109.167,16.5 117.5,16.5C 117.5,15.5 117.5,14.5 117.5,13.5C 119.833,14.1667 122.167,14.8333 124.5,15.5 Z"/></g>
<g><path style="opacity:0.855" fill="#f0e4de" d="M 133.5,18.5 C 135.196,18.6854 136.529,19.5187 137.5,21C 135.055,21.9098 133.722,21.0764 133.5,18.5 Z"/></g>
<g><path style="opacity:1" fill="#e65231" d="M 88.5,18.5 C 86.8669,20.644 84.8669,22.3107 82.5,23.5C 81.2486,25.561 79.5819,25.8943 77.5,24.5C 81.3354,23.0035 81.3354,22.0035 77.5,21.5C 80.763,19.4318 84.4296,18.4318 88.5,18.5 Z"/></g>
<g><path style="opacity:1" fill="#fddbcb" d="M 75.5,20.5 C 75.5,20.8333 75.5,21.1667 75.5,21.5C 72.8427,21.9348 70.5093,22.9348 68.5,24.5C 67.1667,24.5 65.8333,24.5 64.5,24.5C 67.6257,22.0103 71.2924,20.677 75.5,20.5 Z"/></g>
<g><path style="opacity:1" fill="#e8613f" d="M 99.5,21.5 C 97.6309,22.1646 95.6309,22.8313 93.5,23.5C 92.4502,24.4288 92.4502,25.0954 93.5,25.5C 93.1667,26.1667 92.8333,26.8333 92.5,27.5C 91.8333,27.5 91.5,27.8333 91.5,28.5C 89.8008,28.6602 88.1341,28.4935 86.5,28C 90.1234,26.6952 90.1234,25.1952 86.5,23.5C 90.4669,20.7752 94.8003,20.1086 99.5,21.5 Z"/></g>
<g><path style="opacity:1" fill="#fead90" d="M 111.5,22.5 C 111.5,22.1667 111.5,21.8333 111.5,21.5C 114.829,21.2153 117.829,21.8819 120.5,23.5C 119.508,23.3284 118.842,23.6618 118.5,24.5C 116.167,23.8333 113.833,23.1667 111.5,22.5 Z"/></g>
<g><path style="opacity:1" fill="#db3d1f" d="M 99.5,21.5 C 103.412,22.0012 107.412,22.0012 111.5,21.5C 111.5,21.8333 111.5,22.1667 111.5,22.5C 107.027,23.0506 102.693,23.7173 98.5,24.5C 96.9582,25.3007 95.2915,25.634 93.5,25.5C 92.4502,25.0954 92.4502,24.4288 93.5,23.5C 95.6309,22.8313 97.6309,22.1646 99.5,21.5 Z"/></g>
<g><path style="opacity:1" fill="#d2583c" d="M 111.5,22.5 C 113.833,23.1667 116.167,23.8333 118.5,24.5C 120.317,25.2192 120.984,26.2192 120.5,27.5C 113.33,25.4805 105.997,24.4805 98.5,24.5C 102.693,23.7173 107.027,23.0506 111.5,22.5 Z"/></g>
<g><path style="opacity:0.09" fill="#f3e9f3" d="M 140.5,24.5 C 139.833,23.1667 139.833,23.1667 140.5,24.5 Z"/></g>
<g><path style="opacity:1" fill="#ff987a" d="M 98.5,24.5 C 100.167,25.1667 101.833,25.8333 103.5,26.5C 99.8019,26.5524 96.1352,26.8857 92.5,27.5C 92.8333,26.8333 93.1667,26.1667 93.5,25.5C 95.2915,25.634 96.9582,25.3007 98.5,24.5 Z"/></g>
<g><path style="opacity:1" fill="#e3d9dd" d="M 140.5,24.5 C 142.078,25.0656 143.412,26.0656 144.5,27.5C 142.219,28.2617 140.886,27.2617 140.5,24.5 Z"/></g>
<g><path style="opacity:1" fill="#ec7b63" d="M 64.5,24.5 C 65.8333,24.5 67.1667,24.5 68.5,24.5C 64.0928,27.0463 59.7594,29.8797 55.5,33C 54.7599,34.7849 54.0933,36.6183 53.5,38.5C 51.1831,40.316 49.0165,42.316 47,44.5C 43.9751,50.9287 42.1418,57.5954 41.5,64.5C 40.8022,58.4179 41.8022,52.7512 44.5,47.5C 44.8333,46.1667 45.1667,44.8333 45.5,43.5C 49.6837,40.8234 52.5171,37.1568 54,32.5C 57.6584,29.9343 61.1584,27.2676 64.5,24.5 Z"/></g>
<g><path style="opacity:1" fill="#fc2705" d="M 96.5,31.5 C 98.8591,34.9758 101.526,35.3092 104.5,32.5C 104.5,31.5 104.5,30.5 104.5,29.5C 105.999,28.506 107.666,28.506 109.5,29.5C 110.167,29.5 110.833,29.5 111.5,29.5C 114.345,31.2243 117.345,32.5577 120.5,33.5C 121.733,37.1318 124.399,38.7984 128.5,38.5C 128.238,37.0222 128.571,35.6888 129.5,34.5C 131.667,37.0494 134,39.3827 136.5,41.5C 138.094,44.7642 140.427,47.4309 143.5,49.5C 145.283,54.6903 146.783,60.0236 148,65.5C 148.708,66.3805 149.542,67.0472 150.5,67.5C 151.014,69.6175 151.347,71.7841 151.5,74C 149.813,80.7496 149.313,87.5829 150,94.5C 150.513,93.4734 151.013,92.4734 151.5,91.5C 151.5,90.8333 151.833,90.5 152.5,90.5C 154.095,88.8888 155.261,86.8888 156,84.5C 156.494,86.1341 156.66,87.8008 156.5,89.5C 156.328,90.4916 156.662,91.1583 157.5,91.5C 157.678,92.6948 158.011,93.8615 158.5,95C 156.6,98.8525 154.6,102.686 152.5,106.5C 151.268,105.855 149.935,105.689 148.5,106C 147.167,105.333 147.167,104.667 148.5,104C 146.866,103.506 145.199,103.34 143.5,103.5C 139.102,100.105 135.436,96.1053 132.5,91.5C 131.226,88.3776 129.226,85.8776 126.5,84C 127.098,82.6988 128.098,81.8655 129.5,81.5C 130.669,77.3459 130.669,73.1792 129.5,69C 130.071,66.4564 130.738,63.9564 131.5,61.5C 132.525,61.1034 132.692,60.4368 132,59.5C 131.023,58.2264 130.189,58.2264 129.5,59.5C 127.585,59.2155 125.919,59.5489 124.5,60.5C 123.833,60.5 123.5,60.8333 123.5,61.5C 122.861,62.0968 122.528,62.9302 122.5,64C 123.216,69.9041 124.216,75.7374 125.5,81.5C 121.579,80.3918 120.579,77.8918 122.5,74C 122.167,73.5 121.833,73 121.5,72.5C 120.28,73.7111 119.113,73.7111 118,72.5C 117.667,70.5 117.333,68.5 117,66.5C 116.329,65.7476 115.496,65.4142 114.5,65.5C 114.03,64.3065 113.03,63.6399 111.5,63.5C 108.821,63.9357 106.155,64.4357 103.5,65C 106.167,66 106.167,67 103.5,68C 101.527,68.4955 99.5273,68.6621 97.5,68.5C 97.1667,68.5 96.8333,68.5 96.5,68.5C 93.7167,66.7277 90.7167,66.3944 87.5,67.5C 85.2254,71.2884 83.5588,75.2884 82.5,79.5C 78.8972,83.9423 75.0639,88.2756 71,92.5C 69.582,96.3402 67.4153,99.6735 64.5,102.5C 60.2602,103.397 55.9269,104.897 51.5,107C 52.3578,105.43 53.0245,103.763 53.5,102C 51.8372,99.0279 50.6705,95.8612 50,92.5C 46.7664,90.5406 46.9331,88.7073 50.5,87C 49.572,86.6121 48.9054,85.9454 48.5,85C 48.6303,78.2467 49.9636,71.58 52.5,65C 51.4086,62.9361 51.2419,60.7695 52,58.5C 54.9262,49.378 58.4262,40.5446 62.5,32C 68.1572,30.4357 73.8239,28.9357 79.5,27.5C 82.7956,27.7536 85.7956,28.7536 88.5,30.5C 91.5397,28.8598 94.2064,29.1931 96.5,31.5 Z"/></g>
<g><path style="opacity:1" fill="#e1401f" d="M 103.5,26.5 C 105.199,26.3398 106.866,26.5065 108.5,27C 109.252,27.6708 109.586,28.5041 109.5,29.5C 107.666,28.506 105.999,28.506 104.5,29.5C 95.2468,30.4216 95.2468,31.4216 104.5,32.5C 101.526,35.3092 98.8591,34.9758 96.5,31.5C 96.5,30.5 96.5,29.5 96.5,28.5C 94.8333,28.5 93.1667,28.5 91.5,28.5C 91.5,27.8333 91.8333,27.5 92.5,27.5C 96.1352,26.8857 99.8019,26.5524 103.5,26.5 Z"/></g>
<g><path style="opacity:1" fill="#f5caba" d="M 124.5,15.5 C 127.569,15.963 128.069,17.2963 126,19.5C 118.245,17.7386 117.745,18.7386 124.5,22.5C 125.167,22.1667 125.833,21.8333 126.5,21.5C 127.065,23.5435 128.065,25.2102 129.5,26.5C 129.5,26.8333 129.5,27.1667 129.5,27.5C 128.345,27.5784 127.012,27.9117 125.5,28.5C 126.193,29.5178 126.859,30.5178 127.5,31.5C 126.732,32.2625 126.232,33.2625 126,34.5C 125.617,33.944 125.117,33.6107 124.5,33.5C 123.791,32.596 122.791,32.2627 121.5,32.5C 121.55,30.4099 120.55,29.0766 118.5,28.5C 116.253,29.3742 113.92,29.7076 111.5,29.5C 110.833,29.5 110.167,29.5 109.5,29.5C 109.586,28.5041 109.252,27.6708 108.5,27C 106.866,26.5065 105.199,26.3398 103.5,26.5C 101.833,25.8333 100.167,25.1667 98.5,24.5C 105.997,24.4805 113.33,25.4805 120.5,27.5C 120.984,26.2192 120.317,25.2192 118.5,24.5C 118.842,23.6618 119.508,23.3284 120.5,23.5C 121.239,23.631 121.906,23.4643 122.5,23C 120.636,21.5693 118.636,20.4026 116.5,19.5C 119.149,17.8906 122.149,17.0572 125.5,17C 124.944,16.6174 124.611,16.1174 124.5,15.5 Z"/></g>
<g><path style="opacity:1" fill="#f98b69" d="M 104.5,29.5 C 104.5,30.5 104.5,31.5 104.5,32.5C 95.2468,31.4216 95.2468,30.4216 104.5,29.5 Z"/></g>
<g><path style="opacity:1" fill="#f9c5b3" d="M 64.5,24.5 C 61.1584,27.2676 57.6584,29.9343 54,32.5C 52.5171,37.1568 49.6837,40.8234 45.5,43.5C 48.8333,34.1667 55.1667,27.8333 64.5,24.5 Z"/></g>
<g><path style="opacity:1" fill="#f4aa8f" d="M 124.5,33.5 C 123.167,33.5 121.833,33.5 120.5,33.5C 117.345,32.5577 114.345,31.2243 111.5,29.5C 113.92,29.7076 116.253,29.3742 118.5,28.5C 120.55,29.0766 121.55,30.4099 121.5,32.5C 122.791,32.2627 123.791,32.596 124.5,33.5 Z"/></g>
<g><path style="opacity:1" fill="#f5cec4" d="M 148.5,34.5 C 147.25,34.5774 146.417,35.244 146,36.5C 144.293,34.9625 142.793,33.2959 141.5,31.5C 144.531,30.5072 146.864,31.5072 148.5,34.5 Z"/></g>
<g><path style="opacity:1" fill="#e74424" d="M 127.5,31.5 C 132.6,32.9338 135.6,36.2671 136.5,41.5C 134,39.3827 131.667,37.0494 129.5,34.5C 128.571,35.6888 128.238,37.0222 128.5,38.5C 124.399,38.7984 121.733,37.1318 120.5,33.5C 121.833,33.5 123.167,33.5 124.5,33.5C 125.117,33.6107 125.617,33.944 126,34.5C 126.232,33.2625 126.732,32.2625 127.5,31.5 Z"/></g>
<g><path style="opacity:1" fill="#d58d7a" d="M 141.5,31.5 C 142.793,33.2959 144.293,34.9625 146,36.5C 146.417,35.244 147.25,34.5774 148.5,34.5C 148.703,36.0443 149.37,37.3777 150.5,38.5C 149.975,39.1924 149.308,39.6924 148.5,40C 149.823,40.8159 150.489,41.9826 150.5,43.5C 150.565,43.9382 150.399,44.2716 150,44.5C 149,43.1667 148,41.8333 147,40.5C 146.833,40.8333 146.667,41.1667 146.5,41.5C 148.746,44.9041 150.412,48.5708 151.5,52.5C 151.5,52.8333 151.5,53.1667 151.5,53.5C 148.527,47.5624 145.027,41.8958 141,36.5C 140.727,34.8988 140.227,33.3988 139.5,32C 140.094,31.5357 140.761,31.369 141.5,31.5 Z"/></g>
<g><path style="opacity:1" fill="#f8dace" d="M 152.5,43.5 C 152.167,42.1667 151.833,42.1667 151.5,43.5C 151.167,43.5 150.833,43.5 150.5,43.5C 150.489,41.9826 149.823,40.8159 148.5,40C 149.308,39.6924 149.975,39.1924 150.5,38.5C 149.37,37.3777 148.703,36.0443 148.5,34.5C 150.153,33.4709 151.486,33.9709 152.5,36C 153.7,38.465 153.7,40.965 152.5,43.5 Z"/></g>
<g><path style="opacity:1" fill="#d74628" d="M 136.5,41.5 C 139.573,43.5691 141.906,46.2358 143.5,49.5C 140.427,47.4309 138.094,44.7642 136.5,41.5 Z"/></g>
<g><path style="opacity:0.09" fill="#efebe2" d="M 154.5,41.5 C 155.525,41.8966 155.692,42.5632 155,43.5C 154.536,42.9056 154.369,42.2389 154.5,41.5 Z"/></g>
<g><path style="opacity:1" fill="#fcdecf" d="M 141.5,31.5 C 140.761,31.369 140.094,31.5357 139.5,32C 140.227,33.3988 140.727,34.8988 141,36.5C 145.027,41.8958 148.527,47.5624 151.5,53.5C 152.162,57.1573 152.829,60.824 153.5,64.5C 153.489,66.0451 153.156,67.3784 152.5,68.5C 152.158,67.6618 151.492,67.3284 150.5,67.5C 149.32,60.9447 146.987,54.9447 143.5,49.5C 141.906,46.2358 139.573,43.5691 136.5,41.5C 135.6,36.2671 132.6,32.9338 127.5,31.5C 126.859,30.5178 126.193,29.5178 125.5,28.5C 127.012,27.9117 128.345,27.5784 129.5,27.5C 130.833,27.1667 130.833,26.8333 129.5,26.5C 128.913,25.2334 128.913,24.2334 129.5,23.5C 134.255,25.1984 138.255,27.8651 141.5,31.5 Z"/></g>
<g><path style="opacity:1" fill="#f4beab" d="M 150.5,43.5 C 150.833,43.5 151.167,43.5 151.5,43.5C 151.833,43.5 152.167,43.5 152.5,43.5C 152.393,45.3786 152.893,45.7119 154,44.5C 158.889,47.0589 161.889,51.0589 163,56.5C 164.734,66.2807 164.901,75.9473 163.5,85.5C 163.914,76.4178 163.414,67.4178 162,58.5C 159.852,54.8558 157.852,51.1892 156,47.5C 155.779,50.9431 154.779,51.2764 153,48.5C 152.508,49.549 152.674,50.549 153.5,51.5C 153.043,52.2975 152.376,52.6309 151.5,52.5C 150.412,48.5708 148.746,44.9041 146.5,41.5C 146.667,41.1667 146.833,40.8333 147,40.5C 148,41.8333 149,43.1667 150,44.5C 150.399,44.2716 150.565,43.9382 150.5,43.5 Z"/></g>
<g><path style="opacity:1" fill="#f1b9ad" d="M 45.5,43.5 C 45.1667,44.8333 44.8333,46.1667 44.5,47.5C 42.9069,48.3479 41.7403,49.6813 41,51.5C 39.9269,56.2288 38.4269,60.5621 36.5,64.5C 37.2671,58.689 38.7671,53.0224 41,47.5C 42.3712,45.9586 43.8712,44.6253 45.5,43.5 Z"/></g>
<g><path style="opacity:1" fill="#db4227" d="M 143.5,49.5 C 146.987,54.9447 149.32,60.9447 150.5,67.5C 149.542,67.0472 148.708,66.3805 148,65.5C 146.783,60.0236 145.283,54.6903 143.5,49.5 Z"/></g>
<g><path style="opacity:1" fill="#f8573a" d="M 75.5,21.5 C 72.9484,23.9432 69.9484,25.6099 66.5,26.5C 66.67,27.8221 66.3366,28.9887 65.5,30C 61.7677,29.812 58.9344,31.312 57,34.5C 56.2945,38.9629 54.6278,42.9629 52,46.5C 50.6145,51.7608 49.6145,57.0941 49,62.5C 45.0001,67.3498 43.5001,72.8498 44.5,79C 43.7539,82.2804 43.0873,85.6138 42.5,89C 44.3826,95.3858 46.8826,101.552 50,107.5C 52.1601,109.717 54.3268,111.717 56.5,113.5C 56.0517,115.465 55.0517,115.798 53.5,114.5C 51.4202,112.427 49.7536,110.093 48.5,107.5C 46.9752,105.784 45.9752,103.784 45.5,101.5C 43.4,97.7984 41.9,93.7984 41,89.5C 40.5868,81.2891 40.7535,72.9557 41.5,64.5C 42.1418,57.5954 43.9751,50.9287 47,44.5C 49.0165,42.316 51.1831,40.316 53.5,38.5C 54.0933,36.6183 54.7599,34.7849 55.5,33C 59.7594,29.8797 64.0928,27.0463 68.5,24.5C 70.5093,22.9348 72.8427,21.9348 75.5,21.5 Z"/></g>
<g><path style="opacity:1" fill="#fe855e" d="M 131.5,61.5 C 130.069,61.8807 129.236,62.8807 129,64.5C 127.198,62.7271 127.365,61.0605 129.5,59.5C 130.189,58.2264 131.023,58.2264 132,59.5C 132.692,60.4368 132.525,61.1034 131.5,61.5 Z"/></g>
<g><path style="opacity:1" fill="#fa3e1c" d="M 75.5,21.5 C 76.1667,21.5 76.8333,21.5 77.5,21.5C 81.3354,22.0035 81.3354,23.0035 77.5,24.5C 79.5819,25.8943 81.2486,25.561 82.5,23.5C 83.8333,23.5 85.1667,23.5 86.5,23.5C 90.1234,25.1952 90.1234,26.6952 86.5,28C 88.1341,28.4935 89.8008,28.6602 91.5,28.5C 93.1667,28.5 94.8333,28.5 96.5,28.5C 96.5,29.5 96.5,30.5 96.5,31.5C 94.2064,29.1931 91.5397,28.8598 88.5,30.5C 85.7956,28.7536 82.7956,27.7536 79.5,27.5C 73.8239,28.9357 68.1572,30.4357 62.5,32C 58.4262,40.5446 54.9262,49.378 52,58.5C 51.2419,60.7695 51.4086,62.9361 52.5,65C 49.9636,71.58 48.6303,78.2467 48.5,85C 48.9054,85.9454 49.572,86.6121 50.5,87C 46.9331,88.7073 46.7664,90.5406 50,92.5C 50.6705,95.8612 51.8372,99.0279 53.5,102C 53.0245,103.763 52.3578,105.43 51.5,107C 55.9269,104.897 60.2602,103.397 64.5,102.5C 64.4894,104.017 63.8228,105.184 62.5,106C 61.0997,107.438 59.433,108.271 57.5,108.5C 57.5,109.833 57.5,111.167 57.5,112.5C 57.5,113.167 57.1667,113.5 56.5,113.5C 54.3268,111.717 52.1601,109.717 50,107.5C 46.8826,101.552 44.3826,95.3858 42.5,89C 43.0873,85.6138 43.7539,82.2804 44.5,79C 43.5001,72.8498 45.0001,67.3498 49,62.5C 49.6145,57.0941 50.6145,51.7608 52,46.5C 54.6278,42.9629 56.2945,38.9629 57,34.5C 58.9344,31.312 61.7677,29.812 65.5,30C 66.3366,28.9887 66.67,27.8221 66.5,26.5C 69.9484,25.6099 72.9484,23.9432 75.5,21.5 Z"/></g>
<g><path style="opacity:1" fill="#fea58c" d="M 124.5,60.5 C 125.87,62.2504 126.87,64.2504 127.5,66.5C 126.842,67.7933 126.508,69.2933 126.5,71C 126.408,73.8211 127.074,76.3211 128.5,78.5C 128.44,79.0431 128.107,79.3764 127.5,79.5C 126.749,78.624 126.249,77.624 126,76.5C 125.911,71.2771 125.078,66.2771 123.5,61.5C 123.5,60.8333 123.833,60.5 124.5,60.5 Z"/></g>
<g><path style="opacity:1" fill="#d9381c" d="M 114.5,65.5 C 109.762,66.7477 105.095,68.4143 100.5,70.5C 98.9623,70.5466 97.9623,69.8799 97.5,68.5C 99.5273,68.6621 101.527,68.4955 103.5,68C 106.167,67 106.167,66 103.5,65C 106.155,64.4357 108.821,63.9357 111.5,63.5C 113.03,63.6399 114.03,64.3065 114.5,65.5 Z"/></g>
<g><path style="opacity:1" fill="#f7f6f6" d="M 123.5,85.5 C 123.733,87.0618 124.4,88.3951 125.5,89.5C 125.672,90.4916 125.338,91.1583 124.5,91.5C 123.194,90.5326 122.527,89.1993 122.5,87.5C 121.5,87.5 120.5,87.5 119.5,87.5C 119.187,91.0419 119.521,94.3752 120.5,97.5C 120.443,98.609 120.11,99.609 119.5,100.5C 118.778,100.082 118.278,99.4158 118,98.5C 116.53,99.2666 115.03,99.9332 113.5,100.5C 113.443,99.391 113.11,98.391 112.5,97.5C 111.169,94.1868 109.836,90.8535 108.5,87.5C 108.167,87.8333 107.833,88.1667 107.5,88.5C 108.865,93.2515 109.865,98.0848 110.5,103C 109.288,103.254 108.122,104.087 107,105.5C 106.338,104.016 105.504,102.683 104.5,101.5C 104.205,99.5767 103.372,97.9101 102,96.5C 103.208,99.9945 102.375,102.995 99.5,105.5C 98.8333,104.833 98.1667,104.167 97.5,103.5C 96.8243,104.602 96.1577,105.602 95.5,106.5C 94.0115,104.355 93.0115,102.022 92.5,99.5C 93.782,98.2918 93.782,96.9584 92.5,95.5C 91.5224,95.9767 90.6891,96.6433 90,97.5C 89.7811,96.062 89.2811,94.7287 88.5,93.5C 87.8933,93.6236 87.56,93.9569 87.5,94.5C 87.5,94.8333 87.5,95.1667 87.5,95.5C 86.6618,95.1583 86.3284,94.4916 86.5,93.5C 86.5,92.5 86.5,91.5 86.5,90.5C 85.9094,89.8485 85.2427,89.1818 84.5,88.5C 85.3094,86.9291 85.6427,85.2624 85.5,83.5C 86.6948,81.2487 87.6948,78.9154 88.5,76.5C 89.1667,74.1667 89.8333,71.8333 90.5,69.5C 91.2216,69.9175 91.7216,70.5842 92,71.5C 92.8926,70.9186 93.8926,70.5852 95,70.5C 97,71.1667 99,71.8333 101,72.5C 104.314,71.8442 107.314,70.5109 110,68.5C 111.869,69.3687 112.369,70.5354 111.5,72C 112.759,72.9234 114.092,73.7568 115.5,74.5C 116.085,77.8483 117.418,80.8483 119.5,83.5C 120.577,84.7051 121.91,85.3718 123.5,85.5 Z"/></g>
<g><path style="opacity:1" fill="#df6e50" d="M 163.5,85.5 C 162.833,86.8333 162.167,88.1667 161.5,89.5C 161.843,87.5168 161.176,86.1834 159.5,85.5C 159.029,87.5786 158.363,89.5786 157.5,91.5C 156.662,91.1583 156.328,90.4916 156.5,89.5C 156.791,82.7016 156.958,75.7016 157,68.5C 156.683,70.3008 156.016,70.6341 155,69.5C 154.825,74.0195 154.325,78.3528 153.5,82.5C 153.802,79.9407 153.468,77.6074 152.5,75.5C 152.5,73.1667 152.5,70.8333 152.5,68.5C 153.156,67.3784 153.489,66.0451 153.5,64.5C 152.829,60.824 152.162,57.1573 151.5,53.5C 151.5,53.1667 151.5,52.8333 151.5,52.5C 152.376,52.6309 153.043,52.2975 153.5,51.5C 152.674,50.549 152.508,49.549 153,48.5C 154.779,51.2764 155.779,50.9431 156,47.5C 157.852,51.1892 159.852,54.8558 162,58.5C 163.414,67.4178 163.914,76.4178 163.5,85.5 Z"/></g>
<g><path style="opacity:1" fill="#ffc9ab" d="M 159.5,85.5 C 159.538,77.6844 159.371,69.6844 159,61.5C 160.134,65.1529 160.634,68.9863 160.5,73C 160.435,77.2161 160.102,81.3827 159.5,85.5 Z"/></g>
<g><path style="opacity:1" fill="#ed8b79" d="M 44.5,47.5 C 41.8022,52.7512 40.8022,58.4179 41.5,64.5C 40.7535,72.9557 40.5868,81.2891 41,89.5C 41.9,93.7984 43.4,97.7984 45.5,101.5C 44.1667,101.5 43.5,102.167 43.5,103.5C 40.9297,99.2568 39.2631,94.5902 38.5,89.5C 37.9899,86.0172 37.3232,82.6838 36.5,79.5C 35.3768,74.8884 35.3768,70.2218 36.5,65.5C 36.5,65.1667 36.5,64.8333 36.5,64.5C 38.4269,60.5621 39.9269,56.2288 41,51.5C 41.7403,49.6813 42.9069,48.3479 44.5,47.5 Z"/></g>
<g><path style="opacity:1" fill="#c4361e" d="M 96.5,68.5 C 94.1181,69.4797 92.1181,69.4797 90.5,68.5C 89.6236,68.3691 88.9569,68.7025 88.5,69.5C 86.977,73.2288 84.977,76.5621 82.5,79.5C 83.5588,75.2884 85.2254,71.2884 87.5,67.5C 90.7167,66.3944 93.7167,66.7277 96.5,68.5 Z"/></g>
<g><path style="opacity:1" fill="#3f1d17" d="M 90.5,68.5 C 90.5,68.8333 90.5,69.1667 90.5,69.5C 89.8333,71.8333 89.1667,74.1667 88.5,76.5C 87.5041,76.4142 86.6708,76.7476 86,77.5C 84.0421,83.1124 80.8754,87.7791 76.5,91.5C 76.5,90.8333 76.5,90.1667 76.5,89.5C 78.8308,86.4715 80.8308,83.1382 82.5,79.5C 84.977,76.5621 86.977,73.2288 88.5,69.5C 88.9569,68.7025 89.6236,68.3691 90.5,68.5 Z"/></g>
<g><path style="opacity:1" fill="#f7ccbe" d="M 36.5,65.5 C 35.3768,70.2218 35.3768,74.8884 36.5,79.5C 34.8986,82.5836 34.2319,85.917 34.5,89.5C 33.3454,82.6791 33.1787,75.6791 34,68.5C 34.8518,67.4293 35.6851,66.4293 36.5,65.5 Z"/></g>
<g><path style="opacity:1" fill="#fde3da" d="M 114.5,65.5 C 115.786,72.7161 118.786,79.0494 123.5,84.5C 123.5,84.8333 123.5,85.1667 123.5,85.5C 121.91,85.3718 120.577,84.7051 119.5,83.5C 117.418,80.8483 116.085,77.8483 115.5,74.5C 114.092,73.7568 112.759,72.9234 111.5,72C 112.369,70.5354 111.869,69.3687 110,68.5C 107.314,70.5109 104.314,71.8442 101,72.5C 99,71.8333 97,71.1667 95,70.5C 93.8926,70.5852 92.8926,70.9186 92,71.5C 91.7216,70.5842 91.2216,69.9175 90.5,69.5C 90.5,69.1667 90.5,68.8333 90.5,68.5C 92.1181,69.4797 94.1181,69.4797 96.5,68.5C 96.8333,68.5 97.1667,68.5 97.5,68.5C 97.9623,69.8799 98.9623,70.5466 100.5,70.5C 105.095,68.4143 109.762,66.7477 114.5,65.5 Z"/></g>
<g><path style="opacity:1" fill="#e13c1d" d="M 124.5,60.5 C 125.919,59.5489 127.585,59.2155 129.5,59.5C 127.365,61.0605 127.198,62.7271 129,64.5C 129.236,62.8807 130.069,61.8807 131.5,61.5C 130.738,63.9564 130.071,66.4564 129.5,69C 130.669,73.1792 130.669,77.3459 129.5,81.5C 128.098,81.8655 127.098,82.6988 126.5,84C 129.226,85.8776 131.226,88.3776 132.5,91.5C 131.833,91.5 131.167,91.5 130.5,91.5C 128.5,88.8333 126.167,86.5 123.5,84.5C 118.786,79.0494 115.786,72.7161 114.5,65.5C 115.496,65.4142 116.329,65.7476 117,66.5C 117.333,68.5 117.667,70.5 118,72.5C 119.113,73.7111 120.28,73.7111 121.5,72.5C 121.833,73 122.167,73.5 122.5,74C 120.579,77.8918 121.579,80.3918 125.5,81.5C 124.216,75.7374 123.216,69.9041 122.5,64C 122.528,62.9302 122.861,62.0968 123.5,61.5C 125.078,66.2771 125.911,71.2771 126,76.5C 126.249,77.624 126.749,78.624 127.5,79.5C 128.107,79.3764 128.44,79.0431 128.5,78.5C 128.763,74.3998 128.43,70.3998 127.5,66.5C 126.87,64.2504 125.87,62.2504 124.5,60.5 Z"/></g>
<g><path style="opacity:1" fill="#fed3be" d="M 127.5,66.5 C 128.43,70.3998 128.763,74.3998 128.5,78.5C 127.074,76.3211 126.408,73.8211 126.5,71C 126.508,69.2933 126.842,67.7933 127.5,66.5 Z"/></g>
<g><path style="opacity:1" fill="#eaa193" d="M 36.5,79.5 C 37.3232,82.6838 37.9899,86.0172 38.5,89.5C 38.0602,93.1718 37.7268,96.8384 37.5,100.5C 35.7617,97.12 34.7617,93.4533 34.5,89.5C 34.2319,85.917 34.8986,82.5836 36.5,79.5 Z"/></g>
<g><path style="opacity:1" fill="#e24221" d="M 156.5,89.5 C 156.66,87.8008 156.494,86.1341 156,84.5C 155.261,86.8888 154.095,88.8888 152.5,90.5C 152.575,87.7938 152.908,85.1272 153.5,82.5C 154.325,78.3528 154.825,74.0195 155,69.5C 156.016,70.6341 156.683,70.3008 157,68.5C 156.958,75.7016 156.791,82.7016 156.5,89.5 Z"/></g>
<g><path style="opacity:1" fill="#ed583b" d="M 150.5,67.5 C 151.492,67.3284 152.158,67.6618 152.5,68.5C 152.5,70.8333 152.5,73.1667 152.5,75.5C 152.622,79.8131 151.956,83.9798 150.5,88C 150.514,89.3847 150.848,90.5514 151.5,91.5C 151.013,92.4734 150.513,93.4734 150,94.5C 149.313,87.5829 149.813,80.7496 151.5,74C 151.347,71.7841 151.014,69.6175 150.5,67.5 Z"/></g>
<g><path style="opacity:1" fill="#feb097" d="M 152.5,75.5 C 153.468,77.6074 153.802,79.9407 153.5,82.5C 152.908,85.1272 152.575,87.7938 152.5,90.5C 151.833,90.5 151.5,90.8333 151.5,91.5C 150.848,90.5514 150.514,89.3847 150.5,88C 151.956,83.9798 152.622,79.8131 152.5,75.5 Z"/></g>
<g><path style="opacity:1" fill="#ffd0c0" d="M 163.5,85.5 C 163.829,88.2282 163.163,90.5615 161.5,92.5C 161.5,91.8333 161.5,91.1667 161.5,90.5C 161.5,90.1667 161.5,89.8333 161.5,89.5C 162.167,88.1667 162.833,86.8333 163.5,85.5 Z"/></g>
<g><path style="opacity:1" fill="#a3a5a5" d="M 85.5,83.5 C 85.6427,85.2624 85.3094,86.9291 84.5,88.5C 85.2427,89.1818 85.9094,89.8485 86.5,90.5C 84.8997,91.252 83.3997,92.252 82,93.5C 81.4906,89.5257 82.6573,86.1924 85.5,83.5 Z"/></g>
<g><path style="opacity:1" fill="#c7412d" d="M 130.5,91.5 C 131.167,91.5 131.833,91.5 132.5,91.5C 135.436,96.1053 139.102,100.105 143.5,103.5C 143.833,104.167 144.167,104.833 144.5,105.5C 144.167,105.5 143.833,105.5 143.5,105.5C 141.167,103.5 138.833,101.5 136.5,99.5C 134.115,97.1162 132.115,94.4495 130.5,91.5 Z"/></g>
<g><path style="opacity:1" fill="#9e9d9d" d="M 124.5,91.5 C 124.833,92.8333 125.167,94.1667 125.5,95.5C 124.833,95.1667 124.167,94.8333 123.5,94.5C 122.791,93.596 121.791,93.2627 120.5,93.5C 120.5,94.8333 120.5,96.1667 120.5,97.5C 119.521,94.3752 119.187,91.0419 119.5,87.5C 120.5,87.5 121.5,87.5 122.5,87.5C 122.527,89.1993 123.194,90.5326 124.5,91.5 Z"/></g>
<g><path style="opacity:1" fill="#b87163" d="M 123.5,84.5 C 126.167,86.5 128.5,88.8333 130.5,91.5C 132.115,94.4495 134.115,97.1162 136.5,99.5C 136.167,99.5 135.833,99.5 135.5,99.5C 132.084,97.2516 129.584,94.2516 128,90.5C 127.329,89.7476 126.496,89.4142 125.5,89.5C 124.4,88.3951 123.733,87.0618 123.5,85.5C 123.5,85.1667 123.5,84.8333 123.5,84.5 Z"/></g>
<g><path style="opacity:1" fill="#fad6c8" d="M 38.5,89.5 C 39.2631,94.5902 40.9297,99.2568 43.5,103.5C 43.8333,104.833 44.1667,106.167 44.5,107.5C 41.8061,105.473 39.4728,103.139 37.5,100.5C 37.7268,96.8384 38.0602,93.1718 38.5,89.5 Z"/></g>
<g><path style="opacity:1" fill="#6b6a6b" d="M 123.5,94.5 C 122.443,100.776 122.443,107.109 123.5,113.5C 121.57,110.601 119.903,107.434 118.5,104C 118.648,102.744 118.982,101.577 119.5,100.5C 120.11,99.609 120.443,98.609 120.5,97.5C 120.5,96.1667 120.5,94.8333 120.5,93.5C 121.791,93.2627 122.791,93.596 123.5,94.5 Z"/></g>
<g><path style="opacity:1" fill="#c83525" d="M 82.5,79.5 C 80.8308,83.1382 78.8308,86.4715 76.5,89.5C 73.0766,93.4665 69.7433,97.6332 66.5,102C 66.7284,102.399 67.0618,102.565 67.5,102.5C 67.5,102.833 67.5,103.167 67.5,103.5C 64.1153,106.557 60.7819,109.557 57.5,112.5C 57.5,111.167 57.5,109.833 57.5,108.5C 59.433,108.271 61.0997,107.438 62.5,106C 63.8228,105.184 64.4894,104.017 64.5,102.5C 67.4153,99.6735 69.582,96.3402 71,92.5C 75.0639,88.2756 78.8972,83.9423 82.5,79.5 Z"/></g>
<g><path style="opacity:1" fill="#c5c5c5" d="M 87.5,94.5 C 87.56,93.9569 87.8933,93.6236 88.5,93.5C 89.2811,94.7287 89.7811,96.062 90,97.5C 90.6891,96.6433 91.5224,95.9767 92.5,95.5C 93.782,96.9584 93.782,98.2918 92.5,99.5C 91.5084,99.3284 90.8417,99.6618 90.5,100.5C 90.5,100.833 90.5,101.167 90.5,101.5C 89.6851,102.429 88.8518,103.429 88,104.5C 88.2399,100.992 88.0732,97.659 87.5,94.5 Z"/></g>
<g><path style="opacity:1" fill="#7a2e24" d="M 76.5,89.5 C 76.5,90.1667 76.5,90.8333 76.5,91.5C 73.7392,95.3504 70.7392,99.0171 67.5,102.5C 67.0618,102.565 66.7284,102.399 66.5,102C 69.7433,97.6332 73.0766,93.4665 76.5,89.5 Z"/></g>
<g><path style="opacity:1" fill="#fab7a0" d="M 161.5,90.5 C 161.5,91.1667 161.5,91.8333 161.5,92.5C 159.966,99.9062 156.633,106.24 151.5,111.5C 147.411,111.412 144.744,109.412 143.5,105.5C 143.833,105.5 144.167,105.5 144.5,105.5C 147.107,110.44 150.274,111.107 154,107.5C 157.123,101.937 159.623,96.2701 161.5,90.5 Z"/></g>
<g><path style="opacity:1" fill="#cba59d" d="M 135.5,99.5 C 135.833,99.5 136.167,99.5 136.5,99.5C 138.833,101.5 141.167,103.5 143.5,105.5C 144.744,109.412 147.411,111.412 151.5,111.5C 151.577,112.75 152.244,113.583 153.5,114C 152.552,114.483 151.552,114.649 150.5,114.5C 150.5,113.833 150.167,113.5 149.5,113.5C 149.5,112.833 149.167,112.5 148.5,112.5C 143.188,109.188 138.855,104.855 135.5,99.5 Z"/></g>
<g><path style="opacity:1" fill="#464443" d="M 88.5,76.5 C 87.6948,78.9154 86.6948,81.2487 85.5,83.5C 82.6573,86.1924 81.4906,89.5257 82,93.5C 83.3997,92.252 84.8997,91.252 86.5,90.5C 86.5,91.5 86.5,92.5 86.5,93.5C 86.1667,93.5 85.8333,93.5 85.5,93.5C 81.7199,96.0503 79.7199,99.717 79.5,104.5C 79.0431,105.298 78.3764,105.631 77.5,105.5C 76.4928,106.828 75.1595,107.828 73.5,108.5C 72.8933,108.376 72.56,108.043 72.5,107.5C 72.6309,106.624 72.2975,105.957 71.5,105.5C 69.4788,106.855 67.8121,108.521 66.5,110.5C 65.596,109.791 65.2627,108.791 65.5,107.5C 66.2899,106.206 67.2899,105.039 68.5,104C 68.2716,103.601 67.9382,103.435 67.5,103.5C 67.5,103.167 67.5,102.833 67.5,102.5C 70.7392,99.0171 73.7392,95.3504 76.5,91.5C 80.8754,87.7791 84.0421,83.1124 86,77.5C 86.6708,76.7476 87.5041,76.4142 88.5,76.5 Z"/></g>
<g><path style="opacity:1" fill="#878887" d="M 85.5,93.5 C 85.8333,93.5 86.1667,93.5 86.5,93.5C 86.3284,94.4916 86.6618,95.1583 87.5,95.5C 86.8629,98.456 86.3629,101.456 86,104.5C 84.5462,107.071 83.3795,109.738 82.5,112.5C 81.7784,112.082 81.2784,111.416 81,110.5C 80.296,112.727 79.1294,113.06 77.5,111.5C 78.3351,110.057 79.6684,109.057 81.5,108.5C 82.0269,105.79 83.0269,104.123 84.5,103.5C 84.6159,100.14 84.9492,96.8067 85.5,93.5 Z"/></g>
<g><path style="opacity:1" fill="#676565" d="M 125.5,89.5 C 126.496,89.4142 127.329,89.7476 128,90.5C 129.584,94.2516 132.084,97.2516 135.5,99.5C 138.855,104.855 143.188,109.188 148.5,112.5C 149.167,112.5 149.5,112.833 149.5,113.5C 150.167,113.5 150.5,113.833 150.5,114.5C 150.5,114.833 150.5,115.167 150.5,115.5C 150.565,115.938 150.399,116.272 150,116.5C 147.356,114.69 144.856,112.69 142.5,110.5C 142.167,110.667 141.833,110.833 141.5,111C 144.017,113.09 144.017,114.923 141.5,116.5C 139.871,115.375 138.371,114.041 137,112.5C 136.667,114.047 137.167,115.38 138.5,116.5C 136.157,117.725 134.323,117.059 133,114.5C 132.383,115.449 132.549,116.282 133.5,117C 131.109,117.691 131.109,118.691 133.5,120C 132.906,120.464 132.239,120.631 131.5,120.5C 130.167,119.833 129.167,118.833 128.5,117.5C 129.653,116.687 129.653,115.687 128.5,114.5C 130.475,113.212 130.475,111.545 128.5,109.5C 129.325,108.614 130.325,108.281 131.5,108.5C 130.638,105.115 128.972,102.115 126.5,99.5C 127.664,99.8346 128.997,99.8346 130.5,99.5C 129.5,98.1667 128.5,96.8333 127.5,95.5C 126.571,96.5498 125.905,96.5498 125.5,95.5C 125.167,94.1667 124.833,92.8333 124.5,91.5C 125.338,91.1583 125.672,90.4916 125.5,89.5 Z"/></g>
<g><path style="opacity:1" fill="#dc3819" d="M 159.5,85.5 C 161.176,86.1834 161.843,87.5168 161.5,89.5C 161.5,89.8333 161.5,90.1667 161.5,90.5C 159.623,96.2701 157.123,101.937 154,107.5C 150.274,111.107 147.107,110.44 144.5,105.5C 144.167,104.833 143.833,104.167 143.5,103.5C 145.199,103.34 146.866,103.506 148.5,104C 147.167,104.667 147.167,105.333 148.5,106C 149.935,105.689 151.268,105.855 152.5,106.5C 154.6,102.686 156.6,98.8525 158.5,95C 158.011,93.8615 157.678,92.6948 157.5,91.5C 158.363,89.5786 159.029,87.5786 159.5,85.5 Z"/></g>
<g><path style="opacity:1" fill="#d99886" d="M 45.5,101.5 C 45.9752,103.784 46.9752,105.784 48.5,107.5C 48.2279,110.965 49.7279,113.965 53,116.5C 53.6917,117.437 53.525,118.103 52.5,118.5C 52.1667,118.5 51.8333,118.5 51.5,118.5C 51.573,116.973 50.9063,115.973 49.5,115.5C 47.0071,113.342 45.3405,110.676 44.5,107.5C 44.1667,106.167 43.8333,104.833 43.5,103.5C 43.5,102.167 44.1667,101.5 45.5,101.5 Z"/></g>
<g><path style="opacity:1" fill="#292929" d="M 85.5,93.5 C 84.9492,96.8067 84.6159,100.14 84.5,103.5C 83.8826,103.389 83.3826,103.056 83,102.5C 81.8818,104.758 80.3818,106.758 78.5,108.5C 77.6143,107.675 77.281,106.675 77.5,105.5C 78.3764,105.631 79.0431,105.298 79.5,104.5C 79.7199,99.717 81.7199,96.0503 85.5,93.5 Z"/></g>
<g><path style="opacity:1" fill="#464444" d="M 123.5,94.5 C 124.167,94.8333 124.833,95.1667 125.5,95.5C 125.905,96.5498 126.571,96.5498 127.5,95.5C 128.5,96.8333 129.5,98.1667 130.5,99.5C 128.997,99.8346 127.664,99.8346 126.5,99.5C 128.972,102.115 130.638,105.115 131.5,108.5C 130.325,108.281 129.325,108.614 128.5,109.5C 130.475,111.545 130.475,113.212 128.5,114.5C 129.653,115.687 129.653,116.687 128.5,117.5C 128.5,116.833 128.167,116.5 127.5,116.5C 126.952,114.468 125.619,113.468 123.5,113.5C 122.443,107.109 122.443,100.776 123.5,94.5 Z"/></g>
<g><path style="opacity:1" fill="#c3c3c3" d="M 104.5,101.5 C 103.237,105.791 103.57,110.124 105.5,114.5C 105.03,115.463 104.363,115.463 103.5,114.5C 102.931,109.557 100.931,108.557 97.5,111.5C 96.0755,113.031 95.4088,112.698 95.5,110.5C 95.5,109.167 95.5,107.833 95.5,106.5C 96.1577,105.602 96.8243,104.602 97.5,103.5C 98.1667,104.167 98.8333,104.833 99.5,105.5C 102.375,102.995 103.208,99.9945 102,96.5C 103.372,97.9101 104.205,99.5767 104.5,101.5 Z"/></g>
<g><path style="opacity:1" fill="#696969" d="M 87.5,94.5 C 88.0732,97.659 88.2399,100.992 88,104.5C 88.8518,103.429 89.6851,102.429 90.5,101.5C 89.9947,104.841 89.8281,108.174 90,111.5C 90.96,109.02 91.7934,106.52 92.5,104C 91.9152,102.698 91.2485,101.531 90.5,100.5C 90.8417,99.6618 91.5084,99.3284 92.5,99.5C 93.0115,102.022 94.0115,104.355 95.5,106.5C 95.5,107.833 95.5,109.167 95.5,110.5C 93.3055,113.388 91.9721,116.721 91.5,120.5C 89.6039,117.034 87.9373,113.367 86.5,109.5C 85.4305,110.91 84.0972,111.91 82.5,112.5C 83.3795,109.738 84.5462,107.071 86,104.5C 86.3629,101.456 86.8629,98.456 87.5,95.5C 87.5,95.1667 87.5,94.8333 87.5,94.5 Z"/></g>
<g><path style="opacity:1" fill="#202020" d="M 90.5,100.5 C 91.2485,101.531 91.9152,102.698 92.5,104C 91.7934,106.52 90.96,109.02 90,111.5C 89.8281,108.174 89.9947,104.841 90.5,101.5C 90.5,101.167 90.5,100.833 90.5,100.5 Z"/></g>
<g><path style="opacity:1" fill="#f7cbbc" d="M 67.5,103.5 C 67.9382,103.435 68.2716,103.601 68.5,104C 67.2899,105.039 66.2899,106.206 65.5,107.5C 61.8604,111.806 57.8604,115.806 53.5,119.5C 52.8333,119.5 52.5,119.167 52.5,118.5C 53.525,118.103 53.6917,117.437 53,116.5C 49.7279,113.965 48.2279,110.965 48.5,107.5C 49.7536,110.093 51.4202,112.427 53.5,114.5C 55.0517,115.798 56.0517,115.465 56.5,113.5C 57.1667,113.5 57.5,113.167 57.5,112.5C 60.7819,109.557 64.1153,106.557 67.5,103.5 Z"/></g>
<g><path style="opacity:1" fill="#383838" d="M 109.5,109.5 C 110.742,111.611 110.742,113.611 109.5,115.5C 107.5,113.471 107.167,111.138 108.5,108.5C 109.107,108.624 109.44,108.957 109.5,109.5 Z"/></g>
<g><path style="opacity:1" fill="#a2a2a2" d="M 72.5,107.5 C 68.5921,109.933 68.5921,111.1 72.5,111C 71.3044,111.654 71.3044,112.154 72.5,112.5C 75.8639,110.014 76.1973,110.347 73.5,113.5C 71.1878,115.146 69.1878,117.146 67.5,119.5C 63.6293,120.618 62.6293,119.285 64.5,115.5C 65.4787,113.855 66.812,112.521 68.5,111.5C 68.0431,110.702 67.3764,110.369 66.5,110.5C 67.8121,108.521 69.4788,106.855 71.5,105.5C 72.2975,105.957 72.6309,106.624 72.5,107.5 Z"/></g>
<g><path style="opacity:1" fill="#5d5c5c" d="M 84.5,103.5 C 83.0269,104.123 82.0269,105.79 81.5,108.5C 79.6684,109.057 78.3351,110.057 77.5,111.5C 76.1639,113.01 74.9973,114.677 74,116.5C 73.31,117.738 72.81,117.738 72.5,116.5C 73.1098,115.609 73.4431,114.609 73.5,113.5C 76.1973,110.347 75.8639,110.014 72.5,112.5C 71.3044,112.154 71.3044,111.654 72.5,111C 68.5921,111.1 68.5921,109.933 72.5,107.5C 72.56,108.043 72.8933,108.376 73.5,108.5C 75.1595,107.828 76.4928,106.828 77.5,105.5C 77.281,106.675 77.6143,107.675 78.5,108.5C 80.3818,106.758 81.8818,104.758 83,102.5C 83.3826,103.056 83.8826,103.389 84.5,103.5 Z"/></g>
<g><path style="opacity:1" fill="#a39b9b" d="M 65.5,107.5 C 65.2627,108.791 65.596,109.791 66.5,110.5C 62.6029,113.609 58.9362,116.943 55.5,120.5C 54.8333,120.5 54.1667,120.5 53.5,120.5C 53.5,120.167 53.5,119.833 53.5,119.5C 57.8604,115.806 61.8604,111.806 65.5,107.5 Z"/></g>
<g><path style="opacity:0.999" fill="#fcfcfc" d="M 66.5,110.5 C 67.3764,110.369 68.0431,110.702 68.5,111.5C 66.812,112.521 65.4787,113.855 64.5,115.5C 63.0267,116.072 61.6934,116.905 60.5,118C 61.8333,119.667 63.1667,121.333 64.5,123C 63.5494,123.718 63.3828,124.551 64,125.5C 65.9473,123.937 67.114,121.937 67.5,119.5C 69.1878,117.146 71.1878,115.146 73.5,113.5C 73.4431,114.609 73.1098,115.609 72.5,116.5C 70.5526,118.216 69.2193,120.383 68.5,123C 70.4939,122.343 71.9939,120.843 73,118.5C 73.4186,119.672 74.0853,120.672 75,121.5C 75.7869,120.289 76.4536,119.289 77,118.5C 78.2247,118.862 79.3914,119.362 80.5,120C 79.3832,123.073 79.2165,126.24 80,129.5C 81.6101,126.403 82.6101,123.069 83,119.5C 84,118.167 85,116.833 86,115.5C 86.582,119.165 85.7487,122.831 83.5,126.5C 84.2305,129.109 84.7305,131.776 85,134.5C 86.6667,131.833 88.3333,129.167 90,126.5C 90.2784,127.416 90.7784,128.082 91.5,128.5C 91.8628,130.805 93.0294,132.472 95,133.5C 97.0598,131.937 98.5598,129.937 99.5,127.5C 100.251,128.376 100.751,129.376 101,130.5C 101.662,128.187 102.162,125.854 102.5,123.5C 102.5,123.167 102.5,122.833 102.5,122.5C 103.117,122.389 103.617,122.056 104,121.5C 105.977,124.312 108.144,126.978 110.5,129.5C 110.88,127.979 111.046,126.313 111,124.5C 112,126.167 113,127.833 114,129.5C 115.604,128.351 117.27,128.351 119,129.5C 119.5,129.333 120,129.167 120.5,129C 118.478,125.323 118.145,121.49 119.5,117.5C 121.149,118.648 122.649,119.981 124,121.5C 124.333,120.833 124.667,120.167 125,119.5C 125.893,120.711 126.726,120.711 127.5,119.5C 126.347,118.313 126.347,117.313 127.5,116.5C 128.167,116.5 128.5,116.833 128.5,117.5C 129.167,118.833 130.167,119.833 131.5,120.5C 133.812,122.636 136.312,124.636 139,126.5C 139.333,125.833 139.667,125.167 140,124.5C 141.315,126.316 142.815,127.983 144.5,129.5C 146.553,127.064 148.386,127.398 150,130.5C 149.891,129.231 150.058,128.231 150.5,127.5C 151.167,127.833 151.833,128.167 152.5,128.5C 154.943,132.276 158.276,134.943 162.5,136.5C 165.479,138.812 168.146,141.479 170.5,144.5C 170.878,141.711 169.878,139.211 167.5,137C 168.167,136.333 168.833,136.333 169.5,137C 172.176,139.814 175.176,141.814 178.5,143C 177.5,142 176.5,141 175.5,140C 175.728,139.601 176.062,139.435 176.5,139.5C 178.062,139.733 179.395,140.4 180.5,141.5C 181.833,142.5 181.833,143.5 180.5,144.5C 178.023,145.12 178.023,146.12 180.5,147.5C 178.266,149.682 175.766,150.015 173,148.5C 171.403,149.885 169.57,150.551 167.5,150.5C 167.055,155.183 164.388,157.35 159.5,157C 157.76,158.517 156.094,160.017 154.5,161.5C 153.761,161.369 153.094,161.536 152.5,162C 151.472,163.632 150.472,165.132 149.5,166.5C 149.5,165.5 149.5,164.5 149.5,163.5C 146.564,162.594 143.564,161.928 140.5,161.5C 140.5,162.5 140.5,163.5 140.5,164.5C 140.167,164.5 139.833,164.5 139.5,164.5C 136.827,164.684 136.16,165.851 137.5,168C 136.584,168.278 135.918,168.778 135.5,169.5C 134.778,170.551 133.778,171.218 132.5,171.5C 131.596,172.209 131.263,173.209 131.5,174.5C 124.367,175.008 117.534,174.008 111,171.5C 108.855,171.396 107.021,172.063 105.5,173.5C 104.41,172.609 104.41,171.609 105.5,170.5C 104.441,169.304 103.107,168.637 101.5,168.5C 97.0103,169.372 92.677,170.705 88.5,172.5C 82.3576,171.096 76.6909,168.596 71.5,165C 69.5273,164.505 67.5273,164.338 65.5,164.5C 62.9345,160.992 59.6012,159.659 55.5,160.5C 55.8627,161.183 56.1961,161.85 56.5,162.5C 56.5,162.833 56.5,163.167 56.5,163.5C 55.7611,163.631 55.0944,163.464 54.5,163C 53.7734,161.601 53.2734,160.101 53,158.5C 52.6667,159.167 52.3333,159.833 52,160.5C 51.5604,158.924 50.727,157.59 49.5,156.5C 51.5713,155.024 52.5713,153.024 52.5,150.5C 49.4451,151.524 46.4451,152.857 43.5,154.5C 41.7869,154.121 40.7869,153.121 40.5,151.5C 41.5,151.167 42.1667,150.5 42.5,149.5C 44.2161,149.371 45.8828,149.038 47.5,148.5C 54.9111,150.582 62.2444,152.916 69.5,155.5C 71.6271,158.241 74.2937,159.241 77.5,158.5C 76.1468,157.476 75.4802,156.143 75.5,154.5C 78.1873,154.664 80.854,154.497 83.5,154C 84.056,153.617 84.3893,153.117 84.5,152.5C 87.2061,152.688 89.5395,153.688 91.5,155.5C 89.3926,154.966 87.3926,155.633 85.5,157.5C 87.7138,158.041 89.8805,158.374 92,158.5C 95.8001,154.484 95.3001,151.15 90.5,148.5C 89.7348,149.612 88.7348,150.279 87.5,150.5C 85.5,150.5 83.5,150.5 81.5,150.5C 79.4727,150.338 77.4727,150.505 75.5,151C 74.6634,152.011 74.33,153.178 74.5,154.5C 73.5,154.5 72.5,154.5 71.5,154.5C 67.3881,152.824 63.7215,150.324 60.5,147C 59.552,146.517 58.552,146.351 57.5,146.5C 54.0336,144.908 50.3669,144.242 46.5,144.5C 41.8756,142.836 37.209,141.169 32.5,139.5C 32.5,139.167 32.5,138.833 32.5,138.5C 32.2786,137.265 31.6119,136.265 30.5,135.5C 34.3718,133.398 38.3718,131.564 42.5,130C 46.505,126.129 50.8383,122.962 55.5,120.5C 58.9362,116.943 62.6029,113.609 66.5,110.5 Z"/></g>
<g><path style="opacity:1" fill="#c1c1c1" d="M 91.5,120.5 C 92.4972,120.47 93.1639,120.97 93.5,122C 92.3906,124.047 91.7239,126.213 91.5,128.5C 90.7784,128.082 90.2784,127.416 90,126.5C 88.3333,129.167 86.6667,131.833 85,134.5C 84.7305,131.776 84.2305,129.109 83.5,126.5C 85.7487,122.831 86.582,119.165 86,115.5C 85,116.833 84,118.167 83,119.5C 82.6101,123.069 81.6101,126.403 80,129.5C 79.2165,126.24 79.3832,123.073 80.5,120C 79.3914,119.362 78.2247,118.862 77,118.5C 76.4536,119.289 75.7869,120.289 75,121.5C 74.0853,120.672 73.4186,119.672 73,118.5C 71.9939,120.843 70.4939,122.343 68.5,123C 69.2193,120.383 70.5526,118.216 72.5,116.5C 72.81,117.738 73.31,117.738 74,116.5C 74.9973,114.677 76.1639,113.01 77.5,111.5C 79.1294,113.06 80.296,112.727 81,110.5C 81.2784,111.416 81.7784,112.082 82.5,112.5C 84.0972,111.91 85.4305,110.91 86.5,109.5C 87.9373,113.367 89.6039,117.034 91.5,120.5 Z"/></g>
<g><path style="opacity:1" fill="#8d8d8d" d="M 112.5,97.5 C 111.569,99.6457 111.903,101.812 113.5,104C 110.734,104.691 110.067,106.191 111.5,108.5C 111.043,109.298 110.376,109.631 109.5,109.5C 109.44,108.957 109.107,108.624 108.5,108.5C 107.167,111.138 107.5,113.471 109.5,115.5C 110.09,116.766 110.59,118.099 111,119.5C 111.333,116.833 111.667,114.167 112,111.5C 112.974,113.878 113.641,113.544 114,110.5C 115.145,110.619 116.312,110.952 117.5,111.5C 118.864,115.394 118.031,116.06 115,113.5C 114.586,113.957 114.086,114.291 113.5,114.5C 112.623,117.825 112.456,121.158 113,124.5C 111.812,123.437 111.312,122.103 111.5,120.5C 108.779,120.037 106.112,119.371 103.5,118.5C 103.5,117.167 103.5,115.833 103.5,114.5C 104.363,115.463 105.03,115.463 105.5,114.5C 103.57,110.124 103.237,105.791 104.5,101.5C 105.504,102.683 106.338,104.016 107,105.5C 108.122,104.087 109.288,103.254 110.5,103C 109.865,98.0848 108.865,93.2515 107.5,88.5C 107.833,88.1667 108.167,87.8333 108.5,87.5C 109.836,90.8535 111.169,94.1868 112.5,97.5 Z"/></g>
<g><path style="opacity:1" fill="#5f5f5f" d="M 112.5,97.5 C 113.11,98.391 113.443,99.391 113.5,100.5C 115.683,103.864 117.016,107.53 117.5,111.5C 116.312,110.952 115.145,110.619 114,110.5C 113.641,113.544 112.974,113.878 112,111.5C 111.667,114.167 111.333,116.833 111,119.5C 110.59,118.099 110.09,116.766 109.5,115.5C 110.742,113.611 110.742,111.611 109.5,109.5C 110.376,109.631 111.043,109.298 111.5,108.5C 110.067,106.191 110.734,104.691 113.5,104C 111.903,101.812 111.569,99.6457 112.5,97.5 Z"/></g>
<g><path style="opacity:1" fill="#feedd9" d="M 49.5,115.5 C 50.9063,115.973 51.573,116.973 51.5,118.5C 50.8333,118.5 50.1667,118.5 49.5,118.5C 49.5,117.5 49.5,116.5 49.5,115.5 Z"/></g>
<g><path style="opacity:1" fill="#686868" d="M 103.5,114.5 C 103.5,115.833 103.5,117.167 103.5,118.5C 102.89,119.391 102.557,120.391 102.5,121.5C 101.71,120.391 101.21,119.058 101,117.5C 100.417,123.348 98.2503,124.348 94.5,120.5C 95.1161,117.318 96.1161,114.318 97.5,111.5C 100.931,108.557 102.931,109.557 103.5,114.5 Z"/></g>
<g><path style="opacity:1" fill="#d1d2d1" d="M 64.5,115.5 C 62.6293,119.285 63.6293,120.618 67.5,119.5C 67.114,121.937 65.9473,123.937 64,125.5C 63.3828,124.551 63.5494,123.718 64.5,123C 63.1667,121.333 61.8333,119.667 60.5,118C 61.6934,116.905 63.0267,116.072 64.5,115.5 Z"/></g>
<g><path style="opacity:1" fill="#999999" d="M 95.5,110.5 C 95.4088,112.698 96.0755,113.031 97.5,111.5C 96.1161,114.318 95.1161,117.318 94.5,120.5C 98.2503,124.348 100.417,123.348 101,117.5C 101.21,119.058 101.71,120.391 102.5,121.5C 102.5,121.833 102.5,122.167 102.5,122.5C 102.5,122.833 102.5,123.167 102.5,123.5C 101.883,123.389 101.383,123.056 101,122.5C 98.655,124.514 96.655,126.847 95,129.5C 94.8595,127.744 95.3595,126.078 96.5,124.5C 96.1667,124.167 95.8333,123.833 95.5,123.5C 94.1128,125.21 92.7794,126.877 91.5,128.5C 91.7239,126.213 92.3906,124.047 93.5,122C 93.1639,120.97 92.4972,120.47 91.5,120.5C 91.9721,116.721 93.3055,113.388 95.5,110.5 Z"/></g>
<g><path style="opacity:1" fill="#c4c4c4" d="M 119.5,100.5 C 118.982,101.577 118.648,102.744 118.5,104C 119.903,107.434 121.57,110.601 123.5,113.5C 125.619,113.468 126.952,114.468 127.5,116.5C 126.347,117.313 126.347,118.313 127.5,119.5C 126.726,120.711 125.893,120.711 125,119.5C 124.667,120.167 124.333,120.833 124,121.5C 122.649,119.981 121.149,118.648 119.5,117.5C 118.145,121.49 118.478,125.323 120.5,129C 120,129.167 119.5,129.333 119,129.5C 117.27,128.351 115.604,128.351 114,129.5C 113,127.833 112,126.167 111,124.5C 111.046,126.313 110.88,127.979 110.5,129.5C 108.144,126.978 105.977,124.312 104,121.5C 103.617,122.056 103.117,122.389 102.5,122.5C 102.5,122.167 102.5,121.833 102.5,121.5C 102.557,120.391 102.89,119.391 103.5,118.5C 106.112,119.371 108.779,120.037 111.5,120.5C 111.312,122.103 111.812,123.437 113,124.5C 112.456,121.158 112.623,117.825 113.5,114.5C 114.086,114.291 114.586,113.957 115,113.5C 118.031,116.06 118.864,115.394 117.5,111.5C 117.016,107.53 115.683,103.864 113.5,100.5C 115.03,99.9332 116.53,99.2666 118,98.5C 118.278,99.4158 118.778,100.082 119.5,100.5 Z"/></g>
<g><path style="opacity:1" fill="#d2d2d2" d="M 141.5,116.5 C 143.5,119.167 145.833,121.5 148.5,123.5C 148.733,125.062 149.4,126.395 150.5,127.5C 150.058,128.231 149.891,129.231 150,130.5C 148.386,127.398 146.553,127.064 144.5,129.5C 142.815,127.983 141.315,126.316 140,124.5C 139.667,125.167 139.333,125.833 139,126.5C 136.312,124.636 133.812,122.636 131.5,120.5C 132.239,120.631 132.906,120.464 133.5,120C 131.109,118.691 131.109,117.691 133.5,117C 132.549,116.282 132.383,115.449 133,114.5C 134.323,117.059 136.157,117.725 138.5,116.5C 137.167,115.38 136.667,114.047 137,112.5C 138.371,114.041 139.871,115.375 141.5,116.5 Z"/></g>
<g><path style="opacity:1" fill="#bbbbbb" d="M 150.5,115.5 C 155.016,118.256 159.349,121.256 163.5,124.5C 158.087,126.307 153.587,124.974 150,120.5C 149.487,121.527 148.987,122.527 148.5,123.5C 145.833,121.5 143.5,119.167 141.5,116.5C 144.017,114.923 144.017,113.09 141.5,111C 141.833,110.833 142.167,110.667 142.5,110.5C 144.856,112.69 147.356,114.69 150,116.5C 150.399,116.272 150.565,115.938 150.5,115.5 Z"/></g>
<g><path style="opacity:1" fill="#949594" d="M 163.5,124.5 C 165.404,124.738 166.738,125.738 167.5,127.5C 165.795,128.535 164.128,128.535 162.5,127.5C 161.833,128.167 161.167,128.833 160.5,129.5C 158.503,128.253 156.503,127.419 154.5,127C 157.008,131.444 156.508,131.611 153,127.5C 152.601,127.728 152.435,128.062 152.5,128.5C 151.833,128.167 151.167,127.833 150.5,127.5C 149.4,126.395 148.733,125.062 148.5,123.5C 148.987,122.527 149.487,121.527 150,120.5C 153.587,124.974 158.087,126.307 163.5,124.5 Z"/></g>
<g><path style="opacity:1" fill="#c6c2c1" d="M 49.5,118.5 C 50.287,120.104 51.6203,120.771 53.5,120.5C 54.1667,120.5 54.8333,120.5 55.5,120.5C 50.8383,122.962 46.505,126.129 42.5,130C 38.3718,131.564 34.3718,133.398 30.5,135.5C 31.6119,136.265 32.2786,137.265 32.5,138.5C 28.0819,139.039 24.0819,140.705 20.5,143.5C 20.1667,143.5 19.8333,143.5 19.5,143.5C 18.2368,139.934 19.4034,138.934 23,140.5C 23.49,139.207 23.6567,137.873 23.5,136.5C 32.7226,133.597 41.0559,129.097 48.5,123C 46.393,121.736 45.393,119.903 45.5,117.5C 46.9587,117.433 48.2921,117.766 49.5,118.5 Z"/></g>
<g><path style="opacity:1" fill="#cccccc" d="M 102.5,123.5 C 102.162,125.854 101.662,128.187 101,130.5C 100.751,129.376 100.251,128.376 99.5,127.5C 98.5598,129.937 97.0598,131.937 95,133.5C 93.0294,132.472 91.8628,130.805 91.5,128.5C 92.7794,126.877 94.1128,125.21 95.5,123.5C 95.8333,123.833 96.1667,124.167 96.5,124.5C 95.3595,126.078 94.8595,127.744 95,129.5C 96.655,126.847 98.655,124.514 101,122.5C 101.383,123.056 101.883,123.389 102.5,123.5 Z"/></g>
<g><path style="opacity:1" fill="#6a6a6a" d="M 167.5,127.5 C 171.872,131.874 176.539,135.874 181.5,139.5C 181.672,140.492 181.338,141.158 180.5,141.5C 179.395,140.4 178.062,139.733 176.5,139.5C 172.734,137.762 169.4,135.262 166.5,132C 165.552,131.517 164.552,131.351 163.5,131.5C 163.784,133.415 163.451,135.081 162.5,136.5C 158.276,134.943 154.943,132.276 152.5,128.5C 152.435,128.062 152.601,127.728 153,127.5C 156.508,131.611 157.008,131.444 154.5,127C 156.503,127.419 158.503,128.253 160.5,129.5C 161.167,128.833 161.833,128.167 162.5,127.5C 164.128,128.535 165.795,128.535 167.5,127.5 Z"/></g>
<g><path style="opacity:1" fill="#bdbdbd" d="M 176.5,139.5 C 176.062,139.435 175.728,139.601 175.5,140C 176.5,141 177.5,142 178.5,143C 175.176,141.814 172.176,139.814 169.5,137C 168.833,136.333 168.167,136.333 167.5,137C 169.878,139.211 170.878,141.711 170.5,144.5C 168.146,141.479 165.479,138.812 162.5,136.5C 163.451,135.081 163.784,133.415 163.5,131.5C 164.552,131.351 165.552,131.517 166.5,132C 169.4,135.262 172.734,137.762 176.5,139.5 Z"/></g>
<g><path style="opacity:1" fill="#414141" d="M 32.5,138.5 C 32.5,138.833 32.5,139.167 32.5,139.5C 31.5,140.167 30.5,140.833 29.5,141.5C 29.8333,142.167 30.1667,142.833 30.5,143.5C 30.6309,144.376 30.2975,145.043 29.5,145.5C 27.3379,147.02 25.0046,148.02 22.5,148.5C 21.6016,147.842 20.6016,147.176 19.5,146.5C 20.1272,145.583 20.4606,144.583 20.5,143.5C 24.0819,140.705 28.0819,139.039 32.5,138.5 Z"/></g>
<g><path style="opacity:1" fill="#d9d9d9" d="M 29.5,141.5 C 31.5,141.833 33.5,142.167 35.5,142.5C 35.3433,143.873 35.51,145.207 36,146.5C 36.4512,144.071 37.2845,143.904 38.5,146C 33.8152,151.151 31.1486,150.318 30.5,143.5C 30.1667,142.833 29.8333,142.167 29.5,141.5 Z"/></g>
<g><path style="opacity:1" fill="#919191" d="M 32.5,139.5 C 37.209,141.169 41.8756,142.836 46.5,144.5C 44.7935,145.873 43.4602,147.539 42.5,149.5C 42.1667,150.5 41.5,151.167 40.5,151.5C 37.9954,151.98 35.6621,152.98 33.5,154.5C 30.0818,152.848 26.4151,152.015 22.5,152C 23.3279,151.085 24.3279,150.419 25.5,150C 24.2625,149.768 23.2625,149.268 22.5,148.5C 25.0046,148.02 27.3379,147.02 29.5,145.5C 30.2975,145.043 30.6309,144.376 30.5,143.5C 31.1486,150.318 33.8152,151.151 38.5,146C 37.2845,143.904 36.4512,144.071 36,146.5C 35.51,145.207 35.3433,143.873 35.5,142.5C 33.5,142.167 31.5,141.833 29.5,141.5C 30.5,140.833 31.5,140.167 32.5,139.5 Z"/></g>
<g><path style="opacity:1" fill="#585858" d="M 46.5,144.5 C 50.3669,144.242 54.0336,144.908 57.5,146.5C 57.9175,147.222 58.5842,147.722 59.5,148C 55.2433,147.395 51.2433,147.562 47.5,148.5C 45.8828,149.038 44.2161,149.371 42.5,149.5C 43.4602,147.539 44.7935,145.873 46.5,144.5 Z"/></g>
<g><path style="opacity:1" fill="#9b9b9b" d="M 19.5,143.5 C 19.8333,143.5 20.1667,143.5 20.5,143.5C 20.4606,144.583 20.1272,145.583 19.5,146.5C 20.6016,147.176 21.6016,147.842 22.5,148.5C 17.994,150.294 13.3273,151.127 8.5,151C 10.0267,149.968 11.36,148.801 12.5,147.5C 11.3744,146.142 11.3744,144.808 12.5,143.5C 14.8228,144.672 17.1561,144.672 19.5,143.5 Z"/></g>
<g><path style="opacity:1" fill="#8f8f8f" d="M 57.5,146.5 C 58.552,146.351 59.552,146.517 60.5,147C 63.7215,150.324 67.3881,152.824 71.5,154.5C 71.1583,155.338 70.4916,155.672 69.5,155.5C 62.2444,152.916 54.9111,150.582 47.5,148.5C 51.2433,147.562 55.2433,147.395 59.5,148C 58.5842,147.722 57.9175,147.222 57.5,146.5 Z"/></g>
<g><path style="opacity:1" fill="#727272" d="M 81.5,150.5 C 83.5,150.5 85.5,150.5 87.5,150.5C 88.5417,151.791 89.7083,151.791 91,150.5C 92.4544,152.244 92.6211,153.911 91.5,155.5C 89.5395,153.688 87.2061,152.688 84.5,152.5C 82.8212,152.715 81.8212,152.048 81.5,150.5 Z"/></g>
<g><path style="opacity:1" fill="#b9b9b9" d="M 81.5,150.5 C 81.8212,152.048 82.8212,152.715 84.5,152.5C 84.3893,153.117 84.056,153.617 83.5,154C 80.854,154.497 78.1873,154.664 75.5,154.5C 75.4802,156.143 76.1468,157.476 77.5,158.5C 74.2937,159.241 71.6271,158.241 69.5,155.5C 70.4916,155.672 71.1583,155.338 71.5,154.5C 72.5,154.5 73.5,154.5 74.5,154.5C 74.33,153.178 74.6634,152.011 75.5,151C 77.4727,150.505 79.4727,150.338 81.5,150.5 Z"/></g>
<g><path style="opacity:1" fill="#dedfde" d="M 189.5,152.5 C 190.833,153.167 190.833,153.167 189.5,152.5 Z"/></g>
<g><path style="opacity:1" fill="#969696" d="M 180.5,144.5 C 184.554,144.21 185.054,144.877 182,146.5C 181.206,149.149 179.706,151.316 177.5,153C 174.304,153.645 171.304,154.812 168.5,156.5C 173.512,157.269 178.512,157.935 183.5,158.5C 183.586,159.496 183.252,160.329 182.5,161C 179.583,163.431 176.25,164.598 172.5,164.5C 170.712,163.378 168.712,163.211 166.5,164C 163.146,165.204 160.646,166.704 159,168.5C 156.774,168.022 154.608,167.355 152.5,166.5C 154.401,165.769 156.401,165.769 158.5,166.5C 158.5,165.5 158.5,164.5 158.5,163.5C 160.467,163.739 162.301,163.406 164,162.5C 164.436,160.704 163.769,159.371 162,158.5C 159.766,159.701 157.599,161.035 155.5,162.5C 154.893,162.376 154.56,162.043 154.5,161.5C 156.094,160.017 157.76,158.517 159.5,157C 164.388,157.35 167.055,155.183 167.5,150.5C 169.57,150.551 171.403,149.885 173,148.5C 175.766,150.015 178.266,149.682 180.5,147.5C 178.023,146.12 178.023,145.12 180.5,144.5 Z"/></g>
<g><path style="opacity:1" fill="#c2c2c2" d="M 181.5,139.5 C 185.664,141.841 189.997,143.008 194.5,143C 191.956,145.222 191.956,147.389 194.5,149.5C 193.18,151.27 191.68,151.603 190,150.5C 188.454,151.503 188.287,152.503 189.5,153.5C 189.611,154.117 189.944,154.617 190.5,155C 188.114,156.193 185.78,157.36 183.5,158.5C 178.512,157.935 173.512,157.269 168.5,156.5C 171.304,154.812 174.304,153.645 177.5,153C 179.706,151.316 181.206,149.149 182,146.5C 185.054,144.877 184.554,144.21 180.5,144.5C 181.833,143.5 181.833,142.5 180.5,141.5C 181.338,141.158 181.672,140.492 181.5,139.5 Z"/></g>
<g><path style="opacity:1" fill="#c9c9c9" d="M 91.5,155.5 C 92.6211,153.911 92.4544,152.244 91,150.5C 89.7083,151.791 88.5417,151.791 87.5,150.5C 88.7348,150.279 89.7348,149.612 90.5,148.5C 95.3001,151.15 95.8001,154.484 92,158.5C 89.8805,158.374 87.7138,158.041 85.5,157.5C 87.3926,155.633 89.3926,154.966 91.5,155.5 Z"/></g>
<g><path style="opacity:0.985" fill="#d5d5d5" d="M 12.5,147.5 C 11.36,148.801 10.0267,149.968 8.5,151C 13.3273,151.127 17.994,150.294 22.5,148.5C 23.2625,149.268 24.2625,149.768 25.5,150C 24.3279,150.419 23.3279,151.085 22.5,152C 26.4151,152.015 30.0818,152.848 33.5,154.5C 35.6621,152.98 37.9954,151.98 40.5,151.5C 40.7869,153.121 41.7869,154.121 43.5,154.5C 46.4451,152.857 49.4451,151.524 52.5,150.5C 52.5713,153.024 51.5713,155.024 49.5,156.5C 50.727,157.59 51.5604,158.924 52,160.5C 52.3333,159.833 52.6667,159.167 53,158.5C 53.2734,160.101 53.7734,161.601 54.5,163C 55.0944,163.464 55.7611,163.631 56.5,163.5C 55.205,164.488 53.8717,165.488 52.5,166.5C 52.5,165.5 52.5,164.5 52.5,163.5C 49.2341,163.371 46.2341,162.371 43.5,160.5C 39.3051,160.941 35.4718,162.274 32,164.5C 28.3596,163.054 24.693,162.721 21,163.5C 16.2375,161.608 16.4041,160.108 21.5,159C 15.6484,158.694 15.1484,157.194 20,154.5C 20.6172,153.551 20.4506,152.718 19.5,152C 17.9526,152.713 16.2859,153.546 14.5,154.5C 11.7133,153.598 9.0466,153.265 6.5,153.5C 5.67443,152.549 5.50776,151.549 6,150.5C 8,149.833 9.33333,148.5 10,146.5C 10.6708,147.252 11.5041,147.586 12.5,147.5 Z"/></g>
<g><path style="opacity:1" fill="#808080" d="M 95.5,156.5 C 97.337,156.639 97.6704,157.306 96.5,158.5C 95.7025,158.043 95.3691,157.376 95.5,156.5 Z"/></g>
<g><path style="opacity:1" fill="#7c7c7c" d="M 65.5,164.5 C 61.9482,164.715 59.6148,163.715 58.5,161.5C 57.8165,161.863 57.1499,162.196 56.5,162.5C 56.1961,161.85 55.8627,161.183 55.5,160.5C 59.6012,159.659 62.9345,160.992 65.5,164.5 Z"/></g>
<g><path style="opacity:1" fill="#757575" d="M 101.5,160.5 C 103.089,159.379 104.756,159.546 106.5,161C 104.735,161.64 103.068,161.473 101.5,160.5 Z"/></g>
<g><path style="opacity:0.569" fill="#d4d4d4" d="M 85.5,162.5 C 86.7562,162.461 87.7562,162.961 88.5,164C 86.3247,165.181 84.158,166.348 82,167.5C 80.4634,166.886 79.13,166.886 78,167.5C 75.8322,166.371 75.3322,164.871 76.5,163C 75.8333,162.667 75.1667,162.333 74.5,162C 78.3157,160.344 81.9824,160.511 85.5,162.5 Z"/></g>
<g><path style="opacity:1" fill="#b3b3b3" d="M 149.5,166.5 C 149.167,166.5 148.833,166.5 148.5,166.5C 146.365,164.631 143.698,163.964 140.5,164.5C 140.5,163.5 140.5,162.5 140.5,161.5C 143.564,161.928 146.564,162.594 149.5,163.5C 149.5,164.5 149.5,165.5 149.5,166.5 Z"/></g>
<g><path style="opacity:1" fill="#b3b4b3" d="M 197.5,163.5 C 198.833,164.167 198.833,164.167 197.5,163.5 Z"/></g>
<g><path style="opacity:1" fill="#3b3b3b" d="M 65.5,164.5 C 63.4903,165.693 61.3237,165.693 59,164.5C 55.8036,165.714 53.3036,167.714 51.5,170.5C 50.4376,169.575 50.4376,168.575 51.5,167.5C 52.1667,167.5 52.5,167.167 52.5,166.5C 53.8717,165.488 55.205,164.488 56.5,163.5C 56.5,163.167 56.5,162.833 56.5,162.5C 57.1499,162.196 57.8165,161.863 58.5,161.5C 59.6148,163.715 61.9482,164.715 65.5,164.5 Z"/></g>
<g><path style="opacity:1" fill="#9d9d9d" d="M 139.5,164.5 C 141.314,168.37 139.981,170.037 135.5,169.5C 135.918,168.778 136.584,168.278 137.5,168C 136.16,165.851 136.827,164.684 139.5,164.5 Z"/></g>
<g><path style="opacity:0.982" fill="#d1d1d1" d="M 172.5,164.5 C 169.526,165.651 166.526,166.817 163.5,168C 166.941,168.836 167.108,169.669 164,170.5C 158.047,169.948 151.88,169.948 145.5,170.5C 145.5,170.167 145.5,169.833 145.5,169.5C 146.167,169.5 146.5,169.167 146.5,168.5C 148.027,168.573 149.027,167.906 149.5,166.5C 150.472,165.132 151.472,163.632 152.5,162C 153.094,161.536 153.761,161.369 154.5,161.5C 154.56,162.043 154.893,162.376 155.5,162.5C 157.599,161.035 159.766,159.701 162,158.5C 163.769,159.371 164.436,160.704 164,162.5C 162.301,163.406 160.467,163.739 158.5,163.5C 158.5,164.5 158.5,165.5 158.5,166.5C 156.401,165.769 154.401,165.769 152.5,166.5C 154.608,167.355 156.774,168.022 159,168.5C 160.646,166.704 163.146,165.204 166.5,164C 168.712,163.211 170.712,163.378 172.5,164.5 Z"/></g>
<g><path style="opacity:1" fill="#565656" d="M 139.5,164.5 C 139.833,164.5 140.167,164.5 140.5,164.5C 143.698,163.964 146.365,164.631 148.5,166.5C 147.167,166.5 146.5,167.167 146.5,168.5C 145.833,168.5 145.5,168.833 145.5,169.5C 141.948,170.276 138.614,171.609 135.5,173.5C 133.821,173.715 132.821,173.048 132.5,171.5C 133.778,171.218 134.778,170.551 135.5,169.5C 139.981,170.037 141.314,168.37 139.5,164.5 Z"/></g>
<g><path style="opacity:0.855" fill="#dfe0df" d="M 145.5,170.5 C 144.833,171.167 144.833,171.167 145.5,170.5 Z"/></g>
<g><path style="opacity:1" fill="#b7b7b7" d="M 33.5,170.5 C 31.3021,171.165 28.9688,171.832 26.5,172.5C 30.1386,173.46 33.8053,173.46 37.5,172.5C 39.6976,172.875 41.6976,173.542 43.5,174.5C 39.4699,174.273 35.3032,174.607 31,175.5C 26.1902,174.807 21.3569,174.307 16.5,174C 16.1667,173.667 15.8333,173.333 15.5,173C 21.37,171.199 27.37,170.365 33.5,170.5 Z"/></g>
<g><path style="opacity:1" fill="#717171" d="M 39.5,166.5 C 38.2086,167.473 38.2086,168.473 39.5,169.5C 37.9223,170.298 36.2556,170.798 34.5,171C 35.7375,171.232 36.7375,171.732 37.5,172.5C 33.8053,173.46 30.1386,173.46 26.5,172.5C 28.9688,171.832 31.3021,171.165 33.5,170.5C 34.1216,167.224 36.1216,165.891 39.5,166.5 Z"/></g>
<g><path style="opacity:1" fill="#4a4a4a" d="M 39.5,166.5 C 41.5273,166.338 43.5273,166.505 45.5,167C 44.269,168.183 44.269,169.349 45.5,170.5C 46.4943,166.519 47.4943,166.519 48.5,170.5C 47.4756,171.852 46.4756,173.185 45.5,174.5C 44.8333,175.833 44.1667,175.833 43.5,174.5C 41.6976,173.542 39.6976,172.875 37.5,172.5C 36.7375,171.732 35.7375,171.232 34.5,171C 36.2556,170.798 37.9223,170.298 39.5,169.5C 38.2086,168.473 38.2086,167.473 39.5,166.5 Z"/></g>
<g><path style="opacity:1" fill="#ababab" d="M 51.5,167.5 C 50.4376,168.575 50.4376,169.575 51.5,170.5C 53.3036,167.714 55.8036,165.714 59,164.5C 61.3237,165.693 63.4903,165.693 65.5,164.5C 67.5273,164.338 69.5273,164.505 71.5,165C 76.6909,168.596 82.3576,171.096 88.5,172.5C 92.677,170.705 97.0103,169.372 101.5,168.5C 103.107,168.637 104.441,169.304 105.5,170.5C 104.41,171.609 104.41,172.609 105.5,173.5C 107.021,172.063 108.855,171.396 111,171.5C 117.534,174.008 124.367,175.008 131.5,174.5C 131.263,173.209 131.596,172.209 132.5,171.5C 132.821,173.048 133.821,173.715 135.5,173.5C 131.05,176.764 126.217,179.431 121,181.5C 114.881,180.562 108.714,180.228 102.5,180.5C 104.1,179.356 105.767,178.189 107.5,177C 106.906,176.536 106.239,176.369 105.5,176.5C 106.209,175.596 107.209,175.263 108.5,175.5C 106.302,174.835 103.969,174.168 101.5,173.5C 103.891,172.191 103.891,171.191 101.5,170.5C 96.9139,171.001 92.2472,172.001 87.5,173.5C 80.4552,170.874 73.2885,168.541 66,166.5C 65.3292,167.252 64.4959,167.586 63.5,167.5C 63.5,166.833 63.1667,166.5 62.5,166.5C 61.1304,168.172 59.7971,169.839 58.5,171.5C 55.5272,173.325 52.3605,173.658 49,172.5C 48.1841,173.823 47.0174,174.489 45.5,174.5C 46.4756,173.185 47.4756,171.852 48.5,170.5C 47.4943,166.519 46.4943,166.519 45.5,170.5C 44.269,169.349 44.269,168.183 45.5,167C 43.5273,166.505 41.5273,166.338 39.5,166.5C 41.3432,165.717 43.3432,165.05 45.5,164.5C 47.1296,166.264 49.1296,167.264 51.5,167.5 Z M 114.5,177.5 C 113.833,177.5 113.167,177.5 112.5,177.5C 111.167,176.833 109.833,176.167 108.5,175.5C 113.094,174.809 117.594,174.809 122,175.5C 122.167,175.833 122.333,176.167 122.5,176.5C 119.914,177.48 117.247,177.813 114.5,177.5 Z"/></g>
<g><path style="opacity:0.982" fill="#dbdbdb" d="M 62.5,166.5 C 63.1667,166.5 63.5,166.833 63.5,167.5C 64.6085,168.29 65.9419,168.79 67.5,169C 64.7458,171.362 61.7458,172.196 58.5,171.5C 59.7971,169.839 61.1304,168.172 62.5,166.5 Z"/></g>
<g><path style="opacity:1" fill="#dadbda" d="M 137.5,173.5 C 138.833,174.167 138.833,174.167 137.5,173.5 Z"/></g>
<g><path style="opacity:1" fill="#d6d7d6" d="M 141.5,173.5 C 142.833,174.167 142.833,174.167 141.5,173.5 Z"/></g>
<g><path style="opacity:1" fill="#dddedd" d="M 71.5,174.5 C 72.8333,175.167 72.8333,175.167 71.5,174.5 Z"/></g>
<g><path style="opacity:1" fill="#dcdddc" d="M 156.5,174.5 C 157.833,175.167 157.833,175.167 156.5,174.5 Z"/></g>
<g><path style="opacity:1" fill="#e2e2e2" d="M 152.5,174.5 C 153.756,174.461 154.756,174.961 155.5,176C 154.167,176.667 152.833,176.667 151.5,176C 152.056,175.617 152.389,175.117 152.5,174.5 Z"/></g>
<g><path style="opacity:1" fill="#464646" d="M 112.5,177.5 C 113.167,177.5 113.833,177.5 114.5,177.5C 116.631,178.314 118.964,178.814 121.5,179C 117.095,179.696 112.761,179.363 108.5,178C 109.793,177.51 111.127,177.343 112.5,177.5 Z"/></g>
<g><path style="opacity:1" fill="#696969" d="M 105.5,176.5 C 106.239,176.369 106.906,176.536 107.5,177C 105.767,178.189 104.1,179.356 102.5,180.5C 101.5,180.5 100.5,180.5 99.5,180.5C 98.209,180.737 97.209,180.404 96.5,179.5C 99.6727,178.958 102.673,177.958 105.5,176.5 Z"/></g>
<g><path style="opacity:1" fill="#aeaeae" d="M 96.5,179.5 C 97.209,180.404 98.209,180.737 99.5,180.5C 96.587,182.481 93.587,182.647 90.5,181C 92.5183,180.495 94.5183,179.995 96.5,179.5 Z"/></g>
<g><path style="opacity:1" fill="#dcdcdc" d="M 84.5,181.5 C 85.0431,181.56 85.3764,181.893 85.5,182.5C 84.277,183.614 82.9437,183.781 81.5,183C 82.7375,182.768 83.7375,182.268 84.5,181.5 Z"/></g>
<g><path style="opacity:1" fill="#cdcdcd" d="M 112.5,181.5 C 113.773,182.077 113.773,182.743 112.5,183.5C 111.537,183.03 111.537,182.363 112.5,181.5 Z"/></g>
</svg>
