<?xml version="1.0" encoding="UTF-8"?>
<!DOCTYPE svg PUBLIC "-//W3C//DTD SVG 1.1//EN" "http://www.w3.org/Graphics/SVG/1.1/DTD/svg11.dtd">
<svg xmlns="http://www.w3.org/2000/svg" version="1.1" width="96px" height="96px" style="shape-rendering:geometricPrecision; text-rendering:geometricPrecision; image-rendering:optimizeQuality; fill-rule:evenodd; clip-rule:evenodd" xmlns:xlink="http://www.w3.org/1999/xlink">
<g><path style="opacity:0.752" fill="#f4f4f4" d="M 46.5,8.5 C 48.4835,8.38321 50.1502,9.04988 51.5,10.5C 54.2535,15.1775 56.9202,19.8442 59.5,24.5C 66.1667,25.1667 72.8333,25.8333 79.5,26.5C 80.8333,28.5 80.8333,30.5 79.5,32.5C 75.7417,37.4786 72.7417,42.8119 70.5,48.5C 71.675,48.281 72.675,48.6143 73.5,49.5C 74.1368,51.3031 75.3035,52.6364 77,53.5C 77.5131,56.0267 78.6798,58.1933 80.5,60C 81.4091,61.7892 81.5758,63.6226 81,65.5C 74.2224,66.1499 67.3891,66.8166 60.5,67.5C 56.414,72.0919 52.7473,76.9252 49.5,82C 47.1667,82.6667 44.8333,82.6667 42.5,82C 41.6634,80.9887 41.33,79.8221 41.5,78.5C 40.325,78.719 39.325,78.3857 38.5,77.5C 37.5924,73.7709 35.9257,70.4376 33.5,67.5C 26.5316,66.503 19.5316,66.1697 12.5,66.5C 11.8916,62.0634 13.2249,58.3967 16.5,55.5C 17.0463,53.8653 17.3796,52.1986 17.5,50.5C 20.6557,50.4709 22.3223,48.8043 22.5,45.5C 19.1796,40.1894 15.5129,35.1894 11.5,30.5C 10.1667,29.1667 10.1667,27.8333 11.5,26.5C 19.5,25.8333 27.5,25.1667 35.5,24.5C 37.5289,19.9918 39.8623,15.6584 42.5,11.5C 43.9014,10.4793 45.2347,9.47934 46.5,8.5 Z"/></g>
<g><path style="opacity:1" fill="#161616" d="M 55.5,28.5 C 61.8333,29.1667 68.1667,29.8333 74.5,30.5C 70.8031,35.227 68.1364,40.5603 66.5,46.5C 68.9955,51.0781 71.3289,55.7448 73.5,60.5C 67.7355,62.1474 61.7355,63.1474 55.5,63.5C 52.7629,68.638 49.7629,73.638 46.5,78.5C 43.4622,73.1614 40.1289,68.1614 36.5,63.5C 30.2645,63.1474 24.2645,62.1474 18.5,60.5C 19.4013,59.7095 20.0679,58.7095 20.5,57.5C 21.9744,56.5637 22.9744,55.2303 23.5,53.5C 23.5569,52.391 23.8902,51.391 24.5,50.5C 27.8618,48.1177 28.1951,45.451 25.5,42.5C 23.6384,38.5407 21.3051,34.8741 18.5,31.5C 24.6014,29.8511 30.9347,28.8511 37.5,28.5C 39.7681,24.2055 42.1014,19.8721 44.5,15.5C 45.2421,14.7132 46.0754,14.0465 47,13.5C 49.8493,18.5365 52.6826,23.5365 55.5,28.5 Z"/></g>
<g><path style="opacity:1" fill="#e2e2e2" d="M 50.5,27.5 C 49.3784,28.1558 48.0451,28.4892 46.5,28.5C 44.6672,28.4146 43.3339,27.7479 42.5,26.5C 43.5845,24.6814 44.9178,23.0147 46.5,21.5C 48.2776,23.264 49.6109,25.264 50.5,27.5 Z"/></g>
<g><path style="opacity:1" fill="#757575" d="M 37.5,28.5 C 30.9347,28.8511 24.6014,29.8511 18.5,31.5C 17.596,30.791 17.2627,29.791 17.5,28.5C 24.1667,28.5 30.8333,28.5 37.5,28.5 Z"/></g>
<g><path style="opacity:1" fill="#676767" d="M 42.5,26.5 C 43.3339,27.7479 44.6672,28.4146 46.5,28.5C 48.0451,28.4892 49.3784,28.1558 50.5,27.5C 51.0431,27.56 51.3764,27.8933 51.5,28.5C 48.2317,29.487 44.8984,29.8204 41.5,29.5C 41.2627,28.209 41.596,27.209 42.5,26.5 Z"/></g>
<g><path style="opacity:1" fill="#727272" d="M 55.5,28.5 C 62.1998,28.17 68.8665,28.5033 75.5,29.5C 75.3764,30.1067 75.0431,30.44 74.5,30.5C 68.1667,29.8333 61.8333,29.1667 55.5,28.5 Z"/></g>
<g><path style="opacity:1" fill="#868686" d="M 33.5,35.5 C 30.8333,34.1667 28.1667,34.1667 25.5,35.5C 24.9569,35.44 24.6236,35.1067 24.5,34.5C 27.8333,33.1667 31.1667,33.1667 34.5,34.5C 34.3764,35.1067 34.0431,35.44 33.5,35.5 Z"/></g>
<g><path style="opacity:1" fill="#efefef" d="M 25.5,35.5 C 28.1667,34.1667 30.8333,34.1667 33.5,35.5C 32.4155,37.3186 31.0822,38.9853 29.5,40.5C 27.9178,38.9853 26.5845,37.3186 25.5,35.5 Z"/></g>
<g><path style="opacity:1" fill="#f4f4f4" d="M 38.5,57.5 C 38.573,55.9731 37.9063,54.9731 36.5,54.5C 35.4706,52.4832 34.4706,50.4832 33.5,48.5C 33.5751,45.7938 33.9084,43.1272 34.5,40.5C 34.8333,40.5 35.1667,40.5 35.5,40.5C 37.2451,38.9674 38.2451,36.9674 38.5,34.5C 43.6503,33.3493 48.9836,33.1826 54.5,34C 56.7314,37.7263 58.7314,41.5596 60.5,45.5C 59.165,49.8353 57.165,53.8353 54.5,57.5C 49.0136,58.8147 43.6803,58.8147 38.5,57.5 Z"/></g>
<g><path style="opacity:1" fill="#d9d9d9" d="M 62.5,40.5 C 62.573,38.9731 61.9063,37.9731 60.5,37.5C 59.7659,36.2921 59.4326,34.9587 59.5,33.5C 62.1667,33.5 64.8333,33.5 67.5,33.5C 66.2376,36.1261 64.9043,38.7928 63.5,41.5C 62.8933,41.3764 62.56,41.0431 62.5,40.5 Z"/></g>
<g><path style="opacity:1" fill="#b2b2b2" d="M 38.5,34.5 C 38.2451,36.9674 37.2451,38.9674 35.5,40.5C 35.7549,38.0326 36.7549,36.0326 38.5,34.5 Z"/></g>
<g><path style="opacity:1" fill="#6b6b6b" d="M 60.5,37.5 C 61.9063,37.9731 62.573,38.9731 62.5,40.5C 61.0937,40.0269 60.427,39.0269 60.5,37.5 Z"/></g>
<g><path style="opacity:1" fill="#9a9a9a" d="M 25.5,42.5 C 28.1951,45.451 27.8618,48.1177 24.5,50.5C 25.2653,47.9039 25.5987,45.2372 25.5,42.5 Z"/></g>
<g><path style="opacity:1" fill="#9d9d9d" d="M 34.5,40.5 C 33.9084,43.1272 33.5751,45.7938 33.5,48.5C 32.3054,48.1344 31.6387,47.301 31.5,46C 32.1402,43.8796 33.1402,42.0463 34.5,40.5 Z"/></g>
<g><path style="opacity:1" fill="#a2a2a2" d="M 31.5,53.5 C 30.1667,52.1667 28.8333,52.1667 27.5,53.5C 28.8333,49.5 30.1667,49.5 31.5,53.5 Z"/></g>
<g><path style="opacity:1" fill="#f4f4f4" d="M 31.5,53.5 C 32.1098,54.391 32.4431,55.391 32.5,56.5C 30.7354,57.4614 28.7354,57.7947 26.5,57.5C 26.5,56.5 26.5,55.5 26.5,54.5C 27.1667,54.5 27.5,54.1667 27.5,53.5C 28.8333,52.1667 30.1667,52.1667 31.5,53.5 Z"/></g>
<g><path style="opacity:1" fill="#f8f8f8" d="M 66.5,55.5 C 66.0296,56.6935 65.0296,57.3601 63.5,57.5C 61.9704,57.3601 60.9704,56.6935 60.5,55.5C 61.8503,54.5169 62.8503,53.1836 63.5,51.5C 64.1497,53.1836 65.1497,54.5169 66.5,55.5 Z"/></g>
<g><path style="opacity:1" fill="#8a8a8a" d="M 66.5,55.5 C 65.1497,54.5169 64.1497,53.1836 63.5,51.5C 62.8503,53.1836 61.8503,54.5169 60.5,55.5C 61.038,53.8828 61.3713,52.2161 61.5,50.5C 62.8333,50.5 64.1667,50.5 65.5,50.5C 65.6287,52.2161 65.962,53.8828 66.5,55.5 Z"/></g>
<g><path style="opacity:1" fill="#838383" d="M 23.5,53.5 C 22.9744,55.2303 21.9744,56.5637 20.5,57.5C 20.5544,55.368 21.5544,54.0347 23.5,53.5 Z"/></g>
<g><path style="opacity:1" fill="#7f7f7f" d="M 36.5,54.5 C 37.9063,54.9731 38.573,55.9731 38.5,57.5C 37.0937,57.0269 36.427,56.0269 36.5,54.5 Z"/></g>
<g><path style="opacity:1" fill="#a0a0a0" d="M 26.5,54.5 C 26.5,55.5 26.5,56.5 26.5,57.5C 28.7354,57.7947 30.7354,57.4614 32.5,56.5C 33.0431,56.56 33.3764,56.8933 33.5,57.5C 30.5,58.8333 27.5,58.8333 24.5,57.5C 24.9424,56.2613 25.6091,55.2613 26.5,54.5 Z"/></g>
<g><path style="opacity:1" fill="#aeaeae" d="M 60.5,55.5 C 60.9704,56.6935 61.9704,57.3601 63.5,57.5C 65.0296,57.3601 66.0296,56.6935 66.5,55.5C 67.404,56.209 67.7373,57.209 67.5,58.5C 64.8333,58.5 62.1667,58.5 59.5,58.5C 59.2627,57.209 59.596,56.209 60.5,55.5 Z"/></g>
<g><path style="opacity:1" fill="#696969" d="M 18.5,60.5 C 24.2645,62.1474 30.2645,63.1474 36.5,63.5C 30.1667,63.5 23.8333,63.5 17.5,63.5C 17.2627,62.209 17.596,61.209 18.5,60.5 Z"/></g>
<g><path style="opacity:1" fill="#5d5d5d" d="M 50.5,64.5 C 49.3784,63.8442 48.0451,63.5108 46.5,63.5C 44.6672,63.5854 43.3339,64.2521 42.5,65.5C 41.596,64.791 41.2627,63.791 41.5,62.5C 44.8984,62.1796 48.2317,62.513 51.5,63.5C 51.3764,64.1067 51.0431,64.44 50.5,64.5 Z"/></g>
<g><path style="opacity:1" fill="#616161" d="M 73.5,60.5 C 74.4778,60.811 75.1445,61.4777 75.5,62.5C 68.8665,63.4967 62.1998,63.83 55.5,63.5C 61.7355,63.1474 67.7355,62.1474 73.5,60.5 Z"/></g>
<g><path style="opacity:1" fill="#e1e1e1" d="M 50.5,64.5 C 48.833,66.5005 47.6663,68.8338 47,71.5C 45.2359,69.6107 43.7359,67.6107 42.5,65.5C 43.3339,64.2521 44.6672,63.5854 46.5,63.5C 48.0451,63.5108 49.3784,63.8442 50.5,64.5 Z"/></g>
</svg>
