<?xml version="1.0" encoding="UTF-8"?>
<!DOCTYPE svg PUBLIC "-//W3C//DTD SVG 1.1//EN" "http://www.w3.org/Graphics/SVG/1.1/DTD/svg11.dtd">
<svg xmlns="http://www.w3.org/2000/svg" version="1.1" width="204px" height="204px" style="shape-rendering:geometricPrecision; text-rendering:geometricPrecision; image-rendering:optimizeQuality; fill-rule:evenodd; clip-rule:evenodd" xmlns:xlink="http://www.w3.org/1999/xlink">
<g><path style="opacity:1" fill="#a79e8d" d="M 110.5,28.5 C 100.756,28.2449 91.0891,28.9115 81.5,30.5C 84.5341,28.9823 87.8675,28.1489 91.5,28C 98.0137,27.18 104.347,27.3467 110.5,28.5 Z"/></g>
<g><path style="opacity:0.471" fill="#e4ecef" d="M 79.5,28.5 C 80.8333,29.1667 80.8333,29.1667 79.5,28.5 Z"/></g>
<g><path style="opacity:1" fill="#9d957f" d="M 110.5,28.5 C 114.79,28.1977 118.79,28.8643 122.5,30.5C 118.236,30.6558 114.236,29.9891 110.5,28.5 Z"/></g>
<g><path style="opacity:1" fill="#6f511c" d="M 110.5,28.5 C 114.236,29.9891 118.236,30.6558 122.5,30.5C 125.1,33.4603 128.433,34.7937 132.5,34.5C 133.694,35.2719 134.694,36.2719 135.5,37.5C 135.918,38.2216 136.584,38.7216 137.5,39C 136.207,39.49 134.873,39.6567 133.5,39.5C 128.997,37.5809 124.33,36.2475 119.5,35.5C 108.947,31.8407 98.2801,31.5074 87.5,34.5C 80.2178,34.7309 73.8845,37.2309 68.5,42C 67.552,42.4828 66.552,42.6495 65.5,42.5C 62.1138,43.8274 60.7804,42.8274 61.5,39.5C 65.2842,39.1109 68.2842,37.4442 70.5,34.5C 73.491,34.8337 75.8243,33.8337 77.5,31.5C 78.5676,30.5655 79.901,30.2322 81.5,30.5C 91.0891,28.9115 100.756,28.2449 110.5,28.5 Z"/></g>
<g><path style="opacity:1" fill="#898166" d="M 77.5,31.5 C 75.8243,33.8337 73.491,34.8337 70.5,34.5C 72.4261,32.7073 74.7594,31.7073 77.5,31.5 Z"/></g>
<g><path style="opacity:1" fill="#81a262" d="M 119.5,35.5 C 108.852,34.723 98.1851,34.3897 87.5,34.5C 98.2801,31.5074 108.947,31.8407 119.5,35.5 Z"/></g>
<g><path style="opacity:1" fill="#94886e" d="M 122.5,30.5 C 126.137,31.2635 129.47,32.5968 132.5,34.5C 128.433,34.7937 125.1,33.4603 122.5,30.5 Z"/></g>
<g><path style="opacity:1" fill="#c9c3b1" d="M 132.5,34.5 C 134.97,34.6535 136.97,35.6535 138.5,37.5C 137.5,37.5 136.5,37.5 135.5,37.5C 134.694,36.2719 133.694,35.2719 132.5,34.5 Z"/></g>
<g><path style="opacity:1" fill="#579758" d="M 87.5,34.5 C 98.1851,34.3897 108.852,34.723 119.5,35.5C 124.008,37.676 128.675,39.676 133.5,41.5C 137.598,42.2719 140.931,44.2719 143.5,47.5C 149.585,53.2474 154.918,59.5808 159.5,66.5C 158.624,66.3691 157.957,66.7025 157.5,67.5C 158.63,68.6223 159.297,69.9557 159.5,71.5C 158.833,71.1667 158.167,70.8333 157.5,70.5C 156.852,68.9142 156.352,67.2475 156,65.5C 153.077,62.1386 150.244,58.8052 147.5,55.5C 140.346,49.0856 132.346,43.9189 123.5,40C 120.883,39.1785 118.216,38.6785 115.5,38.5C 98.141,33.7605 82.141,36.4272 67.5,46.5C 60.2466,49.7564 54.58,54.7564 50.5,61.5C 47.8333,64.8333 45.1667,68.1667 42.5,71.5C 41.6851,72.4293 40.8518,73.4293 40,74.5C 39.6012,74.2716 39.4346,73.9382 39.5,73.5C 39.5,72.8333 39.5,72.1667 39.5,71.5C 41.7701,66.9022 44.4368,62.5689 47.5,58.5C 47.5,56.5 48.5,55.5 50.5,55.5C 53.5754,53.0914 56.2421,50.4247 58.5,47.5C 61.4386,46.544 63.772,44.8774 65.5,42.5C 66.552,42.6495 67.552,42.4828 68.5,42C 73.8845,37.2309 80.2178,34.7309 87.5,34.5 Z"/></g>
<g><path style="opacity:1" fill="#958571" d="M 70.5,34.5 C 68.2842,37.4442 65.2842,39.1109 61.5,39.5C 64.0516,37.0568 67.0516,35.3901 70.5,34.5 Z"/></g>
<g><path style="opacity:1" fill="#959c6f" d="M 119.5,35.5 C 124.33,36.2475 128.997,37.5809 133.5,39.5C 133.5,40.1667 133.5,40.8333 133.5,41.5C 128.675,39.676 124.008,37.676 119.5,35.5 Z"/></g>
<g><path style="opacity:1" fill="#867442" d="M 61.5,39.5 C 60.7804,42.8274 62.1138,43.8274 65.5,42.5C 63.772,44.8774 61.4386,46.544 58.5,47.5C 59.2341,46.2921 59.5674,44.9587 59.5,43.5C 57.7839,43.6287 56.1172,43.962 54.5,44.5C 56.2964,42.1 58.6298,40.4333 61.5,39.5 Z"/></g>
<g><path style="opacity:1" fill="#acd3af" d="M 115.5,38.5 C 116.183,40.1765 117.517,40.8432 119.5,40.5C 119.5,41.5 119.5,42.5 119.5,43.5C 107.149,43.1676 94.8153,43.501 82.5,44.5C 77.4794,45.6734 72.6461,47.34 68,49.5C 66.3167,48.8235 66.1501,47.8235 67.5,46.5C 82.141,36.4272 98.141,33.7605 115.5,38.5 Z"/></g>
<g><path style="opacity:1" fill="#9fc8a1" d="M 115.5,38.5 C 118.216,38.6785 120.883,39.1785 123.5,40C 132.346,43.9189 140.346,49.0856 147.5,55.5C 147.678,56.6948 148.011,57.8615 148.5,59C 148.167,59.5 147.833,60 147.5,60.5C 146.614,59.675 146.281,58.675 146.5,57.5C 143.199,57.1357 140.199,55.969 137.5,54C 134.173,53.3897 130.839,52.8897 127.5,52.5C 127.5,51.5 127.5,50.5 127.5,49.5C 124.833,49.5 122.167,49.5 119.5,49.5C 119.5,48.1667 119.5,46.8333 119.5,45.5C 114.141,45.6697 108.808,46.1697 103.5,47C 105.506,47.0826 106.506,47.5826 106.5,48.5C 96.8133,47.3165 87.8133,48.9831 79.5,53.5C 77.6916,53.4914 76.0249,53.9914 74.5,55C 71.6032,57.41 68.6032,59.5767 65.5,61.5C 61.7921,60.4028 58.2921,61.0694 55,63.5C 54.228,63.3552 53.5613,63.0219 53,62.5C 51.5057,66.3041 50.6724,65.9707 50.5,61.5C 54.58,54.7564 60.2466,49.7564 67.5,46.5C 66.1501,47.8235 66.3167,48.8235 68,49.5C 72.6461,47.34 77.4794,45.6734 82.5,44.5C 94.8153,43.501 107.149,43.1676 119.5,43.5C 119.5,42.5 119.5,41.5 119.5,40.5C 117.517,40.8432 116.183,40.1765 115.5,38.5 Z"/></g>
<g><path style="opacity:1" fill="#b7ad9b" d="M 145.5,41.5 C 148.438,42.622 150.438,44.622 151.5,47.5C 148.95,45.9228 146.95,43.9228 145.5,41.5 Z"/></g>
<g><path style="opacity:1" fill="#98855e" d="M 54.5,44.5 C 53.4606,48.2062 51.1272,50.5396 47.5,51.5C 49.2099,48.4909 51.5432,46.1576 54.5,44.5 Z"/></g>
<g><path style="opacity:0.184" fill="#f3efe8" d="M 158.5,48.5 C 159.833,49.1667 159.833,49.1667 158.5,48.5 Z"/></g>
<g><path style="opacity:1" fill="#dff277" d="M 106.5,48.5 C 105.514,50.4077 103.848,51.4077 101.5,51.5C 96.6776,52.1997 92.6776,54.3664 89.5,58C 88.255,58.7914 86.9217,59.2914 85.5,59.5C 86.6417,57.5669 88.3083,56.0669 90.5,55C 86.8546,54.2811 83.1879,53.7811 79.5,53.5C 87.8133,48.9831 96.8133,47.3165 106.5,48.5 Z"/></g>
<g><path style="opacity:0.376" fill="#cfc6b8" d="M 154.5,50.5 C 157.167,51.1667 158.833,52.8333 159.5,55.5C 157.5,54.1667 155.833,52.5 154.5,50.5 Z"/></g>
<g><path style="opacity:1" fill="#c8c1b0" d="M 47.5,51.5 C 46.5,53.1667 45.1667,54.5 43.5,55.5C 43.8333,53.1667 45.1667,51.8333 47.5,51.5 Z"/></g>
<g><path style="opacity:1" fill="#899259" d="M 58.5,47.5 C 56.2421,50.4247 53.5754,53.0914 50.5,55.5C 52.1449,51.855 54.8116,49.1884 58.5,47.5 Z"/></g>
<g><path style="opacity:1" fill="#795a28" d="M 58.5,47.5 C 54.8116,49.1884 52.1449,51.855 50.5,55.5C 48.5,55.5 47.5,56.5 47.5,58.5C 45.825,60.002 43.9917,61.3353 42,62.5C 41.51,61.2068 41.3433,59.8734 41.5,58.5C 42.9063,58.0269 43.573,57.0269 43.5,55.5C 45.1667,54.5 46.5,53.1667 47.5,51.5C 51.1272,50.5396 53.4606,48.2062 54.5,44.5C 56.1172,43.962 57.7839,43.6287 59.5,43.5C 59.5674,44.9587 59.2341,46.2921 58.5,47.5 Z"/></g>
<g><path style="opacity:1" fill="#ecf6db" d="M 164.5,55.5 C 165.833,56.1667 165.833,56.1667 164.5,55.5 Z"/></g>
<g><path style="opacity:1" fill="#bcb8a3" d="M 43.5,55.5 C 43.573,57.0269 42.9063,58.0269 41.5,58.5C 41.427,56.9731 42.0937,55.9731 43.5,55.5 Z"/></g>
<g><path style="opacity:1" fill="#bdc7a8" d="M 143.5,47.5 C 157.4,57.2892 165.733,70.6226 168.5,87.5C 166.369,80.2258 163.369,73.2258 159.5,66.5C 154.918,59.5808 149.585,53.2474 143.5,47.5 Z"/></g>
<g><path style="opacity:1" fill="#91773a" d="M 135.5,37.5 C 136.5,37.5 137.5,37.5 138.5,37.5C 141.004,38.5839 143.337,39.9172 145.5,41.5C 146.95,43.9228 148.95,45.9228 151.5,47.5C 153.5,47.5 154.5,48.5 154.5,50.5C 155.833,52.5 157.5,54.1667 159.5,55.5C 161.993,57.6576 163.66,60.3243 164.5,63.5C 167.471,70.711 170.137,78.0443 172.5,85.5C 172.672,86.4916 172.338,87.1583 171.5,87.5C 170.833,87.5 170.167,87.5 169.5,87.5C 169.167,87.5 168.833,87.5 168.5,87.5C 165.733,70.6226 157.4,57.2892 143.5,47.5C 140.931,44.2719 137.598,42.2719 133.5,41.5C 133.5,40.8333 133.5,40.1667 133.5,39.5C 134.873,39.6567 136.207,39.49 137.5,39C 136.584,38.7216 135.918,38.2216 135.5,37.5 Z"/></g>
<g><path style="opacity:1" fill="#8eb890" d="M 147.5,55.5 C 150.244,58.8052 153.077,62.1386 156,65.5C 156.352,67.2475 156.852,68.9142 157.5,70.5C 157.103,71.525 156.437,71.6917 155.5,71C 150.409,64.4313 143.742,61.9313 135.5,63.5C 135.5,62.5 135.5,61.5 135.5,60.5C 133.143,60.6633 130.81,60.4966 128.5,60C 120.573,55.7547 112.24,54.088 103.5,55C 104.833,54.6667 106.167,54.3333 107.5,54C 106.01,52.228 104.343,52.0613 102.5,53.5C 101.702,53.0431 101.369,52.3764 101.5,51.5C 103.848,51.4077 105.514,50.4077 106.5,48.5C 106.506,47.5826 105.506,47.0826 103.5,47C 108.808,46.1697 114.141,45.6697 119.5,45.5C 119.5,46.8333 119.5,48.1667 119.5,49.5C 122.167,49.5 124.833,49.5 127.5,49.5C 127.5,50.5 127.5,51.5 127.5,52.5C 130.839,52.8897 134.173,53.3897 137.5,54C 140.199,55.969 143.199,57.1357 146.5,57.5C 146.281,58.675 146.614,59.675 147.5,60.5C 147.833,60 148.167,59.5 148.5,59C 148.011,57.8615 147.678,56.6948 147.5,55.5 Z"/></g>
<g><path style="opacity:1" fill="#7aa97c" d="M 101.5,51.5 C 101.369,52.3764 101.702,53.0431 102.5,53.5C 104.343,52.0613 106.01,52.228 107.5,54C 106.167,54.3333 104.833,54.6667 103.5,55C 112.24,54.088 120.573,55.7547 128.5,60C 130.81,60.4966 133.143,60.6633 135.5,60.5C 135.5,61.5 135.5,62.5 135.5,63.5C 143.742,61.9313 150.409,64.4313 155.5,71C 156.437,71.6917 157.103,71.525 157.5,70.5C 158.167,70.8333 158.833,71.1667 159.5,71.5C 159.716,73.6807 158.883,75.3474 157,76.5C 155.89,74.9632 154.39,74.2965 152.5,74.5C 152.5,73.5 152.5,72.5 152.5,71.5C 148.13,70.7013 143.796,69.7013 139.5,68.5C 134.983,68.5717 130.817,69.5717 127,71.5C 126.182,66.2063 125.682,66.2063 125.5,71.5C 124.715,69.6264 124.048,67.6264 123.5,65.5C 123.5,63.8333 123.5,62.1667 123.5,60.5C 122.448,60.3505 121.448,60.5172 120.5,61C 117.036,64.8226 115.703,69.3226 116.5,74.5C 110.974,74.1786 105.64,74.5119 100.5,75.5C 99.1851,76.4756 97.8518,77.4756 96.5,78.5C 93.6996,77.2681 90.6996,76.6015 87.5,76.5C 84.5794,76.5235 81.746,76.8568 79,77.5C 78.5888,73.1789 80.2555,69.8456 84,67.5C 84.8442,65.5372 84.3442,64.2039 82.5,63.5C 83.2112,61.9699 84.2112,60.6366 85.5,59.5C 86.9217,59.2914 88.255,58.7914 89.5,58C 92.6776,54.3664 96.6776,52.1997 101.5,51.5 Z"/></g>
<g><path style="opacity:1" fill="#d6ef5a" d="M 79.5,53.5 C 83.1879,53.7811 86.8546,54.2811 90.5,55C 88.3083,56.0669 86.6417,57.5669 85.5,59.5C 84.2112,60.6366 83.2112,61.9699 82.5,63.5C 81.6106,66.2289 79.7773,68.2289 77,69.5C 75.872,71.3453 75.372,73.3453 75.5,75.5C 75.1667,76.8333 74.8333,78.1667 74.5,79.5C 74.1667,79.5 73.8333,79.5 73.5,79.5C 74.1919,76.103 74.1919,72.7697 73.5,69.5C 71.4021,68.5155 69.4021,68.8489 67.5,70.5C 66.6143,69.675 66.281,68.675 66.5,67.5C 65.5,67.5 64.5,67.5 63.5,67.5C 63.3921,69.7834 62.5588,71.7834 61,73.5C 60.6924,72.6919 60.1924,72.0253 59.5,71.5C 58.5344,73.396 58.2011,75.396 58.5,77.5C 57.5,77.5 56.5,77.5 55.5,77.5C 55.0603,79.8439 54.0603,81.8439 52.5,83.5C 52.5,82.1667 52.5,80.8333 52.5,79.5C 54.1035,77.0205 55.6035,74.3538 57,71.5C 60.4124,68.5933 63.2458,65.2599 65.5,61.5C 68.6032,59.5767 71.6032,57.41 74.5,55C 76.0249,53.9914 77.6916,53.4914 79.5,53.5 Z"/></g>
<g><path style="opacity:0.376" fill="#e0ded8" d="M 165.5,63.5 C 167.104,64.287 167.771,65.6203 167.5,67.5C 165.896,66.713 165.229,65.3797 165.5,63.5 Z"/></g>
<g><path style="opacity:1" fill="#9ac369" d="M 123.5,65.5 C 122.849,64.9094 122.182,64.2427 121.5,63.5C 119.172,67.15 117.839,71.15 117.5,75.5C 112.125,75.1718 106.792,75.5052 101.5,76.5C 102.243,77.1818 102.909,77.8485 103.5,78.5C 102.5,78.5 101.5,78.5 100.5,78.5C 100.5,77.5 100.5,76.5 100.5,75.5C 105.64,74.5119 110.974,74.1786 116.5,74.5C 115.703,69.3226 117.036,64.8226 120.5,61C 121.448,60.5172 122.448,60.3505 123.5,60.5C 123.5,62.1667 123.5,63.8333 123.5,65.5 Z"/></g>
<g><path style="opacity:1" fill="#897141" d="M 41.5,58.5 C 41.3433,59.8734 41.51,61.2068 42,62.5C 43.9917,61.3353 45.825,60.002 47.5,58.5C 44.4368,62.5689 41.7701,66.9022 39.5,71.5C 38.168,73.1321 36.8347,74.7988 35.5,76.5C 35.5442,73.7891 35.5442,71.1224 35.5,68.5C 36.4977,64.4945 38.4977,61.1612 41.5,58.5 Z"/></g>
<g><path style="opacity:1" fill="#81af84" d="M 65.5,61.5 C 63.2458,65.2599 60.4124,68.5933 57,71.5C 55.6035,74.3538 54.1035,77.0205 52.5,79.5C 51.5207,78.2347 50.5207,76.9014 49.5,75.5C 48.5713,76.6888 48.238,78.0222 48.5,79.5C 45.9512,79.4411 43.9512,80.4411 42.5,82.5C 41.5344,80.604 41.2011,78.604 41.5,76.5C 42.038,74.8828 42.3713,73.2161 42.5,71.5C 45.1667,68.1667 47.8333,64.8333 50.5,61.5C 50.6724,65.9707 51.5057,66.3041 53,62.5C 53.5613,63.0219 54.228,63.3552 55,63.5C 58.2921,61.0694 61.7921,60.4028 65.5,61.5 Z"/></g>
<g><path style="opacity:0.949" fill="#d3cfc2" d="M 33.5,72.5 C 33.0972,75.4855 32.0972,78.1522 30.5,80.5C 30.6031,77.3642 31.6031,74.6975 33.5,72.5 Z"/></g>
<g><path style="opacity:1" fill="#cef148" d="M 73.5,79.5 C 73.1667,79.5 72.8333,79.5 72.5,79.5C 72.0707,78.0473 71.904,76.3806 72,74.5C 69.544,76.3213 66.7107,76.988 63.5,76.5C 63.4042,80.3107 62.7376,80.3107 61.5,76.5C 59.6126,78.5524 57.6126,78.8858 55.5,77.5C 56.5,77.5 57.5,77.5 58.5,77.5C 58.2011,75.396 58.5344,73.396 59.5,71.5C 60.1924,72.0253 60.6924,72.6919 61,73.5C 62.5588,71.7834 63.3921,69.7834 63.5,67.5C 64.5,67.5 65.5,67.5 66.5,67.5C 66.281,68.675 66.6143,69.675 67.5,70.5C 69.4021,68.8489 71.4021,68.5155 73.5,69.5C 74.1919,72.7697 74.1919,76.103 73.5,79.5 Z"/></g>
<g><path style="opacity:1" fill="#c5e848" d="M 123.5,65.5 C 124.048,67.6264 124.715,69.6264 125.5,71.5C 125.557,72.609 125.89,73.609 126.5,74.5C 131.421,74.8616 136.087,75.8616 140.5,77.5C 137.585,78.7442 134.918,80.4109 132.5,82.5C 132.5,81.5 132.5,80.5 132.5,79.5C 130.856,79.2865 129.356,79.6198 128,80.5C 127.028,78.6951 125.861,77.0284 124.5,75.5C 123.571,76.6888 123.238,78.0222 123.5,79.5C 122.5,79.5 121.5,79.5 120.5,79.5C 120.649,78.448 120.483,77.448 120,76.5C 115.233,76.4883 110.399,76.8216 105.5,77.5C 108.785,78.3236 112.118,78.8236 115.5,79C 113.381,79.0976 111.714,79.9309 110.5,81.5C 111.325,82.3857 112.325,82.719 113.5,82.5C 113.817,85.5719 113.484,88.5719 112.5,91.5C 111.817,91.8627 111.15,92.1961 110.5,92.5C 111.059,90.3208 111.726,88.1542 112.5,86C 112.43,85.2352 112.097,84.7352 111.5,84.5C 109.094,82.0866 106.428,80.0866 103.5,78.5C 102.909,77.8485 102.243,77.1818 101.5,76.5C 106.792,75.5052 112.125,75.1718 117.5,75.5C 117.839,71.15 119.172,67.15 121.5,63.5C 122.182,64.2427 122.849,64.9094 123.5,65.5 Z"/></g>
<g><path style="opacity:1" fill="#8ab35e" d="M 142.5,76.5 C 142.158,77.3382 141.492,77.6716 140.5,77.5C 136.087,75.8616 131.421,74.8616 126.5,74.5C 131.897,74.7846 137.23,74.4512 142.5,73.5C 143.562,74.4246 143.562,75.4246 142.5,76.5 Z"/></g>
<g><path style="opacity:1" fill="#6c986f" d="M 159.5,71.5 C 160.598,72.6009 160.765,73.9343 160,75.5C 159.26,77.3187 158.093,78.6521 156.5,79.5C 151.618,80.1746 146.951,79.1746 142.5,76.5C 143.562,75.4246 143.562,74.4246 142.5,73.5C 137.23,74.4512 131.897,74.7846 126.5,74.5C 125.89,73.609 125.557,72.609 125.5,71.5C 125.682,66.2063 126.182,66.2063 127,71.5C 130.817,69.5717 134.983,68.5717 139.5,68.5C 143.796,69.7013 148.13,70.7013 152.5,71.5C 152.5,72.5 152.5,73.5 152.5,74.5C 154.39,74.2965 155.89,74.9632 157,76.5C 158.883,75.3474 159.716,73.6807 159.5,71.5 Z"/></g>
<g><path style="opacity:1" fill="#928555" d="M 35.5,68.5 C 35.5442,71.1224 35.5442,73.7891 35.5,76.5C 36.8347,74.7988 38.168,73.1321 39.5,71.5C 39.5,72.1667 39.5,72.8333 39.5,73.5C 35.6964,80.2578 33.6964,87.5911 33.5,95.5C 33.1667,95.5 32.8333,95.5 32.5,95.5C 32.6567,94.1266 32.49,92.7932 32,91.5C 31.6667,94.1667 31.3333,96.8333 31,99.5C 30.6667,97.8333 30.3333,96.1667 30,94.5C 29.5006,100.157 29.3339,105.824 29.5,111.5C 28.8351,108.518 28.5018,105.352 28.5,102C 28.7118,95.1125 29.3785,88.2792 30.5,81.5C 30.5,81.1667 30.5,80.8333 30.5,80.5C 32.0972,78.1522 33.0972,75.4855 33.5,72.5C 33.6596,70.847 34.3263,69.5137 35.5,68.5 Z"/></g>
<g><path style="opacity:1" fill="#608f60" d="M 82.5,63.5 C 84.3442,64.2039 84.8442,65.5372 84,67.5C 80.2555,69.8456 78.5888,73.1789 79,77.5C 81.746,76.8568 84.5794,76.5235 87.5,76.5C 90.6996,76.6015 93.6996,77.2681 96.5,78.5C 97.8518,77.4756 99.1851,76.4756 100.5,75.5C 100.5,76.5 100.5,77.5 100.5,78.5C 101.5,78.5 102.5,78.5 103.5,78.5C 106.428,80.0866 109.094,82.0866 111.5,84.5C 109.723,84.7863 108.056,85.4529 106.5,86.5C 104.423,85.1084 102.089,84.4417 99.5,84.5C 95.5147,84.9991 91.5147,85.3324 87.5,85.5C 84.3872,85.4377 81.5539,84.7711 79,83.5C 78.3333,84.1667 77.6667,84.8333 77,85.5C 76.3934,82.7983 76.5601,80.1316 77.5,77.5C 77.2528,76.2867 76.5862,75.62 75.5,75.5C 75.372,73.3453 75.872,71.3453 77,69.5C 79.7773,68.2289 81.6106,66.2289 82.5,63.5 Z"/></g>
<g><path style="opacity:1" fill="#c3beab" d="M 170.5,73.5 C 171.391,75.2905 172.391,77.1239 173.5,79C 172.944,79.3826 172.611,79.8826 172.5,80.5C 170.837,78.5615 170.171,76.2282 170.5,73.5 Z"/></g>
<g><path style="opacity:1" fill="#356d39" d="M 159.5,66.5 C 163.369,73.2258 166.369,80.2258 168.5,87.5C 168.5,94.1667 168.5,100.833 168.5,107.5C 167.675,103.353 167.175,99.0195 167,94.5C 165.5,92.3333 164,90.1667 162.5,88C 163.849,86.3646 163.682,84.8646 162,83.5C 161.667,84.1667 161.333,84.8333 161,85.5C 160,84.5 159,83.5 158,82.5C 157.617,83.056 157.117,83.3893 156.5,83.5C 156.5,82.1667 156.5,80.8333 156.5,79.5C 158.093,78.6521 159.26,77.3187 160,75.5C 160.765,73.9343 160.598,72.6009 159.5,71.5C 159.297,69.9557 158.63,68.6223 157.5,67.5C 157.957,66.7025 158.624,66.3691 159.5,66.5 Z"/></g>
<g><path style="opacity:1" fill="#659766" d="M 52.5,79.5 C 52.5,80.8333 52.5,82.1667 52.5,83.5C 51.9779,85.2191 50.9779,86.5525 49.5,87.5C 48.5269,89.9479 48.1936,92.6146 48.5,95.5C 47.2058,94.7101 46.0391,93.7101 45,92.5C 43.2491,88.957 41.4158,85.457 39.5,82C 39.7006,79.8886 40.3673,78.0552 41.5,76.5C 41.2011,78.604 41.5344,80.604 42.5,82.5C 43.9512,80.4411 45.9512,79.4411 48.5,79.5C 48.238,78.0222 48.5713,76.6888 49.5,75.5C 50.5207,76.9014 51.5207,78.2347 52.5,79.5 Z"/></g>
<g><path style="opacity:1" fill="#bbe833" d="M 72.5,79.5 C 71.6864,84.1191 71.3531,88.7858 71.5,93.5C 65.9647,92.9036 60.4647,92.2369 55,91.5C 54.6667,92.8333 54.3333,94.1667 54,95.5C 53.6667,92.8333 53.3333,90.1667 53,87.5C 52.4332,92.834 51.9332,98.1674 51.5,103.5C 50.5269,105.948 50.1936,108.615 50.5,111.5C 49.5076,103.684 49.1743,95.6841 49.5,87.5C 50.9779,86.5525 51.9779,85.2191 52.5,83.5C 54.0603,81.8439 55.0603,79.8439 55.5,77.5C 57.6126,78.8858 59.6126,78.5524 61.5,76.5C 62.7376,80.3107 63.4042,80.3107 63.5,76.5C 66.7107,76.988 69.544,76.3213 72,74.5C 71.904,76.3806 72.0707,78.0473 72.5,79.5 Z"/></g>
<g><path style="opacity:1" fill="#bbe832" d="M 132.5,82.5 C 131.833,82.5 131.5,82.8333 131.5,83.5C 129.084,85.2949 129.084,87.2949 131.5,89.5C 132.11,90.391 132.443,91.391 132.5,92.5C 134.341,99.2327 132.674,100.233 127.5,95.5C 123.5,90.1667 119.5,90.1667 115.5,95.5C 113.368,95.5544 112.035,96.5544 111.5,98.5C 110.503,98.5299 109.836,98.0299 109.5,97C 110.148,95.5603 110.481,94.0603 110.5,92.5C 111.15,92.1961 111.817,91.8627 112.5,91.5C 113.484,88.5719 113.817,85.5719 113.5,82.5C 112.325,82.719 111.325,82.3857 110.5,81.5C 111.714,79.9309 113.381,79.0976 115.5,79C 112.118,78.8236 108.785,78.3236 105.5,77.5C 110.399,76.8216 115.233,76.4883 120,76.5C 120.483,77.448 120.649,78.448 120.5,79.5C 121.5,79.5 122.5,79.5 123.5,79.5C 123.238,78.0222 123.571,76.6888 124.5,75.5C 125.861,77.0284 127.028,78.6951 128,80.5C 129.356,79.6198 130.856,79.2865 132.5,79.5C 132.5,80.5 132.5,81.5 132.5,82.5 Z"/></g>
<g><path style="opacity:1" fill="#87ab3a" d="M 131.5,83.5 C 130.725,85.3881 130.725,87.3881 131.5,89.5C 129.084,87.2949 129.084,85.2949 131.5,83.5 Z"/></g>
<g><path style="opacity:1" fill="#847349" d="M 164.5,63.5 C 164.833,63.5 165.167,63.5 165.5,63.5C 165.229,65.3797 165.896,66.713 167.5,67.5C 168.877,69.2895 169.877,71.2895 170.5,73.5C 170.171,76.2282 170.837,78.5615 172.5,80.5C 173.404,81.209 173.737,82.209 173.5,83.5C 173.5,84.1667 173.5,84.8333 173.5,85.5C 173.167,85.5 172.833,85.5 172.5,85.5C 170.137,78.0443 167.471,70.711 164.5,63.5 Z"/></g>
<g><path style="opacity:1" fill="#508153" d="M 75.5,75.5 C 76.5862,75.62 77.2528,76.2867 77.5,77.5C 76.5601,80.1316 76.3934,82.7983 77,85.5C 77.6667,84.8333 78.3333,84.1667 79,83.5C 81.5539,84.7711 84.3872,85.4377 87.5,85.5C 91.5147,85.3324 95.5147,84.9991 99.5,84.5C 102.089,84.4417 104.423,85.1084 106.5,86.5C 108.056,85.4529 109.723,84.7863 111.5,84.5C 112.097,84.7352 112.43,85.2352 112.5,86C 111.726,88.1542 111.059,90.3208 110.5,92.5C 110.481,94.0603 110.148,95.5603 109.5,97C 109.836,98.0299 110.503,98.5299 111.5,98.5C 110.365,100.213 108.698,100.88 106.5,100.5C 106.863,98.0885 105.863,96.5885 103.5,96C 105.271,95.4646 105.604,94.6313 104.5,93.5C 94.5309,95.4469 84.5309,96.1136 74.5,95.5C 74.5,90.1667 74.5,84.8333 74.5,79.5C 74.8333,78.1667 75.1667,76.8333 75.5,75.5 Z"/></g>
<g><path style="opacity:1" fill="#537e54" d="M 142.5,76.5 C 146.951,79.1746 151.618,80.1746 156.5,79.5C 156.5,80.8333 156.5,82.1667 156.5,83.5C 154.822,86.1947 153.156,88.8614 151.5,91.5C 149.418,91.6243 147.918,92.6243 147,94.5C 143.606,91.9681 140.106,91.9681 136.5,94.5C 135.476,93.1468 134.143,92.4802 132.5,92.5C 132.443,91.391 132.11,90.391 131.5,89.5C 130.725,87.3881 130.725,85.3881 131.5,83.5C 131.5,82.8333 131.833,82.5 132.5,82.5C 134.918,80.4109 137.585,78.7442 140.5,77.5C 141.492,77.6716 142.158,77.3382 142.5,76.5 Z"/></g>
<g><path style="opacity:1" fill="#90b931" d="M 72.5,79.5 C 72.8333,79.5 73.1667,79.5 73.5,79.5C 72.7255,84.7968 72.3921,90.1301 72.5,95.5C 71.6618,95.1583 71.3284,94.4916 71.5,93.5C 71.3531,88.7858 71.6864,84.1191 72.5,79.5 Z"/></g>
<g><path style="opacity:1" fill="#5d802c" d="M 127.5,95.5 C 125.693,94.3852 123.693,93.7186 121.5,93.5C 119.307,93.7186 117.307,94.3852 115.5,95.5C 119.5,90.1667 123.5,90.1667 127.5,95.5 Z"/></g>
<g><path style="opacity:1" fill="#8e744f" d="M 169.5,87.5 C 170.167,87.5 170.833,87.5 171.5,87.5C 171.334,96.1731 171.5,104.84 172,113.5C 172.852,112.429 173.685,111.429 174.5,110.5C 174.5,112.167 174.5,113.833 174.5,115.5C 174.741,117.898 174.074,119.898 172.5,121.5C 172.702,119.011 172.202,116.677 171,114.5C 170.617,115.056 170.117,115.389 169.5,115.5C 170.833,106.167 170.833,96.8333 169.5,87.5 Z"/></g>
<g><path style="opacity:1" fill="#36713a" d="M 42.5,71.5 C 42.3713,73.2161 42.038,74.8828 41.5,76.5C 40.3673,78.0552 39.7006,79.8886 39.5,82C 41.4158,85.457 43.2491,88.957 45,92.5C 46.0391,93.7101 47.2058,94.7101 48.5,95.5C 48.5,98.1667 48.5,100.833 48.5,103.5C 46.8008,103.34 45.1341,103.506 43.5,104C 42.624,105.586 41.624,107.086 40.5,108.5C 40.1667,108.167 39.8333,107.833 39.5,107.5C 42.3379,104.247 41.6712,103.247 37.5,104.5C 39.1892,110.059 39.6892,115.726 39,121.5C 35.7674,114.485 34.9341,107.152 36.5,99.5C 36.1667,98.1667 35.8333,96.8333 35.5,95.5C 34.1819,106.085 33.5153,106.085 33.5,95.5C 33.6964,87.5911 35.6964,80.2578 39.5,73.5C 39.4346,73.9382 39.6012,74.2716 40,74.5C 40.8518,73.4293 41.6851,72.4293 42.5,71.5 Z"/></g>
<g><path style="opacity:1" fill="#3f6e40" d="M 73.5,79.5 C 73.8333,79.5 74.1667,79.5 74.5,79.5C 74.5,84.8333 74.5,90.1667 74.5,95.5C 84.5309,96.1136 94.5309,95.4469 104.5,93.5C 105.604,94.6313 105.271,95.4646 103.5,96C 105.863,96.5885 106.863,98.0885 106.5,100.5C 105.078,100.75 104.078,101.583 103.5,103C 95.5,103.333 87.5,103.667 79.5,104C 77.8934,105.049 77.2267,106.549 77.5,108.5C 75.2155,104.436 73.5488,100.103 72.5,95.5C 72.3921,90.1301 72.7255,84.7968 73.5,79.5 Z"/></g>
<g><path style="opacity:1" fill="#a69a8a" d="M 173.5,83.5 C 174.283,85.3432 174.95,87.3432 175.5,89.5C 175.776,98.1682 175.443,106.835 174.5,115.5C 174.5,113.833 174.5,112.167 174.5,110.5C 174.573,102.146 174.24,93.8124 173.5,85.5C 173.5,84.8333 173.5,84.1667 173.5,83.5 Z"/></g>
<g><path style="opacity:1" fill="#bbae7e" d="M 32.5,95.5 C 32.4882,101.871 32.9882,108.204 34,114.5C 34.1558,117.191 34.9891,119.524 36.5,121.5C 36.9628,124.221 37.6295,126.888 38.5,129.5C 36.4676,128.439 35.1342,126.772 34.5,124.5C 33.8933,124.624 33.56,124.957 33.5,125.5C 31.162,121.278 29.8287,116.611 29.5,111.5C 29.3339,105.824 29.5006,100.157 30,94.5C 30.3333,96.1667 30.6667,97.8333 31,99.5C 31.3333,96.8333 31.6667,94.1667 32,91.5C 32.49,92.7932 32.6567,94.1266 32.5,95.5 Z"/></g>
<g><path style="opacity:1" fill="#a8e51a" d="M 71.5,93.5 C 71.3284,94.4916 71.6618,95.1583 72.5,95.5C 73.4019,100.258 73.7352,104.925 73.5,109.5C 73.3893,110.117 73.056,110.617 72.5,111C 67.4666,111.728 62.4666,111.561 57.5,110.5C 56.3527,110.182 55.5194,109.516 55,108.5C 54.8184,105.774 54.3184,103.107 53.5,100.5C 52.8243,101.602 52.1577,102.602 51.5,103.5C 51.9332,98.1674 52.4332,92.834 53,87.5C 53.3333,90.1667 53.6667,92.8333 54,95.5C 54.3333,94.1667 54.6667,92.8333 55,91.5C 60.4647,92.2369 65.9647,92.9036 71.5,93.5 Z"/></g>
<g><path style="opacity:1" fill="#336635" d="M 49.5,87.5 C 49.1743,95.6841 49.5076,103.684 50.5,111.5C 51.2163,114.598 52.2163,117.598 53.5,120.5C 53.5,120.833 53.5,121.167 53.5,121.5C 52.2652,121.279 51.2652,120.612 50.5,119.5C 50.1667,119.833 49.8333,120.167 49.5,120.5C 48.7081,124.079 47.3747,127.412 45.5,130.5C 46.4553,133.427 47.7886,136.094 49.5,138.5C 44.3743,136.692 42.0409,133.025 42.5,127.5C 41.5,127.5 40.5,127.5 39.5,127.5C 39.913,124.68 38.913,122.68 36.5,121.5C 34.9891,119.524 34.1558,117.191 34,114.5C 32.9882,108.204 32.4882,101.871 32.5,95.5C 32.8333,95.5 33.1667,95.5 33.5,95.5C 33.5153,106.085 34.1819,106.085 35.5,95.5C 35.8333,96.8333 36.1667,98.1667 36.5,99.5C 34.9341,107.152 35.7674,114.485 39,121.5C 39.6892,115.726 39.1892,110.059 37.5,104.5C 41.6712,103.247 42.3379,104.247 39.5,107.5C 39.8333,107.833 40.1667,108.167 40.5,108.5C 41.624,107.086 42.624,105.586 43.5,104C 45.1341,103.506 46.8008,103.34 48.5,103.5C 48.5,100.833 48.5,98.1667 48.5,95.5C 48.1936,92.6146 48.5269,89.9479 49.5,87.5 Z"/></g>
<g><path style="opacity:1" fill="#a9b79a" d="M 168.5,87.5 C 168.833,87.5 169.167,87.5 169.5,87.5C 170.833,96.8333 170.833,106.167 169.5,115.5C 168.508,121.831 166.175,127.498 162.5,132.5C 164.226,126.821 166.06,121.154 168,115.5C 168.497,112.854 168.664,110.187 168.5,107.5C 168.5,100.833 168.5,94.1667 168.5,87.5 Z"/></g>
<g><path style="opacity:1" fill="#356238" d="M 151.5,91.5 C 149.693,94.9833 147.027,97.3167 143.5,98.5C 143.279,100.664 142.279,102.33 140.5,103.5C 138.745,104.072 137.078,104.906 135.5,106C 119.519,107.499 103.519,108.665 87.5,109.5C 87.5427,114.176 85.8761,115.176 82.5,112.5C 81.7025,112.957 81.3691,113.624 81.5,114.5C 80.2719,113.694 79.2719,112.694 78.5,111.5C 78.4431,110.391 78.1098,109.391 77.5,108.5C 77.2267,106.549 77.8934,105.049 79.5,104C 87.5,103.667 95.5,103.333 103.5,103C 104.078,101.583 105.078,100.75 106.5,100.5C 108.698,100.88 110.365,100.213 111.5,98.5C 112.035,96.5544 113.368,95.5544 115.5,95.5C 117.307,94.3852 119.307,93.7186 121.5,93.5C 123.693,93.7186 125.693,94.3852 127.5,95.5C 132.674,100.233 134.341,99.2327 132.5,92.5C 134.143,92.4802 135.476,93.1468 136.5,94.5C 140.106,91.9681 143.606,91.9681 147,94.5C 147.918,92.6243 149.418,91.6243 151.5,91.5 Z"/></g>
<g><path style="opacity:1" fill="#71541a" d="M 172.5,85.5 C 172.833,85.5 173.167,85.5 173.5,85.5C 174.24,93.8124 174.573,102.146 174.5,110.5C 173.685,111.429 172.852,112.429 172,113.5C 171.5,104.84 171.334,96.1731 171.5,87.5C 172.338,87.1583 172.672,86.4916 172.5,85.5 Z"/></g>
<g><path style="opacity:1" fill="#8ac11c" d="M 72.5,95.5 C 73.5488,100.103 75.2155,104.436 77.5,108.5C 78.1098,109.391 78.4431,110.391 78.5,111.5C 77.04,109.578 75.3733,108.911 73.5,109.5C 73.7352,104.925 73.4019,100.258 72.5,95.5 Z"/></g>
<g><path style="opacity:1" fill="#2c562d" d="M 140.5,103.5 C 140.489,105.017 139.823,106.184 138.5,107C 134.94,108.237 131.273,108.737 127.5,108.5C 127.5,109.5 127.5,110.5 127.5,111.5C 120.765,110.566 114.599,111.899 109,115.5C 102.451,116.762 95.9506,118.262 89.5,120C 90.5,120.333 91.5,120.667 92.5,121C 91.2888,121.893 91.2888,122.726 92.5,123.5C 96.0237,120.355 99.6904,120.022 103.5,122.5C 101.5,123.167 99.5,123.833 97.5,124.5C 98.6119,125.265 99.2786,126.265 99.5,127.5C 95.1988,127.182 91.5322,125.515 88.5,122.5C 86.1956,119.859 83.8623,117.192 81.5,114.5C 81.3691,113.624 81.7025,112.957 82.5,112.5C 85.8761,115.176 87.5427,114.176 87.5,109.5C 103.519,108.665 119.519,107.499 135.5,106C 137.078,104.906 138.745,104.072 140.5,103.5 Z"/></g>
<g><path style="opacity:1" fill="#234925" d="M 140.5,103.5 C 141.5,103.5 142.5,103.5 143.5,103.5C 143.933,106.166 144.433,108.832 145,111.5C 145.956,108.623 147.289,105.956 149,103.5C 149.49,104.793 149.657,106.127 149.5,107.5C 142.936,119.739 132.936,127.406 119.5,130.5C 112.47,131.034 105.803,130.034 99.5,127.5C 99.2786,126.265 98.6119,125.265 97.5,124.5C 99.5,123.833 101.5,123.167 103.5,122.5C 99.6904,120.022 96.0237,120.355 92.5,123.5C 91.2888,122.726 91.2888,121.893 92.5,121C 91.5,120.667 90.5,120.333 89.5,120C 95.9506,118.262 102.451,116.762 109,115.5C 114.599,111.899 120.765,110.566 127.5,111.5C 127.5,110.5 127.5,109.5 127.5,108.5C 131.273,108.737 134.94,108.237 138.5,107C 139.823,106.184 140.489,105.017 140.5,103.5 Z"/></g>
<g><path style="opacity:1" fill="#98df0b" d="M 73.5,109.5 C 75.3733,108.911 77.04,109.578 78.5,111.5C 79.2719,112.694 80.2719,113.694 81.5,114.5C 83.8623,117.192 86.1956,119.859 88.5,122.5C 87.628,126.184 85.4614,127.184 82,125.5C 79.841,127.956 79.0077,127.29 79.5,123.5C 74.1563,123.666 68.8229,123.499 63.5,123C 62.9288,121.795 62.2621,120.628 61.5,119.5C 60.8333,120.167 60.1667,120.833 59.5,121.5C 58.2798,120.289 57.1131,120.289 56,121.5C 55.6667,120.167 55.3333,118.833 55,117.5C 54.7679,118.737 54.2679,119.737 53.5,120.5C 52.2163,117.598 51.2163,114.598 50.5,111.5C 50.1936,108.615 50.5269,105.948 51.5,103.5C 52.1577,102.602 52.8243,101.602 53.5,100.5C 54.3184,103.107 54.8184,105.774 55,108.5C 55.5194,109.516 56.3527,110.182 57.5,110.5C 62.4666,111.561 67.4666,111.728 72.5,111C 73.056,110.617 73.3893,110.117 73.5,109.5 Z"/></g>
<g><path style="opacity:1" fill="#1e3d1d" d="M 159.5,129.5 C 157.012,127.612 154.012,126.945 150.5,127.5C 150.843,125.517 150.176,124.183 148.5,123.5C 150.711,118.683 152.378,113.683 153.5,108.5C 154.163,106.958 154.83,105.291 155.5,103.5C 156.5,104.167 157.5,104.833 158.5,105.5C 159.604,104.369 159.271,103.535 157.5,103C 159.557,99.7002 160.557,99.8669 160.5,103.5C 161.833,103.5 163.167,103.5 164.5,103.5C 164.199,109.511 163.699,115.511 163,121.5C 162.125,124.401 160.958,127.068 159.5,129.5 Z"/></g>
<g><path style="opacity:1" fill="#92dc0a" d="M 88.5,122.5 C 91.5322,125.515 95.1988,127.182 99.5,127.5C 105.803,130.034 112.47,131.034 119.5,130.5C 123.481,129.979 127.481,129.646 131.5,129.5C 131.281,128.325 131.614,127.325 132.5,126.5C 133.451,127.326 134.451,127.492 135.5,127C 134.346,126.086 134.513,125.253 136,124.5C 136.667,126.5 138,127.833 140,128.5C 140.49,129.793 140.657,131.127 140.5,132.5C 136.87,132.997 133.537,133.664 130.5,134.5C 131.729,135.281 133.062,135.781 134.5,136C 132.963,137.11 132.297,138.61 132.5,140.5C 132.5,141.167 132.167,141.5 131.5,141.5C 128.597,142.285 125.93,143.618 123.5,145.5C 120.572,144.079 119.238,145.079 119.5,148.5C 117.11,150.02 114.443,151.02 111.5,151.5C 104.833,151.5 98.1667,151.5 91.5,151.5C 90.158,150.207 88.4913,149.374 86.5,149C 87.727,147.413 87.3937,146.079 85.5,145C 86.1667,144.667 86.8333,144.333 87.5,144C 83.7532,144.372 80.0865,144.538 76.5,144.5C 73.902,142.102 70.902,140.435 67.5,139.5C 65.2095,138.049 63.0428,136.382 61,134.5C 57.8049,130.495 55.3049,126.161 53.5,121.5C 53.5,121.167 53.5,120.833 53.5,120.5C 54.2679,119.737 54.7679,118.737 55,117.5C 55.3333,118.833 55.6667,120.167 56,121.5C 57.1131,120.289 58.2798,120.289 59.5,121.5C 60.1667,120.833 60.8333,120.167 61.5,119.5C 62.2621,120.628 62.9288,121.795 63.5,123C 68.8229,123.499 74.1563,123.666 79.5,123.5C 79.0077,127.29 79.841,127.956 82,125.5C 85.4614,127.184 87.628,126.184 88.5,122.5 Z"/></g>
<g><path style="opacity:1" fill="#91d20e" d="M 153.5,108.5 C 152.378,113.683 150.711,118.683 148.5,123.5C 147.5,124.833 146.5,126.167 145.5,127.5C 143.782,129.223 142.449,131.223 141.5,133.5C 141.167,134.5 140.5,135.167 139.5,135.5C 137.596,135.738 136.262,136.738 135.5,138.5C 135.5,138.833 135.5,139.167 135.5,139.5C 134.391,139.557 133.391,139.89 132.5,140.5C 132.297,138.61 132.963,137.11 134.5,136C 133.062,135.781 131.729,135.281 130.5,134.5C 133.537,133.664 136.87,132.997 140.5,132.5C 140.657,131.127 140.49,129.793 140,128.5C 138,127.833 136.667,126.5 136,124.5C 134.513,125.253 134.346,126.086 135.5,127C 134.451,127.492 133.451,127.326 132.5,126.5C 131.614,127.325 131.281,128.325 131.5,129.5C 127.481,129.646 123.481,129.979 119.5,130.5C 132.936,127.406 142.936,119.739 149.5,107.5C 152.146,101.873 153.48,102.206 153.5,108.5 Z"/></g>
<g><path style="opacity:1" fill="#bcb3a1" d="M 172.5,121.5 C 172.277,125.162 171.277,128.495 169.5,131.5C 169.723,127.838 170.723,124.505 172.5,121.5 Z"/></g>
<g><path style="opacity:1" fill="#b1a78c" d="M 30.5,81.5 C 29.3785,88.2792 28.7118,95.1125 28.5,102C 28.5018,105.352 28.8351,108.518 29.5,111.5C 29.8287,116.611 31.162,121.278 33.5,125.5C 36.4061,133.059 39.7394,140.392 43.5,147.5C 34.9837,137.15 29.817,125.483 28,112.5C 27.3333,104.5 27.3333,96.5 28,88.5C 28.3903,85.8958 29.2237,83.5625 30.5,81.5 Z"/></g>
<g><path style="opacity:1" fill="#cbcaba" d="M 168.5,133.5 C 168.34,135.153 167.674,136.486 166.5,137.5C 166.229,135.62 166.896,134.287 168.5,133.5 Z"/></g>
<g><path style="opacity:1" fill="#c6bba8" d="M 166.5,137.5 C 166.573,139.027 165.906,140.027 164.5,140.5C 164.427,138.973 165.094,137.973 166.5,137.5 Z"/></g>
<g><path style="opacity:1" fill="#979a74" d="M 162.5,132.5 C 160.427,138.424 157.26,143.757 153,148.5C 143.851,158.503 132.684,164.836 119.5,167.5C 133.83,162.565 145.997,154.232 156,142.5C 157.942,138.931 160.108,135.598 162.5,132.5 Z"/></g>
<g><path style="opacity:0.184" fill="#e2e7dc" d="M 158.5,148.5 C 158.715,150.179 158.048,151.179 156.5,151.5C 156.932,150.29 157.599,149.29 158.5,148.5 Z"/></g>
<g><path style="opacity:1" fill="#a79560" d="M 38.5,129.5 C 41.0565,134.269 43.8898,138.936 47,143.5C 52.3953,149.064 57.8953,154.397 63.5,159.5C 61.9557,159.297 60.6223,158.63 59.5,157.5C 58.4376,158.425 58.4376,159.425 59.5,160.5C 55.4057,156.909 51.4057,153.075 47.5,149C 46.2068,148.51 44.8734,148.343 43.5,148.5C 43.5,148.167 43.5,147.833 43.5,147.5C 39.7394,140.392 36.4061,133.059 33.5,125.5C 33.56,124.957 33.8933,124.624 34.5,124.5C 35.1342,126.772 36.4676,128.439 38.5,129.5 Z"/></g>
<g><path style="opacity:1" fill="#a49974" d="M 43.5,148.5 C 44.8734,148.343 46.2068,148.51 47.5,149C 51.4057,153.075 55.4057,156.909 59.5,160.5C 63.8319,163.005 67.8319,166.005 71.5,169.5C 60.47,164.809 51.1366,157.809 43.5,148.5 Z"/></g>
<g><path style="opacity:1" fill="#2d592e" d="M 168.5,107.5 C 168.664,110.187 168.497,112.854 168,115.5C 166.06,121.154 164.226,126.821 162.5,132.5C 160.108,135.598 157.942,138.931 156,142.5C 145.997,154.232 133.83,162.565 119.5,167.5C 106.831,170.166 94.164,170.166 81.5,167.5C 75.614,164.646 69.614,161.98 63.5,159.5C 57.8953,154.397 52.3953,149.064 47,143.5C 43.8898,138.936 41.0565,134.269 38.5,129.5C 37.6295,126.888 36.9628,124.221 36.5,121.5C 38.913,122.68 39.913,124.68 39.5,127.5C 40.5,127.5 41.5,127.5 42.5,127.5C 42.0409,133.025 44.3743,136.692 49.5,138.5C 47.7886,136.094 46.4553,133.427 45.5,130.5C 47.3747,127.412 48.7081,124.079 49.5,120.5C 49.8333,120.167 50.1667,119.833 50.5,119.5C 51.2652,120.612 52.2652,121.279 53.5,121.5C 55.3049,126.161 57.8049,130.495 61,134.5C 63.0428,136.382 65.2095,138.049 67.5,139.5C 68.1667,140.5 68.8333,141.5 69.5,142.5C 66.6725,143.935 64.3391,143.269 62.5,140.5C 59.5673,142.738 59.9007,143.738 63.5,143.5C 63.1866,146.247 63.52,148.914 64.5,151.5C 66.4259,152.061 68.4259,152.227 70.5,152C 70.1667,152.333 69.8333,152.667 69.5,153C 71.25,154.754 71.9167,156.921 71.5,159.5C 78.9016,160.97 86.9016,162.803 95.5,165C 101.016,165.817 106.35,165.651 111.5,164.5C 123.057,162.276 133.723,157.776 143.5,151C 149.971,144.504 155.304,137.337 159.5,129.5C 160.958,127.068 162.125,124.401 163,121.5C 163.699,115.511 164.199,109.511 164.5,103.5C 163.167,103.5 161.833,103.5 160.5,103.5C 160.557,99.8669 159.557,99.7002 157.5,103C 159.271,103.535 159.604,104.369 158.5,105.5C 157.5,104.833 156.5,104.167 155.5,103.5C 154.83,105.291 154.163,106.958 153.5,108.5C 153.48,102.206 152.146,101.873 149.5,107.5C 149.657,106.127 149.49,104.793 149,103.5C 147.289,105.956 145.956,108.623 145,111.5C 144.433,108.832 143.933,106.166 143.5,103.5C 142.5,103.5 141.5,103.5 140.5,103.5C 142.279,102.33 143.279,100.664 143.5,98.5C 147.027,97.3167 149.693,94.9833 151.5,91.5C 153.156,88.8614 154.822,86.1947 156.5,83.5C 157.117,83.3893 157.617,83.056 158,82.5C 159,83.5 160,84.5 161,85.5C 161.333,84.8333 161.667,84.1667 162,83.5C 163.682,84.8646 163.849,86.3646 162.5,88C 164,90.1667 165.5,92.3333 167,94.5C 167.175,99.0195 167.675,103.353 168.5,107.5 Z"/></g>
<g><path style="opacity:1" fill="#244822" d="M 69.5,142.5 C 72.9262,144.076 76.2595,145.909 79.5,148C 83.2634,149.864 87.2634,151.031 91.5,151.5C 98.1667,151.5 104.833,151.5 111.5,151.5C 79.7846,152.322 79.7846,153.489 111.5,155C 79.5,155.667 79.5,156.333 111.5,157C 103.5,157.333 95.5,157.667 87.5,158C 91.7265,157.967 95.3932,159.301 98.5,162C 98.0426,162.414 97.7093,162.914 97.5,163.5C 102.12,164.493 106.786,164.827 111.5,164.5C 106.35,165.651 101.016,165.817 95.5,165C 86.9016,162.803 78.9016,160.97 71.5,159.5C 71.9167,156.921 71.25,154.754 69.5,153C 69.8333,152.667 70.1667,152.333 70.5,152C 68.4259,152.227 66.4259,152.061 64.5,151.5C 63.52,148.914 63.1866,146.247 63.5,143.5C 59.9007,143.738 59.5673,142.738 62.5,140.5C 64.3391,143.269 66.6725,143.935 69.5,142.5 Z"/></g>
<g><path style="opacity:1" fill="#84c30b" d="M 131.5,141.5 C 130.473,143.194 129.139,144.527 127.5,145.5C 125.072,147.043 122.406,148.043 119.5,148.5C 119.238,145.079 120.572,144.079 123.5,145.5C 125.93,143.618 128.597,142.285 131.5,141.5 Z"/></g>
<g><path style="opacity:1" fill="#87ca0b" d="M 67.5,139.5 C 70.902,140.435 73.902,142.102 76.5,144.5C 80.0865,144.538 83.7532,144.372 87.5,144C 86.8333,144.333 86.1667,144.667 85.5,145C 87.3937,146.079 87.727,147.413 86.5,149C 88.4913,149.374 90.158,150.207 91.5,151.5C 87.2634,151.031 83.2634,149.864 79.5,148C 76.2595,145.909 72.9262,144.076 69.5,142.5C 68.8333,141.5 68.1667,140.5 67.5,139.5 Z"/></g>
<g><path style="opacity:1" fill="#18331a" d="M 148.5,123.5 C 150.176,124.183 150.843,125.517 150.5,127.5C 154.012,126.945 157.012,127.612 159.5,129.5C 155.304,137.337 149.971,144.504 143.5,151C 133.723,157.776 123.057,162.276 111.5,164.5C 106.786,164.827 102.12,164.493 97.5,163.5C 97.7093,162.914 98.0426,162.414 98.5,162C 95.3932,159.301 91.7265,157.967 87.5,158C 95.5,157.667 103.5,157.333 111.5,157C 79.5,156.333 79.5,155.667 111.5,155C 79.7846,153.489 79.7846,152.322 111.5,151.5C 114.443,151.02 117.11,150.02 119.5,148.5C 122.406,148.043 125.072,147.043 127.5,145.5C 130.989,144.687 133.656,142.687 135.5,139.5C 135.5,139.167 135.5,138.833 135.5,138.5C 137.404,138.262 138.738,137.262 139.5,135.5C 140.5,135.167 141.167,134.5 141.5,133.5C 144.044,132.292 145.378,130.292 145.5,127.5C 146.5,126.167 147.5,124.833 148.5,123.5 Z"/></g>
<g><path style="opacity:1" fill="#304f04" d="M 135.5,139.5 C 133.656,142.687 130.989,144.687 127.5,145.5C 129.139,144.527 130.473,143.194 131.5,141.5C 132.167,141.5 132.5,141.167 132.5,140.5C 133.391,139.89 134.391,139.557 135.5,139.5 Z"/></g>
<g><path style="opacity:1" fill="#56810b" d="M 139.5,135.5 C 138.738,137.262 137.404,138.262 135.5,138.5C 136.262,136.738 137.596,135.738 139.5,135.5 Z"/></g>
<g><path style="opacity:1" fill="#41660c" d="M 145.5,127.5 C 145.378,130.292 144.044,132.292 141.5,133.5C 142.449,131.223 143.782,129.223 145.5,127.5 Z"/></g>
<g><path style="opacity:1" fill="#856835" d="M 172.5,121.5 C 170.723,124.505 169.723,127.838 169.5,131.5C 169.167,132.167 168.833,132.833 168.5,133.5C 166.896,134.287 166.229,135.62 166.5,137.5C 165.094,137.973 164.427,138.973 164.5,140.5C 163.471,143.891 161.471,146.557 158.5,148.5C 157.599,149.29 156.932,150.29 156.5,151.5C 153.052,156.287 148.719,159.954 143.5,162.5C 141.973,162.427 140.973,163.094 140.5,164.5C 134.956,166.571 129.289,168.404 123.5,170C 123.833,170.333 124.167,170.667 124.5,171C 123.584,171.278 122.918,171.778 122.5,172.5C 121.791,173.404 120.791,173.737 119.5,173.5C 116.482,173.704 113.482,174.037 110.5,174.5C 104.491,174.666 98.4908,174.499 92.5,174C 90.9419,173.79 89.6085,173.29 88.5,172.5C 95.1822,171.467 101.849,171.467 108.5,172.5C 110.038,172.547 111.038,171.88 111.5,170.5C 114.636,170.397 117.302,169.397 119.5,167.5C 132.684,164.836 143.851,158.503 153,148.5C 157.26,143.757 160.427,138.424 162.5,132.5C 166.175,127.498 168.508,121.831 169.5,115.5C 170.117,115.389 170.617,115.056 171,114.5C 172.202,116.677 172.702,119.011 172.5,121.5 Z"/></g>
<g><path style="opacity:0.569" fill="#d7d4c5" d="M 143.5,162.5 C 143.027,163.906 142.027,164.573 140.5,164.5C 140.973,163.094 141.973,162.427 143.5,162.5 Z"/></g>
<g><path style="opacity:1" fill="#a6a071" d="M 63.5,159.5 C 69.614,161.98 75.614,164.646 81.5,167.5C 76.1301,166.011 70.7967,164.178 65.5,162C 64.6195,161.292 63.9528,160.458 63.5,159.5 Z"/></g>
<g><path style="opacity:1" fill="#a69579" d="M 140.5,164.5 C 135.163,168.464 129.163,171.131 122.5,172.5C 122.918,171.778 123.584,171.278 124.5,171C 124.167,170.667 123.833,170.333 123.5,170C 129.289,168.404 134.956,166.571 140.5,164.5 Z"/></g>
<g><path style="opacity:1" fill="#9f8348" d="M 63.5,159.5 C 63.9528,160.458 64.6195,161.292 65.5,162C 70.7967,164.178 76.1301,166.011 81.5,167.5C 83.1484,168.927 85.1484,169.76 87.5,170C 95.4931,170.5 103.493,170.666 111.5,170.5C 111.038,171.88 110.038,172.547 108.5,172.5C 101.849,171.467 95.1822,171.467 88.5,172.5C 83.1198,171.791 77.7864,170.791 72.5,169.5C 72.1667,169.5 71.8333,169.5 71.5,169.5C 67.8319,166.005 63.8319,163.005 59.5,160.5C 58.4376,159.425 58.4376,158.425 59.5,157.5C 60.6223,158.63 61.9557,159.297 63.5,159.5 Z"/></g>
<g><path style="opacity:1" fill="#949062" d="M 81.5,167.5 C 94.164,170.166 106.831,170.166 119.5,167.5C 117.302,169.397 114.636,170.397 111.5,170.5C 103.493,170.666 95.4931,170.5 87.5,170C 85.1484,169.76 83.1484,168.927 81.5,167.5 Z"/></g>
<g><path style="opacity:1" fill="#a09579" d="M 72.5,169.5 C 77.7864,170.791 83.1198,171.791 88.5,172.5C 89.6085,173.29 90.9419,173.79 92.5,174C 98.4908,174.499 104.491,174.666 110.5,174.5C 110.5,174.833 110.5,175.167 110.5,175.5C 97.8367,176.532 85.5033,175.032 73.5,171C 72.944,170.617 72.6107,170.117 72.5,169.5 Z"/></g>
<g><path style="opacity:0.902" fill="#e2dcd5" d="M 119.5,173.5 C 116.781,174.913 113.781,175.58 110.5,175.5C 110.5,175.167 110.5,174.833 110.5,174.5C 113.482,174.037 116.482,173.704 119.5,173.5 Z"/></g>
</svg>
