<?xml version="1.0" encoding="UTF-8"?>
<!DOCTYPE svg PUBLIC "-//W3C//DTD SVG 1.1//EN" "http://www.w3.org/Graphics/SVG/1.1/DTD/svg11.dtd">
<svg xmlns="http://www.w3.org/2000/svg" version="1.1" width="96px" height="96px" style="shape-rendering:geometricPrecision; text-rendering:geometricPrecision; image-rendering:optimizeQuality; fill-rule:evenodd; clip-rule:evenodd" xmlns:xlink="http://www.w3.org/1999/xlink">
<g><path style="opacity:1" fill="#fefefe" d="M 56.5,18.5 C 56.6666,36.1698 56.4999,53.8365 56,71.5C 50.7751,73.2733 45.6084,73.94 40.5,73.5C 39.5,73.5 38.5,73.5 37.5,73.5C 37.5,55.1667 37.5,36.8333 37.5,18.5C 40.8212,18.5358 43.9879,17.8692 47,16.5C 50.1635,17.2497 53.3301,17.9164 56.5,18.5 Z"/></g>
<g><path style="opacity:1" fill="#12a2e7" d="M 36.5,19.5 C 36.8328,36.8461 36.4995,54.1795 35.5,71.5C 34.1502,70.0499 32.4835,69.3832 30.5,69.5C 27.1886,68.1886 24.8552,65.8553 23.5,62.5C 23.4456,60.368 22.4456,59.0347 20.5,58.5C 15.3673,46.0013 17.3673,34.8346 26.5,25C 29.6999,22.9005 33.0333,21.0672 36.5,19.5 Z"/></g>
<g><path style="opacity:1" fill="#131212" d="M 56.5,18.5 C 57.1667,18.5 57.5,18.8333 57.5,19.5C 57.17,37.008 57.5033,54.3414 58.5,71.5C 52.8427,74.5008 46.8427,75.1675 40.5,73.5C 45.6084,73.94 50.7751,73.2733 56,71.5C 56.4999,53.8365 56.6666,36.1698 56.5,18.5 Z"/></g>
<g><path style="opacity:1" fill="#ea1f24" d="M 57.5,19.5 C 58.1667,19.5 58.8333,19.5 59.5,19.5C 61.8003,21.984 64.4669,23.984 67.5,25.5C 68.1667,25.5 68.5,25.8333 68.5,26.5C 71.4821,31.444 73.4821,36.7774 74.5,42.5C 74.5,44.1667 74.5,45.8333 74.5,47.5C 73.7063,50.802 73.0396,54.1353 72.5,57.5C 71.5849,59.7541 70.2516,61.7541 68.5,63.5C 67.5,63.8333 66.8333,64.5 66.5,65.5C 66.5,66.1667 66.1667,66.5 65.5,66.5C 64.5,66.8333 63.8333,67.5 63.5,68.5C 63.1583,69.3382 62.4916,69.6716 61.5,69.5C 60.5084,69.3284 59.8417,69.6618 59.5,70.5C 58.8333,70.5 58.5,70.8333 58.5,71.5C 57.5033,54.3414 57.17,37.008 57.5,19.5 Z"/></g>
<g><path style="opacity:1" fill="#6a6a6a" d="M 59.5,19.5 C 63.0455,20.3851 65.7122,22.3851 67.5,25.5C 64.4669,23.984 61.8003,21.984 59.5,19.5 Z"/></g>
<g><path style="opacity:1" fill="#605e5d" d="M 68.5,26.5 C 72.4373,30.4354 74.7706,35.2688 75.5,41C 75.4301,41.7648 75.0967,42.2648 74.5,42.5C 73.4821,36.7774 71.4821,31.444 68.5,26.5 Z"/></g>
<g><path style="opacity:1" fill="#aeaeae" d="M 59.5,19.5 C 58.8333,19.5 58.1667,19.5 57.5,19.5C 57.5,18.8333 57.1667,18.5 56.5,18.5C 53.3301,17.9164 50.1635,17.2497 47,16.5C 43.9879,17.8692 40.8212,18.5358 37.5,18.5C 36.8333,18.5 36.5,18.8333 36.5,19.5C 33.0333,21.0672 29.6999,22.9005 26.5,25C 17.3673,34.8346 15.3673,46.0013 20.5,58.5C 12.8452,41.3151 17.1786,27.8151 33.5,18C 41.8333,14.6667 50.1667,14.6667 58.5,18C 59.056,18.3826 59.3893,18.8826 59.5,19.5 Z"/></g>
<g><path style="opacity:1" fill="#565656" d="M 74.5,47.5 C 75.2891,47.7828 75.9558,48.2828 76.5,49C 75.2355,51.9576 73.9022,54.7909 72.5,57.5C 73.0396,54.1353 73.7063,50.802 74.5,47.5 Z"/></g>
<g><path style="opacity:1" fill="#a0a0a0" d="M 20.5,58.5 C 22.4456,59.0347 23.4456,60.368 23.5,62.5C 21.7376,61.7377 20.7376,60.4044 20.5,58.5 Z"/></g>
<g><path style="opacity:1" fill="#3f3f3f" d="M 68.5,63.5 C 68.5,64.8333 67.8333,65.5 66.5,65.5C 66.8333,64.5 67.5,63.8333 68.5,63.5 Z"/></g>
<g><path style="opacity:1" fill="#5f5f5f" d="M 65.5,66.5 C 65.5,67.8333 64.8333,68.5 63.5,68.5C 63.8333,67.5 64.5,66.8333 65.5,66.5 Z"/></g>
<g><path style="opacity:1" fill="#535353" d="M 61.5,69.5 C 60.9941,71.1054 60.3274,71.4387 59.5,70.5C 59.8417,69.6618 60.5084,69.3284 61.5,69.5 Z"/></g>
<g><path style="opacity:1" fill="#565656" d="M 37.5,18.5 C 37.5,36.8333 37.5,55.1667 37.5,73.5C 34.6829,72.9049 32.3495,71.5716 30.5,69.5C 32.4835,69.3832 34.1502,70.0499 35.5,71.5C 36.4995,54.1795 36.8328,36.8461 36.5,19.5C 36.5,18.8333 36.8333,18.5 37.5,18.5 Z"/></g>
</svg>
