<?xml version="1.0" encoding="UTF-8"?>
<!DOCTYPE svg PUBLIC "-//W3C//DTD SVG 1.1//EN" "http://www.w3.org/Graphics/SVG/1.1/DTD/svg11.dtd">
<svg xmlns="http://www.w3.org/2000/svg" version="1.1" width="96px" height="96px" style="shape-rendering:geometricPrecision; text-rendering:geometricPrecision; image-rendering:optimizeQuality; fill-rule:evenodd; clip-rule:evenodd" xmlns:xlink="http://www.w3.org/1999/xlink">
<g><path style="opacity:1" fill="#f7f7f7" d="M 50.5,18.5 C 52.5,18.8333 54.5,19.1667 56.5,19.5C 58.0248,21.2163 59.0248,23.2163 59.5,25.5C 60.3242,28.7644 60.6576,32.0977 60.5,35.5C 60.573,37.0269 59.9063,38.0269 58.5,38.5C 57.5116,39.795 56.5116,41.1283 55.5,42.5C 54.7095,43.4013 53.7095,44.0679 52.5,44.5C 49.1501,44.335 45.8168,44.5017 42.5,45C 41.0577,45.3768 40.0577,46.2101 39.5,47.5C 38.8333,47.5 38.5,47.8333 38.5,48.5C 36.9731,48.427 35.9731,49.0937 35.5,50.5C 35.5,51.1667 35.1667,51.5 34.5,51.5C 32.9666,53.6345 32.2999,56.1345 32.5,59C 32.5056,61.0326 32.8389,62.866 33.5,64.5C 34.5,65.8333 35.5,67.1667 36.5,68.5C 37.087,69.7666 37.087,70.7666 36.5,71.5C 31.5104,69.1945 27.1771,66.1945 23.5,62.5C 14.262,44.157 18.4286,29.8236 36,19.5C 40.8102,17.8866 45.6435,17.5532 50.5,18.5 Z"/></g>
<g><path style="opacity:1" fill="#fc0f0f" d="M 56.5,19.5 C 60.3267,21.246 63.9934,23.246 67.5,25.5C 68.1667,25.5 68.5,25.8333 68.5,26.5C 71.4821,31.444 73.4821,36.7774 74.5,42.5C 74.5,44.1667 74.5,45.8333 74.5,47.5C 73.7063,50.802 73.0396,54.1353 72.5,57.5C 71.5849,59.7541 70.2516,61.7541 68.5,63.5C 67.5,63.8333 66.8333,64.5 66.5,65.5C 66.5,66.1667 66.1667,66.5 65.5,66.5C 64.5,66.8333 63.8333,67.5 63.5,68.5C 63.1583,69.3382 62.4916,69.6716 61.5,69.5C 60.5084,69.3284 59.8417,69.6618 59.5,70.5C 58.8333,70.5 58.5,70.8333 58.5,71.5C 55.6275,71.8023 52.9608,72.469 50.5,73.5C 48.0897,74.4385 45.7564,74.4385 43.5,73.5C 40.8623,72.2963 38.529,70.6296 36.5,68.5C 35.5,67.1667 34.5,65.8333 33.5,64.5C 33.3718,60.1186 33.7051,55.7853 34.5,51.5C 35.1667,51.5 35.5,51.1667 35.5,50.5C 37.0269,50.573 38.0269,49.9063 38.5,48.5C 38.5,47.8333 38.8333,47.5 39.5,47.5C 44.0489,46.9546 48.3822,45.9546 52.5,44.5C 53.7095,44.0679 54.7095,43.4013 55.5,42.5C 57.9118,42.3059 58.9118,40.9726 58.5,38.5C 59.9063,38.0269 60.573,37.0269 60.5,35.5C 61.6378,32.6965 61.8045,29.6965 61,26.5C 60.6174,25.944 60.1174,25.6107 59.5,25.5C 59.0248,23.2163 58.0248,21.2163 56.5,19.5 Z"/></g>
<g><path style="opacity:1" fill="#7d6f6b" d="M 51.5,16.5 C 53.5412,16.8541 55.3745,16.8541 57,16.5C 61.0778,18.9363 64.5778,21.9363 67.5,25.5C 63.9934,23.246 60.3267,21.246 56.5,19.5C 54.5,19.1667 52.5,18.8333 50.5,18.5C 50.3284,17.5084 50.6618,16.8417 51.5,16.5 Z"/></g>
<g><path style="opacity:1" fill="#4c4c4c" d="M 59.5,25.5 C 60.1174,25.6107 60.6174,25.944 61,26.5C 61.8045,29.6965 61.6378,32.6965 60.5,35.5C 60.6576,32.0977 60.3242,28.7644 59.5,25.5 Z"/></g>
<g><path style="opacity:1" fill="#161616" d="M 44.5,27.5 C 49.3276,27.3852 50.6609,29.5519 48.5,34C 46.8659,34.4935 45.1992,34.6602 43.5,34.5C 43.298,32.0504 43.6314,29.717 44.5,27.5 Z"/></g>
<g><path style="opacity:1" fill="#605e5d" d="M 68.5,26.5 C 72.4373,30.4354 74.7706,35.2688 75.5,41C 75.4301,41.7648 75.0967,42.2648 74.5,42.5C 73.4821,36.7774 71.4821,31.444 68.5,26.5 Z"/></g>
<g><path style="opacity:1" fill="#b6b6b6" d="M 51.5,16.5 C 50.6618,16.8417 50.3284,17.5084 50.5,18.5C 45.6435,17.5532 40.8102,17.8866 36,19.5C 18.4286,29.8236 14.262,44.157 23.5,62.5C 18.5814,57.8124 16.2481,51.9791 16.5,45C 19.2016,24.1074 30.8682,14.6074 51.5,16.5 Z"/></g>
<g><path style="opacity:1" fill="#66433f" d="M 58.5,38.5 C 58.9118,40.9726 57.9118,42.3059 55.5,42.5C 56.5116,41.1283 57.5116,39.795 58.5,38.5 Z"/></g>
<g><path style="opacity:1" fill="#6a6a6a" d="M 52.5,44.5 C 48.3822,45.9546 44.0489,46.9546 39.5,47.5C 40.0577,46.2101 41.0577,45.3768 42.5,45C 45.8168,44.5017 49.1501,44.335 52.5,44.5 Z"/></g>
<g><path style="opacity:1" fill="#464646" d="M 38.5,48.5 C 38.0269,49.9063 37.0269,50.573 35.5,50.5C 35.9731,49.0937 36.9731,48.427 38.5,48.5 Z"/></g>
<g><path style="opacity:1" fill="#555555" d="M 74.5,47.5 C 75.2891,47.7828 75.9558,48.2828 76.5,49C 75.2355,51.9576 73.9022,54.7909 72.5,57.5C 73.0396,54.1353 73.7063,50.802 74.5,47.5 Z"/></g>
<g><path style="opacity:1" fill="#7f7f7f" d="M 43.5,56.5 C 49.8333,54.1667 51.8333,56.1667 49.5,62.5C 50.5,57.5 48.5,55.5 43.5,56.5 Z"/></g>
<g><path style="opacity:1" fill="#575757" d="M 34.5,51.5 C 33.7051,55.7853 33.3718,60.1186 33.5,64.5C 32.8389,62.866 32.5056,61.0326 32.5,59C 32.2999,56.1345 32.9666,53.6345 34.5,51.5 Z"/></g>
<g><path style="opacity:1" fill="#403f3f" d="M 43.5,56.5 C 42.1667,58.5 42.1667,60.5 43.5,62.5C 40.8333,60.5 40.8333,58.5 43.5,56.5 Z"/></g>
<g><path style="opacity:1" fill="#d9d9d9" d="M 43.5,56.5 C 48.5,55.5 50.5,57.5 49.5,62.5C 47.5,63.8333 45.5,63.8333 43.5,62.5C 42.1667,60.5 42.1667,58.5 43.5,56.5 Z"/></g>
<g><path style="opacity:1" fill="#3f3f3f" d="M 68.5,63.5 C 68.5,64.8333 67.8333,65.5 66.5,65.5C 66.8333,64.5 67.5,63.8333 68.5,63.5 Z"/></g>
<g><path style="opacity:1" fill="#a4a4a4" d="M 23.5,62.5 C 27.1771,66.1945 31.5104,69.1945 36.5,71.5C 37.087,70.7666 37.087,69.7666 36.5,68.5C 38.529,70.6296 40.8623,72.2963 43.5,73.5C 34.7229,74.1045 28.0562,70.4378 23.5,62.5 Z"/></g>
<g><path style="opacity:1" fill="#5f5f5f" d="M 65.5,66.5 C 65.5,67.8333 64.8333,68.5 63.5,68.5C 63.8333,67.5 64.5,66.8333 65.5,66.5 Z"/></g>
<g><path style="opacity:1" fill="#535353" d="M 61.5,69.5 C 60.9941,71.1054 60.3274,71.4387 59.5,70.5C 59.8417,69.6618 60.5084,69.3284 61.5,69.5 Z"/></g>
<g><path style="opacity:1" fill="#56504f" d="M 58.5,71.5 C 56.4604,72.9422 54.127,73.9422 51.5,74.5C 50.8933,74.3764 50.56,74.0431 50.5,73.5C 52.9608,72.469 55.6275,71.8023 58.5,71.5 Z"/></g>
</svg>
