<?xml version="1.0" encoding="UTF-8"?>
<svg version="1.1" xmlns="http://www.w3.org/2000/svg" width="128" height="128">
<path d="M0 0 C2.57625683 2.25128827 5.02430988 4.57905999 7.4453125 6.99609375 C8.53199219 8.06537109 8.53199219 8.06537109 9.640625 9.15625 C20.88561708 20.93569988 24.95570195 35.40637786 24.796875 51.34863281 C24.30239746 67.60458207 17.95957236 80.63535735 6.4453125 91.99609375 C5.37796875 93.07890625 5.37796875 93.07890625 4.2890625 94.18359375 C-7.47427784 105.43548451 -21.97305667 109.51894976 -37.90942383 109.34545898 C-54.46086686 108.83013701 -68.1251912 101.91486644 -79.5546875 89.99609375 C-91.01094915 77.55152783 -96.3360678 62.60987679 -95.90234375 45.67578125 C-94.15886796 27.22236332 -86.11312027 12.82885071 -72.04296875 0.859375 C-51.40555219 -14.46083279 -20.77073363 -16.29263968 0 0 Z M-70.296875 15.6171875 C-79.19679447 24.99443829 -83.99316738 37.60581868 -83.76953125 50.6015625 C-82.50152858 64.7340286 -77.11904685 76.48497869 -66.5546875 85.99609375 C-54.01949101 94.98359312 -41.69794551 97.49621517 -26.5546875 95.99609375 C-18.47860002 94.40602981 -12.07419582 90.9093464 -5.5546875 85.99609375 C-4.6884375 85.41859375 -3.8221875 84.84109375 -2.9296875 84.24609375 C5.29925513 76.45025336 10.99013064 65.45809142 11.68359375 54.08984375 C12.01520903 40.40548515 9.83483892 30.12834997 1.4453125 18.99609375 C0.8678125 18.12984375 0.2903125 17.26359375 -0.3046875 16.37109375 C-9.94015586 6.20032159 -21.96420316 2.39565582 -35.5546875 0.99609375 C-49.09604093 0.99609375 -60.63603372 6.42576014 -70.296875 15.6171875 Z " fill="#0E0EFD" transform="translate(99.5546875,15.00390625)"/>
<path d="M0 0 C0 0.33 0 0.66 0 1 C-4.29 1.33 -8.58 1.66 -13 2 C-14.19988045 7.28199593 -14.19988045 7.28199593 -12 12 C-12.9075 12.2475 -13.815 12.495 -14.75 12.75 C-15.389375 12.93820313 -16.02875 13.12640625 -16.6875 13.3203125 C-18.36916216 13.81458482 -20.05775168 14.28547275 -21.75 14.7421875 C-35.11697263 18.67569767 -44.47170362 26.66584615 -51.25 38.75 C-57.22589802 51.62909057 -56.97114403 63.70947764 -53 77 C-49.79252259 85.52897402 -44.36758806 91.63241194 -38 98 C-41.465 98.99 -41.465 98.99 -45 100 C-45.2165625 101.175625 -45.2165625 101.175625 -45.4375 102.375 C-46 105 -46 105 -47 107 C-59.84141618 95.20686269 -67.83813418 81.32967846 -69.2578125 63.8203125 C-69.8247026 47.15374347 -64.94157508 32.23350664 -53.75 19.75 C-38.624743 3.63363659 -21.24107275 -0.47436639 0 0 Z " fill="#848485" transform="translate(73,4)"/>
</svg>
