<?xml version="1.0" encoding="UTF-8"?>
<!DOCTYPE svg PUBLIC "-//W3C//DTD SVG 1.1//EN" "http://www.w3.org/Graphics/SVG/1.1/DTD/svg11.dtd">
<svg xmlns="http://www.w3.org/2000/svg" version="1.1" width="172px" height="172px" style="shape-rendering:geometricPrecision; text-rendering:geometricPrecision; image-rendering:optimizeQuality; fill-rule:evenodd; clip-rule:evenodd" xmlns:xlink="http://www.w3.org/1999/xlink">
<g><path style="opacity:1" fill="#91847c" d="M 95.5,14.5 C 94.8386,13.2825 94.1719,11.9492 93.5,10.5C 89.9132,11.5371 89.9132,13.0371 93.5,15C 92.6634,16.0113 92.33,17.1779 92.5,18.5C 87.0353,17.9915 84.8686,14.9915 86,9.5C 87.5333,9.05634 89.0333,8.723 90.5,8.5C 89.6344,6.41813 88.1344,5.0848 86,4.5C 83.1764,5.05394 80.343,5.55394 77.5,6C 78.8333,6.33333 80.1667,6.66667 81.5,7C 79.4226,7.80693 77.5893,8.9736 76,10.5C 75.6174,9.94404 75.1174,9.61071 74.5,9.5C 73.9648,6.76152 74.9648,4.92818 77.5,4C 82.1667,3.33333 86.8333,3.33333 91.5,4C 94.9003,7.05338 96.2336,10.5534 95.5,14.5 Z"/></g>
<g><path style="opacity:1" fill="#1f1d1c" d="M 95.5,14.5 C 95.5,14.8333 95.5,15.1667 95.5,15.5C 94.5987,16.2905 93.9321,17.2905 93.5,18.5C 93.1667,18.5 92.8333,18.5 92.5,18.5C 92.33,17.1779 92.6634,16.0113 93.5,15C 89.9132,13.0371 89.9132,11.5371 93.5,10.5C 94.1719,11.9492 94.8386,13.2825 95.5,14.5 Z"/></g>
<g><path style="opacity:1" fill="#ecbfb4" d="M 92.5,18.5 C 92.8333,18.5 93.1667,18.5 93.5,18.5C 92.6016,19.1577 91.6016,19.8243 90.5,20.5C 91.6469,22.5846 90.9803,24.0846 88.5,25C 85.9644,25.1862 83.631,25.6862 81.5,26.5C 81.5,27.1667 81.1667,27.5 80.5,27.5C 79.0783,27.2914 77.745,26.7914 76.5,26C 77.448,25.5172 78.448,25.3505 79.5,25.5C 79.9752,22.1155 78.6418,19.7822 75.5,18.5C 76.4847,16.9017 76.6514,15.235 76,13.5C 75.7679,14.7375 75.2679,15.7375 74.5,16.5C 74.5,14.1667 74.5,11.8333 74.5,9.5C 75.1174,9.61071 75.6174,9.94404 76,10.5C 77.5893,8.9736 79.4226,7.80693 81.5,7C 80.1667,6.66667 78.8333,6.33333 77.5,6C 80.343,5.55394 83.1764,5.05394 86,4.5C 88.1344,5.0848 89.6344,6.41813 90.5,8.5C 89.0333,8.723 87.5333,9.05634 86,9.5C 84.8686,14.9915 87.0353,17.9915 92.5,18.5 Z"/></g>
<g><path style="opacity:1" fill="#572b21" d="M 77.5,14.5 C 78.209,13.596 79.209,13.2627 80.5,13.5C 80.3059,17.0048 79.3059,17.3382 77.5,14.5 Z"/></g>
<g><path style="opacity:1" fill="#957e79" d="M 80.5,27.5 C 79.0878,28.1656 77.7545,28.4989 76.5,28.5C 75.7326,27.828 75.0659,26.9947 74.5,26C 75.1614,22.9989 75.1614,19.8323 74.5,16.5C 75.2679,15.7375 75.7679,14.7375 76,13.5C 76.6514,15.235 76.4847,16.9017 75.5,18.5C 78.6418,19.7822 79.9752,22.1155 79.5,25.5C 78.448,25.3505 77.448,25.5172 76.5,26C 77.745,26.7914 79.0783,27.2914 80.5,27.5 Z"/></g>
<g><path style="opacity:1" fill="#948173" d="M 95.5,15.5 C 95.3433,16.8734 95.51,18.2068 96,19.5C 97.7067,18.8617 99.54,18.8617 101.5,19.5C 103.759,25.7346 106.426,31.7346 109.5,37.5C 109.192,41.3597 108.525,45.0264 107.5,48.5C 107.5,47.8333 107.167,47.5 106.5,47.5C 105.655,45.2381 104.322,44.5714 102.5,45.5C 104.027,41.5862 105.36,37.5862 106.5,33.5C 103.556,29.9475 101.39,25.9475 100,21.5C 97.9798,23.5506 96.4798,25.8839 95.5,28.5C 94.2921,29.2341 92.9587,29.5674 91.5,29.5C 92.822,27.6889 93.322,25.6889 93,23.5C 90.9013,25.7972 88.4013,27.4639 85.5,28.5C 83.3639,28.4621 82.0306,27.7954 81.5,26.5C 83.631,25.6862 85.9644,25.1862 88.5,25C 90.9803,24.0846 91.6469,22.5846 90.5,20.5C 91.6016,19.8243 92.6016,19.1577 93.5,18.5C 93.9321,17.2905 94.5987,16.2905 95.5,15.5 Z"/></g>
<g><path style="opacity:1" fill="#1b140e" d="M 91.5,29.5 C 90.8333,29.8333 90.1667,30.1667 89.5,30.5C 88.1667,30.5 86.8333,30.5 85.5,30.5C 85.5,29.8333 85.5,29.1667 85.5,28.5C 88.4013,27.4639 90.9013,25.7972 93,23.5C 93.322,25.6889 92.822,27.6889 91.5,29.5 Z"/></g>
<g><path style="opacity:1" fill="#857d52" d="M 57.5,25.5 C 58.3764,25.3691 59.0431,25.7025 59.5,26.5C 60.3249,28.8013 60.9916,31.1346 61.5,33.5C 60.71,34.6085 60.21,35.9419 60,37.5C 59.6174,36.944 59.1174,36.6107 58.5,36.5C 57.596,35.791 57.2627,34.791 57.5,33.5C 56.5,33.5 55.5,33.5 54.5,33.5C 55.454,30.8569 56.454,28.1903 57.5,25.5 Z"/></g>
<g><path style="opacity:1" fill="#d3cbb7" d="M 57.5,25.5 C 58.3864,24.2241 59.3864,24.2241 60.5,25.5C 61.2357,27.5405 62.0691,29.5405 63,31.5C 62.9167,34.1194 62.75,36.786 62.5,39.5C 61.5386,37.7354 61.2053,35.7354 61.5,33.5C 60.9916,31.1346 60.3249,28.8013 59.5,26.5C 59.0431,25.7025 58.3764,25.3691 57.5,25.5 Z"/></g>
<g><path style="opacity:1" fill="#c28f70" d="M 76.5,31.5 C 78.2667,30.35 79.4334,31.0167 80,33.5C 81.2635,31.393 83.0968,30.393 85.5,30.5C 86.8333,30.5 88.1667,30.5 89.5,30.5C 87.8333,32.5 86.1667,34.5 84.5,36.5C 83.5,36.8333 82.8333,37.5 82.5,38.5C 81.1667,39.1667 80.1667,40.1667 79.5,41.5C 77.4935,42.6785 77.1602,42.1785 78.5,40C 73.4983,37.9735 73.165,35.3069 77.5,32C 77.2716,31.6012 76.9382,31.4346 76.5,31.5 Z"/></g>
<g><path style="opacity:1" fill="#71594b" d="M 81.5,26.5 C 82.0306,27.7954 83.3639,28.4621 85.5,28.5C 85.5,29.1667 85.5,29.8333 85.5,30.5C 83.0968,30.393 81.2635,31.393 80,33.5C 79.4334,31.0167 78.2667,30.35 76.5,31.5C 72.4844,34.5333 70.3177,38.5333 70,43.5C 72.1203,42.3947 74.2869,42.3947 76.5,43.5C 76.6309,44.3764 76.2975,45.0431 75.5,45.5C 73.674,45.0798 71.674,45.0798 69.5,45.5C 69.7135,47.1439 69.3802,48.6439 68.5,50C 69.6934,51.0946 71.0267,51.928 72.5,52.5C 72.5,52.8333 72.5,53.1667 72.5,53.5C 70.4458,53.6347 68.7791,52.968 67.5,51.5C 67.5,50.1667 66.8333,49.5 65.5,49.5C 65.3653,47.4458 66.032,45.7791 67.5,44.5C 68.7928,38.207 71.7928,32.8737 76.5,28.5C 77.7545,28.4989 79.0878,28.1656 80.5,27.5C 81.1667,27.5 81.5,27.1667 81.5,26.5 Z"/></g>
<g><path style="opacity:1" fill="#e5a67c" d="M 84.5,36.5 C 86.1667,34.5 87.8333,32.5 89.5,30.5C 90.1667,30.1667 90.8333,29.8333 91.5,29.5C 92.9587,29.5674 94.2921,29.2341 95.5,28.5C 97.2259,28.1854 98.8925,28.0187 100.5,28C 102.139,31.0977 103.473,34.2644 104.5,37.5C 97.6457,37.824 90.979,37.4907 84.5,36.5 Z"/></g>
<g><path style="opacity:1" fill="#dccc9b" d="M 82.5,38.5 C 88.5092,38.3338 94.5092,38.5005 100.5,39C 103.183,41.1216 102.85,42.6216 99.5,43.5C 99.1667,43.5 98.8333,43.5 98.5,43.5C 98.3893,42.8826 98.056,42.3826 97.5,42C 91.5092,41.5005 85.5092,41.3338 79.5,41.5C 80.1667,40.1667 81.1667,39.1667 82.5,38.5 Z"/></g>
<g><path style="opacity:1" fill="#af9184" d="M 61.5,33.5 C 61.2053,35.7354 61.5386,37.7354 62.5,39.5C 63.9387,41.3603 65.6053,43.027 67.5,44.5C 66.032,45.7791 65.3653,47.4458 65.5,49.5C 65.2287,51.3117 64.562,52.9783 63.5,54.5C 62.1851,52.6841 60.6851,51.0175 59,49.5C 58.79,51.0581 58.29,52.3915 57.5,53.5C 55.5497,49.2818 54.8831,44.9485 55.5,40.5C 56.5244,39.1482 57.5244,37.8149 58.5,36.5C 59.1174,36.6107 59.6174,36.944 60,37.5C 60.21,35.9419 60.71,34.6085 61.5,33.5 Z"/></g>
<g><path style="opacity:1" fill="#dab48f" d="M 76.5,31.5 C 76.9382,31.4346 77.2716,31.6012 77.5,32C 73.165,35.3069 73.4983,37.9735 78.5,40C 77.1602,42.1785 77.4935,42.6785 79.5,41.5C 85.5092,41.3338 91.5092,41.5005 97.5,42C 98.056,42.3826 98.3893,42.8826 98.5,43.5C 96.139,43.3259 93.8056,42.9926 91.5,42.5C 86.482,42.6133 81.482,42.9466 76.5,43.5C 74.2869,42.3947 72.1203,42.3947 70,43.5C 70.3177,38.5333 72.4844,34.5333 76.5,31.5 Z"/></g>
<g><path style="opacity:1" fill="#d79b83" d="M 91.5,42.5 C 92.1667,43.1667 92.8333,43.8333 93.5,44.5C 90.9017,45.5278 90.9017,46.5278 93.5,47.5C 92.8333,48.1667 92.1667,48.8333 91.5,49.5C 90.5,49.5 89.5,49.5 88.5,49.5C 84.943,48.3833 81.2763,47.3833 77.5,46.5C 75.3483,48.1619 73.6817,50.1619 72.5,52.5C 71.0267,51.928 69.6934,51.0946 68.5,50C 69.3802,48.6439 69.7135,47.1439 69.5,45.5C 71.674,45.0798 73.674,45.0798 75.5,45.5C 76.2975,45.0431 76.6309,44.3764 76.5,43.5C 81.482,42.9466 86.482,42.6133 91.5,42.5 Z"/></g>
<g><path style="opacity:1" fill="#674027" d="M 91.5,42.5 C 93.8056,42.9926 96.139,43.3259 98.5,43.5C 98.8333,43.5 99.1667,43.5 99.5,43.5C 99.38,44.5862 98.7133,45.2528 97.5,45.5C 96.1508,45.1543 94.8175,44.821 93.5,44.5C 92.8333,43.8333 92.1667,43.1667 91.5,42.5 Z"/></g>
<g><path style="opacity:1" fill="#463b2a" d="M 88.5,49.5 C 88.9528,50.4584 89.6195,51.2917 90.5,52C 89.9056,52.4643 89.2389,52.631 88.5,52.5C 88.44,51.9569 88.1067,51.6236 87.5,51.5C 86.3058,53.5156 86.3058,55.5156 87.5,57.5C 87.1667,57.5 86.8333,57.5 86.5,57.5C 85.2237,55.4375 84.3903,53.1042 84,50.5C 81.3787,48.9997 78.712,48.6663 76,49.5C 75.3405,52.678 74.5072,55.678 73.5,58.5C 73.5,57.8333 73.1667,57.5 72.5,57.5C 72.5,56.8333 72.5,56.1667 72.5,55.5C 72.5,54.8333 72.5,54.1667 72.5,53.5C 72.5,53.1667 72.5,52.8333 72.5,52.5C 73.6817,50.1619 75.3483,48.1619 77.5,46.5C 81.2763,47.3833 84.943,48.3833 88.5,49.5 Z"/></g>
<g><path style="opacity:1" fill="#dab48e" d="M 102.5,45.5 C 103.041,53.1996 101.708,60.5329 98.5,67.5C 97.8614,66.9032 97.528,66.0698 97.5,65C 98.4181,62.9135 99.0847,60.7468 99.5,58.5C 100.655,55.5263 100.321,52.5263 98.5,49.5C 97.1502,48.0499 95.4835,47.3832 93.5,47.5C 90.9017,46.5278 90.9017,45.5278 93.5,44.5C 94.8175,44.821 96.1508,45.1543 97.5,45.5C 98.7133,45.2528 99.38,44.5862 99.5,43.5C 102.85,42.6216 103.183,41.1216 100.5,39C 94.5092,38.5005 88.5092,38.3338 82.5,38.5C 82.8333,37.5 83.5,36.8333 84.5,36.5C 90.979,37.4907 97.6457,37.824 104.5,37.5C 103.473,34.2644 102.139,31.0977 100.5,28C 98.8925,28.0187 97.2259,28.1854 95.5,28.5C 96.4798,25.8839 97.9798,23.5506 100,21.5C 101.39,25.9475 103.556,29.9475 106.5,33.5C 105.36,37.5862 104.027,41.5862 102.5,45.5 Z"/></g>
<g><path style="opacity:1" fill="#0f0a09" d="M 65.5,49.5 C 66.8333,49.5 67.5,50.1667 67.5,51.5C 66.7462,57.8595 65.0796,63.8595 62.5,69.5C 61.0689,69.8807 60.2355,70.8807 60,72.5C 59.5045,70.5273 59.3379,68.5273 59.5,66.5C 57.6823,62.8274 57.0157,58.8274 57.5,54.5C 57.5,54.1667 57.5,53.8333 57.5,53.5C 58.29,52.3915 58.79,51.0581 59,49.5C 60.6851,51.0175 62.1851,52.6841 63.5,54.5C 64.562,52.9783 65.2287,51.3117 65.5,49.5 Z"/></g>
<g><path style="opacity:1" fill="#f1d79f" d="M 93.5,47.5 C 95.4835,47.3832 97.1502,48.0499 98.5,49.5C 100.321,52.5263 100.655,55.5263 99.5,58.5C 97.147,55.1513 94.4804,52.1513 91.5,49.5C 92.1667,48.8333 92.8333,48.1667 93.5,47.5 Z"/></g>
<g><path style="opacity:1" fill="#504d48" d="M 86.5,57.5 C 87.2021,60.4398 88.2021,63.2731 89.5,66C 88.1667,66.6667 86.8333,66.6667 85.5,66C 82.979,63.7802 80.8123,61.2802 79,58.5C 79.2035,60.9373 80.0368,63.2707 81.5,65.5C 78.9564,65.9491 76.2898,65.9491 73.5,65.5C 73.5,63.1667 73.5,60.8333 73.5,58.5C 74.5072,55.678 75.3405,52.678 76,49.5C 78.712,48.6663 81.3787,48.9997 84,50.5C 84.3903,53.1042 85.2237,55.4375 86.5,57.5 Z"/></g>
<g><path style="opacity:1" fill="#a4928c" d="M 106.5,47.5 C 106.5,53.1667 106.5,58.8333 106.5,64.5C 105.754,67.1394 104.754,69.8061 103.5,72.5C 100.167,74.2518 98.5007,73.2518 98.5,69.5C 98.5,68.8333 98.5,68.1667 98.5,67.5C 101.708,60.5329 103.041,53.1996 102.5,45.5C 104.322,44.5714 105.655,45.2381 106.5,47.5 Z"/></g>
<g><path style="opacity:1" fill="#d6af76" d="M 88.5,49.5 C 89.5,49.5 90.5,49.5 91.5,49.5C 94.4804,52.1513 97.147,55.1513 99.5,58.5C 99.0847,60.7468 98.4181,62.9135 97.5,65C 97.528,66.0698 97.8614,66.9032 98.5,67.5C 98.5,68.1667 98.5,68.8333 98.5,69.5C 98.1667,69.5 97.8333,69.5 97.5,69.5C 92.3105,64.9811 89.3105,59.3144 88.5,52.5C 89.2389,52.631 89.9056,52.4643 90.5,52C 89.6195,51.2917 88.9528,50.4584 88.5,49.5 Z"/></g>
<g><path style="opacity:1" fill="#7e7b54" d="M 67.5,51.5 C 68.7791,52.968 70.4458,53.6347 72.5,53.5C 72.5,54.1667 72.5,54.8333 72.5,55.5C 69.68,60.4695 66.8467,65.4695 64,70.5C 63.433,73.1677 62.933,75.8344 62.5,78.5C 62.1667,78.5 61.8333,78.5 61.5,78.5C 61.7038,75.4824 62.0371,72.4824 62.5,69.5C 65.0796,63.8595 66.7462,57.8595 67.5,51.5 Z"/></g>
<g><path style="opacity:1" fill="#1d1a15" d="M 72.5,57.5 C 73.1667,57.5 73.5,57.8333 73.5,58.5C 73.5,60.8333 73.5,63.1667 73.5,65.5C 76.2898,65.9491 78.9564,65.9491 81.5,65.5C 80.0368,63.2707 79.2035,60.9373 79,58.5C 80.8123,61.2802 82.979,63.7802 85.5,66C 86.8333,66.6667 88.1667,66.6667 89.5,66C 88.2021,63.2731 87.2021,60.4398 86.5,57.5C 86.8333,57.5 87.1667,57.5 87.5,57.5C 92.3418,65.646 96.6751,73.9793 100.5,82.5C 100.557,83.609 100.89,84.609 101.5,85.5C 101.19,86.7383 100.69,86.7383 100,85.5C 99.5172,86.448 99.3505,87.448 99.5,88.5C 98.4331,82.6592 96.4331,76.9925 93.5,71.5C 89.878,70.292 86.2113,69.292 82.5,68.5C 80.8835,78.5824 78.8835,88.5824 76.5,98.5C 75.596,97.791 75.2627,96.791 75.5,95.5C 76.6788,89.109 78.1788,82.7757 80,76.5C 80.498,73.5184 80.6646,70.5184 80.5,67.5C 79.5,67.5 78.5,67.5 77.5,67.5C 76.0695,67.5792 74.7362,67.2458 73.5,66.5C 72.5258,64.2573 72.1924,61.924 72.5,59.5C 72.5,58.8333 72.5,58.1667 72.5,57.5 Z"/></g>
<g><path style="opacity:1" fill="#5d4431" d="M 106.5,47.5 C 107.167,47.5 107.5,47.8333 107.5,48.5C 108.531,58.9957 108.531,69.329 107.5,79.5C 107.806,76.6146 107.473,73.9479 106.5,71.5C 106.5,69.1667 106.5,66.8333 106.5,64.5C 106.5,58.8333 106.5,53.1667 106.5,47.5 Z"/></g>
<g><path style="opacity:1" fill="#e0b996" d="M 109.5,37.5 C 110.451,38.9187 110.784,40.5853 110.5,42.5C 110.249,54.9826 110.249,67.6493 110.5,80.5C 109.044,82.3704 107.711,84.3704 106.5,86.5C 106.674,84.139 107.007,81.8056 107.5,79.5C 108.531,69.329 108.531,58.9957 107.5,48.5C 108.525,45.0264 109.192,41.3597 109.5,37.5 Z"/></g>
<g><path style="opacity:1" fill="#d5d5ad" d="M 77.5,67.5 C 78.5,67.5 79.5,67.5 80.5,67.5C 80.6646,70.5184 80.498,73.5184 80,76.5C 78.1788,82.7757 76.6788,89.109 75.5,95.5C 74.5655,96.5676 74.2322,97.901 74.5,99.5C 74.6716,100.492 74.3382,101.158 73.5,101.5C 74.3744,93.4053 75.5411,85.4053 77,77.5C 74.3479,82.2918 71.8479,86.9585 69.5,91.5C 69.5,91.1667 69.5,90.8333 69.5,90.5C 69.5,87.8333 69.5,85.1667 69.5,82.5C 71.4093,77.1134 74.076,72.1134 77.5,67.5 Z"/></g>
<g><path style="opacity:1" fill="#e5d9b9" d="M 88.5,52.5 C 89.3105,59.3144 92.3105,64.9811 97.5,69.5C 98.2418,73.953 99.2418,78.2863 100.5,82.5C 96.6751,73.9793 92.3418,65.646 87.5,57.5C 86.3058,55.5156 86.3058,53.5156 87.5,51.5C 88.1067,51.6236 88.44,51.9569 88.5,52.5 Z"/></g>
<g><path style="opacity:1" fill="#d3d1a9" d="M 72.5,55.5 C 72.5,56.1667 72.5,56.8333 72.5,57.5C 72.5,58.1667 72.5,58.8333 72.5,59.5C 72.0754,65.012 70.7421,70.3453 68.5,75.5C 67.669,82.1311 67.3357,88.7978 67.5,95.5C 67.5,102.833 67.5,110.167 67.5,117.5C 66.8333,117.5 66.5,117.167 66.5,116.5C 65.8701,106.513 65.3701,96.5129 65,86.5C 62.8349,84.3475 62.0016,81.6808 62.5,78.5C 62.933,75.8344 63.433,73.1677 64,70.5C 66.8467,65.4695 69.68,60.4695 72.5,55.5 Z"/></g>
<g><path style="opacity:1" fill="#7c7462" d="M 72.5,59.5 C 72.1924,61.924 72.5258,64.2573 73.5,66.5C 74.7362,67.2458 76.0695,67.5792 77.5,67.5C 74.076,72.1134 71.4093,77.1134 69.5,82.5C 69.8016,79.9407 69.4682,77.6074 68.5,75.5C 70.7421,70.3453 72.0754,65.012 72.5,59.5 Z"/></g>
<g><path style="opacity:1" fill="#4c4a49" d="M 99.5,88.5 C 98.6187,92.4543 97.9521,96.4543 97.5,100.5C 96.7659,101.708 96.4326,103.041 96.5,104.5C 94.5165,107.799 93.5165,111.466 93.5,115.5C 92.5933,117.657 91.9267,119.99 91.5,122.5C 90.8141,121.152 89.8141,119.985 88.5,119C 89.7691,116.861 89.7691,114.695 88.5,112.5C 87.8333,119.655 87.1666,126.655 86.5,133.5C 86.6666,119.496 86.4999,105.496 86,91.5C 85.3333,88.8333 84.6667,86.1667 84,83.5C 83.3333,84.8333 82.3333,85.8333 81,86.5C 81.2512,91.4556 81.4178,96.4556 81.5,101.5C 79.7425,103.141 78.2425,105.141 77,107.5C 76.502,104.518 76.3354,101.518 76.5,98.5C 78.8835,88.5824 80.8835,78.5824 82.5,68.5C 86.2113,69.292 89.878,70.292 93.5,71.5C 96.4331,76.9925 98.4331,82.6592 99.5,88.5 Z"/></g>
<g><path style="opacity:1" fill="#c9a988" d="M 106.5,64.5 C 106.5,66.8333 106.5,69.1667 106.5,71.5C 106.136,79.0074 105.47,86.3408 104.5,93.5C 105.488,88.8077 104.154,85.141 100.5,82.5C 99.2418,78.2863 98.2418,73.953 97.5,69.5C 97.8333,69.5 98.1667,69.5 98.5,69.5C 98.5007,73.2518 100.167,74.2518 103.5,72.5C 104.754,69.8061 105.754,67.1394 106.5,64.5 Z"/></g>
<g><path style="opacity:1" fill="#a7a7a6" d="M 59.5,66.5 C 59.3379,68.5273 59.5045,70.5273 60,72.5C 60.2355,70.8807 61.0689,69.8807 62.5,69.5C 62.0371,72.4824 61.7038,75.4824 61.5,78.5C 60.5386,80.2646 60.2053,82.2646 60.5,84.5C 59.1429,85.5903 58.1429,86.9236 57.5,88.5C 57.923,80.9985 58.5897,73.6651 59.5,66.5 Z"/></g>
<g><path style="opacity:1" fill="#321a0f" d="M 106.5,71.5 C 107.473,73.9479 107.806,76.6146 107.5,79.5C 107.007,81.8056 106.674,84.139 106.5,86.5C 106.443,92.8513 106.11,99.1846 105.5,105.5C 104.518,102.038 104.185,98.3714 104.5,94.5C 104.5,94.1667 104.5,93.8333 104.5,93.5C 105.47,86.3408 106.136,79.0074 106.5,71.5 Z"/></g>
<g><path style="opacity:1" fill="#4f503c" d="M 68.5,75.5 C 69.4682,77.6074 69.8016,79.9407 69.5,82.5C 69.5,85.1667 69.5,87.8333 69.5,90.5C 68.8333,92.1667 68.1667,93.8333 67.5,95.5C 67.3357,88.7978 67.669,82.1311 68.5,75.5 Z"/></g>
<g><path style="opacity:1" fill="#d0d19e" d="M 61.5,78.5 C 61.8333,78.5 62.1667,78.5 62.5,78.5C 62.0016,81.6808 62.8349,84.3475 65,86.5C 65.3701,96.5129 65.8701,106.513 66.5,116.5C 64.5328,116.739 62.6995,116.406 61,115.5C 60.2223,110.416 60.3889,105.416 61.5,100.5C 63.8639,98.7276 63.8639,96.7276 61.5,94.5C 60.7025,94.9569 60.3691,95.6236 60.5,96.5C 59.8333,96.5 59.5,96.1667 59.5,95.5C 60.3439,91.9009 60.6773,88.2343 60.5,84.5C 60.2053,82.2646 60.5386,80.2646 61.5,78.5 Z"/></g>
<g><path style="opacity:1" fill="#d2d5a5" d="M 73.5,101.5 C 72.9832,109.232 71.9832,116.899 70.5,124.5C 69.5386,122.735 69.2053,120.735 69.5,118.5C 69.5,109.5 69.5,100.5 69.5,91.5C 71.8479,86.9585 74.3479,82.2918 77,77.5C 75.5411,85.4053 74.3744,93.4053 73.5,101.5 Z"/></g>
<g><path style="opacity:1" fill="#928487" d="M 101.5,85.5 C 101.704,88.9175 101.704,92.5842 101.5,96.5C 101.672,97.4916 101.338,98.1583 100.5,98.5C 100.66,96.8008 100.494,95.1341 100,93.5C 99.5604,95.8659 99.0604,98.1992 98.5,100.5C 98.1667,100.5 97.8333,100.5 97.5,100.5C 97.9521,96.4543 98.6187,92.4543 99.5,88.5C 99.3505,87.448 99.5172,86.448 100,85.5C 100.69,86.7383 101.19,86.7383 101.5,85.5 Z"/></g>
<g><path style="opacity:1" fill="#e7d4ca" d="M 100.5,82.5 C 104.154,85.141 105.488,88.8077 104.5,93.5C 104.5,93.8333 104.5,94.1667 104.5,94.5C 104.167,94.5 103.833,94.5 103.5,94.5C 102.833,95.1667 102.167,95.8333 101.5,96.5C 101.704,92.5842 101.704,88.9175 101.5,85.5C 100.89,84.609 100.557,83.609 100.5,82.5 Z"/></g>
<g><path style="opacity:1" fill="#7d783d" d="M 61.5,100.5 C 60.5655,99.4324 60.2322,98.099 60.5,96.5C 60.3691,95.6236 60.7025,94.9569 61.5,94.5C 63.8639,96.7276 63.8639,98.7276 61.5,100.5 Z"/></g>
<g><path style="opacity:1" fill="#757662" d="M 69.5,90.5 C 69.5,90.8333 69.5,91.1667 69.5,91.5C 69.5,100.5 69.5,109.5 69.5,118.5C 69.1667,118.5 68.8333,118.5 68.5,118.5C 68.5,117.833 68.1667,117.5 67.5,117.5C 67.5,110.167 67.5,102.833 67.5,95.5C 68.1667,93.8333 68.8333,92.1667 69.5,90.5 Z"/></g>
<g><path style="opacity:1" fill="#61493b" d="M 100.5,98.5 C 100.162,100.854 99.662,103.187 99,105.5C 98.5065,103.866 98.3398,102.199 98.5,100.5C 99.0604,98.1992 99.5604,95.8659 100,93.5C 100.494,95.1341 100.66,96.8008 100.5,98.5 Z"/></g>
<g><path style="opacity:1" fill="#795332" d="M 103.5,94.5 C 103.833,94.5 104.167,94.5 104.5,94.5C 104.185,98.3714 104.518,102.038 105.5,105.5C 105.5,106.833 105.5,108.167 105.5,109.5C 105.762,110.978 105.429,112.311 104.5,113.5C 103.506,108.544 103.173,103.544 103.5,98.5C 103.5,97.1667 103.5,95.8333 103.5,94.5 Z"/></g>
<g><path style="opacity:1" fill="#ddb084" d="M 110.5,80.5 C 112.766,90.0272 114.099,99.6939 114.5,109.5C 111.407,108.771 108.907,107.104 107,104.5C 106.506,106.134 106.34,107.801 106.5,109.5C 106.167,109.5 105.833,109.5 105.5,109.5C 105.5,108.167 105.5,106.833 105.5,105.5C 106.11,99.1846 106.443,92.8513 106.5,86.5C 107.711,84.3704 109.044,82.3704 110.5,80.5 Z"/></g>
<g><path style="opacity:1" fill="#605d52" d="M 57.5,54.5 C 57.0157,58.8274 57.6823,62.8274 59.5,66.5C 58.5897,73.6651 57.923,80.9985 57.5,88.5C 56.917,101.492 56.5837,114.492 56.5,127.5C 55.5386,129.265 55.2053,131.265 55.5,133.5C 54.1001,134.1 53.1001,135.1 52.5,136.5C 55.0565,109.08 56.7231,81.7468 57.5,54.5 Z"/></g>
<g><path style="opacity:1" fill="#4c4e4b" d="M 75.5,95.5 C 75.2627,96.791 75.596,97.791 76.5,98.5C 76.3354,101.518 76.502,104.518 77,107.5C 78.2425,105.141 79.7425,103.141 81.5,101.5C 81.5,104.833 81.5,108.167 81.5,111.5C 80.5386,113.265 80.2053,115.265 80.5,117.5C 79.1266,117.343 77.7932,117.51 76.5,118C 77.2135,119.343 76.8802,120.676 75.5,122C 74.4232,122.47 73.4232,122.303 72.5,121.5C 73.8655,115.417 74.8655,109.25 75.5,103C 75.4857,101.615 75.1524,100.449 74.5,99.5C 74.2322,97.901 74.5655,96.5676 75.5,95.5 Z"/></g>
<g><path style="opacity:1" fill="#6b4f3a" d="M 96.5,104.5 C 96.4871,109.911 95.8205,115.245 94.5,120.5C 94.9424,121.739 95.6091,122.739 96.5,123.5C 95.8501,123.804 95.1835,124.137 94.5,124.5C 93.5159,121.572 93.1826,118.572 93.5,115.5C 93.5165,111.466 94.5165,107.799 96.5,104.5 Z"/></g>
<g><path style="opacity:1" fill="#c5bb89" d="M 114.5,109.5 C 115.451,110.919 115.784,112.585 115.5,114.5C 114.883,114.611 114.383,114.944 114,115.5C 110.75,114.31 108.25,112.31 106.5,109.5C 106.34,107.801 106.506,106.134 107,104.5C 108.907,107.104 111.407,108.771 114.5,109.5 Z"/></g>
<g><path style="opacity:1" fill="#e0b282" d="M 106.5,109.5 C 108.25,112.31 110.75,114.31 114,115.5C 114.383,114.944 114.883,114.611 115.5,114.5C 115.194,117.385 115.527,120.052 116.5,122.5C 116.5,124.5 116.5,126.5 116.5,128.5C 116.5,130.167 116.5,131.833 116.5,133.5C 113.833,133.5 111.167,133.5 108.5,133.5C 107.833,125.5 107.167,117.5 106.5,109.5 Z"/></g>
<g><path style="opacity:1" fill="#4c4c4a" d="M 81.5,111.5 C 81.5,114.167 81.5,116.833 81.5,119.5C 81.693,123.566 81.3597,127.566 80.5,131.5C 79.1196,130.294 77.9529,130.627 77,132.5C 76.461,135.529 75.7943,138.529 75,141.5C 74.1165,136.632 72.9498,131.966 71.5,127.5C 71.8333,125.5 72.1667,123.5 72.5,121.5C 73.4232,122.303 74.4232,122.47 75.5,122C 76.8802,120.676 77.2135,119.343 76.5,118C 77.7932,117.51 79.1266,117.343 80.5,117.5C 80.2053,115.265 80.5386,113.265 81.5,111.5 Z"/></g>
<g><path style="opacity:1" fill="#e7bd8e" d="M 103.5,94.5 C 103.5,95.8333 103.5,97.1667 103.5,98.5C 102.341,107.759 101.008,117.092 99.5,126.5C 97.1457,127.494 96.1457,126.494 96.5,123.5C 95.6091,122.739 94.9424,121.739 94.5,120.5C 95.8205,115.245 96.4871,109.911 96.5,104.5C 96.4326,103.041 96.7659,101.708 97.5,100.5C 97.8333,100.5 98.1667,100.5 98.5,100.5C 98.3398,102.199 98.5065,103.866 99,105.5C 99.662,103.187 100.162,100.854 100.5,98.5C 101.338,98.1583 101.672,97.4916 101.5,96.5C 102.167,95.8333 102.833,95.1667 103.5,94.5 Z"/></g>
<g><path style="opacity:1" fill="#a97d50" d="M 103.5,98.5 C 103.173,103.544 103.506,108.544 104.5,113.5C 105.429,112.311 105.762,110.978 105.5,109.5C 105.833,109.5 106.167,109.5 106.5,109.5C 107.167,117.5 107.833,125.5 108.5,133.5C 105.594,132.213 102.594,131.213 99.5,130.5C 99.5,129.167 99.5,127.833 99.5,126.5C 101.008,117.092 102.341,107.759 103.5,98.5 Z"/></g>
<g><path style="opacity:1" fill="#887864" d="M 110.5,42.5 C 111.975,56.7822 112.808,71.1156 113,85.5C 115.484,96.7059 116.984,108.039 117.5,119.5C 116.596,120.209 116.263,121.209 116.5,122.5C 115.527,120.052 115.194,117.385 115.5,114.5C 115.784,112.585 115.451,110.919 114.5,109.5C 114.099,99.6939 112.766,90.0272 110.5,80.5C 110.249,67.6493 110.249,54.9826 110.5,42.5 Z"/></g>
<g><path style="opacity:1" fill="#d7d4a0" d="M 59.5,95.5 C 59.5,96.1667 59.8333,96.5 60.5,96.5C 60.2322,98.099 60.5655,99.4324 61.5,100.5C 60.3889,105.416 60.2223,110.416 61,115.5C 62.6995,116.406 64.5328,116.739 66.5,116.5C 66.5,117.167 66.8333,117.5 67.5,117.5C 68.1667,117.5 68.5,117.833 68.5,118.5C 67.8857,122.135 67.5524,125.802 67.5,129.5C 66.5386,131.265 66.2053,133.265 66.5,135.5C 63.8806,135.768 61.3806,135.435 59,134.5C 58.1731,121.327 58.3398,108.327 59.5,95.5 Z"/></g>
<g><path style="opacity:1" fill="#292421" d="M 74.5,99.5 C 75.1524,100.449 75.4857,101.615 75.5,103C 74.8655,109.25 73.8655,115.417 72.5,121.5C 72.1667,123.5 71.8333,125.5 71.5,127.5C 71.1107,132.504 70.6107,137.504 70,142.5C 69.8413,144.343 69.3413,145.009 68.5,144.5C 68.5,142.5 68.5,140.5 68.5,138.5C 69.6437,134.036 70.3104,129.37 70.5,124.5C 71.9832,116.899 72.9832,109.232 73.5,101.5C 74.3382,101.158 74.6716,100.492 74.5,99.5 Z"/></g>
<g><path style="opacity:1" fill="#4c4b4d" d="M 71.5,127.5 C 72.9498,131.966 74.1165,136.632 75,141.5C 75.7943,138.529 76.461,135.529 77,132.5C 77.9529,130.627 79.1196,130.294 80.5,131.5C 80.179,139.174 79.679,146.841 79,154.5C 74.4453,155.772 70.112,155.105 66,152.5C 65.7216,153.416 65.2216,154.082 64.5,154.5C 63.8333,153.5 63.1667,152.5 62.5,151.5C 64.0519,149.965 65.3852,148.131 66.5,146C 65.9056,145.536 65.2389,145.369 64.5,145.5C 64.5,145.167 64.5,144.833 64.5,144.5C 65.8333,144.5 67.1667,144.5 68.5,144.5C 69.3413,145.009 69.8413,144.343 70,142.5C 70.6107,137.504 71.1107,132.504 71.5,127.5 Z"/></g>
<g><path style="opacity:1" fill="#4a4c4b" d="M 92.5,133.5 C 92.8891,140.17 93.3891,146.836 94,153.5C 94.0023,156.051 94.8356,158.051 96.5,159.5C 94.5368,160.82 92.5368,162.154 90.5,163.5C 89.8166,161.824 88.4832,161.157 86.5,161.5C 87.1098,160.609 87.4431,159.609 87.5,158.5C 89.6605,152.718 89.9938,146.718 88.5,140.5C 89.2537,137.223 89.7537,133.89 90,130.5C 90.3333,130.167 90.6667,129.833 91,129.5C 91.7914,130.745 92.2914,132.078 92.5,133.5 Z"/></g>
<g><path style="opacity:1" fill="#a2977a" d="M 68.5,118.5 C 68.8333,118.5 69.1667,118.5 69.5,118.5C 69.2053,120.735 69.5386,122.735 70.5,124.5C 70.3104,129.37 69.6437,134.036 68.5,138.5C 68.5,138.167 68.5,137.833 68.5,137.5C 68.1667,134.833 67.8333,132.167 67.5,129.5C 67.5524,125.802 67.8857,122.135 68.5,118.5 Z"/></g>
<g><path style="opacity:1" fill="#52503b" d="M 86.5,133.5 C 86.2953,141.867 86.6287,150.2 87.5,158.5C 87.4431,159.609 87.1098,160.609 86.5,161.5C 84.1667,161.5 81.8333,161.5 79.5,161.5C 79.5,160.833 79.5,160.167 79.5,159.5C 80.1667,157.5 80.8333,155.5 81.5,153.5C 81.5,155.833 81.5,158.167 81.5,160.5C 82.8333,160.5 84.1667,160.5 85.5,160.5C 84.7735,141.179 84.2735,121.846 84,102.5C 83.6667,102.167 83.3333,101.833 83,101.5C 82.5005,107.491 82.3338,113.491 82.5,119.5C 82.1667,119.5 81.8333,119.5 81.5,119.5C 81.5,116.833 81.5,114.167 81.5,111.5C 81.5,108.167 81.5,104.833 81.5,101.5C 81.4178,96.4556 81.2512,91.4556 81,86.5C 82.3333,85.8333 83.3333,84.8333 84,83.5C 84.6667,86.1667 85.3333,88.8333 86,91.5C 86.4999,105.496 86.6666,119.496 86.5,133.5 Z"/></g>
<g><path style="opacity:1" fill="#d0bdac" d="M 93.5,115.5 C 93.1826,118.572 93.5159,121.572 94.5,124.5C 95.1835,124.137 95.8501,123.804 96.5,123.5C 96.1457,126.494 97.1457,127.494 99.5,126.5C 99.5,127.833 99.5,129.167 99.5,130.5C 102.594,131.213 105.594,132.213 108.5,133.5C 111.167,133.5 113.833,133.5 116.5,133.5C 116.5,131.833 116.5,130.167 116.5,128.5C 117.266,130.684 117.933,133.018 118.5,135.5C 114.488,136.698 110.488,136.698 106.5,135.5C 104.967,133.755 102.967,132.755 100.5,132.5C 98.4922,130.732 96.3256,129.066 94,127.5C 93.2086,126.255 92.7086,124.922 92.5,123.5C 92.5,122.833 92.1667,122.5 91.5,122.5C 91.9267,119.99 92.5933,117.657 93.5,115.5 Z"/></g>
<g><path style="opacity:1" fill="#7b776a" d="M 56.5,127.5 C 56.5,132.167 56.5,136.833 56.5,141.5C 56.5,142.5 56.5,143.5 56.5,144.5C 59.1667,144.5 61.8333,144.5 64.5,144.5C 64.5,144.833 64.5,145.167 64.5,145.5C 61.5,145.5 58.5,145.5 55.5,145.5C 55.5,141.5 55.5,137.5 55.5,133.5C 55.2053,131.265 55.5386,129.265 56.5,127.5 Z"/></g>
<g><path style="opacity:1" fill="#d9d4ab" d="M 60.5,84.5 C 60.6773,88.2343 60.3439,91.9009 59.5,95.5C 58.3398,108.327 58.1731,121.327 59,134.5C 61.3806,135.435 63.8806,135.768 66.5,135.5C 66.2053,133.265 66.5386,131.265 67.5,129.5C 67.8333,132.167 68.1667,134.833 68.5,137.5C 67.7515,138.531 67.0848,139.698 66.5,141C 63.1832,141.498 59.8499,141.665 56.5,141.5C 56.5,136.833 56.5,132.167 56.5,127.5C 56.5837,114.492 56.917,101.492 57.5,88.5C 58.1429,86.9236 59.1429,85.5903 60.5,84.5 Z"/></g>
<g><path style="opacity:1" fill="#4c4c4f" d="M 91.5,122.5 C 92.1667,122.5 92.5,122.833 92.5,123.5C 91.4017,124.601 91.235,125.934 92,127.5C 93.7858,128.777 94.9524,130.444 95.5,132.5C 95.2528,133.713 94.5862,134.38 93.5,134.5C 93.5,133.833 93.1667,133.5 92.5,133.5C 92.2914,132.078 91.7914,130.745 91,129.5C 90.6667,129.833 90.3333,130.167 90,130.5C 89.7537,133.89 89.2537,137.223 88.5,140.5C 89.9938,146.718 89.6605,152.718 87.5,158.5C 86.6287,150.2 86.2953,141.867 86.5,133.5C 87.1666,126.655 87.8333,119.655 88.5,112.5C 89.7691,114.695 89.7691,116.861 88.5,119C 89.8141,119.985 90.8141,121.152 91.5,122.5 Z"/></g>
<g><path style="opacity:1" fill="#807675" d="M 117.5,119.5 C 118.502,125.521 119.335,131.521 120,137.5C 115.528,140.056 110.695,141.056 105.5,140.5C 105.216,138.585 105.549,136.919 106.5,135.5C 110.488,136.698 114.488,136.698 118.5,135.5C 117.933,133.018 117.266,130.684 116.5,128.5C 116.5,126.5 116.5,124.5 116.5,122.5C 116.263,121.209 116.596,120.209 117.5,119.5 Z"/></g>
<g><path style="opacity:1" fill="#0c0b0b" d="M 100.5,132.5 C 102.967,132.755 104.967,133.755 106.5,135.5C 105.549,136.919 105.216,138.585 105.5,140.5C 104.79,145.732 104.123,151.065 103.5,156.5C 103.158,157.338 102.492,157.672 101.5,157.5C 98.6644,157.798 98.1644,157.131 100,155.5C 100.435,147.532 100.602,139.865 100.5,132.5 Z"/></g>
<g><path style="opacity:1" fill="#c3c1cb" d="M 68.5,137.5 C 68.5,137.833 68.5,138.167 68.5,138.5C 68.5,140.5 68.5,142.5 68.5,144.5C 67.1667,144.5 65.8333,144.5 64.5,144.5C 61.8333,144.5 59.1667,144.5 56.5,144.5C 56.5,143.5 56.5,142.5 56.5,141.5C 59.8499,141.665 63.1832,141.498 66.5,141C 67.0848,139.698 67.7515,138.531 68.5,137.5 Z"/></g>
<g><path style="opacity:1" fill="#4b4b49" d="M 92.5,123.5 C 92.7086,124.922 93.2086,126.255 94,127.5C 96.3256,129.066 98.4922,130.732 100.5,132.5C 100.602,139.865 100.435,147.532 100,155.5C 98.1644,157.131 98.6644,157.798 101.5,157.5C 100.07,158.537 98.403,159.204 96.5,159.5C 95.8878,151.34 94.8878,143.007 93.5,134.5C 94.5862,134.38 95.2528,133.713 95.5,132.5C 94.9524,130.444 93.7858,128.777 92,127.5C 91.235,125.934 91.4017,124.601 92.5,123.5 Z"/></g>
<g><path style="opacity:1" fill="#b8b28a" d="M 51.5,143.5 C 51.7373,144.791 51.404,145.791 50.5,146.5C 50.5858,145.504 50.2524,144.671 49.5,144C 50.0944,143.536 50.7611,143.369 51.5,143.5 Z"/></g>
<g><path style="opacity:1" fill="#191918" d="M 55.5,133.5 C 55.5,137.5 55.5,141.5 55.5,145.5C 58.5,145.5 61.5,145.5 64.5,145.5C 65.2389,145.369 65.9056,145.536 66.5,146C 65.3852,148.131 64.0519,149.965 62.5,151.5C 58.5,151.5 54.5,151.5 50.5,151.5C 50.5,149.833 50.5,148.167 50.5,146.5C 51.404,145.791 51.7373,144.791 51.5,143.5C 51.1984,140.941 51.5318,138.607 52.5,136.5C 53.1001,135.1 54.1001,134.1 55.5,133.5 Z"/></g>
<g><path style="opacity:1" fill="#1a191a" d="M 92.5,133.5 C 93.1667,133.5 93.5,133.833 93.5,134.5C 94.8878,143.007 95.8878,151.34 96.5,159.5C 94.8356,158.051 94.0023,156.051 94,153.5C 93.3891,146.836 92.8891,140.17 92.5,133.5 Z"/></g>
<g><path style="opacity:1" fill="#5c5c5c" d="M 105.5,140.5 C 105.337,144.707 105.671,148.874 106.5,153C 106.722,155.275 105.722,156.441 103.5,156.5C 104.123,151.065 104.79,145.732 105.5,140.5 Z"/></g>
<g><path style="opacity:1" fill="#5f5c2b" d="M 81.5,153.5 C 81.9734,142.172 82.3067,130.838 82.5,119.5C 82.3338,113.491 82.5005,107.491 83,101.5C 83.3333,101.833 83.6667,102.167 84,102.5C 84.2735,121.846 84.7735,141.179 85.5,160.5C 84.1667,160.5 82.8333,160.5 81.5,160.5C 81.5,158.167 81.5,155.833 81.5,153.5 Z"/></g>
<g><path style="opacity:1" fill="#232322" d="M 81.5,119.5 C 81.8333,119.5 82.1667,119.5 82.5,119.5C 82.3067,130.838 81.9734,142.172 81.5,153.5C 80.8333,155.5 80.1667,157.5 79.5,159.5C 78.7784,159.082 78.2784,158.416 78,157.5C 72.4196,160.009 66.5863,160.843 60.5,160C 58.9559,159.71 57.6226,159.044 56.5,158C 58.8668,156.155 61.5335,154.989 64.5,154.5C 65.2216,154.082 65.7216,153.416 66,152.5C 70.112,155.105 74.4453,155.772 79,154.5C 79.679,146.841 80.179,139.174 80.5,131.5C 81.3597,127.566 81.693,123.566 81.5,119.5 Z"/></g>
<g><path style="opacity:1" fill="#11100f" d="M 79.5,161.5 C 81.8333,161.5 84.1667,161.5 86.5,161.5C 88.4832,161.157 89.8166,161.824 90.5,163.5C 89.1667,164.5 87.8333,165.5 86.5,166.5C 84.1432,166.663 81.8098,166.497 79.5,166C 78.6634,164.989 78.33,163.822 78.5,162.5C 78.5,161.833 78.8333,161.5 79.5,161.5 Z"/></g>
<g><path style="opacity:1" fill="#c5c3be" d="M 78.5,162.5 C 78.33,163.822 78.6634,164.989 79.5,166C 81.8098,166.497 84.1432,166.663 86.5,166.5C 83.7131,167.477 80.7131,167.81 77.5,167.5C 77.2155,165.585 77.5489,163.919 78.5,162.5 Z"/></g>
</svg>
