<?xml version="1.0" encoding="UTF-8"?>
<!DOCTYPE svg PUBLIC "-//W3C//DTD SVG 1.1//EN" "http://www.w3.org/Graphics/SVG/1.1/DTD/svg11.dtd">
<svg xmlns="http://www.w3.org/2000/svg" version="1.1" width="96px" height="96px" style="shape-rendering:geometricPrecision; text-rendering:geometricPrecision; image-rendering:optimizeQuality; fill-rule:evenodd; clip-rule:evenodd" xmlns:xlink="http://www.w3.org/1999/xlink">
<g><path style="opacity:1" fill="#b68c48" d="M 53.5,13.5 C 52.8333,14.1667 52.1667,14.8333 51.5,15.5C 50.9264,14.4719 50.593,13.4719 50.5,12.5C 49.3112,14.3634 47.9779,16.0301 46.5,17.5C 46.6567,16.1266 46.49,14.7932 46,13.5C 42.8897,12.3266 42.723,12.8266 45.5,15C 44.2423,16.7409 43.2423,18.5742 42.5,20.5C 41.8333,20.5 41.1667,20.5 40.5,20.5C 40.7512,18.8297 41.4178,17.3297 42.5,16C 41.1011,15.4054 39.7678,15.5721 38.5,16.5C 36.9522,13.9925 35.9522,14.3259 35.5,17.5C 34.1882,16.8549 33.1882,15.8549 32.5,14.5C 35.4465,13.6786 38.4465,13.1786 41.5,13C 42.056,12.6174 42.3893,12.1174 42.5,11.5C 43.9117,9.01989 45.5784,6.68656 47.5,4.5C 49.7451,7.31972 51.7451,10.3197 53.5,13.5 Z"/></g>
<g><path style="opacity:1" fill="#4d3bbe" d="M 46.5,6.5 C 48.1852,7.18372 49.1852,8.51705 49.5,10.5C 48.1667,13.1667 46.8333,13.1667 45.5,10.5C 46.2458,9.26381 46.5792,7.93047 46.5,6.5 Z"/></g>
<g><path style="opacity:1" fill="#170d76" d="M 45.5,-0.5 C 46.5,-0.5 47.5,-0.5 48.5,-0.5C 50.369,3.59406 52.7024,7.42739 55.5,11C 59.4862,11.4988 63.4862,11.6655 67.5,11.5C 67.7373,12.791 67.404,13.791 66.5,14.5C 65.0413,14.5674 63.7079,14.2341 62.5,13.5C 59.5,13.5 56.5,13.5 53.5,13.5C 51.7451,10.3197 49.7451,7.31972 47.5,4.5C 45.5784,6.68656 43.9117,9.01989 42.5,11.5C 42.5912,9.30228 41.9245,8.96895 40.5,10.5C 42.424,6.98295 44.0906,3.31628 45.5,-0.5 Z"/></g>
<g><path style="opacity:1" fill="#6550a5" d="M 46.5,17.5 C 45.1667,18.5 43.8333,19.5 42.5,20.5C 43.2423,18.5742 44.2423,16.7409 45.5,15C 42.723,12.8266 42.8897,12.3266 46,13.5C 46.49,14.7932 46.6567,16.1266 46.5,17.5 Z"/></g>
<g><path style="opacity:1" fill="#8a6564" d="M 53.5,13.5 C 56.5,13.5 59.5,13.5 62.5,13.5C 61.9202,15.7488 60.5869,17.4154 58.5,18.5C 57.8333,18.5 57.1667,18.5 56.5,18.5C 56.3318,15.9486 55.3318,15.2819 53.5,16.5C 52.8333,16.5 52.1667,16.5 51.5,16.5C 51.5,16.1667 51.5,15.8333 51.5,15.5C 52.1667,14.8333 52.8333,14.1667 53.5,13.5 Z"/></g>
<g><path style="opacity:0.296" fill="#000000" d="M 15.5,18.5 C 19.8839,18.1744 24.2172,18.5078 28.5,19.5C 25.2317,20.487 21.8984,20.8204 18.5,20.5C 18.6219,24.8383 18.9553,25.1716 19.5,21.5C 22.5719,21.1826 25.5719,21.5159 28.5,22.5C 27.9747,23.1924 27.3081,23.6924 26.5,24C 27.9561,24.4226 28.4561,25.2559 28,26.5C 24.1022,27.0805 19.9355,27.4139 15.5,27.5C 15.5,24.5 15.5,21.5 15.5,18.5 Z"/></g>
<g><path style="opacity:1" fill="#5940b8" d="M 40.5,20.5 C 39.3303,18.7215 37.6636,17.7215 35.5,17.5C 35.9522,14.3259 36.9522,13.9925 38.5,16.5C 39.7678,15.5721 41.1011,15.4054 42.5,16C 41.4178,17.3297 40.7512,18.8297 40.5,20.5 Z"/></g>
<g><path style="opacity:0.381" fill="#000000" d="M 63.5,18.5 C 68.6813,19.1665 74.0147,19.8332 79.5,20.5C 75.8776,21.3253 72.211,21.8253 68.5,22C 69.7659,22.3095 70.9326,22.8095 72,23.5C 74.5,23.3333 77,23.1667 79.5,23C 80.6341,24.016 80.3008,24.6827 78.5,25C 79.756,25.4169 80.4226,26.2502 80.5,27.5C 74.1588,28.6691 67.8255,28.5024 61.5,27C 62.807,25.0565 62.807,23.2232 61.5,21.5C 61.427,19.9731 62.0937,18.9731 63.5,18.5 Z"/></g>
<g><path style="opacity:0.693" fill="#170d78" d="M 42.5,11.5 C 42.3893,12.1174 42.056,12.6174 41.5,13C 38.4465,13.1786 35.4465,13.6786 32.5,14.5C 33.1882,15.8549 34.1882,16.8549 35.5,17.5C 36.072,18.9733 36.9054,20.3066 38,21.5C 38.4994,27.1569 38.6661,32.8236 38.5,38.5C 32.8236,38.6661 27.1569,38.4994 21.5,38C 20.9558,37.2828 20.2891,36.7828 19.5,36.5C 17.8767,35.2206 16.21,33.8872 14.5,32.5C 13.5159,35.4281 13.1826,38.4281 13.5,41.5C 13.1667,41.5 12.8333,41.5 12.5,41.5C 12.1667,40.8333 11.8333,40.1667 11.5,39.5C 11.5,35.5 11.5,31.5 11.5,27.5C 15.5132,29.3215 19.1798,31.8215 22.5,35C 26.8206,35.499 31.1539,35.6657 35.5,35.5C 35.6657,31.1539 35.499,26.8206 35,22.5C 32.1667,19 29.3333,15.5 26.5,12C 31.2497,11.7773 35.9164,11.2773 40.5,10.5C 41.9245,8.96895 42.5912,9.30228 42.5,11.5 Z"/></g>
<g><path style="opacity:1" fill="#644eaf" d="M 51.5,15.5 C 51.5,15.8333 51.5,16.1667 51.5,16.5C 51.0618,16.4346 50.7284,16.6012 50.5,17C 53.7907,21.5815 54.7907,21.4148 53.5,16.5C 55.3318,15.2819 56.3318,15.9486 56.5,18.5C 54.8716,20.3742 54.5382,22.3742 55.5,24.5C 54.4229,26.7294 53.7563,29.0628 53.5,31.5C 52.3263,30.4863 51.6596,29.153 51.5,27.5C 53.0986,26.2015 53.5986,24.5348 53,22.5C 52.3292,23.2524 51.4959,23.5858 50.5,23.5C 53.1937,21.4572 52.8604,19.7905 49.5,18.5C 47.5981,23.7064 46.5981,23.373 46.5,17.5C 47.9779,16.0301 49.3112,14.3634 50.5,12.5C 50.593,13.4719 50.9264,14.4719 51.5,15.5 Z"/></g>
<g><path style="opacity:1" fill="#e8e530" d="M 51.5,16.5 C 52.1667,16.5 52.8333,16.5 53.5,16.5C 54.7907,21.4148 53.7907,21.5815 50.5,17C 50.7284,16.6012 51.0618,16.4346 51.5,16.5 Z"/></g>
<g><path style="opacity:1" fill="#d6d14d" d="M 46.5,17.5 C 46.5981,23.373 47.5981,23.7064 49.5,18.5C 52.8604,19.7905 53.1937,21.4572 50.5,23.5C 49.5178,24.1408 48.5178,24.8075 47.5,25.5C 46.7174,23.7118 45.3841,22.7118 43.5,22.5C 43.1667,21.8333 42.8333,21.1667 42.5,20.5C 43.8333,19.5 45.1667,18.5 46.5,17.5 Z"/></g>
<g><path style="opacity:0.686" fill="#1b0e77" d="M 62.5,13.5 C 63.7079,14.2341 65.0413,14.5674 66.5,14.5C 65.5,15.8333 64.5,17.1667 63.5,18.5C 62.0937,18.9731 61.427,19.9731 61.5,21.5C 60.8826,21.6107 60.3826,21.944 60,22.5C 59.501,26.8206 59.3343,31.1539 59.5,35.5C 63.8461,35.6657 68.1794,35.499 72.5,35C 75.014,32.5855 77.6806,30.4188 80.5,28.5C 80.8333,29.8333 81.1667,31.1667 81.5,32.5C 79.5956,32.7376 78.2623,33.7376 77.5,35.5C 76.0267,36.072 74.6934,36.9054 73.5,38C 67.8431,38.4994 62.1764,38.6661 56.5,38.5C 56.3339,32.8236 56.5006,27.1569 57,21.5C 57.5133,20.4734 58.0133,19.4734 58.5,18.5C 60.5869,17.4154 61.9202,15.7488 62.5,13.5 Z"/></g>
<g><path style="opacity:1" fill="#cda03b" d="M 35.5,17.5 C 37.6636,17.7215 39.3303,18.7215 40.5,20.5C 40.3359,23.1873 40.5026,25.854 41,28.5C 41.3826,29.056 41.8826,29.3893 42.5,29.5C 40.82,31.7264 41.1534,33.3931 43.5,34.5C 45.0269,34.427 46.0269,35.0937 46.5,36.5C 40.0104,38.7754 40.0104,39.6087 46.5,39C 45.5,39.8333 44.5,40.6667 43.5,41.5C 46.1667,45.5 45.5,46.1667 41.5,43.5C 40.6667,44.5 39.8333,45.5 39,46.5C 38.8047,44.7928 38.8047,43.1261 39,41.5C 37.3298,40.8234 35.4965,40.8234 33.5,41.5C 32.8333,41.5 32.1667,41.5 31.5,41.5C 29.2133,41.2761 27.0466,40.6094 25,39.5C 22.6737,40.6041 20.507,40.2708 18.5,38.5C 18.3284,37.5084 18.6618,36.8417 19.5,36.5C 20.2891,36.7828 20.9558,37.2828 21.5,38C 27.1569,38.4994 32.8236,38.6661 38.5,38.5C 38.6661,32.8236 38.4994,27.1569 38,21.5C 36.9054,20.3066 36.072,18.9733 35.5,17.5 Z"/></g>
<g><path style="opacity:1" fill="#d9d447" d="M 43.5,22.5 C 44.7401,23.973 45.7401,25.6396 46.5,27.5C 45.2821,27.74 44.2821,27.74 43.5,27.5C 41.1493,25.5828 41.1493,23.9161 43.5,22.5 Z"/></g>
<g><path style="opacity:1" fill="#d5d04c" d="M 51.5,27.5 C 50.7179,27.74 49.7179,27.74 48.5,27.5C 49.6302,26.3777 50.2969,25.0443 50.5,23.5C 51.4959,23.5858 52.3292,23.2524 53,22.5C 53.5986,24.5348 53.0986,26.2015 51.5,27.5 Z"/></g>
<g><path style="opacity:1" fill="#73629d" d="M 40.5,20.5 C 41.1667,20.5 41.8333,20.5 42.5,20.5C 42.8333,21.1667 43.1667,21.8333 43.5,22.5C 41.1493,23.9161 41.1493,25.5828 43.5,27.5C 43.6716,28.4916 43.3382,29.1583 42.5,29.5C 41.8826,29.3893 41.3826,29.056 41,28.5C 40.5026,25.854 40.3359,23.1873 40.5,20.5 Z"/></g>
<g><path style="opacity:1" fill="#4933d4" d="M 43.5,22.5 C 45.3841,22.7118 46.7174,23.7118 47.5,25.5C 48.5178,24.8075 49.5178,24.1408 50.5,23.5C 50.2969,25.0443 49.6302,26.3777 48.5,27.5C 49.7179,27.74 50.7179,27.74 51.5,27.5C 51.6596,29.153 52.3263,30.4863 53.5,31.5C 53.7148,33.1788 53.0481,34.1788 51.5,34.5C 51.7778,32.6536 51.1112,31.3202 49.5,30.5C 48.2798,31.7111 47.1131,31.7111 46,30.5C 44.2942,31.3079 43.4609,32.6412 43.5,34.5C 41.1534,33.3931 40.82,31.7264 42.5,29.5C 43.3382,29.1583 43.6716,28.4916 43.5,27.5C 44.2821,27.74 45.2821,27.74 46.5,27.5C 45.7401,25.6396 44.7401,23.973 43.5,22.5 Z"/></g>
<g><path style="opacity:1" fill="#deda44" d="M 51.5,34.5 C 50.2905,34.9321 49.2905,35.5987 48.5,36.5C 47.8333,36.5 47.1667,36.5 46.5,36.5C 46.0269,35.0937 45.0269,34.427 43.5,34.5C 43.4609,32.6412 44.2942,31.3079 46,30.5C 47.1131,31.7111 48.2798,31.7111 49.5,30.5C 51.1112,31.3202 51.7778,32.6536 51.5,34.5 Z"/></g>
<g><path style="opacity:1" fill="#84615b" d="M 19.5,36.5 C 18.6618,36.8417 18.3284,37.5084 18.5,38.5C 17.8333,38.5 17.1667,38.5 16.5,38.5C 16.44,37.9569 16.1067,37.6236 15.5,37.5C 14.8281,38.9492 14.1614,40.2825 13.5,41.5C 13.1826,38.4281 13.5159,35.4281 14.5,32.5C 16.21,33.8872 17.8767,35.2206 19.5,36.5 Z"/></g>
<g><path style="opacity:1" fill="#3f38cb" d="M 46.5,32.5 C 48.337,32.6395 48.6704,33.3061 47.5,34.5C 46.7025,34.0431 46.3691,33.3764 46.5,32.5 Z"/></g>
<g><path style="opacity:1" fill="#cd9f3b" d="M 56.5,18.5 C 57.1667,18.5 57.8333,18.5 58.5,18.5C 58.0133,19.4734 57.5133,20.4734 57,21.5C 56.5006,27.1569 56.3339,32.8236 56.5,38.5C 62.1764,38.6661 67.8431,38.4994 73.5,38C 74.6934,36.9054 76.0267,36.072 77.5,35.5C 77.2785,37.6636 76.2785,39.3303 74.5,40.5C 71.1142,39.4963 67.7808,39.8296 64.5,41.5C 63.5,41.5 62.5,41.5 61.5,41.5C 61.2172,40.7109 60.7172,40.0442 60,39.5C 58.6525,41.1932 58.1525,42.8598 58.5,44.5C 57.6667,43.5 56.8333,42.5 56,41.5C 56.1953,43.1261 56.1953,44.7928 56,46.5C 55.1667,45.5 54.3333,44.5 53.5,43.5C 49.5,46.1667 48.8333,45.5 51.5,41.5C 50.5,40.6667 49.5,39.8333 48.5,39C 54.9896,39.6087 54.9896,38.7754 48.5,36.5C 49.2905,35.5987 50.2905,34.9321 51.5,34.5C 53.0481,34.1788 53.7148,33.1788 53.5,31.5C 53.7563,29.0628 54.4229,26.7294 55.5,24.5C 54.5382,22.3742 54.8716,20.3742 56.5,18.5 Z"/></g>
<g><path style="opacity:1" fill="#6953aa" d="M 16.5,38.5 C 17.1667,38.5 17.8333,38.5 18.5,38.5C 20.507,40.2708 22.6737,40.6041 25,39.5C 27.0466,40.6094 29.2133,41.2761 31.5,41.5C 30.4863,42.6737 29.153,43.3404 27.5,43.5C 26.3409,41.6231 24.6742,41.1231 22.5,42C 23.2524,42.6708 23.5858,43.5041 23.5,44.5C 22.5,43.8333 21.5,43.1667 20.5,42.5C 19.4643,40.3123 17.9643,40.3123 16,42.5C 15.4209,41.0715 15.5876,39.7382 16.5,38.5 Z"/></g>
<g><path style="opacity:1" fill="#a082a7" d="M 46.5,36.5 C 47.1667,36.5 47.8333,36.5 48.5,36.5C 54.9896,38.7754 54.9896,39.6087 48.5,39C 49.5,39.8333 50.5,40.6667 51.5,41.5C 48.8333,45.5 49.5,46.1667 53.5,43.5C 54.3333,44.5 55.1667,45.5 56,46.5C 56.1953,44.7928 56.1953,43.1261 56,41.5C 56.8333,42.5 57.6667,43.5 58.5,44.5C 58.1525,42.8598 58.6525,41.1932 60,39.5C 60.7172,40.0442 61.2172,40.7109 61.5,41.5C 60.6618,41.8417 60.3284,42.5084 60.5,43.5C 59.8333,45.1667 59.1667,46.8333 58.5,48.5C 58.047,50.5652 57.047,52.2318 55.5,53.5C 56.2178,51.8632 56.3845,50.1966 56,48.5C 55.2411,50.0629 54.0744,51.0629 52.5,51.5C 52.7031,49.9557 53.3698,48.6223 54.5,47.5C 54.1924,46.6919 53.6924,46.0253 53,45.5C 49.3333,49.5 45.6667,49.5 42,45.5C 40.198,47.2729 40.3647,48.9395 42.5,50.5C 42.44,51.0431 42.1067,51.3764 41.5,51.5C 38.4771,47.7339 37.8104,48.4006 39.5,53.5C 37.6427,54.027 35.6427,54.027 33.5,53.5C 34.3382,53.1583 34.6716,52.4916 34.5,51.5C 35.7247,49.5509 35.058,48.2175 32.5,47.5C 35.058,46.7825 35.7247,45.4491 34.5,43.5C 34.6716,42.5084 34.3382,41.8417 33.5,41.5C 35.4965,40.8234 37.3298,40.8234 39,41.5C 38.8047,43.1261 38.8047,44.7928 39,46.5C 39.8333,45.5 40.6667,44.5 41.5,43.5C 45.5,46.1667 46.1667,45.5 43.5,41.5C 44.5,40.6667 45.5,39.8333 46.5,39C 40.0104,39.6087 40.0104,38.7754 46.5,36.5 Z"/></g>
<g><path style="opacity:1" fill="#d9d547" d="M 68.5,46.5 C 65.8875,45.9045 65.8875,45.0712 68.5,44C 68.2716,43.6012 67.9382,43.4346 67.5,43.5C 68.7985,41.9014 70.4652,41.4014 72.5,42C 71.6426,44.0188 70.3092,45.5188 68.5,46.5 Z"/></g>
<g><path style="opacity:1" fill="#6654ac" d="M 74.5,40.5 C 75.5,41.8333 76.5,43.1667 77.5,44.5C 75.9826,44.4894 74.8159,43.8228 74,42.5C 72.9409,44.6592 71.4409,46.3259 69.5,47.5C 68.8333,47.5 68.5,47.1667 68.5,46.5C 70.3092,45.5188 71.6426,44.0188 72.5,42C 70.4652,41.4014 68.7985,41.9014 67.5,43.5C 66.2905,43.0679 65.2905,42.4013 64.5,41.5C 67.7808,39.8296 71.1142,39.4963 74.5,40.5 Z"/></g>
<g><path style="opacity:1" fill="#e5e233" d="M 74.5,40.5 C 77.6343,40.7066 78.6343,42.0399 77.5,44.5C 76.5,43.1667 75.5,41.8333 74.5,40.5 Z"/></g>
<g><path style="opacity:1" fill="#6b4fa6" d="M 77.5,35.5 C 80.8957,35.6329 81.2291,36.6329 78.5,38.5C 80.0211,40.2857 80.3544,42.119 79.5,44C 80.7376,43.9227 81.7376,44.0894 82.5,44.5C 81.3315,46.2174 79.6648,46.8841 77.5,46.5C 77.5,45.8333 77.5,45.1667 77.5,44.5C 78.6343,42.0399 77.6343,40.7066 74.5,40.5C 76.2785,39.3303 77.2785,37.6636 77.5,35.5 Z"/></g>
<g><path style="opacity:1" fill="#e7e437" d="M 20.5,42.5 C 21.5,43.1667 22.5,43.8333 23.5,44.5C 23.5,45.1667 23.5,45.8333 23.5,46.5C 18.8308,47.0103 17.8308,45.6769 20.5,42.5 Z"/></g>
<g><path style="opacity:1" fill="#d4d04c" d="M 27.5,43.5 C 27.0618,43.4346 26.7284,43.6012 26.5,44C 29.1125,45.0712 29.1125,45.9045 26.5,46.5C 25.7095,45.5987 24.7095,44.9321 23.5,44.5C 23.5858,43.5041 23.2524,42.6708 22.5,42C 24.6742,41.1231 26.3409,41.6231 27.5,43.5 Z"/></g>
<g><path style="opacity:1" fill="#3825e1" d="M 31.5,41.5 C 32.1667,41.5 32.8333,41.5 33.5,41.5C 34.3382,41.8417 34.6716,42.5084 34.5,43.5C 32.6412,43.4609 31.3079,44.2942 30.5,46C 30.9437,47.5333 31.277,49.0333 31.5,50.5C 32.325,51.3857 33.325,51.719 34.5,51.5C 34.6716,52.4916 34.3382,53.1583 33.5,53.5C 31.8333,53.5 30.1667,53.5 28.5,53.5C 28.6716,52.5084 28.3382,51.8417 27.5,51.5C 27.8039,50.8501 28.1373,50.1835 28.5,49.5C 27.3881,48.7348 26.7214,47.7348 26.5,46.5C 29.1125,45.9045 29.1125,45.0712 26.5,44C 26.7284,43.6012 27.0618,43.4346 27.5,43.5C 29.153,43.3404 30.4863,42.6737 31.5,41.5 Z"/></g>
<g><path style="opacity:1" fill="#e2de3f" d="M 60.5,43.5 C 62.3464,43.2222 63.6798,43.8888 64.5,45.5C 63.2889,46.7202 63.2889,47.8869 64.5,49C 63.6921,50.7058 62.3588,51.5391 60.5,51.5C 60.573,49.9731 59.9063,48.9731 58.5,48.5C 59.1667,46.8333 59.8333,45.1667 60.5,43.5 Z"/></g>
<g><path style="opacity:1" fill="#c79e40" d="M 16.5,38.5 C 15.5876,39.7382 15.4209,41.0715 16,42.5C 17.9643,40.3123 19.4643,40.3123 20.5,42.5C 18.9826,42.5106 17.8159,43.1772 17,44.5C 15.984,43.3659 15.3173,43.6992 15,45.5C 13.3854,43.0953 12.7188,43.0953 13,45.5C 15.0263,45.9147 16.5263,46.9147 17.5,48.5C 16.1266,48.3433 14.7932,48.51 13.5,49C 12.3266,52.1103 12.8266,52.277 15,49.5C 15.3173,51.3008 15.984,51.6341 17,50.5C 17.8159,51.8228 18.9826,52.4894 20.5,52.5C 19.4643,54.6877 17.9643,54.6877 16,52.5C 15.4209,53.9285 15.5876,55.2618 16.5,56.5C 16.44,57.0431 16.1067,57.3764 15.5,57.5C 14.8281,56.0508 14.1614,54.7175 13.5,53.5C 11.9991,52.2485 10.3325,51.2485 8.5,50.5C 8.5,49.8333 8.83333,49.5 9.5,49.5C 13.5,48.1667 13.5,46.8333 9.5,45.5C 8.83333,45.5 8.5,45.1667 8.5,44.5C 10.2303,43.9744 11.5637,42.9744 12.5,41.5C 12.8333,41.5 13.1667,41.5 13.5,41.5C 14.1614,40.2825 14.8281,38.9492 15.5,37.5C 16.1067,37.6236 16.44,37.9569 16.5,38.5 Z"/></g>
<g><path style="opacity:0.876" fill="#180d75" d="M 11.5,39.5 C 11.8333,40.1667 12.1667,40.8333 12.5,41.5C 11.5637,42.9744 10.2303,43.9744 8.5,44.5C 1.83333,46.5 1.83333,48.5 8.5,50.5C 10.3325,51.2485 11.9991,52.2485 13.5,53.5C 13.5,53.8333 13.5,54.1667 13.5,54.5C 12.5,54.5 11.5,54.5 10.5,54.5C 6.86401,52.5048 3.19735,50.5048 -0.5,48.5C -0.5,47.5 -0.5,46.5 -0.5,45.5C 3.78346,44.0249 7.78346,42.0249 11.5,39.5 Z"/></g>
<g><path style="opacity:1" fill="#7f6c9c" d="M 23.5,44.5 C 24.7095,44.9321 25.7095,45.5987 26.5,46.5C 26.7214,47.7348 27.3881,48.7348 28.5,49.5C 28.1373,50.1835 27.8039,50.8501 27.5,51.5C 26.7784,51.0825 26.2784,50.4158 26,49.5C 25.3292,50.2524 24.4959,50.5858 23.5,50.5C 24.1408,49.5178 24.8075,48.5178 25.5,47.5C 25.0431,46.7025 24.3764,46.3691 23.5,46.5C 23.5,45.8333 23.5,45.1667 23.5,44.5 Z"/></g>
<g><path style="opacity:0.84" fill="#140b79" d="M 80.5,27.5 C 81.5,27.5 82.5,27.5 83.5,27.5C 83.3345,31.5138 83.5012,35.5138 84,39.5C 87.5726,42.2976 91.4059,44.631 95.5,46.5C 95.5,47.1667 95.5,47.8333 95.5,48.5C 92.0356,50.3173 88.7022,52.3173 85.5,54.5C 85.5,53.5 85.5,52.5 85.5,51.5C 86.1667,50.8333 86.8333,50.1667 87.5,49.5C 89.0898,49.3718 90.4231,48.7051 91.5,47.5C 89.9713,46.2371 88.3046,45.2371 86.5,44.5C 84.7708,43.8825 83.2708,42.8825 82,41.5C 81.502,38.5184 81.3354,35.5184 81.5,32.5C 81.1667,31.1667 80.8333,29.8333 80.5,28.5C 80.5,28.1667 80.5,27.8333 80.5,27.5 Z"/></g>
<g><path style="opacity:1" fill="#8a675d" d="M 8.5,44.5 C 8.5,45.1667 8.83333,45.5 9.5,45.5C 8.60164,46.1577 7.60164,46.8243 6.5,47.5C 7.60164,48.1757 8.60164,48.8423 9.5,49.5C 8.83333,49.5 8.5,49.8333 8.5,50.5C 1.83333,48.5 1.83333,46.5 8.5,44.5 Z"/></g>
<g><path style="opacity:1" fill="#4c3cbd" d="M 9.5,45.5 C 13.5,46.8333 13.5,48.1667 9.5,49.5C 8.60164,48.8423 7.60164,48.1757 6.5,47.5C 7.60164,46.8243 8.60164,46.1577 9.5,45.5 Z"/></g>
<g><path style="opacity:1" fill="#6654a7" d="M 20.5,42.5 C 17.8308,45.6769 18.8308,47.0103 23.5,46.5C 22.0821,48.3079 20.0821,48.9746 17.5,48.5C 16.5263,46.9147 15.0263,45.9147 13,45.5C 12.7188,43.0953 13.3854,43.0953 15,45.5C 15.3173,43.6992 15.984,43.3659 17,44.5C 17.8159,43.1772 18.9826,42.5106 20.5,42.5 Z"/></g>
<g><path style="opacity:1" fill="#4945bf" d="M 60.5,46.5 C 62.337,46.6395 62.6704,47.3061 61.5,48.5C 60.7025,48.0431 60.3691,47.3764 60.5,46.5 Z"/></g>
<g><path style="opacity:1" fill="#574bb3" d="M 77.5,46.5 C 77.5,47.1667 77.5,47.8333 77.5,48.5C 70.8333,47.8333 70.8333,47.1667 77.5,46.5 Z"/></g>
<g><path style="opacity:1" fill="#dbd745" d="M 23.5,46.5 C 24.3764,46.3691 25.0431,46.7025 25.5,47.5C 24.8075,48.5178 24.1408,49.5178 23.5,50.5C 22.5,51.1667 21.5,51.8333 20.5,52.5C 19.5,51.1667 18.5,49.8333 17.5,48.5C 20.0821,48.9746 22.0821,48.3079 23.5,46.5 Z"/></g>
<g><path style="opacity:1" fill="#e4e03d" d="M 34.5,43.5 C 35.7247,45.4491 35.058,46.7825 32.5,47.5C 35.058,48.2175 35.7247,49.5509 34.5,51.5C 33.325,51.719 32.325,51.3857 31.5,50.5C 31.277,49.0333 30.9437,47.5333 30.5,46C 31.3079,44.2942 32.6412,43.4609 34.5,43.5 Z"/></g>
<g><path style="opacity:1" fill="#b7878f" d="M 52.5,51.5 C 47.3445,57.2658 48.3445,57.9325 55.5,53.5C 54.3947,55.7131 54.3947,57.8797 55.5,60C 54.9558,60.7172 54.2891,61.2172 53.5,61.5C 53.1583,60.6618 52.4916,60.3284 51.5,60.5C 49.5509,59.2753 48.2175,59.942 47.5,62.5C 46.7492,61.624 46.2492,60.624 46,59.5C 45.3292,60.2524 44.4959,60.5858 43.5,60.5C 42.5084,60.3284 41.8417,60.6618 41.5,61.5C 40.2006,59.8466 40.5339,58.3466 42.5,57C 40.9371,56.2411 39.9371,55.0744 39.5,53.5C 41.6245,55.1739 43.9578,56.0072 46.5,56C 45.5,55.1667 44.5,54.3333 43.5,53.5C 46.4989,50.5516 46.1655,49.5516 42.5,50.5C 40.3647,48.9395 40.198,47.2729 42,45.5C 45.6667,49.5 49.3333,49.5 53,45.5C 53.6924,46.0253 54.1924,46.6919 54.5,47.5C 53.3698,48.6223 52.7031,49.9557 52.5,51.5 Z"/></g>
<g><path style="opacity:1" fill="#3725e0" d="M 61.5,41.5 C 62.5,41.5 63.5,41.5 64.5,41.5C 65.2905,42.4013 66.2905,43.0679 67.5,43.5C 67.9382,43.4346 68.2716,43.6012 68.5,44C 65.8875,45.0712 65.8875,45.9045 68.5,46.5C 68.5,47.1667 68.8333,47.5 69.5,47.5C 69.5,47.8333 69.5,48.1667 69.5,48.5C 68.325,48.281 67.325,48.6143 66.5,49.5C 66.9569,50.2975 67.6236,50.6309 68.5,50.5C 68.5,51.1667 68.1667,51.5 67.5,51.5C 66.5084,51.3284 65.8417,51.6618 65.5,52.5C 63.2736,54.18 61.6069,53.8466 60.5,51.5C 62.3588,51.5391 63.6921,50.7058 64.5,49C 63.2889,47.8869 63.2889,46.7202 64.5,45.5C 63.6798,43.8888 62.3464,43.2222 60.5,43.5C 60.3284,42.5084 60.6618,41.8417 61.5,41.5 Z"/></g>
<g><path style="opacity:1" fill="#e3e03d" d="M 77.5,44.5 C 77.5,45.1667 77.5,45.8333 77.5,46.5C 70.8333,47.1667 70.8333,47.8333 77.5,48.5C 76.5,49.8333 75.5,51.1667 74.5,52.5C 73.8333,52.1667 73.1667,51.8333 72.5,51.5C 72.5,49.5 71.5,48.5 69.5,48.5C 69.5,48.1667 69.5,47.8333 69.5,47.5C 71.4409,46.3259 72.9409,44.6592 74,42.5C 74.8159,43.8228 75.9826,44.4894 77.5,44.5 Z"/></g>
<g><path style="opacity:1" fill="#4d3bbc" d="M 85.5,45.5 C 86.3984,46.1577 87.3984,46.8243 88.5,47.5C 88.3764,48.1067 88.0431,48.44 87.5,48.5C 85.9139,49.4132 84.4139,49.4132 83,48.5C 82.4808,46.5106 83.3141,45.5106 85.5,45.5 Z"/></g>
<g><path style="opacity:1" fill="#795960" d="M 86.5,44.5 C 88.3046,45.2371 89.9713,46.2371 91.5,47.5C 90.4231,48.7051 89.0898,49.3718 87.5,49.5C 87.5,49.1667 87.5,48.8333 87.5,48.5C 88.0431,48.44 88.3764,48.1067 88.5,47.5C 87.3984,46.8243 86.3984,46.1577 85.5,45.5C 86.1667,45.5 86.5,45.1667 86.5,44.5 Z"/></g>
<g><path style="opacity:1" fill="#8d7e8c" d="M 69.5,48.5 C 71.5,48.5 72.5,49.5 72.5,51.5C 71.5178,50.8592 70.5178,50.1925 69.5,49.5C 68.8933,49.6236 68.56,49.9569 68.5,50.5C 67.6236,50.6309 66.9569,50.2975 66.5,49.5C 67.325,48.6143 68.325,48.281 69.5,48.5 Z"/></g>
<g><path style="opacity:1" fill="#604fac" d="M 77.5,48.5 C 79.6648,48.1159 81.3315,48.7826 82.5,50.5C 81.6446,51.293 80.8113,50.9597 80,49.5C 79.7216,50.4158 79.2216,51.0825 78.5,51.5C 78.5654,51.0618 78.3988,50.7284 78,50.5C 77.1841,51.8228 76.0174,52.4894 74.5,52.5C 75.5,51.1667 76.5,49.8333 77.5,48.5 Z"/></g>
<g><path style="opacity:1" fill="#5e4ab0" d="M 17.5,48.5 C 18.5,49.8333 19.5,51.1667 20.5,52.5C 18.9826,52.4894 17.8159,51.8228 17,50.5C 15.984,51.6341 15.3173,51.3008 15,49.5C 12.8266,52.277 12.3266,52.1103 13.5,49C 14.7932,48.51 16.1266,48.3433 17.5,48.5 Z"/></g>
<g><path style="opacity:1" fill="#dcd844" d="M 27.5,51.5 C 28.3382,51.8417 28.6716,52.5084 28.5,53.5C 26.6862,53.2279 24.6862,53.0613 22.5,53C 23.2524,52.3292 23.5858,51.4959 23.5,50.5C 24.4959,50.5858 25.3292,50.2524 26,49.5C 26.2784,50.4158 26.7784,51.0825 27.5,51.5 Z"/></g>
<g><path style="opacity:1" fill="#e3e03a" d="M 72.5,51.5 C 71.0839,53.8507 69.4172,53.8507 67.5,51.5C 68.1667,51.5 68.5,51.1667 68.5,50.5C 68.56,49.9569 68.8933,49.6236 69.5,49.5C 70.5178,50.1925 71.5178,50.8592 72.5,51.5 Z"/></g>
<g><path style="opacity:1" fill="#ad8249" d="M 81.5,32.5 C 81.3354,35.5184 81.502,38.5184 82,41.5C 83.2708,42.8825 84.7708,43.8825 86.5,44.5C 86.5,45.1667 86.1667,45.5 85.5,45.5C 83.3141,45.5106 82.4808,46.5106 83,48.5C 84.4139,49.4132 85.9139,49.4132 87.5,48.5C 87.5,48.8333 87.5,49.1667 87.5,49.5C 86.8333,50.1667 86.1667,50.8333 85.5,51.5C 83.9826,51.5106 82.8159,52.1772 82,53.5C 81.8214,56.5535 81.3214,59.5535 80.5,62.5C 79.1451,61.8118 78.1451,60.8118 77.5,59.5C 80.8957,59.3671 81.2291,58.3671 78.5,56.5C 79.6527,55.3132 79.6527,54.3132 78.5,53.5C 78.5,52.8333 78.5,52.1667 78.5,51.5C 79.2216,51.0825 79.7216,50.4158 80,49.5C 80.8113,50.9597 81.6446,51.293 82.5,50.5C 81.3315,48.7826 79.6648,48.1159 77.5,48.5C 77.5,47.8333 77.5,47.1667 77.5,46.5C 79.6648,46.8841 81.3315,46.2174 82.5,44.5C 81.7376,44.0894 80.7376,43.9227 79.5,44C 80.3544,42.119 80.0211,40.2857 78.5,38.5C 81.2291,36.6329 80.8957,35.6329 77.5,35.5C 78.2623,33.7376 79.5956,32.7376 81.5,32.5 Z"/></g>
<g><path style="opacity:1" fill="#ebc52f" d="M 42.5,50.5 C 46.1655,49.5516 46.4989,50.5516 43.5,53.5C 44.5,54.3333 45.5,55.1667 46.5,56C 43.9578,56.0072 41.6245,55.1739 39.5,53.5C 37.8104,48.4006 38.4771,47.7339 41.5,51.5C 42.1067,51.3764 42.44,51.0431 42.5,50.5 Z"/></g>
<g><path style="opacity:1" fill="#e2d73b" d="M 55.5,53.5 C 48.3445,57.9325 47.3445,57.2658 52.5,51.5C 54.0744,51.0629 55.2411,50.0629 56,48.5C 56.3845,50.1966 56.2178,51.8632 55.5,53.5 Z"/></g>
<g><path style="opacity:1" fill="#ddd93e" d="M 78.5,51.5 C 78.5,52.1667 78.5,52.8333 78.5,53.5C 77.1667,53.8333 75.8333,54.1667 74.5,54.5C 74.5,53.8333 74.5,53.1667 74.5,52.5C 76.0174,52.4894 77.1841,51.8228 78,50.5C 78.3988,50.7284 78.5654,51.0618 78.5,51.5 Z"/></g>
<g><path style="opacity:1" fill="#4f3fbf" d="M 23.5,50.5 C 23.5858,51.4959 23.2524,52.3292 22.5,53C 24.6862,53.0613 26.6862,53.2279 28.5,53.5C 25.1445,54.1347 21.8112,55.1347 18.5,56.5C 17.8333,56.5 17.1667,56.5 16.5,56.5C 15.5876,55.2618 15.4209,53.9285 16,52.5C 17.9643,54.6877 19.4643,54.6877 20.5,52.5C 21.5,51.8333 22.5,51.1667 23.5,50.5 Z"/></g>
<g><path style="opacity:1" fill="#6251af" d="M 67.5,51.5 C 69.4172,53.8507 71.0839,53.8507 72.5,51.5C 73.1667,51.8333 73.8333,52.1667 74.5,52.5C 74.5,53.1667 74.5,53.8333 74.5,54.5C 71.8127,54.6641 69.146,54.4974 66.5,54C 65.944,53.6174 65.6107,53.1174 65.5,52.5C 65.8417,51.6618 66.5084,51.3284 67.5,51.5 Z"/></g>
<g><path style="opacity:1" fill="#835f5f" d="M 13.5,53.5 C 14.1614,54.7175 14.8281,56.0508 15.5,57.5C 16.1067,57.3764 16.44,57.0431 16.5,56.5C 17.1667,56.5 17.8333,56.5 18.5,56.5C 18.3284,57.4916 18.6618,58.1583 19.5,58.5C 14.4144,64.1292 12.4144,62.7958 13.5,54.5C 13.5,54.1667 13.5,53.8333 13.5,53.5 Z"/></g>
<g><path style="opacity:1" fill="#caa038" d="M 39.5,53.5 C 39.9371,55.0744 40.9371,56.2411 42.5,57C 40.5339,58.3466 40.2006,59.8466 41.5,61.5C 41.9662,63.2012 41.9662,64.7012 41.5,66C 42.4158,66.2784 43.0825,66.7784 43.5,67.5C 46.1113,69.682 45.6113,71.3487 42,72.5C 41.6667,70.8333 41.3333,69.1667 41,67.5C 40.5034,69.8098 40.3367,72.1432 40.5,74.5C 39.0937,74.9731 38.427,75.9731 38.5,77.5C 37.5,77.5 36.5,77.5 35.5,77.5C 36.072,76.0267 36.9054,74.6934 38,73.5C 38.4994,67.8431 38.6661,62.1764 38.5,56.5C 32.8236,56.3339 27.1569,56.5006 21.5,57C 20.9558,57.7172 20.2891,58.2172 19.5,58.5C 18.6618,58.1583 18.3284,57.4916 18.5,56.5C 21.8112,55.1347 25.1445,54.1347 28.5,53.5C 30.1667,53.5 31.8333,53.5 33.5,53.5C 35.6427,54.027 37.6427,54.027 39.5,53.5 Z"/></g>
<g><path style="opacity:1" fill="#c3953a" d="M 58.5,48.5 C 59.9063,48.9731 60.573,49.9731 60.5,51.5C 61.6069,53.8466 63.2736,54.18 65.5,52.5C 65.6107,53.1174 65.944,53.6174 66.5,54C 69.146,54.4974 71.8127,54.6641 74.5,54.5C 76.2785,55.6697 77.2785,57.3364 77.5,59.5C 76.0267,58.928 74.6934,58.0946 73.5,57C 67.8431,56.5006 62.1764,56.3339 56.5,56.5C 56.3339,62.1764 56.5006,67.8431 57,73.5C 58.0946,74.6934 58.928,76.0267 59.5,77.5C 56.4589,76.8009 54.7922,74.8009 54.5,71.5C 55.6783,69.6621 55.345,67.9955 53.5,66.5C 53.5,64.8333 53.5,63.1667 53.5,61.5C 54.2891,61.2172 54.9558,60.7172 55.5,60C 54.3947,57.8797 54.3947,55.7131 55.5,53.5C 57.047,52.2318 58.047,50.5652 58.5,48.5 Z"/></g>
<g><path style="opacity:0.68" fill="#180d77" d="M 10.5,54.5 C 11.5,54.5 12.5,54.5 13.5,54.5C 12.4144,62.7958 14.4144,64.1292 19.5,58.5C 20.2891,58.2172 20.9558,57.7172 21.5,57C 27.1569,56.5006 32.8236,56.3339 38.5,56.5C 38.6661,62.1764 38.4994,67.8431 38,73.5C 36.9054,74.6934 36.072,76.0267 35.5,77.5C 34.1882,78.1451 33.1882,79.1451 32.5,80.5C 35.4281,81.4841 38.4281,81.8174 41.5,81.5C 41.5,81.8333 41.5,82.1667 41.5,82.5C 36.8333,82.5 32.1667,82.5 27.5,82.5C 28.8333,80.1667 30.1667,77.8333 31.5,75.5C 32.7942,74.7101 33.9609,73.7101 35,72.5C 35.499,68.1794 35.6657,63.8461 35.5,59.5C 26.4883,57.3594 19.4883,60.026 14.5,67.5C 14.1667,67.5 13.8333,67.5 13.5,67.5C 11.7798,63.5417 10.7798,59.2084 10.5,54.5 Z"/></g>
<g><path style="opacity:0.698" fill="#180d78" d="M 85.5,51.5 C 85.5,52.5 85.5,53.5 85.5,54.5C 84.8826,54.6107 84.3826,54.944 84,55.5C 83.5012,59.4862 83.3345,63.4862 83.5,67.5C 79.4868,65.6785 75.8202,63.1785 72.5,60C 68.1794,59.501 63.8461,59.3343 59.5,59.5C 59.3343,63.8461 59.501,68.1794 60,72.5C 60.7083,73.3805 61.5416,74.0472 62.5,74.5C 62.3284,75.4916 62.6618,76.1583 63.5,76.5C 65.7053,78.3634 67.0387,80.6967 67.5,83.5C 63.5,83.5 59.5,83.5 55.5,83.5C 55.1667,82.8333 54.8333,82.1667 54.5,81.5C 57.2469,81.8134 59.9135,81.48 62.5,80.5C 61.8118,79.1451 60.8118,78.1451 59.5,77.5C 58.928,76.0267 58.0946,74.6934 57,73.5C 56.5006,67.8431 56.3339,62.1764 56.5,56.5C 62.1764,56.3339 67.8431,56.5006 73.5,57C 74.6934,58.0946 76.0267,58.928 77.5,59.5C 78.1451,60.8118 79.1451,61.8118 80.5,62.5C 81.3214,59.5535 81.8214,56.5535 82,53.5C 82.8159,52.1772 83.9826,51.5106 85.5,51.5 Z"/></g>
<g><path style="opacity:1" fill="#6644ab" d="M 78.5,53.5 C 79.6527,54.3132 79.6527,55.3132 78.5,56.5C 81.2291,58.3671 80.8957,59.3671 77.5,59.5C 77.2785,57.3364 76.2785,55.6697 74.5,54.5C 75.8333,54.1667 77.1667,53.8333 78.5,53.5 Z"/></g>
<g><path style="opacity:1" fill="#e8e537" d="M 51.5,60.5 C 51.5391,62.3588 50.7058,63.6921 49,64.5C 47.4667,64.0563 45.9667,63.723 44.5,63.5C 43.6143,62.675 43.281,61.675 43.5,60.5C 44.4959,60.5858 45.3292,60.2524 46,59.5C 46.2492,60.624 46.7492,61.624 47.5,62.5C 48.2175,59.942 49.5509,59.2753 51.5,60.5 Z"/></g>
<g><path style="opacity:0.501" fill="#000000" d="M 13.5,67.5 C 13.8333,67.5 14.1667,67.5 14.5,67.5C 17.179,67.5246 18.5123,68.858 18.5,71.5C 22.8566,71.4135 27.19,71.0802 31.5,70.5C 31.5,72.1667 31.5,73.8333 31.5,75.5C 30.5,75.5 29.5,75.5 28.5,75.5C 27.8333,79.5 27.1667,79.5 26.5,75.5C 24.1741,76.9526 21.6741,78.2859 19,79.5C 17.8118,78.4366 17.3118,77.1033 17.5,75.5C 15.8008,75.6602 14.1341,75.4935 12.5,75C 12.73,72.5018 13.0633,70.0018 13.5,67.5 Z"/></g>
<g><path style="opacity:1" fill="#4632d4" d="M 43.5,60.5 C 43.281,61.675 43.6143,62.675 44.5,63.5C 45.9667,63.723 47.4667,64.0563 49,64.5C 50.7058,63.6921 51.5391,62.3588 51.5,60.5C 52.4916,60.3284 53.1583,60.6618 53.5,61.5C 53.5,63.1667 53.5,64.8333 53.5,66.5C 52.5084,66.3284 51.8417,66.6618 51.5,67.5C 50.7179,67.26 49.7179,67.26 48.5,67.5C 50.0038,70.5056 49.3371,71.1723 46.5,69.5C 46.5983,66.7524 45.5983,66.0857 43.5,67.5C 43.0825,66.7784 42.4158,66.2784 41.5,66C 41.9662,64.7012 41.9662,63.2012 41.5,61.5C 41.8417,60.6618 42.5084,60.3284 43.5,60.5 Z"/></g>
<g><path style="opacity:0.325" fill="#000000" d="M 61.5,67.5 C 63.1033,67.3118 64.4366,67.8118 65.5,69C 63.5372,69.8442 62.2039,69.3442 61.5,67.5 Z"/></g>
<g><path style="opacity:0.463" fill="#000000" d="M 63.5,76.5 C 62.6618,76.1583 62.3284,75.4916 62.5,74.5C 63.2341,73.2921 63.5674,71.9587 63.5,70.5C 65.8568,70.6633 68.1902,70.4966 70.5,70C 69.376,69.7508 68.376,69.2508 67.5,68.5C 68.1667,68.1667 68.8333,67.8333 69.5,67.5C 71.5,68.1667 73.5,68.8333 75.5,69.5C 76.6721,69.0814 77.6721,68.4147 78.5,67.5C 79.7187,68.6461 81.0521,69.6461 82.5,70.5C 81.675,71.3857 80.675,71.719 79.5,71.5C 79.7852,73.288 79.4519,74.9547 78.5,76.5C 77.6919,76.1924 77.0253,75.6924 76.5,75C 77.7112,74.1072 77.7112,73.2739 76.5,72.5C 75.5,74.1667 74.1667,75.5 72.5,76.5C 69.3654,75.2172 66.3654,75.2172 63.5,76.5 Z"/></g>
<g><path style="opacity:1" fill="#7360a6" d="M 46.5,69.5 C 46.5,70.1667 46.5,70.8333 46.5,71.5C 44.7697,72.0256 43.4363,73.0256 42.5,74.5C 41.8333,74.5 41.1667,74.5 40.5,74.5C 40.3367,72.1432 40.5034,69.8098 41,67.5C 41.3333,69.1667 41.6667,70.8333 42,72.5C 45.6113,71.3487 46.1113,69.682 43.5,67.5C 45.5983,66.0857 46.5983,66.7524 46.5,69.5 Z"/></g>
<g><path style="opacity:1" fill="#7d6994" d="M 51.5,67.5 C 51.8417,66.6618 52.5084,66.3284 53.5,66.5C 55.345,67.9955 55.6783,69.6621 54.5,71.5C 54.1667,71.5 53.8333,71.5 53.5,71.5C 53.3404,69.847 52.6737,68.5137 51.5,67.5 Z"/></g>
<g><path style="opacity:1" fill="#dcd746" d="M 51.5,67.5 C 52.6737,68.5137 53.3404,69.847 53.5,71.5C 52.7688,71.9418 51.7688,72.1085 50.5,72C 52.9519,73.8064 52.6186,75.3064 49.5,76.5C 48.9986,74.3449 47.9986,72.6782 46.5,71.5C 46.5,70.8333 46.5,70.1667 46.5,69.5C 49.3371,71.1723 50.0038,70.5056 48.5,67.5C 49.7179,67.26 50.7179,67.26 51.5,67.5 Z"/></g>
<g><path style="opacity:1" fill="#e8e536" d="M 46.5,71.5 C 46.5,73.5 46.5,75.5 46.5,77.5C 45.1667,76.5 43.8333,75.5 42.5,74.5C 43.4363,73.0256 44.7697,72.0256 46.5,71.5 Z"/></g>
<g><path style="opacity:1" fill="#624ead" d="M 46.5,71.5 C 47.9986,72.6782 48.9986,74.3449 49.5,76.5C 52.6186,75.3064 52.9519,73.8064 50.5,72C 51.7688,72.1085 52.7688,71.9418 53.5,71.5C 53.8333,71.5 54.1667,71.5 54.5,71.5C 54.7922,74.8009 56.4589,76.8009 59.5,77.5C 59.3671,80.8957 58.3671,81.2291 56.5,78.5C 55.0052,79.7053 53.6719,79.7053 52.5,78.5C 53.8478,77.4732 54.3478,76.1398 54,74.5C 52.8333,75.6667 51.6667,76.8333 50.5,78C 50.7284,78.3988 51.0618,78.5654 51.5,78.5C 50.738,79.9755 50.4047,81.3088 50.5,82.5C 49.3112,80.6366 47.9779,78.9699 46.5,77.5C 46.5,75.5 46.5,73.5 46.5,71.5 Z"/></g>
<g><path style="opacity:1" fill="#e8e530" d="M 52.5,78.5 C 52.1667,78.5 51.8333,78.5 51.5,78.5C 51.0618,78.5654 50.7284,78.3988 50.5,78C 51.6667,76.8333 52.8333,75.6667 54,74.5C 54.3478,76.1398 53.8478,77.4732 52.5,78.5 Z"/></g>
<g><path style="opacity:1" fill="#3e2dd2" d="M 40.5,74.5 C 40.7512,76.1703 41.4178,77.6703 42.5,79C 41.0715,79.5791 39.7382,79.4124 38.5,78.5C 38.5,78.1667 38.5,77.8333 38.5,77.5C 38.427,75.9731 39.0937,74.9731 40.5,74.5 Z"/></g>
<g><path style="opacity:1" fill="#5f4ab2" d="M 42.5,74.5 C 43.8333,75.5 45.1667,76.5 46.5,77.5C 46.6567,78.8734 46.49,80.2068 46,81.5C 42.8897,82.6734 42.723,82.1734 45.5,80C 43.6992,79.6827 43.3659,79.016 44.5,78C 43.1772,77.1841 42.5106,76.0174 42.5,74.5 Z"/></g>
<g><path style="opacity:1" fill="#7d5965" d="M 35.5,77.5 C 36.5,77.5 37.5,77.5 38.5,77.5C 38.5,77.8333 38.5,78.1667 38.5,78.5C 37.9569,78.56 37.6236,78.8933 37.5,79.5C 38.9492,80.1719 40.2825,80.8386 41.5,81.5C 38.4281,81.8174 35.4281,81.4841 32.5,80.5C 33.1882,79.1451 34.1882,78.1451 35.5,77.5 Z"/></g>
<g><path style="opacity:1" fill="#b78e47" d="M 40.5,74.5 C 41.1667,74.5 41.8333,74.5 42.5,74.5C 42.5106,76.0174 43.1772,77.1841 44.5,78C 43.3659,79.016 43.6992,79.6827 45.5,80C 42.723,82.1734 42.8897,82.6734 46,81.5C 46.49,80.2068 46.6567,78.8734 46.5,77.5C 47.9779,78.9699 49.3112,80.6366 50.5,82.5C 50.4047,81.3088 50.738,79.9755 51.5,78.5C 51.8333,78.5 52.1667,78.5 52.5,78.5C 53.6719,79.7053 55.0052,79.7053 56.5,78.5C 58.3671,81.2291 59.3671,80.8957 59.5,77.5C 60.8118,78.1451 61.8118,79.1451 62.5,80.5C 59.9135,81.48 57.2469,81.8134 54.5,81.5C 52.457,82.5794 51.1237,84.246 50.5,86.5C 49.8333,86.5 49.5,86.1667 49.5,85.5C 49.4894,83.3141 48.4894,82.4808 46.5,83C 45.8617,84.7067 45.8617,86.54 46.5,88.5C 46.1667,88.5 45.8333,88.5 45.5,88.5C 44.6493,86.1184 43.316,84.1184 41.5,82.5C 41.5,82.1667 41.5,81.8333 41.5,81.5C 40.2825,80.8386 38.9492,80.1719 37.5,79.5C 37.6236,78.8933 37.9569,78.56 38.5,78.5C 39.7382,79.4124 41.0715,79.5791 42.5,79C 41.4178,77.6703 40.7512,76.1703 40.5,74.5 Z"/></g>
<g><path style="opacity:0.842" fill="#170c74" d="M 54.5,81.5 C 54.8333,82.1667 55.1667,82.8333 55.5,83.5C 52.7954,87.277 50.462,91.277 48.5,95.5C 47.8333,95.5 47.1667,95.5 46.5,95.5C 44.631,91.4059 42.2976,87.5726 39.5,84C 34.7347,83.8632 30.7347,83.3632 27.5,82.5C 32.1667,82.5 36.8333,82.5 41.5,82.5C 43.316,84.1184 44.6493,86.1184 45.5,88.5C 45.9081,89.6431 46.5748,90.6431 47.5,91.5C 48.7629,89.9713 49.7629,88.3046 50.5,86.5C 51.1237,84.246 52.457,82.5794 54.5,81.5 Z"/></g>
<g><path style="opacity:1" fill="#4838c2" d="M 49.5,85.5 C 48.8999,86.9002 47.8999,87.9002 46.5,88.5C 45.8617,86.54 45.8617,84.7067 46.5,83C 48.4894,82.4808 49.4894,83.3141 49.5,85.5 Z"/></g>
<g><path style="opacity:1" fill="#7b5b62" d="M 49.5,85.5 C 49.5,86.1667 49.8333,86.5 50.5,86.5C 49.7629,88.3046 48.7629,89.9713 47.5,91.5C 46.5748,90.6431 45.9081,89.6431 45.5,88.5C 45.8333,88.5 46.1667,88.5 46.5,88.5C 47.8999,87.9002 48.8999,86.9002 49.5,85.5 Z"/></g>
</svg>
