<?xml version="1.0" encoding="UTF-8"?>
<!DOCTYPE svg PUBLIC "-//W3C//DTD SVG 1.1//EN" "http://www.w3.org/Graphics/SVG/1.1/DTD/svg11.dtd">
<svg xmlns="http://www.w3.org/2000/svg" version="1.1" width="140px" height="140px" style="shape-rendering:geometricPrecision; text-rendering:geometricPrecision; image-rendering:optimizeQuality; fill-rule:evenodd; clip-rule:evenodd" xmlns:xlink="http://www.w3.org/1999/xlink">
<g><path style="opacity:1" fill="#141411" d="M 58.5,2.5 C 86.1656,-0.24659 108.332,9.42008 125,31.5C 143.818,67.4407 137.651,98.274 106.5,124C 72.8558,142.197 43.0225,137.364 17,109.5C 0.190265,84.1548 -0.809735,58.1548 14,31.5C 25.0543,15.8983 39.8876,6.23159 58.5,2.5 Z"/></g>
<g><path style="opacity:1" fill="#494c46" d="M 55.5,21.5 C 55.5,23.8333 55.5,26.1667 55.5,28.5C 52.2819,28.6509 51.9485,29.4842 54.5,31C 53.6667,31.8333 52.8333,32.6667 52,33.5C 51.9504,31.256 51.1171,29.5893 49.5,28.5C 49.5,26.8333 49.5,25.1667 49.5,23.5C 44.9437,23.7089 44.2771,25.3756 47.5,28.5C 47.1971,30.1143 46.5305,31.4477 45.5,32.5C 45.5654,32.9382 45.3988,33.2716 45,33.5C 44.7216,32.5842 44.2216,31.9175 43.5,31.5C 42.5269,29.0521 42.1936,26.3854 42.5,23.5C 37.9437,23.7089 37.2771,25.3756 40.5,28.5C 40.4805,29.7261 40.1471,30.7261 39.5,31.5C 38.2209,32.968 36.5542,33.6347 34.5,33.5C 34.5,29.5 34.5,25.5 34.5,21.5C 41.5,21.5 48.5,21.5 55.5,21.5 Z"/></g>
<g><path style="opacity:1" fill="#9bb447" d="M 43.5,31.5 C 42.1667,32.8333 40.8333,32.8333 39.5,31.5C 40.1471,30.7261 40.4805,29.7261 40.5,28.5C 37.2771,25.3756 37.9437,23.7089 42.5,23.5C 42.1936,26.3854 42.5269,29.0521 43.5,31.5 Z"/></g>
<g><path style="opacity:1" fill="#0a0a07" d="M 59.5,28.5 C 66.8333,28.5 74.1667,28.5 81.5,28.5C 82.1429,26.9236 83.1429,25.5903 84.5,24.5C 84.2108,28.1064 84.5442,31.6064 85.5,35C 91.4908,35.4995 97.4908,35.6662 103.5,35.5C 103.833,36.1667 104.167,36.8333 104.5,37.5C 102.856,37.2865 101.356,37.6198 100,38.5C 99.1849,43.3522 99.3516,48.0189 100.5,52.5C 107.655,53.3288 114.989,53.8288 122.5,54C 120.19,54.4966 117.857,54.6633 115.5,54.5C 115.357,56.2624 115.691,57.9291 116.5,59.5C 113.694,60.1676 111.028,60.8343 108.5,61.5C 107.513,66.3054 107.179,71.3054 107.5,76.5C 110.5,76.5 113.5,76.5 116.5,76.5C 116.326,78.861 115.993,81.1944 115.5,83.5C 110.305,83.1795 105.305,83.5128 100.5,84.5C 99.3516,88.9811 99.1849,93.6478 100,98.5C 102.381,99.435 104.881,99.7683 107.5,99.5C 100.39,101.152 93.0566,102.152 85.5,102.5C 84.5166,106.298 84.1832,110.298 84.5,114.5C 83.8826,114.611 83.3826,114.944 83,115.5C 82.8138,112.964 82.3138,110.631 81.5,108.5C 73.8333,108.5 66.1667,108.5 58.5,108.5C 58.5,113.167 58.5,117.833 58.5,122.5C 57.8333,120.833 57.1667,119.167 56.5,117.5C 56.8205,112.305 56.4872,107.305 55.5,102.5C 48.6787,101.671 41.6787,101.171 34.5,101C 33.944,100.617 33.6107,100.117 33.5,99.5C 35.8333,99.5 38.1667,99.5 40.5,99.5C 40.8205,94.3054 40.4872,89.3054 39.5,84.5C 32.3524,83.5084 25.0191,83.175 17.5,83.5C 19.9479,82.5269 22.6146,82.1936 25.5,82.5C 25.1667,80.5 24.8333,78.5 24.5,76.5C 27.7766,76.7839 30.9433,76.4505 34,75.5C 34.8151,70.6478 34.6484,65.9811 33.5,61.5C 30.6946,60.6805 27.6946,60.1805 24.5,60C 25.4061,58.3005 25.7394,56.4672 25.5,54.5C 22.6146,54.8064 19.9479,54.4731 17.5,53.5C 24.8409,53.6663 32.1742,53.4997 39.5,53C 40.8333,48 40.8333,43 39.5,38C 32.5079,37.5004 25.5079,37.3337 18.5,37.5C 23.5,36.8333 28.5,36.1667 33.5,35.5C 41.0191,35.825 48.3524,35.4916 55.5,34.5C 56.4861,30.03 56.8195,25.3633 56.5,20.5C 57.3138,18.369 57.8138,16.0356 58,13.5C 58.1739,18.6835 58.6739,23.6835 59.5,28.5 Z"/></g>
<g><path style="opacity:1" fill="#454f20" d="M 81.5,28.5 C 74.1667,28.5 66.8333,28.5 59.5,28.5C 59.5,23.5 59.5,18.5 59.5,13.5C 66.8333,13.5 74.1667,13.5 81.5,13.5C 81.5,18.5 81.5,23.5 81.5,28.5 Z"/></g>
<g><path style="opacity:1" fill="#4c4e4b" d="M 71.5,16.5 C 70.2241,17.3864 70.2241,18.3864 71.5,19.5C 72.1667,18.8333 72.8333,18.1667 73.5,17.5C 73.8333,18 74.1667,18.5 74.5,19C 73.2985,21.2339 71.9652,23.4006 70.5,25.5C 72.5,26.8333 74.5,26.8333 76.5,25.5C 75.624,24.7492 74.624,24.2492 73.5,24C 76.4076,21.9304 77.0743,19.4304 75.5,16.5C 76.9187,15.5489 78.5853,15.2155 80.5,15.5C 80.5,19.5 80.5,23.5 80.5,27.5C 73.8333,27.5 67.1667,27.5 60.5,27.5C 60.5,23.5 60.5,19.5 60.5,15.5C 64.3714,15.185 68.0381,15.5184 71.5,16.5 Z"/></g>
<g><path style="opacity:1" fill="#99b048" d="M 65.5,16.5 C 66.5,16.5 67.5,16.5 68.5,16.5C 68.2601,19.5788 68.5934,22.5788 69.5,25.5C 67.8333,26.8333 66.1667,26.8333 64.5,25.5C 67.1046,22.9114 67.1046,20.4114 64.5,18C 65.056,17.6174 65.3893,17.1174 65.5,16.5 Z"/></g>
<g><path style="opacity:1" fill="#97ad4a" d="M 71.5,16.5 C 72.8333,16.5 74.1667,16.5 75.5,16.5C 77.0743,19.4304 76.4076,21.9304 73.5,24C 74.624,24.2492 75.624,24.7492 76.5,25.5C 74.5,26.8333 72.5,26.8333 70.5,25.5C 71.9652,23.4006 73.2985,21.2339 74.5,19C 74.1667,18.5 73.8333,18 73.5,17.5C 72.8333,18.1667 72.1667,18.8333 71.5,19.5C 70.2241,18.3864 70.2241,17.3864 71.5,16.5 Z"/></g>
<g><path style="opacity:1" fill="#9cb447" d="M 49.5,28.5 C 49.33,29.8221 49.6634,30.9887 50.5,32C 48.8659,32.4935 47.1992,32.6602 45.5,32.5C 46.5305,31.4477 47.1971,30.1143 47.5,28.5C 44.2771,25.3756 44.9437,23.7089 49.5,23.5C 49.5,25.1667 49.5,26.8333 49.5,28.5 Z"/></g>
<g><path style="opacity:1" fill="#3d441c" d="M 103.5,35.5 C 97.4908,35.6662 91.4908,35.4995 85.5,35C 84.5442,31.6064 84.2108,28.1064 84.5,24.5C 84.2865,22.8561 84.6198,21.3561 85.5,20C 92.8258,19.5003 100.159,19.3337 107.5,19.5C 107.5,24.8333 107.5,30.1667 107.5,35.5C 106.167,35.5 104.833,35.5 103.5,35.5 Z"/></g>
<g><path style="opacity:1" fill="#474947" d="M 98.5,31.5 C 97.5269,29.0521 97.1936,26.3854 97.5,23.5C 96.0222,23.238 94.6888,23.5713 93.5,24.5C 96.1239,27.2437 96.1239,29.9104 93.5,32.5C 91.0521,33.4731 88.3854,33.8064 85.5,33.5C 85.5,29.5 85.5,25.5 85.5,21.5C 92.5,21.5 99.5,21.5 106.5,21.5C 106.5,25.5 106.5,29.5 106.5,33.5C 103.467,33.8685 100.8,33.2018 98.5,31.5 Z"/></g>
<g><path style="opacity:1" fill="#9cb546" d="M 98.5,31.5 C 97.0813,32.4511 95.4147,32.7845 93.5,32.5C 96.1239,29.9104 96.1239,27.2437 93.5,24.5C 94.6888,23.5713 96.0222,23.238 97.5,23.5C 97.1936,26.3854 97.5269,29.0521 98.5,31.5 Z"/></g>
<g><path style="opacity:1" fill="#4e533c" d="M 55.5,20.5 C 55.8333,20.5 56.1667,20.5 56.5,20.5C 56.8195,25.3633 56.4861,30.03 55.5,34.5C 48.3134,34.8245 41.3134,34.4912 34.5,33.5C 36.5542,33.6347 38.2209,32.968 39.5,31.5C 40.8333,32.8333 42.1667,32.8333 43.5,31.5C 44.2216,31.9175 44.7216,32.5842 45,33.5C 45.3988,33.2716 45.5654,32.9382 45.5,32.5C 47.1992,32.6602 48.8659,32.4935 50.5,32C 49.6634,30.9887 49.33,29.8221 49.5,28.5C 51.1171,29.5893 51.9504,31.256 52,33.5C 52.8333,32.6667 53.6667,31.8333 54.5,31C 51.9485,29.4842 52.2819,28.6509 55.5,28.5C 55.5,26.1667 55.5,23.8333 55.5,21.5C 55.5,21.1667 55.5,20.8333 55.5,20.5 Z"/></g>
<g><path style="opacity:1" fill="#404916" d="M 55.5,20.5 C 55.5,20.8333 55.5,21.1667 55.5,21.5C 48.5,21.5 41.5,21.5 34.5,21.5C 34.5,25.5 34.5,29.5 34.5,33.5C 41.3134,34.4912 48.3134,34.8245 55.5,34.5C 48.3524,35.4916 41.0191,35.825 33.5,35.5C 33.5,30.5 33.5,25.5 33.5,20.5C 40.8333,20.5 48.1667,20.5 55.5,20.5 Z"/></g>
<g><path style="opacity:1" fill="#3f471c" d="M 18.5,37.5 C 25.5079,37.3337 32.5079,37.5004 39.5,38C 40.8333,43 40.8333,48 39.5,53C 32.1742,53.4997 24.8409,53.6663 17.5,53.5C 17.1786,47.9738 17.5119,42.6405 18.5,37.5 Z"/></g>
<g><path style="opacity:1" fill="#4e514c" d="M 18.5,39.5 C 25.5,39.5 32.5,39.5 39.5,39.5C 39.5,43.5 39.5,47.5 39.5,51.5C 32.5,51.5 25.5,51.5 18.5,51.5C 18.5,47.5 18.5,43.5 18.5,39.5 Z"/></g>
<g><path style="opacity:1" fill="#94a94b" d="M 23.5,40.5 C 24.5,40.5 25.5,40.5 26.5,40.5C 26.2601,43.5788 26.5934,46.5788 27.5,49.5C 25.8333,50.8333 24.1667,50.8333 22.5,49.5C 25.1667,47.1667 25.1667,44.8333 22.5,42.5C 22.8627,41.8165 23.1961,41.1499 23.5,40.5 Z"/></g>
<g><path style="opacity:1" fill="#9db647" d="M 30.5,40.5 C 32.1439,40.2865 33.6439,40.6198 35,41.5C 35.6667,43.8333 35.6667,46.1667 35,48.5C 31.1822,51.4983 29.0155,50.4983 28.5,45.5C 28.4365,43.4861 29.1032,41.8194 30.5,40.5 Z"/></g>
<g><path style="opacity:1" fill="#555951" d="M 30.5,42.5 C 31.5,42.5 32.5,42.5 33.5,42.5C 33.5,44.5 33.5,46.5 33.5,48.5C 32.5,48.5 31.5,48.5 30.5,48.5C 30.5,46.5 30.5,44.5 30.5,42.5 Z"/></g>
<g><path style="opacity:1" fill="#434c21" d="M 104.5,37.5 C 110.5,37.5 116.5,37.5 122.5,37.5C 122.5,42.5 122.5,47.5 122.5,52.5C 115.167,52.5 107.833,52.5 100.5,52.5C 99.3516,48.0189 99.1849,43.3522 100,38.5C 101.356,37.6198 102.856,37.2865 104.5,37.5 Z"/></g>
<g><path style="opacity:1" fill="#4b4d4c" d="M 110.5,40.5 C 108.535,40.9483 108.202,41.9483 109.5,43.5C 110.609,42.4104 111.609,42.4104 112.5,43.5C 111.559,45.7721 110.226,47.7721 108.5,49.5C 110.5,50.8333 112.5,50.8333 114.5,49.5C 113.624,48.7492 112.624,48.2492 111.5,48C 114.889,45.6785 115.223,43.1785 112.5,40.5C 115.287,39.5233 118.287,39.19 121.5,39.5C 121.5,43.5 121.5,47.5 121.5,51.5C 114.833,51.5 108.167,51.5 101.5,51.5C 101.5,47.5 101.5,43.5 101.5,39.5C 104.713,39.19 107.713,39.5233 110.5,40.5 Z"/></g>
<g><path style="opacity:1" fill="#9ab14a" d="M 110.5,40.5 C 111.167,40.5 111.833,40.5 112.5,40.5C 115.223,43.1785 114.889,45.6785 111.5,48C 112.624,48.2492 113.624,48.7492 114.5,49.5C 112.5,50.8333 110.5,50.8333 108.5,49.5C 110.226,47.7721 111.559,45.7721 112.5,43.5C 111.609,42.4104 110.609,42.4104 109.5,43.5C 108.202,41.9483 108.535,40.9483 110.5,40.5 Z"/></g>
<g><path style="opacity:1" fill="#525e1c" d="M 81.5,61.5 C 81.5,62.1667 81.1667,62.5 80.5,62.5C 73.8333,62.5 67.1667,62.5 60.5,62.5C 60.1667,62.5 59.8333,62.5 59.5,62.5C 62.7681,61.1778 66.4348,60.5112 70.5,60.5C 74.3492,60.5013 78.0159,60.8346 81.5,61.5 Z"/></g>
<g><path style="opacity:1" fill="#4b4e47" d="M 109.5,62.5 C 116.167,62.5 122.833,62.5 129.5,62.5C 129.5,66.8333 129.5,71.1667 129.5,75.5C 125.629,75.185 121.962,75.5184 118.5,76.5C 118.167,76.5 117.833,76.5 117.5,76.5C 114.772,75.7948 111.939,75.1281 109,74.5C 108.238,70.4126 108.404,66.4126 109.5,62.5 Z"/></g>
<g><path style="opacity:1" fill="#9cb44a" d="M 117.5,63.5 C 119.144,63.2865 120.644,63.6198 122,64.5C 121.496,66.862 121.663,69.1953 122.5,71.5C 121.221,74.3199 119.221,74.9865 116.5,73.5C 117.689,72.5713 119.022,72.238 120.5,72.5C 120.64,70.8762 119.973,69.7096 118.5,69C 120.26,68.0347 120.594,66.868 119.5,65.5C 116.544,68.0745 115.877,67.4078 117.5,63.5 Z"/></g>
<g><path style="opacity:1" fill="#2e3510" d="M 108.5,61.5 C 108.5,62.1667 108.833,62.5 109.5,62.5C 108.404,66.4126 108.238,70.4126 109,74.5C 111.939,75.1281 114.772,75.7948 117.5,76.5C 117.167,76.5 116.833,76.5 116.5,76.5C 113.5,76.5 110.5,76.5 107.5,76.5C 107.179,71.3054 107.513,66.3054 108.5,61.5 Z"/></g>
<g><path style="opacity:1" fill="#474e27" d="M 33.5,61.5 C 34.6484,65.9811 34.8151,70.6478 34,75.5C 30.9433,76.4505 27.7766,76.7839 24.5,76.5C 20.1667,76.5 15.8333,76.5 11.5,76.5C 11.5,71.5 11.5,66.5 11.5,61.5C 18.8333,61.5 26.1667,61.5 33.5,61.5 Z"/></g>
<g><path style="opacity:1" fill="#464846" d="M 23.5,73.5 C 26.1438,71.484 26.9772,68.8173 26,65.5C 23.1359,62.6736 20.9692,63.1736 19.5,67C 20.1536,68.987 21.487,70.3203 23.5,71C 22.0577,71.3768 21.0577,72.2101 20.5,73.5C 18.0521,74.4731 15.3854,74.8064 12.5,74.5C 12.5,70.5 12.5,66.5 12.5,62.5C 19.1667,62.5 25.8333,62.5 32.5,62.5C 32.5,66.5 32.5,70.5 32.5,74.5C 29.2869,74.81 26.2869,74.4767 23.5,73.5 Z"/></g>
<g><path style="opacity:1" fill="#9eb648" d="M 23.5,73.5 C 22.5,73.5 21.5,73.5 20.5,73.5C 21.0577,72.2101 22.0577,71.3768 23.5,71C 21.487,70.3203 20.1536,68.987 19.5,67C 20.9692,63.1736 23.1359,62.6736 26,65.5C 26.9772,68.8173 26.1438,71.484 23.5,73.5 Z"/></g>
<g><path style="opacity:1" fill="#5c5f57" d="M 21.5,65.5 C 22.5,65.5 23.5,65.5 24.5,65.5C 24.5,66.5 24.5,67.5 24.5,68.5C 23.5,68.5 22.5,68.5 21.5,68.5C 21.5,67.5 21.5,66.5 21.5,65.5 Z"/></g>
<g><path style="opacity:1" fill="#3a4021" d="M 81.5,61.5 C 82.8236,66.2337 82.8236,71.0671 81.5,76C 74.1742,76.4997 66.8409,76.6663 59.5,76.5C 59.5,71.8333 59.5,67.1667 59.5,62.5C 59.8333,62.5 60.1667,62.5 60.5,62.5C 60.5,66.5 60.5,70.5 60.5,74.5C 63.7131,74.81 66.7131,74.4767 69.5,73.5C 70.5,73.5 71.5,73.5 72.5,73.5C 74.9479,74.4731 77.6146,74.8064 80.5,74.5C 80.5,70.5 80.5,66.5 80.5,62.5C 81.1667,62.5 81.5,62.1667 81.5,61.5 Z"/></g>
<g><path style="opacity:1" fill="#464846" d="M 60.5,62.5 C 67.1667,62.5 73.8333,62.5 80.5,62.5C 80.5,66.5 80.5,70.5 80.5,74.5C 77.6146,74.8064 74.9479,74.4731 72.5,73.5C 74.385,71.2046 74.885,68.538 74,65.5C 69.8215,62.2499 67.6549,63.2499 67.5,68.5C 67.6667,69.8333 67.8333,71.1667 68,72.5C 68.3826,73.056 68.8826,73.3893 69.5,73.5C 66.7131,74.4767 63.7131,74.81 60.5,74.5C 60.5,70.5 60.5,66.5 60.5,62.5 Z"/></g>
<g><path style="opacity:1" fill="#96ad45" d="M 72.5,73.5 C 71.5,73.5 70.5,73.5 69.5,73.5C 68.8826,73.3893 68.3826,73.056 68,72.5C 67.8333,71.1667 67.6667,69.8333 67.5,68.5C 67.6549,63.2499 69.8215,62.2499 74,65.5C 74.885,68.538 74.385,71.2046 72.5,73.5 Z"/></g>
<g><path style="opacity:1" fill="#575a52" d="M 69.5,65.5 C 70.5,65.5 71.5,65.5 72.5,65.5C 72.6621,67.5273 72.4955,69.5273 72,71.5C 71.586,71.9574 71.086,72.2907 70.5,72.5C 69.5258,70.2573 69.1924,67.924 69.5,65.5 Z"/></g>
<g><path style="opacity:1" fill="#444e19" d="M 108.5,61.5 C 115.833,61.5 123.167,61.5 130.5,61.5C 130.5,66.5 130.5,71.5 130.5,76.5C 126.5,76.5 122.5,76.5 118.5,76.5C 121.962,75.5184 125.629,75.185 129.5,75.5C 129.5,71.1667 129.5,66.8333 129.5,62.5C 122.833,62.5 116.167,62.5 109.5,62.5C 108.833,62.5 108.5,62.1667 108.5,61.5 Z"/></g>
<g><path style="opacity:1" fill="#54611a" d="M 17.5,83.5 C 25.0191,83.175 32.3524,83.5084 39.5,84.5C 39.5,84.8333 39.5,85.1667 39.5,85.5C 32.5,85.5 25.5,85.5 18.5,85.5C 18.1667,85.5 17.8333,85.5 17.5,85.5C 17.5,84.8333 17.5,84.1667 17.5,83.5 Z"/></g>
<g><path style="opacity:1" fill="#434927" d="M 39.5,84.5 C 40.4872,89.3054 40.8205,94.3054 40.5,99.5C 38.1667,99.5 35.8333,99.5 33.5,99.5C 28.213,98.6576 22.8797,98.3243 17.5,98.5C 17.5,94.1667 17.5,89.8333 17.5,85.5C 17.8333,85.5 18.1667,85.5 18.5,85.5C 18.5,89.5 18.5,93.5 18.5,97.5C 21.3854,97.8064 24.0521,97.4731 26.5,96.5C 27.8333,96.5 29.1667,96.5 30.5,96.5C 33.2869,97.4767 36.2869,97.81 39.5,97.5C 39.5,93.5 39.5,89.5 39.5,85.5C 39.5,85.1667 39.5,84.8333 39.5,84.5 Z"/></g>
<g><path style="opacity:1" fill="#494b49" d="M 18.5,85.5 C 25.5,85.5 32.5,85.5 39.5,85.5C 39.5,89.5 39.5,93.5 39.5,97.5C 36.2869,97.81 33.2869,97.4767 30.5,96.5C 31.6946,96.1344 32.3613,95.301 32.5,94C 31.8729,91.8649 31.3729,89.6982 31,87.5C 28.5068,86.0545 26.6735,86.7211 25.5,89.5C 25.6194,91.9264 25.9527,94.2598 26.5,96.5C 24.0521,97.4731 21.3854,97.8064 18.5,97.5C 18.5,93.5 18.5,89.5 18.5,85.5 Z"/></g>
<g><path style="opacity:1" fill="#9ab149" d="M 30.5,96.5 C 29.1667,96.5 27.8333,96.5 26.5,96.5C 25.9527,94.2598 25.6194,91.9264 25.5,89.5C 26.6735,86.7211 28.5068,86.0545 31,87.5C 31.3729,89.6982 31.8729,91.8649 32.5,94C 32.3613,95.301 31.6946,96.1344 30.5,96.5 Z"/></g>
<g><path style="opacity:1" fill="#555758" d="M 27.5,92.5 C 29.4646,92.9483 29.7979,93.9483 28.5,95.5C 27.6143,94.675 27.281,93.675 27.5,92.5 Z"/></g>
<g><path style="opacity:1" fill="#595c56" d="M 27.5,88.5 C 29.337,88.6395 29.6704,89.3061 28.5,90.5C 27.7025,90.0431 27.3691,89.3764 27.5,88.5 Z"/></g>
<g><path style="opacity:1" fill="#434a26" d="M 100.5,84.5 C 107.833,84.5 115.167,84.5 122.5,84.5C 122.5,89.5 122.5,94.5 122.5,99.5C 117.5,99.5 112.5,99.5 107.5,99.5C 104.881,99.7683 102.381,99.435 100,98.5C 99.1849,93.6478 99.3516,88.9811 100.5,84.5 Z"/></g>
<g><path style="opacity:1" fill="#4a4c4a" d="M 114.5,92.5 C 113.559,89.8749 112.393,89.8749 111,92.5C 110.805,90.7928 110.805,89.1261 111,87.5C 109.121,89.5268 107.954,91.8602 107.5,94.5C 109.548,94.1596 110.548,94.4929 110.5,95.5C 107.855,97.2419 104.855,97.9086 101.5,97.5C 101.5,93.5 101.5,89.5 101.5,85.5C 108.167,85.5 114.833,85.5 121.5,85.5C 121.5,89.5 121.5,93.5 121.5,97.5C 119.5,97.5 117.5,97.5 115.5,97.5C 115.784,95.5853 115.451,93.9187 114.5,92.5 Z"/></g>
<g><path style="opacity:1" fill="#9eb749" d="M 114.5,92.5 C 113.829,93.8471 113.829,95.0138 114.5,96C 112.934,96.765 111.601,96.5983 110.5,95.5C 110.548,94.4929 109.548,94.1596 107.5,94.5C 107.954,91.8602 109.121,89.5268 111,87.5C 110.805,89.1261 110.805,90.7928 111,92.5C 112.393,89.8749 113.559,89.8749 114.5,92.5 Z"/></g>
<g><path style="opacity:1" fill="#40481f" d="M 55.5,102.5 C 56.4872,107.305 56.8205,112.305 56.5,117.5C 48.8333,117.5 41.1667,117.5 33.5,117.5C 33.5,112.5 33.5,107.5 33.5,102.5C 40.8333,102.5 48.1667,102.5 55.5,102.5 Z"/></g>
<g><path style="opacity:1" fill="#484a46" d="M 45.5,113.5 C 46.7496,110.994 47.4162,108.327 47.5,105.5C 45.396,105.201 43.396,105.534 41.5,106.5C 42.3914,107.59 43.3914,107.59 44.5,106.5C 44.8333,107 45.1667,107.5 45.5,108C 44.6805,109.8 44.0138,111.634 43.5,113.5C 40.8555,115.242 37.8555,115.909 34.5,115.5C 34.5,111.5 34.5,107.5 34.5,103.5C 41.5,103.5 48.5,103.5 55.5,103.5C 55.3542,107.519 55.0209,111.519 54.5,115.5C 50.9878,116.055 47.9878,115.388 45.5,113.5 Z"/></g>
<g><path style="opacity:1" fill="#9eb746" d="M 45.5,113.5 C 44.6043,114.506 43.9377,114.506 43.5,113.5C 44.0138,111.634 44.6805,109.8 45.5,108C 45.1667,107.5 44.8333,107 44.5,106.5C 43.3914,107.59 42.3914,107.59 41.5,106.5C 43.396,105.534 45.396,105.201 47.5,105.5C 47.4162,108.327 46.7496,110.994 45.5,113.5 Z"/></g>
<g><path style="opacity:1" fill="#42491f" d="M 85.5,102.5 C 92.8333,102.5 100.167,102.5 107.5,102.5C 107.5,107.5 107.5,112.5 107.5,117.5C 100.159,117.666 92.8258,117.5 85.5,117C 84.7476,116.329 84.4142,115.496 84.5,114.5C 84.1832,110.298 84.5166,106.298 85.5,102.5 Z"/></g>
<g><path style="opacity:1" fill="#4b4d49" d="M 97.5,115.5 C 100.6,112.131 99.9331,110.131 95.5,109.5C 95.5,108.5 95.5,107.5 95.5,106.5C 96.9778,106.762 98.3112,106.429 99.5,105.5C 99.1667,105.167 98.8333,104.833 98.5,104.5C 96.9291,105.309 95.2624,105.643 93.5,105.5C 93.5,107.167 93.5,108.833 93.5,110.5C 94.5,110.5 95.5,110.5 96.5,110.5C 96.7148,112.179 96.0481,113.179 94.5,113.5C 94.44,112.957 94.1067,112.624 93.5,112.5C 92.6143,113.325 92.281,114.325 92.5,115.5C 90.1667,115.5 87.8333,115.5 85.5,115.5C 85.5,111.5 85.5,107.5 85.5,103.5C 92.5,103.5 99.5,103.5 106.5,103.5C 106.5,107.5 106.5,111.5 106.5,115.5C 103.5,115.5 100.5,115.5 97.5,115.5 Z"/></g>
<g><path style="opacity:1" fill="#97ad4a" d="M 97.5,115.5 C 96.0222,115.762 94.6888,115.429 93.5,114.5C 93.6236,113.893 93.9569,113.56 94.5,113.5C 96.0481,113.179 96.7148,112.179 96.5,110.5C 95.5,110.5 94.5,110.5 93.5,110.5C 93.5,108.833 93.5,107.167 93.5,105.5C 95.2624,105.643 96.9291,105.309 98.5,104.5C 98.8333,104.833 99.1667,105.167 99.5,105.5C 98.3112,106.429 96.9778,106.762 95.5,106.5C 95.5,107.5 95.5,108.5 95.5,109.5C 99.9331,110.131 100.6,112.131 97.5,115.5 Z"/></g>
<g><path style="opacity:1" fill="#40481d" d="M 81.5,108.5 C 81.5,113.5 81.5,118.5 81.5,123.5C 73.747,123.799 66.0804,123.466 58.5,122.5C 58.5,117.833 58.5,113.167 58.5,108.5C 66.1667,108.5 73.8333,108.5 81.5,108.5 Z"/></g>
<g><path style="opacity:1" fill="#464844" d="M 69.5,121.5 C 73.0681,121.241 74.4015,119.241 73.5,115.5C 68.678,115.439 68.3447,114.273 72.5,112C 66.3308,112.917 64.9975,116.084 68.5,121.5C 66.0521,122.473 63.3854,122.806 60.5,122.5C 60.5,118.167 60.5,113.833 60.5,109.5C 67.1667,109.5 73.8333,109.5 80.5,109.5C 80.5,113.833 80.5,118.167 80.5,122.5C 76.6286,122.815 72.9619,122.482 69.5,121.5 Z"/></g>
<g><path style="opacity:1" fill="#9bb249" d="M 69.5,121.5 C 69.1667,121.5 68.8333,121.5 68.5,121.5C 64.9975,116.084 66.3308,112.917 72.5,112C 68.3447,114.273 68.678,115.439 73.5,115.5C 74.4015,119.241 73.0681,121.241 69.5,121.5 Z"/></g>
<g><path style="opacity:1" fill="#5f6355" d="M 69.5,116.5 C 70.5862,116.62 71.2528,117.287 71.5,118.5C 70.6964,120.957 69.6964,120.957 68.5,118.5C 68.8627,117.817 69.1961,117.15 69.5,116.5 Z"/></g>
</svg>
