<?xml version="1.0" encoding="UTF-8"?>
<!DOCTYPE svg PUBLIC "-//W3C//DTD SVG 1.1//EN" "http://www.w3.org/Graphics/SVG/1.1/DTD/svg11.dtd">
<svg xmlns="http://www.w3.org/2000/svg" version="1.1" width="96px" height="96px" style="shape-rendering:geometricPrecision; text-rendering:geometricPrecision; image-rendering:optimizeQuality; fill-rule:evenodd; clip-rule:evenodd" xmlns:xlink="http://www.w3.org/1999/xlink">
<g><path style="opacity:0.996" fill="#1b1b1c" d="M 43.5,0.5 C 43.5,0.166667 43.5,-0.166667 43.5,-0.5C 45.8333,-0.5 48.1667,-0.5 50.5,-0.5C 49.756,2.8845 48.4226,3.21783 46.5,0.5C 45.5,0.5 44.5,0.5 43.5,0.5 Z"/></g>
<g><path style="opacity:1" fill="#524e4b" d="M 70.5,0.5 C 70.5,0.166667 70.5,-0.166667 70.5,-0.5C 71.1667,-0.5 71.8333,-0.5 72.5,-0.5C 73.209,0.403972 74.209,0.737305 75.5,0.5C 75.7678,2.09903 75.4345,3.43236 74.5,4.5C 74.7148,2.82124 74.0481,1.82124 72.5,1.5C 72.1667,1.5 71.8333,1.5 71.5,1.5C 71.5,0.833333 71.1667,0.5 70.5,0.5 Z"/></g>
<g><path style="opacity:1" fill="#959394" d="M 43.5,0.5 C 44.5,0.5 45.5,0.5 46.5,0.5C 47.0911,10.3099 47.7577,19.9765 48.5,29.5C 47.779,31.3818 46.779,31.7152 45.5,30.5C 46.1524,29.5514 46.4857,28.3847 46.5,27C 45.8233,20.8497 45.3233,14.6831 45,8.5C 44.34,6.67634 43.1733,5.34301 41.5,4.5C 41.8333,3.83333 42.1667,3.16667 42.5,2.5C 42.5,2.16667 42.5,1.83333 42.5,1.5C 42.5,0.833333 42.8333,0.5 43.5,0.5 Z"/></g>
<g><path style="opacity:1" fill="#636a70" d="M 42.5,1.5 C 42.5,1.83333 42.5,2.16667 42.5,2.5C 41.1667,2.5 39.8333,2.5 38.5,2.5C 38.5,4.5 38.5,6.5 38.5,8.5C 37.7784,8.08247 37.2784,7.4158 37,6.5C 36.6174,7.05596 36.1174,7.38929 35.5,7.5C 34.713,5.89578 33.3797,5.22911 31.5,5.5C 29.8235,6.18342 29.1568,7.51676 29.5,9.5C 28.5178,8.85917 27.5178,8.19251 26.5,7.5C 25.5197,8.98138 24.353,10.3147 23,11.5C 21.9152,10.2644 21.0819,8.93111 20.5,7.5C 22.631,6.68618 24.9644,6.18618 27.5,6C 26.1175,4.53908 26.4508,3.70575 28.5,3.5C 29.5307,2.64497 30.6974,1.9783 32,1.5C 35.5031,1.38681 39.0031,1.38681 42.5,1.5 Z"/></g>
<g><path style="opacity:1" fill="#c6b4aa" d="M 68.5,-0.5 C 69.1667,-0.5 69.8333,-0.5 70.5,-0.5C 70.5,-0.166667 70.5,0.166667 70.5,0.5C 69.856,9.32585 69.856,18.3258 70.5,27.5C 69.5,27.5 68.5,27.5 67.5,27.5C 67.5,27.1667 67.5,26.8333 67.5,26.5C 67.7089,17.5997 68.0422,8.59967 68.5,-0.5 Z"/></g>
<g><path style="opacity:1" fill="#e1d6c6" d="M 70.5,0.5 C 71.1667,0.5 71.5,0.833333 71.5,1.5C 71.8264,10.3494 71.493,19.0161 70.5,27.5C 69.856,18.3258 69.856,9.32585 70.5,0.5 Z"/></g>
<g><path style="opacity:1" fill="#383b3d" d="M 28.5,3.5 C 26.4508,3.70575 26.1175,4.53908 27.5,6C 24.9644,6.18618 22.631,6.68618 20.5,7.5C 20.1667,7.5 19.8333,7.5 19.5,7.5C 18.3865,8.6935 17.3865,10.0268 16.5,11.5C 17.0505,13.6568 17.7171,15.6568 18.5,17.5C 18.5,20.8333 18.5,24.1667 18.5,27.5C 16.8432,20.9949 15.6765,14.3282 15,7.5C 18.9167,5.68447 22.9167,4.0178 27,2.5C 27.7648,2.56993 28.2648,2.90326 28.5,3.5 Z"/></g>
<g><path style="opacity:1" fill="#e2dcce" d="M 72.5,1.5 C 74.0481,1.82124 74.7148,2.82124 74.5,4.5C 74.5,8.83333 74.5,13.1667 74.5,17.5C 75.069,21.3293 74.4023,24.6627 72.5,27.5C 72.5,18.8333 72.5,10.1667 72.5,1.5 Z"/></g>
<g><path style="opacity:1" fill="#61717d" d="M 19.5,7.5 C 19.8333,7.5 20.1667,7.5 20.5,7.5C 21.0819,8.93111 21.9152,10.2644 23,11.5C 24.353,10.3147 25.5197,8.98138 26.5,7.5C 27.5178,8.19251 28.5178,8.85917 29.5,9.5C 29.8897,12.4658 29.223,15.1324 27.5,17.5C 27.7093,18.086 28.0426,18.586 28.5,19C 27.0993,19.4101 25.766,19.9101 24.5,20.5C 21.074,20.6503 20.7406,19.4837 23.5,17C 20.5525,15.9905 19.8858,14.1571 21.5,11.5C 20.1468,10.4763 19.4802,9.14297 19.5,7.5 Z"/></g>
<g><path style="opacity:1" fill="#667980" d="M 31.5,5.5 C 33.3797,5.22911 34.713,5.89578 35.5,7.5C 36.0545,11.0122 35.3878,14.0122 33.5,16.5C 32.6016,15.8423 31.6016,15.1757 30.5,14.5C 31.0253,13.8076 31.6919,13.3076 32.5,13C 32.5414,10.5376 32.208,8.03764 31.5,5.5 Z"/></g>
<g><path style="opacity:1" fill="#939293" d="M 42.5,2.5 C 42.1667,3.16667 41.8333,3.83333 41.5,4.5C 40.8333,11.1667 40.1667,17.8333 39.5,24.5C 39.8064,21.6146 39.4731,18.9479 38.5,16.5C 38.5,13.8333 38.5,11.1667 38.5,8.5C 38.5,6.5 38.5,4.5 38.5,2.5C 39.8333,2.5 41.1667,2.5 42.5,2.5 Z"/></g>
<g><path style="opacity:1" fill="#a79e97" d="M 62.5,-0.5 C 64.5,-0.5 66.5,-0.5 68.5,-0.5C 68.0422,8.59967 67.7089,17.5997 67.5,26.5C 66.9543,17.8365 66.2876,9.16985 65.5,0.5C 64.4328,9.82791 64.4328,19.1612 65.5,28.5C 64.5,28.5 63.5,28.5 62.5,28.5C 61.4927,18.7679 61.4927,9.10124 62.5,-0.5 Z"/></g>
<g><path style="opacity:1" fill="#bcaaa8" d="M 53.5,2.5 C 53.2088,8.92302 53.5422,15.2564 54.5,21.5C 53.8333,22.8333 53.1667,24.1667 52.5,25.5C 52.6793,18.629 52.346,11.629 51.5,4.5C 51.8333,3.16667 52.1667,1.83333 52.5,0.5C 53.2975,0.956892 53.6309,1.62356 53.5,2.5 Z"/></g>
<g><path style="opacity:1" fill="#d6c4b7" d="M 67.5,26.5 C 67.5,26.8333 67.5,27.1667 67.5,27.5C 67.6332,30.925 66.9665,31.2583 65.5,28.5C 64.4328,19.1612 64.4328,9.82791 65.5,0.5C 66.2876,9.16985 66.9543,17.8365 67.5,26.5 Z"/></g>
<g><path style="opacity:1" fill="#546870" d="M 38.5,8.5 C 38.5,11.1667 38.5,13.8333 38.5,16.5C 38.6567,17.8734 38.49,19.2068 38,20.5C 35.6877,20.9551 33.6877,21.9551 32,23.5C 31.7489,21.567 31.2489,19.7337 30.5,18C 31.5266,17.4867 32.5266,16.9867 33.5,16.5C 35.3878,14.0122 36.0545,11.0122 35.5,7.5C 36.1174,7.38929 36.6174,7.05596 37,6.5C 37.2784,7.4158 37.7784,8.08247 38.5,8.5 Z"/></g>
<g><path style="opacity:1" fill="#6f777d" d="M 50.5,-0.5 C 52.5,-0.5 54.5,-0.5 56.5,-0.5C 56.2582,5.0167 56.2582,10.35 56.5,15.5C 55.7321,16.2625 55.2321,17.2625 55,18.5C 54.8267,12.9842 54.3267,7.65086 53.5,2.5C 53.6309,1.62356 53.2975,0.956892 52.5,0.5C 52.1667,1.83333 51.8333,3.16667 51.5,4.5C 52.346,11.629 52.6793,18.629 52.5,25.5C 52.7373,26.791 52.404,27.791 51.5,28.5C 50.609,29.1098 49.609,29.4431 48.5,29.5C 47.7577,19.9765 47.0911,10.3099 46.5,0.5C 48.4226,3.21783 49.756,2.8845 50.5,-0.5 Z"/></g>
<g><path style="opacity:1" fill="#908e91" d="M 56.5,-0.5 C 56.8333,-0.5 57.1667,-0.5 57.5,-0.5C 58.4396,7.77885 58.7729,16.1122 58.5,24.5C 57.8333,24.1667 57.1667,23.8333 56.5,23.5C 56.7195,20.8375 56.7195,18.1708 56.5,15.5C 56.2582,10.35 56.2582,5.0167 56.5,-0.5 Z"/></g>
<g><path style="opacity:1" fill="#4a5a62" d="M 19.5,7.5 C 19.4802,9.14297 20.1468,10.4763 21.5,11.5C 19.8858,14.1571 20.5525,15.9905 23.5,17C 20.7406,19.4837 21.074,20.6503 24.5,20.5C 23.3398,21.265 22.3398,22.265 21.5,23.5C 22.4565,25.0754 23.1231,26.742 23.5,28.5C 23.631,29.2389 23.4643,29.9056 23,30.5C 22.0147,28.8251 21.1814,27.1585 20.5,25.5C 19.8333,22.8333 19.1667,20.1667 18.5,17.5C 17.7171,15.6568 17.0505,13.6568 16.5,11.5C 17.3865,10.0268 18.3865,8.6935 19.5,7.5 Z"/></g>
<g><path style="opacity:1" fill="#767b83" d="M 53.5,2.5 C 54.3267,7.65086 54.8267,12.9842 55,18.5C 55.2321,17.2625 55.7321,16.2625 56.5,15.5C 56.7195,18.1708 56.7195,20.8375 56.5,23.5C 56.7852,25.288 56.4519,26.9547 55.5,28.5C 54.5258,26.2573 54.1924,23.924 54.5,21.5C 53.5422,15.2564 53.2088,8.92302 53.5,2.5 Z"/></g>
<g><path style="opacity:1" fill="#5d6b72" d="M 41.5,8.5 C 42.3411,15.8747 43.6745,23.208 45.5,30.5C 44.1667,30.5 42.8333,30.5 41.5,30.5C 41.5,23.1667 41.5,15.8333 41.5,8.5 Z"/></g>
<g><path style="opacity:1" fill="#b8a79f" d="M 57.5,-0.5 C 58.5,-0.5 59.5,-0.5 60.5,-0.5C 60.5,9.16667 60.5,18.8333 60.5,28.5C 59.8333,27.1667 59.1667,25.8333 58.5,24.5C 58.7729,16.1122 58.4396,7.77885 57.5,-0.5 Z"/></g>
<g><path style="opacity:1" fill="#6d7882" d="M 41.5,4.5 C 43.1733,5.34301 44.34,6.67634 45,8.5C 45.3233,14.6831 45.8233,20.8497 46.5,27C 46.4857,28.3847 46.1524,29.5514 45.5,30.5C 43.6745,23.208 42.3411,15.8747 41.5,8.5C 41.5,7.16667 41.5,5.83333 41.5,4.5 Z"/></g>
<g><path style="opacity:1" fill="#596a72" d="M 31.5,5.5 C 32.208,8.03764 32.5414,10.5376 32.5,13C 31.6919,13.3076 31.0253,13.8076 30.5,14.5C 31.6016,15.1757 32.6016,15.8423 33.5,16.5C 32.5266,16.9867 31.5266,17.4867 30.5,18C 31.2489,19.7337 31.7489,21.567 32,23.5C 33.6877,21.9551 35.6877,20.9551 38,20.5C 38.49,19.2068 38.6567,17.8734 38.5,16.5C 39.4731,18.9479 39.8064,21.6146 39.5,24.5C 39.3184,26.5914 39.6518,28.5914 40.5,30.5C 38.4844,31.6942 36.4844,31.6942 34.5,30.5C 34.0383,28.2433 33.0383,26.2433 31.5,24.5C 30.1451,25.1882 29.1451,26.1882 28.5,27.5C 26.6994,26.2423 25.1994,24.5756 24,22.5C 23.6068,24.1992 24.1068,25.6992 25.5,27C 25.1639,28.0299 24.4972,28.5299 23.5,28.5C 23.1231,26.742 22.4565,25.0754 21.5,23.5C 22.3398,22.265 23.3398,21.265 24.5,20.5C 25.766,19.9101 27.0993,19.4101 28.5,19C 28.0426,18.586 27.7093,18.086 27.5,17.5C 29.223,15.1324 29.8897,12.4658 29.5,9.5C 29.1568,7.51676 29.8235,6.18342 31.5,5.5 Z"/></g>
<g><path style="opacity:1" fill="#747472" d="M 60.5,-0.5 C 61.1667,-0.5 61.8333,-0.5 62.5,-0.5C 61.4927,9.10124 61.4927,18.7679 62.5,28.5C 63.5,28.5 64.5,28.5 65.5,28.5C 65.313,30.5643 64.813,32.5643 64,34.5C 63.4005,32.0904 62.2338,30.0904 60.5,28.5C 60.5,18.8333 60.5,9.16667 60.5,-0.5 Z"/></g>
<g><path style="opacity:1" fill="#54656c" d="M 34.5,30.5 C 34.6716,31.4916 34.3382,32.1583 33.5,32.5C 32.7321,33.2625 32.2321,34.2625 32,35.5C 31.2904,34.0267 30.1238,33.3601 28.5,33.5C 28.4465,31.5401 28.4465,29.5401 28.5,27.5C 29.1451,26.1882 30.1451,25.1882 31.5,24.5C 33.0383,26.2433 34.0383,28.2433 34.5,30.5 Z"/></g>
<g><path style="opacity:1" fill="#898683" d="M 54.5,21.5 C 54.1924,23.924 54.5258,26.2573 55.5,28.5C 56.4519,26.9547 56.7852,25.288 56.5,23.5C 57.1667,23.8333 57.8333,24.1667 58.5,24.5C 58.1778,26.4752 58.1778,28.1418 58.5,29.5C 57.2935,30.8804 57.6269,32.0471 59.5,33C 58.2532,34.4579 58.2532,35.9579 59.5,37.5C 57.1526,38.1508 55.4859,39.4841 54.5,41.5C 53.5041,41.5858 52.6708,41.2524 52,40.5C 51.1785,37.8832 50.6785,35.2165 50.5,32.5C 50.8333,31.1667 51.1667,29.8333 51.5,28.5C 52.404,27.791 52.7373,26.791 52.5,25.5C 53.1667,24.1667 53.8333,22.8333 54.5,21.5 Z"/></g>
<g><path style="opacity:1" fill="#78736a" d="M 74.5,17.5 C 75.3195,20.3054 75.8195,23.3054 76,26.5C 78.1303,27.1408 79.6303,28.4741 80.5,30.5C 79.3121,33.623 77.9787,36.623 76.5,39.5C 75.9033,39.2648 75.5699,38.7648 75.5,38C 77.8432,34.9978 78.0098,31.8312 76,28.5C 73.8223,31.4685 72.6556,31.1351 72.5,27.5C 74.4023,24.6627 75.069,21.3293 74.5,17.5 Z"/></g>
<g><path style="opacity:1" fill="#cdc1ad" d="M 71.5,1.5 C 71.8333,1.5 72.1667,1.5 72.5,1.5C 72.5,10.1667 72.5,18.8333 72.5,27.5C 72.6556,31.1351 73.8223,31.4685 76,28.5C 78.0098,31.8312 77.8432,34.9978 75.5,38C 75.5699,38.7648 75.9033,39.2648 76.5,39.5C 76.5,39.8333 76.5,40.1667 76.5,40.5C 76.5,42.5 76.5,44.5 76.5,46.5C 74.6533,43.3091 71.9866,41.3091 68.5,40.5C 70.2173,36.1701 70.884,31.8368 70.5,27.5C 71.493,19.0161 71.8264,10.3494 71.5,1.5 Z"/></g>
<g><path style="opacity:1" fill="#455054" d="M 18.5,17.5 C 19.1667,20.1667 19.8333,22.8333 20.5,25.5C 20.3359,28.1873 20.5026,30.854 21,33.5C 22.813,32.3909 23.6463,33.0576 23.5,35.5C 22.1779,35.33 21.0113,35.6634 20,36.5C 19.5034,38.8098 19.3367,41.1432 19.5,43.5C 19.1667,43.5 18.8333,43.5 18.5,43.5C 18.5,38.1667 18.5,32.8333 18.5,27.5C 18.5,24.1667 18.5,20.8333 18.5,17.5 Z"/></g>
<g><path style="opacity:1" fill="#5b6d75" d="M 28.5,27.5 C 28.4465,29.5401 28.4465,31.5401 28.5,33.5C 27.5,34.1667 26.5,34.8333 25.5,35.5C 24.8333,35.5 24.1667,35.5 23.5,35.5C 23.6463,33.0576 22.813,32.3909 21,33.5C 20.5026,30.854 20.3359,28.1873 20.5,25.5C 21.1814,27.1585 22.0147,28.8251 23,30.5C 23.4643,29.9056 23.631,29.2389 23.5,28.5C 24.4972,28.5299 25.1639,28.0299 25.5,27C 24.1068,25.6992 23.6068,24.1992 24,22.5C 25.1994,24.5756 26.6994,26.2423 28.5,27.5 Z"/></g>
<g><path style="opacity:1" fill="#777f87" d="M 41.5,4.5 C 41.5,5.83333 41.5,7.16667 41.5,8.5C 41.5,15.8333 41.5,23.1667 41.5,30.5C 42.8333,30.5 44.1667,30.5 45.5,30.5C 46.779,31.7152 47.779,31.3818 48.5,29.5C 49.609,29.4431 50.609,29.1098 51.5,28.5C 51.1667,29.8333 50.8333,31.1667 50.5,32.5C 48.847,32.6596 47.5137,33.3263 46.5,34.5C 44.5168,34.1568 43.1834,34.8235 42.5,36.5C 41.8333,36.8333 41.1667,37.1667 40.5,37.5C 40.6309,36.6236 40.2975,35.9569 39.5,35.5C 37.9291,36.3094 36.2624,36.6427 34.5,36.5C 34.8807,35.0689 35.8807,34.2355 37.5,34C 35.9419,33.79 34.6085,33.29 33.5,32.5C 34.3382,32.1583 34.6716,31.4916 34.5,30.5C 36.4844,31.6942 38.4844,31.6942 40.5,30.5C 39.6518,28.5914 39.3184,26.5914 39.5,24.5C 40.1667,17.8333 40.8333,11.1667 41.5,4.5 Z"/></g>
<g><path style="opacity:1" fill="#a89a90" d="M 58.5,24.5 C 59.1667,25.8333 59.8333,27.1667 60.5,28.5C 62.2338,30.0904 63.4005,32.0904 64,34.5C 64.813,32.5643 65.313,30.5643 65.5,28.5C 66.9665,31.2583 67.6332,30.925 67.5,27.5C 68.5,27.5 69.5,27.5 70.5,27.5C 70.884,31.8368 70.2173,36.1701 68.5,40.5C 66.4458,40.6347 64.7791,39.968 63.5,38.5C 61.3484,37.9232 61.015,36.7565 62.5,35C 61.2527,32.9844 59.9194,31.1511 58.5,29.5C 58.1778,28.1418 58.1778,26.4752 58.5,24.5 Z"/></g>
<g><path style="opacity:1" fill="#757d87" d="M 33.5,32.5 C 34.6085,33.29 35.9419,33.79 37.5,34C 35.8807,34.2355 34.8807,35.0689 34.5,36.5C 34.7709,38.3797 34.1042,39.713 32.5,40.5C 28.8644,41.9897 25.1977,43.323 21.5,44.5C 21.1667,44.5 20.8333,44.5 20.5,44.5C 23.0951,40.8238 26.4285,37.9904 30.5,36C 28.8659,35.5065 27.1992,35.3398 25.5,35.5C 26.5,34.8333 27.5,34.1667 28.5,33.5C 30.1238,33.3601 31.2904,34.0267 32,35.5C 32.2321,34.2625 32.7321,33.2625 33.5,32.5 Z"/></g>
<g><path style="opacity:1" fill="#69737a" d="M 23.5,35.5 C 24.1667,35.5 24.8333,35.5 25.5,35.5C 27.1992,35.3398 28.8659,35.5065 30.5,36C 26.4285,37.9904 23.0951,40.8238 20.5,44.5C 19.794,45.5573 19.4607,45.2239 19.5,43.5C 19.3367,41.1432 19.5034,38.8098 20,36.5C 21.0113,35.6634 22.1779,35.33 23.5,35.5 Z"/></g>
<g><path style="opacity:1" fill="#707370" d="M 40.5,37.5 C 40.2976,38.3636 39.9643,39.3636 39.5,40.5C 38.5,39.8333 37.5,39.1667 36.5,38.5C 36.1667,39.1667 35.8333,39.8333 35.5,40.5C 36.2798,41.9495 36.9465,43.4495 37.5,45C 37.472,46.0698 37.1386,46.9032 36.5,47.5C 35.8333,46.8333 35.1667,46.1667 34.5,45.5C 33.8333,43.8333 33.1667,42.1667 32.5,40.5C 34.1042,39.713 34.7709,38.3797 34.5,36.5C 36.2624,36.6427 37.9291,36.3094 39.5,35.5C 40.2975,35.9569 40.6309,36.6236 40.5,37.5 Z"/></g>
<g><path style="opacity:1" fill="#80776f" d="M 46.5,34.5 C 48.0627,35.9448 49.396,37.6115 50.5,39.5C 48.6412,39.4609 47.3079,40.2942 46.5,42C 48.1241,44.0185 49.4574,43.8519 50.5,41.5C 51.404,42.209 51.7373,43.209 51.5,44.5C 50.209,44.2627 49.209,44.596 48.5,45.5C 46.8333,44.1667 45.1667,42.8333 43.5,41.5C 43.5394,40.4168 43.8728,39.4168 44.5,38.5C 43.7573,37.8182 43.0906,37.1515 42.5,36.5C 43.1834,34.8235 44.5168,34.1568 46.5,34.5 Z"/></g>
<g><path style="opacity:1" fill="#bdac98" d="M 50.5,39.5 C 50.5,40.1667 50.5,40.8333 50.5,41.5C 49.4574,43.8519 48.1241,44.0185 46.5,42C 47.3079,40.2942 48.6412,39.4609 50.5,39.5 Z"/></g>
<g><path style="opacity:1" fill="#958b81" d="M 42.5,36.5 C 43.0906,37.1515 43.7573,37.8182 44.5,38.5C 43.8728,39.4168 43.5394,40.4168 43.5,41.5C 42.4415,42.6002 41.6082,43.9336 41,45.5C 39.0924,42.6677 38.259,43.001 38.5,46.5C 39.8221,46.33 40.9887,46.6634 42,47.5C 42.3153,49.5856 42.8153,51.5856 43.5,53.5C 42.9108,56.7848 41.7441,57.1181 40,54.5C 40.1078,51.363 38.9411,49.0296 36.5,47.5C 37.1386,46.9032 37.472,46.0698 37.5,45C 36.9465,43.4495 36.2798,41.9495 35.5,40.5C 35.8333,39.8333 36.1667,39.1667 36.5,38.5C 37.5,39.1667 38.5,39.8333 39.5,40.5C 39.9643,39.3636 40.2976,38.3636 40.5,37.5C 41.1667,37.1667 41.8333,36.8333 42.5,36.5 Z"/></g>
<g><path style="opacity:1" fill="#71706d" d="M 58.5,29.5 C 59.9194,31.1511 61.2527,32.9844 62.5,35C 61.015,36.7565 61.3484,37.9232 63.5,38.5C 65.3558,40.65 66.0225,42.9833 65.5,45.5C 63.6159,45.2882 62.2826,44.2882 61.5,42.5C 60.8165,42.8627 60.1499,43.1961 59.5,43.5C 58.0697,42.4625 56.403,41.7959 54.5,41.5C 55.4859,39.4841 57.1526,38.1508 59.5,37.5C 58.2532,35.9579 58.2532,34.4579 59.5,33C 57.6269,32.0471 57.2935,30.8804 58.5,29.5 Z"/></g>
<g><path style="opacity:1" fill="#cabaa7" d="M 43.5,41.5 C 45.1667,42.8333 46.8333,44.1667 48.5,45.5C 47.88,47.9767 46.88,47.9767 45.5,45.5C 44.6143,46.325 44.281,47.325 44.5,48.5C 44.7845,50.4147 44.4511,52.0813 43.5,53.5C 42.8153,51.5856 42.3153,49.5856 42,47.5C 40.9887,46.6634 39.8221,46.33 38.5,46.5C 38.259,43.001 39.0924,42.6677 41,45.5C 41.6082,43.9336 42.4415,42.6002 43.5,41.5 Z"/></g>
<g><path style="opacity:1" fill="#ac9985" d="M 63.5,38.5 C 64.7791,39.968 66.4458,40.6347 68.5,40.5C 71.9866,41.3091 74.6533,43.3091 76.5,46.5C 75.1242,49.658 74.4576,52.9913 74.5,56.5C 73.9016,53.2746 72.5683,50.2746 70.5,47.5C 69.6971,50.0216 68.3638,52.0216 66.5,53.5C 63.6618,51.6941 63.9952,50.6941 67.5,50.5C 67.9227,48.2188 67.256,46.5521 65.5,45.5C 66.0225,42.9833 65.3558,40.65 63.5,38.5 Z"/></g>
<g><path style="opacity:1" fill="#7f7d78" d="M 32.5,40.5 C 33.1667,42.1667 33.8333,43.8333 34.5,45.5C 33.5655,46.5676 33.2322,47.901 33.5,49.5C 34.5,49.5 35.5,49.5 36.5,49.5C 37.3725,53.1211 38.0392,56.7878 38.5,60.5C 37.5,60.5 36.5,60.5 35.5,60.5C 34.6108,57.2296 33.2775,54.2296 31.5,51.5C 28.9985,46.3562 27.9985,46.3562 28.5,51.5C 28.2172,52.2891 27.7172,52.9558 27,53.5C 25.2495,52.7775 23.7495,51.7775 22.5,50.5C 21.7575,48.3035 21.4241,46.3035 21.5,44.5C 25.1977,43.323 28.8644,41.9897 32.5,40.5 Z"/></g>
<g><path style="opacity:1" fill="#5d5d58" d="M 65.5,45.5 C 67.256,46.5521 67.9227,48.2188 67.5,50.5C 63.9952,50.6941 63.6618,51.6941 66.5,53.5C 66.1667,53.5 65.8333,53.5 65.5,53.5C 64.8333,53.5 64.1667,53.5 63.5,53.5C 60.4043,50.8539 57.4043,48.0205 54.5,45C 56.2475,44.6481 57.9142,44.1481 59.5,43.5C 60.1499,43.1961 60.8165,42.8627 61.5,42.5C 62.2826,44.2882 63.6159,45.2882 65.5,45.5 Z"/></g>
<g><path style="opacity:1" fill="#6a6d6e" d="M 18.5,43.5 C 18.8333,43.5 19.1667,43.5 19.5,43.5C 19.4607,45.2239 19.794,45.5573 20.5,44.5C 20.8333,44.5 21.1667,44.5 21.5,44.5C 21.4241,46.3035 21.7575,48.3035 22.5,50.5C 22.5,50.8333 22.5,51.1667 22.5,51.5C 20.4332,53.5467 18.5998,53.5467 17,51.5C 16,52.8333 15,54.1667 14,55.5C 13.6924,54.6919 13.1924,54.0253 12.5,53.5C 11.3777,54.6302 10.0443,55.2969 8.5,55.5C 8.16667,55.5 7.83333,55.5 7.5,55.5C 7.62867,53.7839 7.962,52.1172 8.5,50.5C 12.1138,48.5249 15.4472,46.1916 18.5,43.5 Z"/></g>
<g><path style="opacity:1" fill="#797371" d="M 50.5,32.5 C 50.6785,35.2165 51.1785,37.8832 52,40.5C 52.6708,41.2524 53.5041,41.5858 54.5,41.5C 56.403,41.7959 58.0697,42.4625 59.5,43.5C 57.9142,44.1481 56.2475,44.6481 54.5,45C 57.4043,48.0205 60.4043,50.8539 63.5,53.5C 64.1032,56.0409 64.1032,58.3743 63.5,60.5C 62.7784,60.0825 62.2784,59.4158 62,58.5C 61.0138,59.1712 59.8471,59.1712 58.5,58.5C 57.7171,56.6568 57.0505,54.6568 56.5,52.5C 53.8002,49.9246 52.4668,50.258 52.5,53.5C 51.2921,52.7659 49.9587,52.4326 48.5,52.5C 49.4171,49.9952 49.4171,47.6618 48.5,45.5C 49.209,44.596 50.209,44.2627 51.5,44.5C 51.7373,43.209 51.404,42.209 50.5,41.5C 50.5,40.8333 50.5,40.1667 50.5,39.5C 49.396,37.6115 48.0627,35.9448 46.5,34.5C 47.5137,33.3263 48.847,32.6596 50.5,32.5 Z"/></g>
<g><path style="opacity:1" fill="#928884" d="M 76.5,40.5 C 77.4345,41.5676 77.7678,42.901 77.5,44.5C 77.9736,49.9791 78.3069,55.3124 78.5,60.5C 77.448,60.3505 76.448,60.5172 75.5,61C 77.3453,62.128 79.3453,62.628 81.5,62.5C 81.5,63.5 81.5,64.5 81.5,65.5C 79.5853,65.7845 77.9187,65.4511 76.5,64.5C 76.5,63.1667 75.8333,62.5 74.5,62.5C 74.5,60.5 74.5,58.5 74.5,56.5C 74.4576,52.9913 75.1242,49.658 76.5,46.5C 76.5,44.5 76.5,42.5 76.5,40.5 Z"/></g>
<g><path style="opacity:0.184" fill="#151615" d="M -0.5,53.5 C 0.833333,54.1667 0.833333,54.1667 -0.5,53.5 Z"/></g>
<g><path style="opacity:1" fill="#656664" d="M 22.5,51.5 C 21.0956,53.2546 20.0956,55.2546 19.5,57.5C 19.3328,60.9571 18.3328,61.2904 16.5,58.5C 17.9989,57.0962 17.6656,56.4296 15.5,56.5C 13.4035,56.9766 11.4035,57.6433 9.5,58.5C 8.89022,57.609 8.55688,56.609 8.5,55.5C 10.0443,55.2969 11.3777,54.6302 12.5,53.5C 13.1924,54.0253 13.6924,54.6919 14,55.5C 15,54.1667 16,52.8333 17,51.5C 18.5998,53.5467 20.4332,53.5467 22.5,51.5 Z"/></g>
<g><path style="opacity:1" fill="#7c7771" d="M 22.5,50.5 C 23.7495,51.7775 25.2495,52.7775 27,53.5C 27.7172,52.9558 28.2172,52.2891 28.5,51.5C 29.6491,51.7911 30.3158,52.6244 30.5,54C 30.1667,54.8333 29.8333,55.6667 29.5,56.5C 24.1489,53.3374 23.1489,54.3374 26.5,59.5C 25.448,59.6495 24.448,59.4828 23.5,59C 24.7112,58.1072 24.7112,57.2739 23.5,56.5C 23.1667,57.6667 22.8333,58.8333 22.5,60C 23.1025,63.3519 24.1025,66.5185 25.5,69.5C 23.4559,68.9688 21.7893,67.8022 20.5,66C 21.8009,64.3845 21.8009,62.8845 20.5,61.5C 20.7678,59.901 20.4345,58.5676 19.5,57.5C 20.0956,55.2546 21.0956,53.2546 22.5,51.5C 22.5,51.1667 22.5,50.8333 22.5,50.5 Z"/></g>
<g><path style="opacity:1" fill="#696868" d="M 58.5,58.5 C 59.5556,60.8987 59.5556,63.3987 58.5,66C 56.4815,65.8475 54.4815,65.3475 52.5,64.5C 52.2619,60.9007 53.2619,60.5673 55.5,63.5C 55.8333,63 56.1667,62.5 56.5,62C 55.7682,58.8024 54.4349,55.9691 52.5,53.5C 52.4668,50.258 53.8002,49.9246 56.5,52.5C 57.0505,54.6568 57.7171,56.6568 58.5,58.5 Z"/></g>
<g><path style="opacity:1" fill="#c8b8a5" d="M 34.5,45.5 C 35.1667,46.1667 35.8333,46.8333 36.5,47.5C 38.9411,49.0296 40.1078,51.363 40,54.5C 41.7441,57.1181 42.9108,56.7848 43.5,53.5C 44.4511,52.0813 44.7845,50.4147 44.5,48.5C 45.6291,50.6282 45.7958,52.9615 45,55.5C 43.8904,57.0368 42.3904,57.7035 40.5,57.5C 40.5,59.1667 40.5,60.8333 40.5,62.5C 40.1667,62.5 39.8333,62.5 39.5,62.5C 38.6618,62.1583 38.3284,61.4916 38.5,60.5C 38.0392,56.7878 37.3725,53.1211 36.5,49.5C 35.5,49.5 34.5,49.5 33.5,49.5C 33.2322,47.901 33.5655,46.5676 34.5,45.5 Z"/></g>
<g><path style="opacity:1" fill="#dbbca7" d="M 74.5,56.5 C 74.5,58.5 74.5,60.5 74.5,62.5C 72.9731,62.427 71.9731,63.0937 71.5,64.5C 70.1667,64.5 68.8333,64.5 67.5,64.5C 66.0475,61.0137 65.3808,57.347 65.5,53.5C 65.8333,53.5 66.1667,53.5 66.5,53.5C 68.3638,52.0216 69.6971,50.0216 70.5,47.5C 72.5683,50.2746 73.9016,53.2746 74.5,56.5 Z"/></g>
<g><path style="opacity:1" fill="#22221f" d="M 8.5,50.5 C 7.962,52.1172 7.62867,53.7839 7.5,55.5C 7.5,60.8333 7.5,66.1667 7.5,71.5C 6.34602,65.013 6.17935,58.3464 7,51.5C 7.38258,50.944 7.88258,50.6107 8.5,50.5 Z"/></g>
<g><path style="opacity:1" fill="#9a8e85" d="M 31.5,51.5 C 31.3801,53.7345 31.7135,55.9011 32.5,58C 32.0762,62.0586 30.5762,62.5586 28,59.5C 27.5065,61.1341 27.3398,62.8008 27.5,64.5C 26.5489,63.0813 26.2155,61.4147 26.5,59.5C 23.1489,54.3374 24.1489,53.3374 29.5,56.5C 29.8333,55.6667 30.1667,54.8333 30.5,54C 30.3158,52.6244 29.6491,51.7911 28.5,51.5C 27.9985,46.3562 28.9985,46.3562 31.5,51.5 Z"/></g>
<g><path style="opacity:1" fill="#bdac98" d="M 31.5,51.5 C 33.2775,54.2296 34.6108,57.2296 35.5,60.5C 36.2178,62.1368 36.3845,63.8034 36,65.5C 35.586,65.9574 35.086,66.2907 34.5,66.5C 33.5713,65.3112 33.238,63.9778 33.5,62.5C 32.0222,62.238 30.6888,62.5713 29.5,63.5C 30.3742,65.7466 30.7076,68.0799 30.5,70.5C 30.5,71.1667 30.1667,71.5 29.5,71.5C 29.0733,68.9902 28.4067,66.6568 27.5,64.5C 27.3398,62.8008 27.5065,61.1341 28,59.5C 30.5762,62.5586 32.0762,62.0586 32.5,58C 31.7135,55.9011 31.3801,53.7345 31.5,51.5 Z"/></g>
<g><path style="opacity:1" fill="#7f7978" d="M 48.5,45.5 C 49.4171,47.6618 49.4171,49.9952 48.5,52.5C 49.9587,52.4326 51.2921,52.7659 52.5,53.5C 54.4349,55.9691 55.7682,58.8024 56.5,62C 56.1667,62.5 55.8333,63 55.5,63.5C 53.2619,60.5673 52.2619,60.9007 52.5,64.5C 52.1667,64.5 51.8333,64.5 51.5,64.5C 51.5,62.5 50.5,61.5 48.5,61.5C 47.5943,60.0351 46.261,59.0351 44.5,58.5C 43.4937,58.9377 43.4937,59.6043 44.5,60.5C 43.3984,61.1757 42.3984,61.8423 41.5,62.5C 41.1667,62.5 40.8333,62.5 40.5,62.5C 40.5,60.8333 40.5,59.1667 40.5,57.5C 42.3904,57.7035 43.8904,57.0368 45,55.5C 45.7958,52.9615 45.6291,50.6282 44.5,48.5C 44.281,47.325 44.6143,46.325 45.5,45.5C 46.88,47.9767 47.88,47.9767 48.5,45.5 Z"/></g>
<g><path style="opacity:1" fill="#68645d" d="M 26.5,59.5 C 26.2155,61.4147 26.5489,63.0813 27.5,64.5C 28.4067,66.6568 29.0733,68.9902 29.5,71.5C 28.1667,70.8333 26.8333,70.1667 25.5,69.5C 24.1025,66.5185 23.1025,63.3519 22.5,60C 22.8333,58.8333 23.1667,57.6667 23.5,56.5C 24.7112,57.2739 24.7112,58.1072 23.5,59C 24.448,59.4828 25.448,59.6495 26.5,59.5 Z"/></g>
<g><path style="opacity:1" fill="#646363" d="M 77.5,44.5 C 79.2121,50.4973 80.8788,56.6639 82.5,63C 82.472,64.0698 82.1386,64.9032 81.5,65.5C 81.5,64.5 81.5,63.5 81.5,62.5C 79.3453,62.628 77.3453,62.128 75.5,61C 76.448,60.5172 77.448,60.3505 78.5,60.5C 78.3069,55.3124 77.9736,49.9791 77.5,44.5 Z"/></g>
<g><path style="opacity:1" fill="#6b6b67" d="M 19.5,57.5 C 20.4345,58.5676 20.7678,59.901 20.5,61.5C 19.7109,61.7828 19.0442,62.2828 18.5,63C 19.3861,64.9015 19.0528,66.7349 17.5,68.5C 16.8933,68.3764 16.56,68.0431 16.5,67.5C 16.6107,66.8826 16.944,66.3826 17.5,66C 16.1667,65.6667 14.8333,65.3333 13.5,65C 14.6956,64.3457 14.6956,63.8457 13.5,63.5C 12.3319,65.3969 10.6652,65.5636 8.5,64C 9.26027,61.9749 9.59361,60.1415 9.5,58.5C 11.4035,57.6433 13.4035,56.9766 15.5,56.5C 17.6656,56.4296 17.9989,57.0962 16.5,58.5C 18.3328,61.2904 19.3328,60.9571 19.5,57.5 Z"/></g>
<g><path style="opacity:0.282" fill="#141511" d="M -0.5,62.5 C 0.833333,63.1667 0.833333,63.1667 -0.5,62.5 Z"/></g>
<g><path style="opacity:1" fill="#ad8e75" d="M 63.5,53.5 C 64.1667,53.5 64.8333,53.5 65.5,53.5C 65.3808,57.347 66.0475,61.0137 67.5,64.5C 66.5,64.5 65.5,64.5 64.5,64.5C 64.1667,63.1667 63.8333,61.8333 63.5,60.5C 64.1032,58.3743 64.1032,56.0409 63.5,53.5 Z"/></g>
<g><path style="opacity:1" fill="#6a6253" d="M 74.5,62.5 C 75.8333,62.5 76.5,63.1667 76.5,64.5C 73.6416,62.8759 72.9749,63.5426 74.5,66.5C 72.9731,66.573 71.9731,65.9063 71.5,64.5C 71.9731,63.0937 72.9731,62.427 74.5,62.5 Z"/></g>
<g><path style="opacity:1" fill="#595953" d="M 7.5,55.5 C 7.83333,55.5 8.16667,55.5 8.5,55.5C 8.55688,56.609 8.89022,57.609 9.5,58.5C 9.59361,60.1415 9.26027,61.9749 8.5,64C 10.6652,65.5636 12.3319,65.3969 13.5,63.5C 14.6956,63.8457 14.6956,64.3457 13.5,65C 14.8333,65.3333 16.1667,65.6667 17.5,66C 16.944,66.3826 16.6107,66.8826 16.5,67.5C 15.8333,67.5 15.5,67.8333 15.5,68.5C 13.8235,69.1834 13.1568,70.5168 13.5,72.5C 11.3792,72.6747 9.3792,72.3414 7.5,71.5C 7.5,66.1667 7.5,60.8333 7.5,55.5 Z"/></g>
<g><path style="opacity:1" fill="#5f5c55" d="M 20.5,61.5 C 21.8009,62.8845 21.8009,64.3845 20.5,66C 21.7893,67.8022 23.4559,68.9688 25.5,69.5C 25.5,70.8333 25.5,72.1667 25.5,73.5C 22.3648,73.4518 20.6981,71.7852 20.5,68.5C 19.8933,68.6236 19.56,68.9569 19.5,69.5C 17.544,71.1751 16.2107,70.8418 15.5,68.5C 15.5,67.8333 15.8333,67.5 16.5,67.5C 16.56,68.0431 16.8933,68.3764 17.5,68.5C 19.0528,66.7349 19.3861,64.9015 18.5,63C 19.0442,62.2828 19.7109,61.7828 20.5,61.5 Z"/></g>
<g><path style="opacity:1" fill="#5e5f5d" d="M 48.5,61.5 C 48.0618,61.4346 47.7284,61.6012 47.5,62C 50.4388,64.9733 50.1055,67.4733 46.5,69.5C 42.5,67.8333 42.5,66.1667 46.5,64.5C 44.8614,63.6781 43.1947,63.0114 41.5,62.5C 42.3984,61.8423 43.3984,61.1757 44.5,60.5C 43.4937,59.6043 43.4937,58.9377 44.5,58.5C 46.261,59.0351 47.5943,60.0351 48.5,61.5 Z"/></g>
<g><path style="opacity:0.184" fill="#161612" d="M -0.5,65.5 C 0.833333,66.1667 0.833333,66.8333 -0.5,67.5C -0.5,66.8333 -0.5,66.1667 -0.5,65.5 Z"/></g>
<g><path style="opacity:1" fill="#766b61" d="M 35.5,60.5 C 36.5,60.5 37.5,60.5 38.5,60.5C 38.3284,61.4916 38.6618,62.1583 39.5,62.5C 39.0825,63.2216 38.4158,63.7216 37.5,64C 38.756,64.4169 39.4226,65.2502 39.5,66.5C 38.5,66.5 37.5,66.5 36.5,66.5C 36.5,67.5 36.5,68.5 36.5,69.5C 34.3792,69.3253 32.3792,69.6586 30.5,70.5C 30.7076,68.0799 30.3742,65.7466 29.5,63.5C 30.6888,62.5713 32.0222,62.238 33.5,62.5C 33.238,63.9778 33.5713,65.3112 34.5,66.5C 35.086,66.2907 35.586,65.9574 36,65.5C 36.3845,63.8034 36.2178,62.1368 35.5,60.5 Z"/></g>
<g><path style="opacity:1" fill="#383934" d="M 48.5,61.5 C 50.5,61.5 51.5,62.5 51.5,64.5C 51.5,66.1667 51.5,67.8333 51.5,69.5C 50.5,69.8333 49.8333,70.5 49.5,71.5C 45.7757,72.2269 43.1091,70.8936 41.5,67.5C 40.056,68.981 39.3894,68.6477 39.5,66.5C 39.4226,65.2502 38.756,64.4169 37.5,64C 38.4158,63.7216 39.0825,63.2216 39.5,62.5C 39.8333,62.5 40.1667,62.5 40.5,62.5C 40.8333,62.5 41.1667,62.5 41.5,62.5C 43.1947,63.0114 44.8614,63.6781 46.5,64.5C 42.5,66.1667 42.5,67.8333 46.5,69.5C 50.1055,67.4733 50.4388,64.9733 47.5,62C 47.7284,61.6012 48.0618,61.4346 48.5,61.5 Z"/></g>
<g><path style="opacity:1" fill="#787169" d="M 58.5,58.5 C 59.8471,59.1712 61.0138,59.1712 62,58.5C 62.2784,59.4158 62.7784,60.0825 63.5,60.5C 63.8333,61.8333 64.1667,63.1667 64.5,64.5C 62.2901,65.4551 61.9568,66.9551 63.5,69C 62.5842,69.2784 61.9175,69.7784 61.5,70.5C 60.325,70.281 59.325,70.6143 58.5,71.5C 59.6243,72.8592 60.9577,73.8592 62.5,74.5C 62.1667,74.5 61.8333,74.5 61.5,74.5C 59.901,74.7678 58.5676,74.4345 57.5,73.5C 55.249,72.5894 53.249,71.256 51.5,69.5C 51.5,67.8333 51.5,66.1667 51.5,64.5C 51.8333,64.5 52.1667,64.5 52.5,64.5C 54.4815,65.3475 56.4815,65.8475 58.5,66C 59.5556,63.3987 59.5556,60.8987 58.5,58.5 Z"/></g>
<g><path style="opacity:1" fill="#87786a" d="M 68.5,72.5 C 67.5,71.8333 66.5,71.1667 65.5,70.5C 64.3336,68.834 64.3336,67.1673 65.5,65.5C 66.2508,66.376 66.7508,67.376 67,68.5C 67.414,68.0426 67.914,67.7093 68.5,67.5C 69.7879,69.2985 69.7879,70.9652 68.5,72.5 Z"/></g>
<g><path style="opacity:1" fill="#42423a" d="M 15.5,68.5 C 16.2107,70.8418 17.544,71.1751 19.5,69.5C 20.6129,70.9464 20.7796,72.6131 20,74.5C 18.6667,75.8333 17.3333,75.8333 16,74.5C 15.2904,75.9733 14.1238,76.6399 12.5,76.5C 9.20334,76.3683 7.53668,74.7016 7.5,71.5C 9.3792,72.3414 11.3792,72.6747 13.5,72.5C 13.1568,70.5168 13.8235,69.1834 15.5,68.5 Z"/></g>
<g><path style="opacity:1" fill="#656460" d="M 39.5,66.5 C 39.3894,68.6477 40.056,68.981 41.5,67.5C 43.1091,70.8936 45.7757,72.2269 49.5,71.5C 50.2674,72.172 50.9341,73.0053 51.5,74C 48.949,74.0232 46.449,73.5232 44,72.5C 44.9064,74.8967 46.7398,76.5634 49.5,77.5C 49.5,78.1667 49.5,78.8333 49.5,79.5C 49.1667,79.5 48.8333,79.5 48.5,79.5C 48.1583,78.6618 47.4916,78.3284 46.5,78.5C 43.8858,76.3771 41.5524,74.0438 39.5,71.5C 38.7494,70.4265 37.7494,70.2599 36.5,71C 34.1021,72.4323 31.7688,73.9323 29.5,75.5C 29.0825,74.7784 28.4158,74.2784 27.5,74C 28.756,73.5831 29.4226,72.7498 29.5,71.5C 30.1667,71.5 30.5,71.1667 30.5,70.5C 32.3792,69.6586 34.3792,69.3253 36.5,69.5C 36.5,68.5 36.5,67.5 36.5,66.5C 37.5,66.5 38.5,66.5 39.5,66.5 Z"/></g>
<g><path style="opacity:1" fill="#64635f" d="M 51.5,69.5 C 53.249,71.256 55.249,72.5894 57.5,73.5C 56.325,73.281 55.325,73.6143 54.5,74.5C 56.3181,75.7742 57.9847,77.2742 59.5,79C 57.0799,78.3265 54.5799,77.4931 52,76.5C 50.9302,76.528 50.0968,76.8614 49.5,77.5C 46.7398,76.5634 44.9064,74.8967 44,72.5C 46.449,73.5232 48.949,74.0232 51.5,74C 50.9341,73.0053 50.2674,72.172 49.5,71.5C 49.8333,70.5 50.5,69.8333 51.5,69.5 Z"/></g>
<g><path style="opacity:1" fill="#5b534c" d="M 61.5,70.5 C 62.7024,71.4054 64.0357,71.4054 65.5,70.5C 66.5,71.1667 67.5,71.8333 68.5,72.5C 68.5,72.8333 68.5,73.1667 68.5,73.5C 66.7354,74.4614 64.7354,74.7947 62.5,74.5C 60.9577,73.8592 59.6243,72.8592 58.5,71.5C 59.325,70.6143 60.325,70.281 61.5,70.5 Z"/></g>
<g><path style="opacity:1" fill="#a28e7f" d="M 77.5,70.5 C 77.5,71.8333 77.5,73.1667 77.5,74.5C 75.6208,73.6586 73.6208,73.3253 71.5,73.5C 71.5,72.1667 71.5,70.8333 71.5,69.5C 73.6208,69.3253 75.6208,69.6586 77.5,70.5 Z"/></g>
<g><path style="opacity:1" fill="#c9b29a" d="M 64.5,64.5 C 65.5,64.5 66.5,64.5 67.5,64.5C 68.8333,64.5 70.1667,64.5 71.5,64.5C 71.9731,65.9063 72.9731,66.573 74.5,66.5C 76.4456,67.0347 77.4456,68.368 77.5,70.5C 75.6208,69.6586 73.6208,69.3253 71.5,69.5C 71.5,70.8333 71.5,72.1667 71.5,73.5C 73.6208,73.3253 75.6208,73.6586 77.5,74.5C 77.5,75.1667 77.5,75.8333 77.5,76.5C 74.4214,75.696 71.4214,74.696 68.5,73.5C 68.5,73.1667 68.5,72.8333 68.5,72.5C 69.7879,70.9652 69.7879,69.2985 68.5,67.5C 67.914,67.7093 67.414,68.0426 67,68.5C 66.7508,67.376 66.2508,66.376 65.5,65.5C 64.3336,67.1673 64.3336,68.834 65.5,70.5C 64.0357,71.4054 62.7024,71.4054 61.5,70.5C 61.9175,69.7784 62.5842,69.2784 63.5,69C 61.9568,66.9551 62.2901,65.4551 64.5,64.5 Z"/></g>
<g><path style="opacity:1" fill="#51483f" d="M 76.5,64.5 C 77.9187,65.4511 79.5853,65.7845 81.5,65.5C 80.3129,66.5336 79.4796,67.867 79,69.5C 79.0808,71.9852 78.9141,74.3185 78.5,76.5C 78.1667,76.5 77.8333,76.5 77.5,76.5C 77.5,75.8333 77.5,75.1667 77.5,74.5C 77.5,73.1667 77.5,71.8333 77.5,70.5C 77.4456,68.368 76.4456,67.0347 74.5,66.5C 72.9749,63.5426 73.6416,62.8759 76.5,64.5 Z"/></g>
<g><path style="opacity:1" fill="#3b3b32" d="M 19.5,69.5 C 19.56,68.9569 19.8933,68.6236 20.5,68.5C 20.6981,71.7852 22.3648,73.4518 25.5,73.5C 25.5,72.1667 25.5,70.8333 25.5,69.5C 26.8333,70.1667 28.1667,70.8333 29.5,71.5C 29.4226,72.7498 28.756,73.5831 27.5,74C 28.4158,74.2784 29.0825,74.7784 29.5,75.5C 28.0736,76.3412 26.7403,77.3412 25.5,78.5C 24.8333,78.5 24.5,78.8333 24.5,79.5C 20.313,78.7867 16.313,77.7867 12.5,76.5C 14.1238,76.6399 15.2904,75.9733 16,74.5C 17.3333,75.8333 18.6667,75.8333 20,74.5C 20.7796,72.6131 20.6129,70.9464 19.5,69.5 Z"/></g>
<g><path style="opacity:1" fill="#6f7275" d="M 39.5,71.5 C 37.179,73.0897 36.179,75.4231 36.5,78.5C 35.2502,78.5774 34.4169,79.244 34,80.5C 33.6174,79.944 33.1174,79.6107 32.5,79.5C 30.5294,79.8638 28.5294,80.1972 26.5,80.5C 25.7025,80.0431 25.3691,79.3764 25.5,78.5C 26.7403,77.3412 28.0736,76.3412 29.5,75.5C 31.7688,73.9323 34.1021,72.4323 36.5,71C 37.7494,70.2599 38.7494,70.4265 39.5,71.5 Z"/></g>
<g><path style="opacity:1" fill="#525049" d="M 57.5,73.5 C 58.5676,74.4345 59.901,74.7678 61.5,74.5C 62.6935,75.6135 64.0268,76.6135 65.5,77.5C 64.3112,78.4287 62.9778,78.762 61.5,78.5C 61.0889,81.2763 61.9223,81.943 64,80.5C 65.5971,81.8847 67.4305,82.5514 69.5,82.5C 69.5,83.8333 69.5,85.1667 69.5,86.5C 68.0413,86.5674 66.7079,86.2341 65.5,85.5C 60.7099,83.1927 55.3765,81.1927 49.5,79.5C 49.5,78.8333 49.5,78.1667 49.5,77.5C 50.0968,76.8614 50.9302,76.528 52,76.5C 54.5799,77.4931 57.0799,78.3265 59.5,79C 57.9847,77.2742 56.3181,75.7742 54.5,74.5C 55.325,73.6143 56.325,73.281 57.5,73.5 Z"/></g>
<g><path style="opacity:1" fill="#aa9889" d="M 68.5,73.5 C 71.4214,74.696 74.4214,75.696 77.5,76.5C 77.8333,76.5 78.1667,76.5 78.5,76.5C 78.5,77.5 78.5,78.5 78.5,79.5C 77.2921,78.7659 75.9587,78.4326 74.5,78.5C 73.0047,78.4148 72.0047,79.0815 71.5,80.5C 72.0606,82.4259 72.2273,84.4259 72,86.5C 72.3333,86.8333 72.6667,87.1667 73,87.5C 73.2784,86.5842 73.7784,85.9175 74.5,85.5C 74.5,86.5 74.5,87.5 74.5,88.5C 71.2727,88.3239 68.2727,87.6572 65.5,86.5C 65.5,86.1667 65.5,85.8333 65.5,85.5C 66.7079,86.2341 68.0413,86.5674 69.5,86.5C 69.5,85.1667 69.5,83.8333 69.5,82.5C 67.4305,82.5514 65.5971,81.8847 64,80.5C 61.9223,81.943 61.0889,81.2763 61.5,78.5C 62.9778,78.762 64.3112,78.4287 65.5,77.5C 64.0268,76.6135 62.6935,75.6135 61.5,74.5C 61.8333,74.5 62.1667,74.5 62.5,74.5C 64.7354,74.7947 66.7354,74.4614 68.5,73.5 Z"/></g>
<g><path style="opacity:1" fill="#777983" d="M 39.5,71.5 C 37.9397,73.1294 38.273,74.296 40.5,75C 39.6839,76.923 39.0172,78.923 38.5,81C 40.6496,82.405 42.3163,84.2384 43.5,86.5C 41.4471,86.5979 39.7804,85.9313 38.5,84.5C 37.7101,83.2058 36.7101,82.0391 35.5,81C 36.2524,80.3292 36.5858,79.4959 36.5,78.5C 36.179,75.4231 37.179,73.0897 39.5,71.5 Z"/></g>
<g><path style="opacity:1" fill="#61676c" d="M 39.5,71.5 C 41.5524,74.0438 43.8858,76.3771 46.5,78.5C 45.6971,79.4232 45.5304,80.4232 46,81.5C 47.9923,82.3281 49.4923,83.6614 50.5,85.5C 48.2109,85.573 45.8775,85.9063 43.5,86.5C 42.3163,84.2384 40.6496,82.405 38.5,81C 39.0172,78.923 39.6839,76.923 40.5,75C 38.273,74.296 37.9397,73.1294 39.5,71.5 Z"/></g>
<g><path style="opacity:1" fill="#7e7669" d="M 74.5,78.5 C 74.5,80.8333 74.5,83.1667 74.5,85.5C 73.7784,85.9175 73.2784,86.5842 73,87.5C 72.6667,87.1667 72.3333,86.8333 72,86.5C 72.2273,84.4259 72.0606,82.4259 71.5,80.5C 72.0047,79.0815 73.0047,78.4148 74.5,78.5 Z"/></g>
<g><path style="opacity:1" fill="#6c6d6b" d="M 48.5,79.5 C 48.8333,79.5 49.1667,79.5 49.5,79.5C 55.3765,81.1927 60.7099,83.1927 65.5,85.5C 65.5,85.8333 65.5,86.1667 65.5,86.5C 64.5041,86.4142 63.6708,86.7476 63,87.5C 59.5732,85.871 56.0732,84.371 52.5,83C 50.6813,82.2597 49.3479,81.0931 48.5,79.5 Z"/></g>
<g><path style="opacity:1" fill="#c9b39e" d="M 74.5,78.5 C 75.9587,78.4326 77.2921,78.7659 78.5,79.5C 78.6695,81.912 78.0028,84.0786 76.5,86C 79.1196,88.6028 78.4529,90.1028 74.5,90.5C 74.5,89.8333 74.5,89.1667 74.5,88.5C 74.5,87.5 74.5,86.5 74.5,85.5C 74.5,83.1667 74.5,80.8333 74.5,78.5 Z"/></g>
<g><path style="opacity:1" fill="#6e7379" d="M 36.5,78.5 C 36.5858,79.4959 36.2524,80.3292 35.5,81C 36.7101,82.0391 37.7101,83.2058 38.5,84.5C 35.9832,86.0771 35.9832,87.9104 38.5,90C 38.2716,90.3988 37.9382,90.5654 37.5,90.5C 36.1667,90.5 34.8333,90.5 33.5,90.5C 33.116,87.0853 32.7827,83.4186 32.5,79.5C 33.1174,79.6107 33.6174,79.944 34,80.5C 34.4169,79.244 35.2502,78.5774 36.5,78.5 Z"/></g>
<g><path style="opacity:1" fill="#5a6368" d="M 25.5,78.5 C 25.3691,79.3764 25.7025,80.0431 26.5,80.5C 28.5294,80.1972 30.5294,79.8638 32.5,79.5C 32.7827,83.4186 33.116,87.0853 33.5,90.5C 31.5,90.5 29.5,90.5 27.5,90.5C 27.2965,88.6096 27.9632,87.1096 29.5,86C 28.7734,84.6012 28.2734,83.1012 28,81.5C 26.3301,86.3313 24.4968,90.998 22.5,95.5C 21.8333,95.5 21.1667,95.5 20.5,95.5C 22.1497,90.2346 23.483,84.9013 24.5,79.5C 24.5,78.8333 24.8333,78.5 25.5,78.5 Z"/></g>
<g><path style="opacity:1" fill="#403f35" d="M 46.5,78.5 C 47.4916,78.3284 48.1583,78.6618 48.5,79.5C 49.3479,81.0931 50.6813,82.2597 52.5,83C 56.0732,84.371 59.5732,85.871 63,87.5C 63.6708,86.7476 64.5041,86.4142 65.5,86.5C 68.2727,87.6572 71.2727,88.3239 74.5,88.5C 74.5,89.1667 74.5,89.8333 74.5,90.5C 76.769,91.4367 78.769,92.77 80.5,94.5C 80.5,94.8333 80.5,95.1667 80.5,95.5C 78.5,95.5 76.5,95.5 74.5,95.5C 74.5858,94.5041 74.2524,93.6708 73.5,93C 69.0672,91.8856 64.7339,90.719 60.5,89.5C 60.7373,90.791 60.404,91.791 59.5,92.5C 59.67,91.1779 59.3366,90.0113 58.5,89C 55.6642,88.0789 52.9976,86.9123 50.5,85.5C 49.4923,83.6614 47.9923,82.3281 46,81.5C 45.5304,80.4232 45.6971,79.4232 46.5,78.5 Z"/></g>
<g><path style="opacity:1" fill="#686c6d" d="M 50.5,85.5 C 52.9976,86.9123 55.6642,88.0789 58.5,89C 59.3366,90.0113 59.67,91.1779 59.5,92.5C 59.5,93.5 59.5,94.5 59.5,95.5C 59.1667,95.5 58.8333,95.5 58.5,95.5C 56.0383,93.3093 53.0383,91.9759 49.5,91.5C 47.5,89.8333 45.5,88.1667 43.5,86.5C 45.8775,85.9063 48.2109,85.573 50.5,85.5 Z"/></g>
<g><path style="opacity:1" fill="#7f7267" d="M 78.5,76.5 C 79.6651,77.4961 80.3318,78.8295 80.5,80.5C 80.5357,85.2737 80.5357,89.9404 80.5,94.5C 78.769,92.77 76.769,91.4367 74.5,90.5C 78.4529,90.1028 79.1196,88.6028 76.5,86C 78.0028,84.0786 78.6695,81.912 78.5,79.5C 78.5,78.5 78.5,77.5 78.5,76.5 Z"/></g>
<g><path style="opacity:1" fill="#b39c91" d="M 38.5,84.5 C 39.7804,85.9313 41.4471,86.5979 43.5,86.5C 45.5,88.1667 47.5,89.8333 49.5,91.5C 46.319,91.7423 43.319,91.7423 40.5,91.5C 39.8076,92.0253 39.3076,92.6919 39,93.5C 37.6012,92.7734 36.1012,92.2734 34.5,92C 35.7375,91.7679 36.7375,91.2679 37.5,90.5C 37.9382,90.5654 38.2716,90.3988 38.5,90C 35.9832,87.9104 35.9832,86.0771 38.5,84.5 Z"/></g>
<g><path style="opacity:1" fill="#090808" d="M 74.5,95.5 C 69.5,95.5 64.5,95.5 59.5,95.5C 59.5,94.5 59.5,93.5 59.5,92.5C 60.404,91.791 60.7373,90.791 60.5,89.5C 64.7339,90.719 69.0672,91.8856 73.5,93C 74.2524,93.6708 74.5858,94.5041 74.5,95.5 Z"/></g>
<g><path style="opacity:1" fill="#6e757c" d="M 33.5,90.5 C 32.6993,92.0418 32.366,93.7085 32.5,95.5C 29.1667,95.5 25.8333,95.5 22.5,95.5C 24.4968,90.998 26.3301,86.3313 28,81.5C 28.2734,83.1012 28.7734,84.6012 29.5,86C 27.9632,87.1096 27.2965,88.6096 27.5,90.5C 29.5,90.5 31.5,90.5 33.5,90.5 Z"/></g>
<g><path style="opacity:1" fill="#b19886" d="M 33.5,90.5 C 34.8333,90.5 36.1667,90.5 37.5,90.5C 36.7375,91.2679 35.7375,91.7679 34.5,92C 36.1012,92.2734 37.6012,92.7734 39,93.5C 39.3076,92.6919 39.8076,92.0253 40.5,91.5C 43.319,91.7423 46.319,91.7423 49.5,91.5C 53.0383,91.9759 56.0383,93.3093 58.5,95.5C 49.8333,95.5 41.1667,95.5 32.5,95.5C 32.366,93.7085 32.6993,92.0418 33.5,90.5 Z"/></g>
</svg>
