<?xml version="1.0" encoding="UTF-8"?>
<!DOCTYPE svg PUBLIC "-//W3C//DTD SVG 1.1//EN" "http://www.w3.org/Graphics/SVG/1.1/DTD/svg11.dtd">
<svg xmlns="http://www.w3.org/2000/svg" version="1.1" width="225px" height="225px" style="shape-rendering:geometricPrecision; text-rendering:geometricPrecision; image-rendering:optimizeQuality; fill-rule:evenodd; clip-rule:evenodd" xmlns:xlink="http://www.w3.org/1999/xlink">
<g><path style="opacity:1" fill="#ff6a0f" d="M 160.5,43.5 C 148.553,57.1148 135.886,70.1148 122.5,82.5C 119.309,72.0944 115.809,61.7611 112,51.5C 108.066,62.4679 104.233,73.4679 100.5,84.5C 91.0337,78.8645 81.7004,73.0312 72.5,67C 71.8333,66.3333 71.1667,66.3333 70.5,67C 74.9625,77.4278 79.2958,87.9278 83.5,98.5C 72.2944,101.141 60.9611,103.141 49.5,104.5C 59.5352,110.182 69.5352,115.849 79.5,121.5C 72.0183,130.149 64.3517,138.649 56.5,147C 56.7284,147.399 57.0618,147.565 57.5,147.5C 51.7028,153.798 45.7028,159.965 39.5,166C 39.7284,166.399 40.0618,166.565 40.5,166.5C 34.7553,168.451 28.7553,169.785 22.5,170.5C 19.9179,170.975 17.9179,170.308 16.5,168.5C 29.1443,154.186 41.811,139.853 54.5,125.5C 36.271,115.553 17.9377,105.886 -0.5,96.5C -0.5,96.1667 -0.5,95.8333 -0.5,95.5C 19.4258,92.3679 39.4258,89.7012 59.5,87.5C 60.675,87.719 61.675,87.3857 62.5,86.5C 62.3764,85.8933 62.0431,85.56 61.5,85.5C 53.6674,66.189 46.1674,46.8557 39,27.5C 56.2472,38.8752 73.7472,49.8752 91.5,60.5C 98.4179,40.915 105.251,21.2483 112,1.5C 118.665,21.4885 125.331,41.4885 132,61.5C 141.384,55.2759 150.884,49.2759 160.5,43.5 Z"/></g>
<g><path style="opacity:1" fill="#ff590e" d="M 162.5,85.5 C 161.957,85.56 161.624,85.8933 161.5,86.5C 162.325,87.3857 163.325,87.719 164.5,87.5C 184.566,89.6999 204.566,92.3666 224.5,95.5C 224.5,95.8333 224.5,96.1667 224.5,96.5C 206.062,105.886 187.729,115.553 169.5,125.5C 183.167,140.833 196.833,156.167 210.5,171.5C 209.833,171.833 209.167,172.167 208.5,172.5C 188.921,168.352 169.421,164.018 150,159.5C 149.806,175.832 149.973,192.166 150.5,208.5C 150.817,212.702 150.483,216.702 149.5,220.5C 136.864,205.021 124.364,189.354 112,173.5C 99.6361,189.354 87.1361,205.021 74.5,220.5C 73.5166,216.702 73.1832,212.702 73.5,208.5C 74.0269,192.166 74.1935,175.832 74,159.5C 62.9742,162.405 51.8075,164.739 40.5,166.5C 40.0618,166.565 39.7284,166.399 39.5,166C 45.7028,159.965 51.7028,153.798 57.5,147.5C 57.8333,147.5 58.1667,147.5 58.5,147.5C 69.0913,145.115 79.7579,143.115 90.5,141.5C 90.4347,153.187 90.268,164.853 90,176.5C 97.3333,167.167 104.667,157.833 112,148.5C 119.333,157.833 126.667,167.167 134,176.5C 133.925,164.817 133.425,153.15 132.5,141.5C 133,141.167 133.5,140.833 134,140.5C 145.149,143.115 156.316,145.281 167.5,147C 159.648,138.649 151.982,130.149 144.5,121.5C 154.705,115.466 165.039,109.633 175.5,104C 163.892,101.984 152.225,100.484 140.5,99.5C 144.439,87.98 148.605,76.6467 153,65.5C 142.831,71.5835 132.831,77.9168 123,84.5C 122.601,84.2716 122.435,83.9382 122.5,83.5C 122.5,83.1667 122.5,82.8333 122.5,82.5C 135.886,70.1148 148.553,57.1148 160.5,43.5C 168.52,37.9473 176.853,33.114 185.5,29C 177.538,47.7199 169.872,66.5533 162.5,85.5 Z"/></g>
<g><path style="opacity:1" fill="#ffad0a" d="M 122.5,82.5 C 122.5,82.8333 122.5,83.1667 122.5,83.5C 100.833,104.5 79.5,125.833 58.5,147.5C 58.1667,147.5 57.8333,147.5 57.5,147.5C 57.0618,147.565 56.7284,147.399 56.5,147C 64.3517,138.649 72.0183,130.149 79.5,121.5C 69.5352,115.849 59.5352,110.182 49.5,104.5C 60.9611,103.141 72.2944,101.141 83.5,98.5C 79.2958,87.9278 74.9625,77.4278 70.5,67C 71.1667,66.3333 71.8333,66.3333 72.5,67C 81.7004,73.0312 91.0337,78.8645 100.5,84.5C 104.233,73.4679 108.066,62.4679 112,51.5C 115.809,61.7611 119.309,72.0944 122.5,82.5 Z"/></g>
<g><path style="opacity:1" fill="#ff8a0c" d="M 58.5,147.5 C 79.5,125.833 100.833,104.5 122.5,83.5C 122.435,83.9382 122.601,84.2716 123,84.5C 132.831,77.9168 142.831,71.5835 153,65.5C 148.605,76.6467 144.439,87.98 140.5,99.5C 152.225,100.484 163.892,101.984 175.5,104C 165.039,109.633 154.705,115.466 144.5,121.5C 151.982,130.149 159.648,138.649 167.5,147C 156.316,145.281 145.149,143.115 134,140.5C 133.5,140.833 133,141.167 132.5,141.5C 133.425,153.15 133.925,164.817 134,176.5C 126.667,167.167 119.333,157.833 112,148.5C 104.667,157.833 97.3333,167.167 90,176.5C 90.268,164.853 90.4347,153.187 90.5,141.5C 79.7579,143.115 69.0913,145.115 58.5,147.5 Z"/></g>
<g><path style="opacity:1" fill="#ffd0be" d="M 61.5,85.5 C 62.0431,85.56 62.3764,85.8933 62.5,86.5C 61.675,87.3857 60.675,87.719 59.5,87.5C 60.1667,86.8333 60.8333,86.1667 61.5,85.5 Z"/></g>
<g><path style="opacity:1" fill="#ffd7c8" d="M 162.5,85.5 C 163.167,86.1667 163.833,86.8333 164.5,87.5C 163.325,87.719 162.325,87.3857 161.5,86.5C 161.624,85.8933 161.957,85.56 162.5,85.5 Z"/></g>
<g><path style="opacity:1" fill="#ff9664" d="M 16.5,168.5 C 17.9179,170.308 19.9179,170.975 22.5,170.5C 19.4041,171.948 16.0708,172.448 12.5,172C 13.7051,170.624 15.0384,169.458 16.5,168.5 Z"/></g>
<g><path style="opacity:1" fill="#ffbda8" d="M 73.5,208.5 C 73.1832,212.702 73.5166,216.702 74.5,220.5C 74.2172,221.289 73.7172,221.956 73,222.5C 72.1849,217.648 72.3516,212.981 73.5,208.5 Z"/></g>
<g><path style="opacity:1" fill="#ffbda8" d="M 150.5,208.5 C 151.648,212.981 151.815,217.648 151,222.5C 150.283,221.956 149.783,221.289 149.5,220.5C 150.483,216.702 150.817,212.702 150.5,208.5 Z"/></g>
</svg>
