<?xml version="1.0" encoding="UTF-8"?>
<svg version="1.1" xmlns="http://www.w3.org/2000/svg" width="440" height="440">
<path d="M0 0 C1.00498535 -0.0007251 2.0099707 -0.0014502 3.04541016 -0.00219727 C10.16733366 0.05241683 10.16733366 0.05241683 12.4375 1.1875 C13.95458875 1.36817409 15.47666284 1.50818698 17 1.625 C30.072 2.822 30.072 2.822 32.4375 5.1875 C33.46875 5.331875 34.5 5.47625 35.5625 5.625 C39.38095392 6.1792917 42.75969105 7.06164012 46.4375 8.1875 C46.4375 8.8475 46.4375 9.5075 46.4375 10.1875 C47.7678125 10.0946875 47.7678125 10.0946875 49.125 10 C52.92801728 10.21526513 54.2517578 11.18715025 57.4375 13.1875 C60.40324319 14.2996537 63.41019142 15.25754246 66.4375 16.1875 C66.4375 16.8475 66.4375 17.5075 66.4375 18.1875 C67.7575 18.1875 69.0775 18.1875 70.4375 18.1875 C70.4375 18.8475 70.4375 19.5075 70.4375 20.1875 C70.97375 20.290625 71.51 20.39375 72.0625 20.5 C75.06252044 21.36842697 77.6754535 22.74370296 80.4375 24.1875 C80.4375 24.8475 80.4375 25.5075 80.4375 26.1875 C81.05625 26.331875 81.675 26.47625 82.3125 26.625 C84.4375 27.1875 84.4375 27.1875 86.4375 28.1875 C86.4375 28.8475 86.4375 29.5075 86.4375 30.1875 C88.4175 30.8475 90.3975 31.5075 92.4375 32.1875 C92.4375 32.8475 92.4375 33.5075 92.4375 34.1875 C93.0975 34.1875 93.7575 34.1875 94.4375 34.1875 C94.4375 34.8475 94.4375 35.5075 94.4375 36.1875 C95.0975 36.1875 95.7575 36.1875 96.4375 36.1875 C96.4375 36.8475 96.4375 37.5075 96.4375 38.1875 C97.00984375 38.455625 97.5821875 38.72375 98.171875 39 C100.51634634 40.22882636 102.56154938 41.61272176 104.6875 43.1875 C105.74710937 43.9609375 105.74710937 43.9609375 106.828125 44.75 C107.35921875 45.224375 107.8903125 45.69875 108.4375 46.1875 C108.4375 46.8475 108.4375 47.5075 108.4375 48.1875 C109.0975 48.1875 109.7575 48.1875 110.4375 48.1875 C111.9453125 49.8671875 111.9453125 49.8671875 113.5625 52.0625 C114.10132813 52.78179687 114.64015625 53.50109375 115.1953125 54.2421875 C116.4375 56.1875 116.4375 56.1875 116.4375 58.1875 C117.0975 58.1875 117.7575 58.1875 118.4375 58.1875 C118.4375 58.8475 118.4375 59.5075 118.4375 60.1875 C119.0975 60.1875 119.7575 60.1875 120.4375 60.1875 C120.4375 60.8475 120.4375 61.5075 120.4375 62.1875 C121.0975 62.1875 121.7575 62.1875 122.4375 62.1875 C124.4375 65.1875 124.4375 65.1875 124.4375 68.1875 C125.0975 68.1875 125.7575 68.1875 126.4375 68.1875 C128.4375 71.1875 128.4375 71.1875 128.4375 74.1875 C129.0975 74.1875 129.7575 74.1875 130.4375 74.1875 C132.4375 77.1875 132.4375 77.1875 132.4375 80.1875 C133.0975 80.1875 133.7575 80.1875 134.4375 80.1875 C134.4375 81.5075 134.4375 82.8275 134.4375 84.1875 C135.0975 84.1875 135.7575 84.1875 136.4375 84.1875 C138.20212683 87.27559695 138.4375 88.42062136 138.4375 92.1875 C139.0975 92.1875 139.7575 92.1875 140.4375 92.1875 C140.4375 93.5075 140.4375 94.8275 140.4375 96.1875 C141.0975 96.1875 141.7575 96.1875 142.4375 96.1875 C144.04105101 99.69526784 144.65786864 102.33104879 144.4375 106.1875 C145.0975 106.1875 145.7575 106.1875 146.4375 106.1875 C146.4375 108.1675 146.4375 110.1475 146.4375 112.1875 C147.0975 112.1875 147.7575 112.1875 148.4375 112.1875 C148.64246094 113.18652344 148.84742188 114.18554688 149.05859375 115.21484375 C149.46271484 117.15037109 149.46271484 117.15037109 149.875 119.125 C150.27525391 121.05666016 150.27525391 121.05666016 150.68359375 123.02734375 C151.10931616 126.03388879 151.10931616 126.03388879 152.4375 127.1875 C152.64646317 128.99561184 152.80530361 130.80966032 152.9375 132.625 C153.15169183 136.55184915 153.15169183 136.55184915 154.4375 140.1875 C154.53147224 141.54047661 154.56543378 142.89791503 154.56689453 144.25415039 C154.57004669 145.09164322 154.57319885 145.92913605 154.57644653 146.79200745 C154.57341019 148.1498661 154.57341019 148.1498661 154.5703125 149.53515625 C154.57174759 150.92570473 154.57174759 150.92570473 154.57321167 152.34434509 C154.57389276 154.30549182 154.5720434 156.2666408 154.56787109 158.2277832 C154.56251582 161.24109927 154.56782158 164.25426668 154.57421875 167.26757812 C154.57355807 169.16927116 154.57227713 171.07096411 154.5703125 172.97265625 C154.57233673 173.87991959 154.57436096 174.78718292 154.57644653 175.72193909 C154.55245378 182.07254622 154.55245378 182.07254622 153.4375 183.1875 C153.22974439 184.84954487 153.07031745 186.51779491 152.9375 188.1875 C152.54861111 193.07638889 152.54861111 193.07638889 151.4375 194.1875 C151.20674918 195.53497084 151.02596937 196.89127565 150.875 198.25 C150.730625 199.549375 150.58625 200.84875 150.4375 202.1875 C149.7775 202.1875 149.1175 202.1875 148.4375 202.1875 C148.499375 203.033125 148.56125 203.87875 148.625 204.75 C148.40433041 208.79560909 147.10523316 211.51848704 145.4375 215.1875 C144.74609478 217.96638613 144.74609478 217.96638613 144.4375 220.1875 C143.7775 220.1875 143.1175 220.1875 142.4375 220.1875 C142.355 220.826875 142.2725 221.46625 142.1875 222.125 C140.28346224 229.89982084 136.05154722 237.09271058 132.4375 244.1875 C131.7775 244.1875 131.1175 244.1875 130.4375 244.1875 C130.293125 244.80625 130.14875 245.425 130 246.0625 C129.4375 248.1875 129.4375 248.1875 128.4375 250.1875 C127.7775 250.1875 127.1175 250.1875 126.4375 250.1875 C125.7775 252.1675 125.1175 254.1475 124.4375 256.1875 C123.7775 256.1875 123.1175 256.1875 122.4375 256.1875 C122.14875 256.950625 121.86 257.71375 121.5625 258.5 C120.4375 261.1875 120.4375 261.1875 118.4375 264.1875 C117.7775 264.1875 117.1175 264.1875 116.4375 264.1875 C116.4375 264.8475 116.4375 265.5075 116.4375 266.1875 C115.7775 266.1875 115.1175 266.1875 114.4375 266.1875 C114.4375 266.8475 114.4375 267.5075 114.4375 268.1875 C113.7775 268.1875 113.1175 268.1875 112.4375 268.1875 C112.4375 268.8475 112.4375 269.5075 112.4375 270.1875 C111.7775 270.1875 111.1175 270.1875 110.4375 270.1875 C110.4375 270.8475 110.4375 271.5075 110.4375 272.1875 C109.7775 272.1875 109.1175 272.1875 108.4375 272.1875 C108.4375 272.8475 108.4375 273.5075 108.4375 274.1875 C107.7775 274.1875 107.1175 274.1875 106.4375 274.1875 C106.4375 274.8475 106.4375 275.5075 106.4375 276.1875 C105.7775 276.1875 105.1175 276.1875 104.4375 276.1875 C104.4375 276.8475 104.4375 277.5075 104.4375 278.1875 C103.7775 278.1875 103.1175 278.1875 102.4375 278.1875 C102.4375 278.8475 102.4375 279.5075 102.4375 280.1875 C101.7775 280.1875 101.1175 280.1875 100.4375 280.1875 C100.4375 280.8475 100.4375 281.5075 100.4375 282.1875 C95.02573529 286.1875 95.02573529 286.1875 92.4375 286.1875 C92.4375 286.8475 92.4375 287.5075 92.4375 288.1875 C91.7775 288.1875 91.1175 288.1875 90.4375 288.1875 C90.4375 288.8475 90.4375 289.5075 90.4375 290.1875 C88.4575 290.8475 86.4775 291.5075 84.4375 292.1875 C84.4375 292.8475 84.4375 293.5075 84.4375 294.1875 C81.4375 296.1875 81.4375 296.1875 78.4375 296.1875 C78.4375 296.8475 78.4375 297.5075 78.4375 298.1875 C66.71875 304.046875 66.71875 304.046875 64.5871582 305.11230469 C63.12957492 305.84134464 61.67239338 306.57118824 60.21557617 307.30175781 C59.50892822 307.65592773 58.80228027 308.01009766 58.07421875 308.375 C57.43959717 308.69339844 56.80497559 309.01179688 56.15112305 309.33984375 C52.05136139 311.36782102 49.05306852 312.45124677 44.4375 312.1875 C44.4375 312.8475 44.4375 313.5075 44.4375 314.1875 C43.43847656 314.39246094 42.43945312 314.59742188 41.41015625 314.80859375 C40.11980469 315.07800781 38.82945312 315.34742188 37.5 315.625 C35.56833984 316.02525391 35.56833984 316.02525391 33.59765625 316.43359375 C30.59111121 316.85931616 30.59111121 316.85931616 29.4375 318.1875 C27.96353261 318.39518229 26.4825874 318.55466017 25 318.6875 C21.59252495 318.97896944 21.59252495 318.97896944 18.4375 320.1875 C16.93661432 320.2822561 15.43160752 320.31544334 13.92773438 320.31689453 C12.99336548 320.32004669 12.05899658 320.32319885 11.09631348 320.32644653 C9.57910706 320.32341019 9.57910706 320.32341019 8.03125 320.3203125 C6.99560913 320.32126923 5.95996826 320.32222595 4.89294434 320.32321167 C2.7006016 320.32389298 0.50825685 320.32204209 -1.68408203 320.31787109 C-5.0485485 320.31252218 -8.41288146 320.31781775 -11.77734375 320.32421875 C-13.90364613 320.32355796 -16.02994843 320.32227678 -18.15625 320.3203125 C-19.16772095 320.32233673 -20.17919189 320.32436096 -21.22131348 320.32644653 C-22.15568237 320.32329437 -23.09005127 320.32014221 -24.05273438 320.31689453 C-24.87721069 320.31609894 -25.70168701 320.31530334 -26.55114746 320.31448364 C-28.5625 320.1875 -28.5625 320.1875 -30.5625 319.1875 C-31.75875 319.084375 -32.955 318.98125 -34.1875 318.875 C-38.82507962 318.40747165 -43.24021326 317.38597816 -47.75 316.25 C-48.76537842 315.99512817 -48.76537842 315.99512817 -49.80126953 315.73510742 C-53.78233406 314.71080558 -57.67916198 313.53428752 -61.5625 312.1875 C-61.5625 311.5275 -61.5625 310.8675 -61.5625 310.1875 C-62.3875 310.084375 -63.2125 309.98125 -64.0625 309.875 C-68.15539012 309.07103944 -71.68790225 307.72397842 -75.5625 306.1875 C-75.5625 305.5275 -75.5625 304.8675 -75.5625 304.1875 C-76.8825 304.1875 -78.2025 304.1875 -79.5625 304.1875 C-79.5625 303.5275 -79.5625 302.8675 -79.5625 302.1875 C-80.10132813 302.09082031 -80.64015625 301.99414062 -81.1953125 301.89453125 C-86.38475122 300.34455038 -90.96105126 296.98518083 -95.5625 294.1875 C-96.26117188 293.7646875 -96.95984375 293.341875 -97.6796875 292.90625 C-99.3125 291.875 -99.3125 291.875 -101.5625 290.1875 C-101.5625 289.5275 -101.5625 288.8675 -101.5625 288.1875 C-102.2225 288.1875 -102.8825 288.1875 -103.5625 288.1875 C-103.5625 287.5275 -103.5625 286.8675 -103.5625 286.1875 C-104.2225 286.1875 -104.8825 286.1875 -105.5625 286.1875 C-107 284.69140625 -107 284.69140625 -108.5625 282.75 C-110.70775044 280.03561762 -110.70775044 280.03561762 -113.5625 278.1875 C-113.5625 277.5275 -113.5625 276.8675 -113.5625 276.1875 C-114.2225 276.1875 -114.8825 276.1875 -115.5625 276.1875 C-115.5625 275.5275 -115.5625 274.8675 -115.5625 274.1875 C-116.2225 274.1875 -116.8825 274.1875 -117.5625 274.1875 C-117.5625 273.5275 -117.5625 272.8675 -117.5625 272.1875 C-118.2225 272.1875 -118.8825 272.1875 -119.5625 272.1875 C-119.5625 271.5275 -119.5625 270.8675 -119.5625 270.1875 C-120.2225 270.1875 -120.8825 270.1875 -121.5625 270.1875 C-121.5625 269.5275 -121.5625 268.8675 -121.5625 268.1875 C-122.2225 268.1875 -122.8825 268.1875 -123.5625 268.1875 C-123.5625 267.5275 -123.5625 266.8675 -123.5625 266.1875 C-124.2225 266.1875 -124.8825 266.1875 -125.5625 266.1875 C-125.5625 265.5275 -125.5625 264.8675 -125.5625 264.1875 C-126.2225 264.1875 -126.8825 264.1875 -127.5625 264.1875 C-131.5625 258.77573529 -131.5625 258.77573529 -131.5625 256.1875 C-132.2225 256.1875 -132.8825 256.1875 -133.5625 256.1875 C-137.5625 250.77573529 -137.5625 250.77573529 -137.5625 248.1875 C-138.2225 248.1875 -138.8825 248.1875 -139.5625 248.1875 C-140.23404933 246.89836513 -140.89958859 245.60609796 -141.5625 244.3125 C-141.93375 243.59320313 -142.305 242.87390625 -142.6875 242.1328125 C-143.5625 240.1875 -143.5625 240.1875 -143.5625 238.1875 C-144.2225 238.1875 -144.8825 238.1875 -145.5625 238.1875 C-145.5625 236.8675 -145.5625 235.5475 -145.5625 234.1875 C-146.2225 234.1875 -146.8825 234.1875 -147.5625 234.1875 C-147.5625 232.8675 -147.5625 231.5475 -147.5625 230.1875 C-148.2225 230.1875 -148.8825 230.1875 -149.5625 230.1875 C-149.5625 228.8675 -149.5625 227.5475 -149.5625 226.1875 C-150.2225 226.1875 -150.8825 226.1875 -151.5625 226.1875 C-153.16605101 222.67973216 -153.78286864 220.04395121 -153.5625 216.1875 C-154.2225 216.1875 -154.8825 216.1875 -155.5625 216.1875 C-155.5625 214.2075 -155.5625 212.2275 -155.5625 210.1875 C-156.2225 210.1875 -156.8825 210.1875 -157.5625 210.1875 C-157.5625 208.2075 -157.5625 206.2275 -157.5625 204.1875 C-158.2225 204.1875 -158.8825 204.1875 -159.5625 204.1875 C-159.706875 203.053125 -159.85125 201.91875 -160 200.75 C-160.17421478 197.37972799 -160.17421478 197.37972799 -161.5625 196.1875 C-163.48738844 189.55565778 -163.89892928 182.75476718 -164.22070312 175.89819336 C-164.41330203 171.92092768 -164.88151575 168.10731179 -165.5625 164.1875 C-165.64571165 162.85611361 -165.69305822 161.52147264 -165.6875 160.1875 C-165.69007813 159.56875 -165.69265625 158.95 -165.6953125 158.3125 C-165.5625 156.1875 -165.5625 156.1875 -165.08203125 153.421875 C-164.4942798 149.76279079 -164.29841535 146.13275116 -164.125 142.4375 C-163.22300219 125.84800219 -163.22300219 125.84800219 -160.5625 123.1875 C-160.376875 121.640625 -160.376875 121.640625 -160.1875 120.0625 C-159.64574899 116.70364373 -158.80292626 114.20492113 -157.38671875 111.14453125 C-156.06844645 108.01441551 -155.20162974 104.75865319 -154.2578125 101.5 C-153.50445306 98.99444502 -152.60274318 96.58806119 -151.5625 94.1875 C-150.9025 94.1875 -150.2425 94.1875 -149.5625 94.1875 C-149.5625 92.8675 -149.5625 91.5475 -149.5625 90.1875 C-148.9025 90.1875 -148.2425 90.1875 -147.5625 90.1875 C-147.5625 88.8675 -147.5625 87.5475 -147.5625 86.1875 C-146.9025 86.1875 -146.2425 86.1875 -145.5625 86.1875 C-145.5625 84.8675 -145.5625 83.5475 -145.5625 82.1875 C-144.9025 82.1875 -144.2425 82.1875 -143.5625 82.1875 C-143.459375 81.65125 -143.35625 81.115 -143.25 80.5625 C-142.38157303 77.56247956 -141.00629704 74.9495465 -139.5625 72.1875 C-138.9025 72.1875 -138.2425 72.1875 -137.5625 72.1875 C-136.9025 70.2075 -136.2425 68.2275 -135.5625 66.1875 C-134.9025 66.1875 -134.2425 66.1875 -133.5625 66.1875 C-133.5625 65.5275 -133.5625 64.8675 -133.5625 64.1875 C-132.9025 64.1875 -132.2425 64.1875 -131.5625 64.1875 C-131.315 63.465625 -131.0675 62.74375 -130.8125 62 C-129.43980408 58.91143418 -127.83896704 56.67738582 -125.5625 54.1875 C-124.9025 54.1875 -124.2425 54.1875 -123.5625 54.1875 C-123.5625 53.5275 -123.5625 52.8675 -123.5625 52.1875 C-122.9025 52.1875 -122.2425 52.1875 -121.5625 52.1875 C-121.5625 51.5275 -121.5625 50.8675 -121.5625 50.1875 C-120.9025 50.1875 -120.2425 50.1875 -119.5625 50.1875 C-119.5625 49.5275 -119.5625 48.8675 -119.5625 48.1875 C-118.9025 48.1875 -118.2425 48.1875 -117.5625 48.1875 C-117.5625 47.5275 -117.5625 46.8675 -117.5625 46.1875 C-116.9025 46.1875 -116.2425 46.1875 -115.5625 46.1875 C-115.5625 45.5275 -115.5625 44.8675 -115.5625 44.1875 C-114.9025 44.1875 -114.2425 44.1875 -113.5625 44.1875 C-113.5625 43.5275 -113.5625 42.8675 -113.5625 42.1875 C-112.9025 42.1875 -112.2425 42.1875 -111.5625 42.1875 C-111.5625 41.5275 -111.5625 40.8675 -111.5625 40.1875 C-110.9025 40.1875 -110.2425 40.1875 -109.5625 40.1875 C-109.5625 39.5275 -109.5625 38.8675 -109.5625 38.1875 C-108.9025 38.1875 -108.2425 38.1875 -107.5625 38.1875 C-107.5625 37.5275 -107.5625 36.8675 -107.5625 36.1875 C-105.5825 35.5275 -103.6025 34.8675 -101.5625 34.1875 C-101.5625 33.5275 -101.5625 32.8675 -101.5625 32.1875 C-96.15073529 28.1875 -96.15073529 28.1875 -93.5625 28.1875 C-93.5625 27.5275 -93.5625 26.8675 -93.5625 26.1875 C-86.9375 22.1875 -86.9375 22.1875 -83.5625 22.1875 C-83.5625 21.5275 -83.5625 20.8675 -83.5625 20.1875 C-82.31789217 19.51082002 -81.06653104 18.84655281 -79.8125 18.1875 C-78.76835937 17.630625 -78.76835937 17.630625 -77.703125 17.0625 C-75.5625 16.1875 -75.5625 16.1875 -71.5625 16.1875 C-71.5625 15.5275 -71.5625 14.8675 -71.5625 14.1875 C-70.2425 14.1875 -68.9225 14.1875 -67.5625 14.1875 C-67.5625 13.5275 -67.5625 12.8675 -67.5625 12.1875 C-63.38512526 10.59611915 -60.03089215 9.97471942 -55.5625 10.1875 C-55.5625 9.5275 -55.5625 8.8675 -55.5625 8.1875 C-53.5825 8.1875 -51.6025 8.1875 -49.5625 8.1875 C-49.5625 7.5275 -49.5625 6.8675 -49.5625 6.1875 C-47.51171875 5.95963542 -45.4609375 5.73177083 -43.41015625 5.50390625 C-41.55109771 5.36863386 -41.55109771 5.36863386 -40.5625 4.1875 C-38.5052083 3.86826508 -36.44636479 3.67588648 -34.375 3.46875 C-32.5457467 3.36751957 -32.5457467 3.36751957 -31.5625 2.1875 C-21.08248339 0.55965161 -10.59742051 0.00083457 0 0 Z M-29.5625 26.1875 C-29.8925 26.5175 -30.2225 26.8475 -30.5625 27.1875 C-32.295 27.373125 -32.295 27.373125 -34.0625 27.5625 C-37.99528131 28.01036122 -41.4547267 29.03718939 -45.17578125 30.35546875 C-49.25906448 31.77893737 -53.41500091 32.96662866 -57.5625 34.1875 C-57.5625 34.8475 -57.5625 35.5075 -57.5625 36.1875 C-58.26761719 36.125625 -58.97273438 36.06375 -59.69921875 36 C-63.25309289 36.232723 -65.30521726 37.41220396 -68.375 39.1875 C-69.35082031 39.744375 -70.32664062 40.30125 -71.33203125 40.875 C-72.43611328 41.5246875 -72.43611328 41.5246875 -73.5625 42.1875 C-73.5625 42.8475 -73.5625 43.5075 -73.5625 44.1875 C-74.42101562 44.35958984 -74.42101562 44.35958984 -75.296875 44.53515625 C-77.77721656 45.24932356 -79.62618697 46.26057872 -81.8125 47.625 C-82.51890625 48.05683594 -83.2253125 48.48867187 -83.953125 48.93359375 C-84.48421875 49.34738281 -85.0153125 49.76117188 -85.5625 50.1875 C-85.5625 50.8475 -85.5625 51.5075 -85.5625 52.1875 C-86.284375 52.435 -87.00625 52.6825 -87.75 52.9375 C-90.83856582 54.31019592 -93.07261418 55.91103296 -95.5625 58.1875 C-95.5625 58.8475 -95.5625 59.5075 -95.5625 60.1875 C-96.2225 60.1875 -96.8825 60.1875 -97.5625 60.1875 C-97.5625 60.8475 -97.5625 61.5075 -97.5625 62.1875 C-98.2225 62.1875 -98.8825 62.1875 -99.5625 62.1875 C-99.5625 62.8475 -99.5625 63.5075 -99.5625 64.1875 C-100.2225 64.1875 -100.8825 64.1875 -101.5625 64.1875 C-101.5625 64.8475 -101.5625 65.5075 -101.5625 66.1875 C-102.2225 66.1875 -102.8825 66.1875 -103.5625 66.1875 C-103.5625 66.8475 -103.5625 67.5075 -103.5625 68.1875 C-104.2225 68.1875 -104.8825 68.1875 -105.5625 68.1875 C-105.5625 68.8475 -105.5625 69.5075 -105.5625 70.1875 C-106.2225 70.1875 -106.8825 70.1875 -107.5625 70.1875 C-109.15076222 71.90247772 -109.15076222 71.90247772 -110.6875 74.0625 C-111.49574219 75.14144531 -111.49574219 75.14144531 -112.3203125 76.2421875 C-113.74189632 78.08376006 -113.74189632 78.08376006 -113.5625 80.1875 C-114.2225 80.1875 -114.8825 80.1875 -115.5625 80.1875 C-117.1578994 82.09765961 -117.1578994 82.09765961 -118.6875 84.5 C-119.22632812 85.30050781 -119.76515625 86.10101563 -120.3203125 86.92578125 C-121.80319783 89.19568706 -121.80319783 89.19568706 -121.5625 92.1875 C-122.2225 92.1875 -122.8825 92.1875 -123.5625 92.1875 C-125.32712683 95.27559695 -125.5625 96.42062136 -125.5625 100.1875 C-126.2225 100.1875 -126.8825 100.1875 -127.5625 100.1875 C-127.5625 101.5075 -127.5625 102.8275 -127.5625 104.1875 C-128.2225 104.1875 -128.8825 104.1875 -129.5625 104.1875 C-129.5625 105.5075 -129.5625 106.8275 -129.5625 108.1875 C-130.2225 108.1875 -130.8825 108.1875 -131.5625 108.1875 C-131.74425781 108.80496094 -131.92601562 109.42242187 -132.11328125 110.05859375 C-133.57361855 114.9788071 -135.09436694 119.85607554 -136.81640625 124.69140625 C-139.288883 132.96320021 -139.99766951 140.87664972 -140.25 149.5 C-140.28907471 150.72952393 -140.32814941 151.95904785 -140.3684082 153.22583008 C-140.56626307 160.62155852 -140.59663957 167.98407259 -140.25 175.375 C-140.21543701 176.14432861 -140.18087402 176.91365723 -140.14526367 177.70629883 C-139.73306127 184.53288307 -138.42224124 191.17455426 -136.125 197.625 C-134.45851487 202.43740094 -133.00043123 207.30261306 -131.5625 212.1875 C-130.9025 212.1875 -130.2425 212.1875 -129.5625 212.1875 C-129.45035156 212.89261719 -129.33820313 213.59773437 -129.22265625 214.32421875 C-128.49935092 217.46139512 -127.36792309 220.08877906 -126 223 C-125.54496094 223.97582031 -125.08992188 224.95164062 -124.62109375 225.95703125 C-124.27175781 226.69308594 -123.92242187 227.42914063 -123.5625 228.1875 C-122.9025 228.1875 -122.2425 228.1875 -121.5625 228.1875 C-121.3459375 229.115625 -121.3459375 229.115625 -121.125 230.0625 C-120.63097775 232.22008322 -120.63097775 232.22008322 -119.5625 234.1875 C-118.9025 234.1875 -118.2425 234.1875 -117.5625 234.1875 C-117.3459375 235.115625 -117.3459375 235.115625 -117.125 236.0625 C-116.63097775 238.22008322 -116.63097775 238.22008322 -115.5625 240.1875 C-114.9025 240.1875 -114.2425 240.1875 -113.5625 240.1875 C-113.5625 240.8475 -113.5625 241.5075 -113.5625 242.1875 C-112.9025 242.1875 -112.2425 242.1875 -111.5625 242.1875 C-111.315 242.909375 -111.0675 243.63125 -110.8125 244.375 C-109.43980408 247.46356582 -107.83896704 249.69761418 -105.5625 252.1875 C-104.9025 252.1875 -104.2425 252.1875 -103.5625 252.1875 C-103.5625 252.8475 -103.5625 253.5075 -103.5625 254.1875 C-102.9025 254.1875 -102.2425 254.1875 -101.5625 254.1875 C-101.5625 254.8475 -101.5625 255.5075 -101.5625 256.1875 C-100.9025 256.1875 -100.2425 256.1875 -99.5625 256.1875 C-99.5625 256.8475 -99.5625 257.5075 -99.5625 258.1875 C-98.9025 258.1875 -98.2425 258.1875 -97.5625 258.1875 C-97.5625 258.8475 -97.5625 259.5075 -97.5625 260.1875 C-96.9025 260.1875 -96.2425 260.1875 -95.5625 260.1875 C-95.5625 260.8475 -95.5625 261.5075 -95.5625 262.1875 C-93.58798675 263.63226579 -91.64790359 264.92168734 -89.5625 266.1875 C-88.95148438 266.56648437 -88.34046875 266.94546875 -87.7109375 267.3359375 C-83.90714465 269.63420692 -83.90714465 269.63420692 -79.5625 270.1875 C-79.5625 270.8475 -79.5625 271.5075 -79.5625 272.1875 C-77.5825 272.8475 -75.6025 273.5075 -73.5625 274.1875 C-73.5625 274.8475 -73.5625 275.5075 -73.5625 276.1875 C-71.65100332 277.1973473 -69.73308431 278.19504495 -67.8125 279.1875 C-66.74515625 279.744375 -65.6778125 280.30125 -64.578125 280.875 C-61.49936532 282.45354902 -61.49936532 282.45354902 -57.5625 282.1875 C-57.5625 282.8475 -57.5625 283.5075 -57.5625 284.1875 C-50.37059733 287.52115841 -43.34027527 289.18827745 -35.58984375 290.57421875 C-32.5625 291.1875 -32.5625 291.1875 -31.5625 292.1875 C-28.76696508 292.39937212 -25.98712369 292.56398719 -23.1875 292.6875 C-14.96321429 293.05392857 -14.96321429 293.05392857 -11.5625 294.1875 C-10.03209123 294.27982973 -8.49803364 294.31817608 -6.96484375 294.3203125 C-5.63936523 294.32224609 -5.63936523 294.32224609 -4.28710938 294.32421875 C-3.36736328 294.32035156 -2.44761719 294.31648438 -1.5 294.3125 C-0.57638672 294.31636719 0.34722656 294.32023437 1.29882812 294.32421875 C2.18119141 294.32292969 3.06355469 294.32164062 3.97265625 294.3203125 C4.780979 294.31918457 5.58930176 294.31805664 6.42211914 294.31689453 C8.50835844 294.31414883 8.50835844 294.31414883 10.4375 293.1875 C12.12246 293.03196523 13.81082131 292.91228271 15.5 292.8125 C20.14381088 292.43564624 24.06679008 291.49246049 28.421875 289.88671875 C31.05118148 288.97461437 33.6828604 288.54065892 36.4375 288.1875 C36.4375 287.5275 36.4375 286.8675 36.4375 286.1875 C37.10910156 286.25582031 37.78070313 286.32414062 38.47265625 286.39453125 C42.38044209 286.12165556 45.42140965 284.5863005 48.875 282.875 C49.51759766 282.56626953 50.16019531 282.25753906 50.82226562 281.93945312 C54.71404038 280.06270895 58.57662111 278.12689048 62.4375 276.1875 C62.4375 275.5275 62.4375 274.8675 62.4375 274.1875 C63.7575 274.1875 65.0775 274.1875 66.4375 274.1875 C66.4375 273.5275 66.4375 272.8675 66.4375 272.1875 C67.5821875 271.754375 67.5821875 271.754375 68.75 271.3125 C71.58779308 270.22480987 71.58779308 270.22480987 74.4375 268.1875 C74.4375 267.5275 74.4375 266.8675 74.4375 266.1875 C75.118125 265.98125 75.79875 265.775 76.5 265.5625 C80.35389375 263.75854973 83.51537764 261.2864655 86.4375 258.1875 C86.4375 257.5275 86.4375 256.8675 86.4375 256.1875 C87.0975 256.1875 87.7575 256.1875 88.4375 256.1875 C88.4375 255.5275 88.4375 254.8675 88.4375 254.1875 C89.0975 254.1875 89.7575 254.1875 90.4375 254.1875 C90.4375 253.5275 90.4375 252.8675 90.4375 252.1875 C91.0975 252.1875 91.7575 252.1875 92.4375 252.1875 C94.48206059 250.01485345 94.48206059 250.01485345 96.5625 247.3125 C97.28695312 246.40757812 98.01140625 245.50265625 98.7578125 244.5703125 C100.62955234 242.40094189 100.62955234 242.40094189 100.4375 240.1875 C101.0975 240.1875 101.7575 240.1875 102.4375 240.1875 C105.39985695 236.55426311 105.39985695 236.55426311 106.4375 232.1875 C107.0975 232.1875 107.7575 232.1875 108.4375 232.1875 C108.4375 230.8675 108.4375 229.5475 108.4375 228.1875 C109.0975 228.1875 109.7575 228.1875 110.4375 228.1875 C112.7148501 225.37240007 112.7148501 225.37240007 112.4375 222.1875 C113.0975 222.1875 113.7575 222.1875 114.4375 222.1875 C114.74494141 221.33865234 114.74494141 221.33865234 115.05859375 220.47265625 C115.32800781 219.73917969 115.59742188 219.00570312 115.875 218.25 C116.14183594 217.51910156 116.40867187 216.78820312 116.68359375 216.03515625 C117.4375 214.1875 117.4375 214.1875 118.4375 213.1875 C118.47813832 211.52132885 118.480221 209.85361905 118.4375 208.1875 C119.0975 208.1875 119.7575 208.1875 120.4375 208.1875 C122.02888085 204.01012526 122.65028058 200.65589215 122.4375 196.1875 C123.0975 196.1875 123.7575 196.1875 124.4375 196.1875 C124.581875 194.888125 124.72625 193.58875 124.875 192.25 C125.3125 188.3125 125.3125 188.3125 126.4375 187.1875 C126.64646317 185.37938816 126.80530361 183.56533968 126.9375 181.75 C127.32757634 176.40734733 127.32757634 176.40734733 128.4375 174.1875 C128.53488781 172.10597333 128.56826841 170.02130266 128.5703125 167.9375 C128.57224609 166.06578125 128.57224609 166.06578125 128.57421875 164.15625 C128.57035156 162.8465625 128.56648438 161.536875 128.5625 160.1875 C128.56636719 158.8778125 128.57023437 157.568125 128.57421875 156.21875 C128.57292969 154.9709375 128.57164062 153.723125 128.5703125 152.4375 C128.56918457 151.28765625 128.56805664 150.1378125 128.56689453 148.953125 C128.62644568 146.22795525 128.62644568 146.22795525 127.4375 144.1875 C127.20891886 142.1500237 127.02725722 140.10709697 126.875 138.0625 C126.74931641 136.41894531 126.74931641 136.41894531 126.62109375 134.7421875 C126.56050781 133.89914063 126.49992187 133.05609375 126.4375 132.1875 C125.7775 132.1875 125.1175 132.1875 124.4375 132.1875 C124.499375 131.0325 124.56125 129.8775 124.625 128.6875 C124.625 124.78962632 123.79718096 121.91933259 122.3046875 118.3515625 C120.71972069 114.39628496 119.61934071 110.27784231 118.4375 106.1875 C117.7775 106.1875 117.1175 106.1875 116.4375 106.1875 C116.4375 104.8675 116.4375 103.5475 116.4375 102.1875 C115.7775 102.1875 115.1175 102.1875 114.4375 102.1875 C114.4375 100.8675 114.4375 99.5475 114.4375 98.1875 C113.7775 98.1875 113.1175 98.1875 112.4375 98.1875 C112.4375 96.8675 112.4375 95.5475 112.4375 94.1875 C111.7775 94.1875 111.1175 94.1875 110.4375 94.1875 C110.293125 93.56875 110.14875 92.95 110 92.3125 C109.50597775 90.15491678 109.50597775 90.15491678 108.4375 88.1875 C107.7775 88.1875 107.1175 88.1875 106.4375 88.1875 C106.2209375 87.259375 106.2209375 87.259375 106 86.3125 C105.50597775 84.15491678 105.50597775 84.15491678 104.4375 82.1875 C103.7775 82.1875 103.1175 82.1875 102.4375 82.1875 C101.4475 79.2175 101.4475 79.2175 100.4375 76.1875 C99.7775 76.1875 99.1175 76.1875 98.4375 76.1875 C98.4375 75.5275 98.4375 74.8675 98.4375 74.1875 C97.7775 74.1875 97.1175 74.1875 96.4375 74.1875 C96.4375 73.5275 96.4375 72.8675 96.4375 72.1875 C95.7775 72.1875 95.1175 72.1875 94.4375 72.1875 C94.4375 71.5275 94.4375 70.8675 94.4375 70.1875 C93.7775 70.1875 93.1175 70.1875 92.4375 70.1875 C92.4375 69.5275 92.4375 68.8675 92.4375 68.1875 C91.7775 68.1875 91.1175 68.1875 90.4375 68.1875 C90.4375 67.5275 90.4375 66.8675 90.4375 66.1875 C89.7775 66.1875 89.1175 66.1875 88.4375 66.1875 C88.4375 65.5275 88.4375 64.8675 88.4375 64.1875 C87.7775 64.1875 87.1175 64.1875 86.4375 64.1875 C86.4375 63.5275 86.4375 62.8675 86.4375 62.1875 C85.7775 62.1875 85.1175 62.1875 84.4375 62.1875 C84.4375 61.5275 84.4375 60.8675 84.4375 60.1875 C83.7775 60.1875 83.1175 60.1875 82.4375 60.1875 C82.4375 59.5275 82.4375 58.8675 82.4375 58.1875 C81.7775 58.1875 81.1175 58.1875 80.4375 58.1875 C80.4375 57.5275 80.4375 56.8675 80.4375 56.1875 C79.7775 56.1875 79.1175 56.1875 78.4375 56.1875 C78.4375 55.5275 78.4375 54.8675 78.4375 54.1875 C76.4575 53.5275 74.4775 52.8675 72.4375 52.1875 C72.4375 51.5275 72.4375 50.8675 72.4375 50.1875 C71.7775 50.1875 71.1175 50.1875 70.4375 50.1875 C70.4375 49.5275 70.4375 48.8675 70.4375 48.1875 C68.4575 47.5275 66.4775 46.8675 64.4375 46.1875 C64.4375 45.5275 64.4375 44.8675 64.4375 44.1875 C63.1175 44.1875 61.7975 44.1875 60.4375 44.1875 C60.4375 43.5275 60.4375 42.8675 60.4375 42.1875 C58.71593904 41.17446238 56.98488194 40.17755152 55.25 39.1875 C54.28707031 38.630625 53.32414063 38.07375 52.33203125 37.5 C49.38861257 36.16533242 47.61869943 35.90834539 44.4375 36.1875 C44.4375 35.5275 44.4375 34.8675 44.4375 34.1875 C40.3169254 32.18964565 36.98555635 32.00914485 32.4375 32.1875 C32.4375 31.5275 32.4375 30.8675 32.4375 30.1875 C29.7975 30.1875 27.1575 30.1875 24.4375 30.1875 C24.4375 29.5275 24.4375 28.8675 24.4375 28.1875 C23.73882812 28.12691406 23.04015625 28.06632812 22.3203125 28.00390625 C21.41023437 27.92011719 20.50015625 27.83632812 19.5625 27.75 C18.65757812 27.66878906 17.75265625 27.58757812 16.8203125 27.50390625 C14.4375 27.1875 14.4375 27.1875 12.4375 26.1875 C8.40714981 25.80973285 4.35703193 25.71257852 0.3125 25.5625 C-0.85917725 25.51818848 -2.03085449 25.47387695 -3.23803711 25.42822266 C-12.03605095 25.14119268 -20.81599106 25.04166913 -29.5625 26.1875 Z " fill="#6695AA" transform="translate(224.5625,58.8125)"/>
<path d="M0 0 C0 0.33 0 0.66 0 1 C-1.25296875 1.07476562 -2.5059375 1.14953125 -3.796875 1.2265625 C-5.44803428 1.35790472 -7.09907064 1.49079869 -8.75 1.625 C-9.575 1.67011719 -10.4 1.71523438 -11.25 1.76171875 C-15.74015485 2.16003894 -17.42659001 2.36521585 -20.5546875 5.828125 C-22.72826601 10.59824866 -22.93980674 14.38196693 -21.125 19.4375 C-20.06925899 21.15893274 -20.06925899 21.15893274 -18 22 C-18 22.66 -18 23.32 -18 24 C-16.68 24.33 -15.36 24.66 -14 25 C-19.1062806 26.20620801 -24.25132094 26.35745716 -29.46875 26.60546875 C-33.03404255 26.48083717 -33.03404255 26.48083717 -36 28 C-37.155 28.12375 -38.31 28.2475 -39.5 28.375 C-44.2598077 28.91239764 -48.51616309 30.36951385 -53 32 C-56.76664664 33.35030729 -58.95322734 34 -63 34 C-63 34.66 -63 35.32 -63 36 C-63.60328125 36.18175781 -64.2065625 36.36351562 -64.828125 36.55078125 C-69.13046712 37.90393724 -72.45850489 39.13956164 -76 42 C-76.99 42 -77.98 42 -79 42 C-79 42.66 -79 43.32 -79 44 C-80.43570266 44.81567174 -81.87363434 45.62742093 -83.3125 46.4375 C-84.51326172 47.11619141 -84.51326172 47.11619141 -85.73828125 47.80859375 C-88 49 -88 49 -91 50 C-91 50.66 -91 51.32 -91 52 C-92.6796875 53.5078125 -92.6796875 53.5078125 -94.875 55.125 C-95.59429687 55.66382813 -96.31359375 56.20265625 -97.0546875 56.7578125 C-99 58 -99 58 -101 58 C-101 58.66 -101 59.32 -101 60 C-101.66 60 -102.32 60 -103 60 C-103 60.66 -103 61.32 -103 62 C-103.66 62 -104.32 62 -105 62 C-105 62.66 -105 63.32 -105 64 C-105.66 64 -106.32 64 -107 64 C-107 64.66 -107 65.32 -107 66 C-107.66 66 -108.32 66 -109 66 C-109 66.66 -109 67.32 -109 68 C-109.66 68 -110.32 68 -111 68 C-111 68.66 -111 69.32 -111 70 C-111.66 70 -112.32 70 -113 70 C-113.2475 70.53625 -113.495 71.0725 -113.75 71.625 C-115.30652537 74.5823982 -117.03435673 77.29724051 -119 80 C-119.66 80 -120.32 80 -121 80 C-121.37125 81.0209375 -121.37125 81.0209375 -121.75 82.0625 C-123.24197908 85.56865083 -125.06835511 88.71620368 -127 92 C-127.66 92 -128.32 92 -129 92 C-129.144375 92.5775 -129.28875 93.155 -129.4375 93.75 C-129.95833333 95.83333333 -130.47916667 97.91666667 -131 100 C-131.66 100 -132.32 100 -133 100 C-133 101.32 -133 102.64 -133 104 C-133.66 104 -134.32 104 -135 104 C-135 105.32 -135 106.64 -135 108 C-135.66 108 -136.32 108 -137 108 C-136.9071875 109.0209375 -136.9071875 109.0209375 -136.8125 110.0625 C-137.01064909 113.16683568 -137.96148714 115.31986162 -139.20483398 118.13696289 C-146.69815869 135.69347526 -145.52583094 156.51085094 -144.6875 175.1875 C-144.65309814 175.95739258 -144.61869629 176.72728516 -144.58325195 177.52050781 C-144.16348284 184.44172828 -142.79506366 191.13908467 -140.5 197.6875 C-140.24605469 198.42742187 -139.99210937 199.16734375 -139.73046875 199.9296875 C-139.09670088 201.72592799 -138.45528552 203.51946671 -137.8125 205.3125 C-137 208 -137 208 -137 212 C-136.34 212 -135.68 212 -135 212 C-134.566875 213.216875 -134.13375 214.43375 -133.6875 215.6875 C-132.72224123 218.28910222 -131.75099819 220.41500302 -130.3125 222.8125 C-129 225 -129 225 -129 228 C-128.34 228 -127.68 228 -127 228 C-126.34 229.98 -125.68 231.96 -125 234 C-124.34 234 -123.68 234 -123 234 C-122.34 235.98 -121.68 237.96 -121 240 C-120.34 240 -119.68 240 -119 240 C-119 240.66 -119 241.32 -119 242 C-118.34 242 -117.68 242 -117 242 C-114.67980703 245.19026533 -112.65356922 248.41726669 -111 252 C-110.34 252 -109.68 252 -109 252 C-109 252.66 -109 253.32 -109 254 C-108.34 254 -107.68 254 -107 254 C-107 254.66 -107 255.32 -107 256 C-106.34 256 -105.68 256 -105 256 C-105 256.66 -105 257.32 -105 258 C-104.34 258 -103.68 258 -103 258 C-103 258.66 -103 259.32 -103 260 C-102.34 260 -101.68 260 -101 260 C-101 260.66 -101 261.32 -101 262 C-100.38125 262.28875 -99.7625 262.5775 -99.125 262.875 C-97 264 -97 264 -95 266 C-98.3 266 -101.6 266 -105 266 C-105 266.66 -105 267.32 -105 268 C-105.66 268 -106.32 268 -107 268 C-107 268.66 -107 269.32 -107 270 C-107.66 270 -108.32 270 -109 270 C-109 271.32 -109 272.64 -109 274 C-109.66 274 -110.32 274 -111 274 C-111 277.3 -111 280.6 -111 284 C-117.25 279.5078125 -117.25 279.5078125 -119 278 C-119 277.34 -119 276.68 -119 276 C-119.66 276 -120.32 276 -121 276 C-121 275.34 -121 274.68 -121 274 C-121.66 274 -122.32 274 -123 274 C-123 273.34 -123 272.68 -123 272 C-123.66 272 -124.32 272 -125 272 C-125 271.34 -125 270.68 -125 270 C-125.66 270 -126.32 270 -127 270 C-127 269.34 -127 268.68 -127 268 C-127.66 268 -128.32 268 -129 268 C-129 267.34 -129 266.68 -129 266 C-129.66 266 -130.32 266 -131 266 C-131 265.34 -131 264.68 -131 264 C-131.66 264 -132.32 264 -133 264 C-137 258.58823529 -137 258.58823529 -137 256 C-137.66 256 -138.32 256 -139 256 C-143 250.58823529 -143 250.58823529 -143 248 C-143.66 248 -144.32 248 -145 248 C-145.67154933 246.71086513 -146.33708859 245.41859796 -147 244.125 C-147.37125 243.40570313 -147.7425 242.68640625 -148.125 241.9453125 C-149 240 -149 240 -149 238 C-149.66 238 -150.32 238 -151 238 C-151 236.68 -151 235.36 -151 234 C-151.66 234 -152.32 234 -153 234 C-153 232.68 -153 231.36 -153 230 C-153.66 230 -154.32 230 -155 230 C-155 228.68 -155 227.36 -155 226 C-155.66 226 -156.32 226 -157 226 C-158.60355101 222.49223216 -159.22036864 219.85645121 -159 216 C-159.66 216 -160.32 216 -161 216 C-161 214.02 -161 212.04 -161 210 C-161.66 210 -162.32 210 -163 210 C-163 208.02 -163 206.04 -163 204 C-163.66 204 -164.32 204 -165 204 C-165.144375 202.865625 -165.28875 201.73125 -165.4375 200.5625 C-165.61171478 197.19222799 -165.61171478 197.19222799 -167 196 C-168.92488844 189.36815778 -169.33642928 182.56726718 -169.65820312 175.71069336 C-169.85080203 171.73342768 -170.31901575 167.91981179 -171 164 C-171.08321165 162.66861361 -171.13055822 161.33397264 -171.125 160 C-171.12757813 159.38125 -171.13015625 158.7625 -171.1328125 158.125 C-171 156 -171 156 -170.51953125 153.234375 C-169.9317798 149.57529079 -169.73591535 145.94525116 -169.5625 142.25 C-168.66050219 125.66050219 -168.66050219 125.66050219 -166 123 C-165.814375 121.453125 -165.814375 121.453125 -165.625 119.875 C-165.08324899 116.51614373 -164.24042626 114.01742113 -162.82421875 110.95703125 C-161.50594645 107.82691551 -160.63912974 104.57115319 -159.6953125 101.3125 C-158.94195306 98.80694502 -158.04024318 96.40056119 -157 94 C-156.34 94 -155.68 94 -155 94 C-155 92.68 -155 91.36 -155 90 C-154.34 90 -153.68 90 -153 90 C-153 88.68 -153 87.36 -153 86 C-152.34 86 -151.68 86 -151 86 C-151 84.68 -151 83.36 -151 82 C-150.34 82 -149.68 82 -149 82 C-148.896875 81.46375 -148.79375 80.9275 -148.6875 80.375 C-147.81907303 77.37497956 -146.44379704 74.7620465 -145 72 C-144.34 72 -143.68 72 -143 72 C-142.34 70.02 -141.68 68.04 -141 66 C-140.34 66 -139.68 66 -139 66 C-139 65.34 -139 64.68 -139 64 C-138.34 64 -137.68 64 -137 64 C-136.7525 63.278125 -136.505 62.55625 -136.25 61.8125 C-134.87730408 58.72393418 -133.27646704 56.48988582 -131 54 C-130.34 54 -129.68 54 -129 54 C-129 53.34 -129 52.68 -129 52 C-128.34 52 -127.68 52 -127 52 C-127 51.34 -127 50.68 -127 50 C-126.34 50 -125.68 50 -125 50 C-125 49.34 -125 48.68 -125 48 C-124.34 48 -123.68 48 -123 48 C-123 47.34 -123 46.68 -123 46 C-122.34 46 -121.68 46 -121 46 C-121 45.34 -121 44.68 -121 44 C-120.34 44 -119.68 44 -119 44 C-119 43.34 -119 42.68 -119 42 C-118.34 42 -117.68 42 -117 42 C-117 41.34 -117 40.68 -117 40 C-116.34 40 -115.68 40 -115 40 C-115 39.34 -115 38.68 -115 38 C-114.34 38 -113.68 38 -113 38 C-113 37.34 -113 36.68 -113 36 C-111.02 35.34 -109.04 34.68 -107 34 C-107 33.34 -107 32.68 -107 32 C-101.58823529 28 -101.58823529 28 -99 28 C-99 27.34 -99 26.68 -99 26 C-92.375 22 -92.375 22 -89 22 C-89 21.34 -89 20.68 -89 20 C-87.75539217 19.32332002 -86.50403104 18.65905281 -85.25 18 C-84.20585937 17.443125 -84.20585937 17.443125 -83.140625 16.875 C-81 16 -81 16 -77 16 C-77 15.34 -77 14.68 -77 14 C-75.68 14 -74.36 14 -73 14 C-73 13.34 -73 12.68 -73 12 C-68.82262526 10.40861915 -65.46839215 9.78721942 -61 10 C-61 9.34 -61 8.68 -61 8 C-59.02 8 -57.04 8 -55 8 C-55 7.34 -55 6.68 -55 6 C-52.94921875 5.77213542 -50.8984375 5.54427083 -48.84765625 5.31640625 C-46.98859771 5.18113386 -46.98859771 5.18113386 -46 4 C-43.9427083 3.68076508 -41.88386479 3.48838648 -39.8125 3.28125 C-37.9832467 3.18001957 -37.9832467 3.18001957 -37 2 C-34.18437507 1.58388283 -31.39143979 1.23470272 -28.5625 0.9375 C-27.72098389 0.84807129 -26.87946777 0.75864258 -26.01245117 0.66650391 C-17.3330309 -0.18212178 -8.71047165 -0.18732197 0 0 Z " fill="#D0D0D0" transform="translate(230,59)"/>
<path d="M0 0 C3.69803586 4.57802174 5.24867722 9.43236191 7 15 C7.36609375 16.16015625 7.7321875 17.3203125 8.109375 18.515625 C13.16471547 36.15851486 14.41687977 58.07418388 10 76 C9.01 76.99 9.01 76.99 8 78 C7.875 70.25 7.875 70.25 9 68 C9.09738781 65.91847333 9.13076841 63.83380266 9.1328125 61.75 C9.13410156 60.5021875 9.13539063 59.254375 9.13671875 57.96875 C9.13285156 56.6590625 9.12898438 55.349375 9.125 54 C9.12886719 52.6903125 9.13273437 51.380625 9.13671875 50.03125 C9.13542969 48.7834375 9.13414062 47.535625 9.1328125 46.25 C9.13168457 45.10015625 9.13055664 43.9503125 9.12939453 42.765625 C9.18894568 40.04045525 9.18894568 40.04045525 8 38 C7.92934383 35.95944995 7.91578024 33.91665743 7.9375 31.875 C7.94652344 30.77929688 7.95554687 29.68359375 7.96484375 28.5546875 C7.97644531 27.71164063 7.98804688 26.86859375 8 26 C7.34 26 6.68 26 6 26 C5.896875 24.845 5.79375 23.69 5.6875 22.5 C5.01127331 17.04188457 3.0206897 12.30998196 0.8125 7.3125 C-0.08995044 4.74398721 -0.1544446 2.70278046 0 0 Z " fill="#AAC3CE" transform="translate(343,165)"/>
<path d="M0 0 C-5.55288156 3.51940736 -10.40600685 3.43751488 -16.76171875 3.3984375 C-17.78932816 3.40130768 -18.81693756 3.40417786 -19.87568665 3.40713501 C-22.0399328 3.40917059 -24.20419756 3.40367624 -26.3684082 3.39111328 C-29.68677594 3.37500352 -33.00393478 3.39100495 -36.32226562 3.41015625 C-38.42708603 3.4081747 -40.53190567 3.40433284 -42.63671875 3.3984375 C-43.63048019 3.40451019 -44.62424164 3.41058289 -45.64811707 3.4168396 C-47.03019096 3.40265488 -47.03019096 3.40265488 -48.44018555 3.38818359 C-49.25037643 3.38579681 -50.06056732 3.38341003 -50.89530945 3.38095093 C-53.47183637 2.91459718 -54.36228554 1.98914836 -56 0 C-53.20826484 -0.02736995 -50.41680696 -0.04701454 -47.625 -0.0625 C-46.46291016 -0.07506836 -46.46291016 -0.07506836 -45.27734375 -0.08789062 C-41.1849911 -0.10480117 -37.23412985 0.05791021 -33.171875 0.56640625 C-27.24572035 1.21787934 -21.53428122 0.61357185 -15.625 0 C-13.51363372 -0.21445558 -11.40166074 -0.42304092 -9.2890625 -0.625 C-8.36818848 -0.72039062 -7.44731445 -0.81578125 -6.49853516 -0.9140625 C-4.08986825 -0.99690897 -2.28679855 -0.71700733 0 0 Z " fill="#487B90" transform="translate(249,376)"/>
<path d="M0 0 C0.66 0 1.32 0 2 0 C2.20496094 0.99902344 2.40992188 1.99804688 2.62109375 3.02734375 C2.89050781 4.31769531 3.15992188 5.60804688 3.4375 6.9375 C3.70433594 8.22527344 3.97117187 9.51304687 4.24609375 10.83984375 C4.67181616 13.84638879 4.67181616 13.84638879 6 15 C6.20896317 16.80811184 6.36780361 18.62216032 6.5 20.4375 C6.71419183 24.36434915 6.71419183 24.36434915 8 28 C8.08902493 29.35845193 8.11760132 30.72115974 8.11352539 32.08251953 C8.11344986 32.92324005 8.11337433 33.76396057 8.11329651 34.63015747 C8.10555458 35.99272171 8.10555458 35.99272171 8.09765625 37.3828125 C8.0962413 38.31221649 8.09482635 39.24162048 8.09336853 40.19918823 C8.08776053 43.17449124 8.07520668 46.14971964 8.0625 49.125 C8.05748603 51.13932183 8.05292295 53.15364484 8.04882812 55.16796875 C8.0377885 60.11200802 8.02051849 65.05599135 8 70 C7.01 70.495 7.01 70.495 6 71 C6.01047363 70.2972998 6.02094727 69.59459961 6.03173828 68.87060547 C6.29967357 48.00896049 5.86057211 27.87141096 0.8046875 7.5546875 C0 4 0 4 0 0 Z " fill="#97B4C2" transform="translate(371,171)"/>
<path d="M0 0 C0.75410156 0.00451172 1.50820312 0.00902344 2.28515625 0.01367188 C4.14847127 0.02546501 6.01174555 0.04340058 7.875 0.0625 C7.875 0.3925 7.875 0.7225 7.875 1.0625 C1.57404617 3.1897451 -4.64188005 3.73336517 -11.25 4.25 C-12.32121094 4.34474609 -13.39242187 4.43949219 -14.49609375 4.53710938 C-16.04876953 4.66375977 -16.04876953 4.66375977 -17.6328125 4.79296875 C-18.56754395 4.86926514 -19.50227539 4.94556152 -20.46533203 5.02416992 C-23.18908927 5.06342363 -25.47199283 4.64429285 -28.125 4.0625 C-29.670681 3.92521858 -31.21952221 3.8199037 -32.76953125 3.74609375 C-34.03120117 3.68325195 -34.03120117 3.68325195 -35.31835938 3.61914062 C-36.18267578 3.57982422 -37.04699219 3.54050781 -37.9375 3.5 C-38.82115234 3.45681641 -39.70480469 3.41363281 -40.61523438 3.36914062 C-42.78499623 3.26358464 -44.9549791 3.16258929 -47.125 3.0625 C-47.125 2.7325 -47.125 2.4025 -47.125 2.0625 C-46.01463379 2.03744385 -44.90426758 2.0123877 -43.76025391 1.98657227 C-39.64896681 1.89255085 -35.53785077 1.79231743 -31.42675781 1.69018555 C-29.64587397 1.6468167 -27.86494802 1.60514306 -26.08398438 1.56518555 C-23.52721452 1.5075301 -20.97065702 1.4438223 -18.4140625 1.37890625 C-17.61505524 1.36219376 -16.81604797 1.34548126 -15.99282837 1.32826233 C-10.47296812 1.17960942 -5.60073618 -0.06287528 0 0 Z " fill="#43778D" transform="translate(243.125,350.9375)"/>
<path d="M0 0 C0.33 0 0.66 0 1 0 C2.75109393 32.83474158 2.75109393 32.83474158 0 44 C-0.66 44.66 -1.32 45.32 -2 46 C-2.125 38.25 -2.125 38.25 -1 36 C-0.84323225 33.30344554 -0.74163685 30.62870023 -0.68359375 27.9296875 C-0.66281265 27.13345978 -0.64203156 26.33723206 -0.62062073 25.51687622 C-0.55515851 22.96967315 -0.49625585 20.42236575 -0.4375 17.875 C-0.3943116 16.14972873 -0.35069721 14.42446807 -0.30664062 12.69921875 C-0.19948055 8.46625315 -0.09820377 4.23318247 0 0 Z " fill="#8DAEBD" transform="translate(353,197)"/>
<path d="M0 0 C0.66 0 1.32 0 2 0 C2.20496094 0.99902344 2.40992188 1.99804688 2.62109375 3.02734375 C2.89050781 4.31769531 3.15992188 5.60804688 3.4375 6.9375 C3.70433594 8.22527344 3.97117187 9.51304687 4.24609375 10.83984375 C4.67181616 13.84638879 4.67181616 13.84638879 6 15 C6.20896317 16.80811184 6.36780361 18.62216032 6.5 20.4375 C6.71419183 24.36434915 6.71419183 24.36434915 8 28 C8.06996014 29.70702735 8.08440154 31.41668003 8.0625 33.125 C8.05347656 34.03507812 8.04445313 34.94515625 8.03515625 35.8828125 C8.02355469 36.58148438 8.01195312 37.28015625 8 38 C7.67 38 7.34 38 7 38 C6.77213542 35.94921875 6.54427083 33.8984375 6.31640625 31.84765625 C6.18113386 29.98859771 6.18113386 29.98859771 5 29 C4.6447027 27.45453137 4.34175514 25.89693911 4.0625 24.3359375 C3.88976562 23.37816406 3.71703125 22.42039063 3.5390625 21.43359375 C3.27222656 19.91958984 3.27222656 19.91958984 3 18.375 C2.73316406 16.89580078 2.73316406 16.89580078 2.4609375 15.38671875 C1.54520372 10.26817694 0.69290646 5.15349183 0 0 Z " fill="#ACC4CF" transform="translate(371,171)"/>
<path d="M0 0 C-1.0197648 2.78117672 -1.66391238 3.81833102 -4.3125 5.25 C-7.01833686 6.00511726 -9.20707882 6.1595955 -12 6 C-12 6.66 -12 7.32 -12 8 C-15.96 8 -19.92 8 -24 8 C-24 7.67 -24 7.34 -24 7 C-23.24976563 6.82984375 -22.49953125 6.6596875 -21.7265625 6.484375 C-15.55893133 5.02402908 -9.78177074 3.28435726 -3.9609375 0.76953125 C-2 0 -2 0 0 0 Z " fill="#538397" transform="translate(281,365)"/>
<path d="M0 0 C-3.10769684 2.59470382 -6.04243682 3.91485498 -9.875 5.1875 C-10.88304687 5.53167969 -11.89109375 5.87585938 -12.9296875 6.23046875 C-16.07721603 7.01935313 -18.76942479 7.13983087 -22 7 C-22 6.34 -22 5.68 -22 5 C-19.29120665 3.64560332 -16.99066732 3.93498549 -14 4 C-14 3.34 -14 2.68 -14 2 C-9.07262981 0.02905192 -5.21979128 -0.1799928 0 0 Z " fill="#668FA1" transform="translate(275,343)"/>
<path d="M0 0 C1.65 0 3.3 0 5 0 C4.21625 0.680625 3.4325 1.36125 2.625 2.0625 C-0.38188685 5.42734957 -1.29947434 7.56333746 -2 12 C-1.24759241 15.34819954 -1.24759241 15.34819954 0 18 C-1.32 18 -2.64 18 -4 18 C-4 14.04 -4 10.08 -4 6 C-3.34 6 -2.68 6 -2 6 C-2 4.68 -2 3.36 -2 2 C-1.34 2 -0.68 2 0 2 C0 1.34 0 0.68 0 0 Z " fill="#5A8597" transform="translate(123,327)"/>
<path d="M0 0 C0.6290625 0.19335938 1.258125 0.38671875 1.90625 0.5859375 C7.24216385 2.2092125 12.57759268 3.69460565 18 5 C18 5.66 18 6.32 18 7 C14.04 6.67 10.08 6.34 6 6 C6 5.34 6 4.68 6 4 C3.03 3.505 3.03 3.505 0 3 C0 2.01 0 1.02 0 0 Z " fill="#4B7E93" transform="translate(157,365)"/>
<path d="M0 0 C0.82693359 0.00451172 1.65386719 0.00902344 2.50585938 0.01367188 C4.52477146 0.02534189 6.54364574 0.04327282 8.5625 0.0625 C8.5625 0.3925 8.5625 0.7225 8.5625 1.0625 C7.29792969 1.18367188 6.03335938 1.30484375 4.73046875 1.4296875 C3.07026802 1.59852147 1.41011411 1.76781633 -0.25 1.9375 C-1.50006836 2.05544922 -1.50006836 2.05544922 -2.77539062 2.17578125 C-3.57783203 2.25957031 -4.38027344 2.34335937 -5.20703125 2.4296875 C-6.31461792 2.53966064 -6.31461792 2.53966064 -7.44458008 2.65185547 C-9.74388653 2.9956578 -9.74388653 2.9956578 -12.4375 5.0625 C-12.4375 4.0725 -12.4375 3.0825 -12.4375 2.0625 C-13.7575 1.7325 -15.0775 1.4025 -16.4375 1.0625 C-10.91041389 0.12029874 -5.59991648 -0.05866149 0 0 Z " fill="#D4E0E6" transform="translate(221.4375,58.9375)"/>
<path d="M0 0 C3.9774516 4.35625651 5.83176221 10.25211604 6.1875 16.0625 C6.125625 16.701875 6.06375 17.34125 6 18 C5.34 17.67 4.68 17.34 4 17 C3.18359375 14.53125 3.18359375 14.53125 2.4375 11.5 C1.79159388 7.95211183 1.79159388 7.95211183 0 5 C-0.04063832 3.33382885 -0.042721 1.66611905 0 0 Z " fill="#B3C9D4" transform="translate(343,165)"/>
<path d="M0 0 C1.32 0.33 2.64 0.66 4 1 C4 1.66 4 2.32 4 3 C5.98 3.66 7.96 4.32 10 5 C10 5.33 10 5.66 10 6 C6.67179946 6.22692276 4.58198664 6.32162419 1.625 4.6875 C0 3 0 3 0 0 Z " fill="#59879A" transform="translate(131,351)"/>
<path d="M0 0 C1.6266848 0.28211877 3.25132896 0.57602375 4.875 0.875 C5.77992188 1.03742188 6.68484375 1.19984375 7.6171875 1.3671875 C10 2 10 2 12 4 C3.42857143 4.14285714 3.42857143 4.14285714 0 3 C0 2.01 0 1.02 0 0 Z " fill="#769AAA" transform="translate(173,345)"/>
<path d="M0 0 C0 0.99 0 1.98 0 3 C-3.96 3 -7.92 3 -12 3 C-12 2.67 -12 2.34 -12 2 C-7.8803623 0.70756464 -4.33168317 -0.26252625 0 0 Z " fill="#4B7E93" transform="translate(269,370)"/>
<path d="M0 0 C2.64 0 5.28 0 8 0 C4.79663178 2.83374881 2.21912747 3.5205537 -2 4 C-1.34 2.68 -0.68 1.36 0 0 Z " fill="#548397" transform="translate(267,343)"/>
<path d="M0 0 C2.64 0 5.28 0 8 0 C8.66 1.32 9.32 2.64 10 4 C6.7 3.01 3.4 2.02 0 1 C0 0.67 0 0.34 0 0 Z " fill="#508095" transform="translate(163,343)"/>
<path d="M0 0 C1.65 0 3.3 0 5 0 C4.21625 0.763125 3.4325 1.52625 2.625 2.3125 C-0.07257717 4.90891805 -0.07257717 4.90891805 -2 8 C-2 6.02 -2 4.04 -2 2 C-1.34 2 -0.68 2 0 2 C0 1.34 0 0.68 0 0 Z " fill="#45778D" transform="translate(123,327)"/>
</svg>
