<?xml version="1.0" encoding="UTF-8"?>
<svg xmlns="http://www.w3.org/2000/svg" xmlns:xlink="http://www.w3.org/1999/xlink" width="128px" height="128px" viewBox="0 0 128 127" version="1.1">
<g id="surface1">
<path style=" stroke:none;fill-rule:nonzero;fill:rgb(94.901961%,63.137257%,31.37255%);fill-opacity:1;" d="M 61.539062 4.585938 C 55.789062 14.066406 53.589844 23.339844 55.050781 31.929688 C 55.871094 36.742188 57.78125 41.371094 60.828125 45.917969 C 61.519531 46.941406 62.339844 48.082031 62.609375 48.390625 C 62.648438 48.4375 62.828125 48.308594 63 48.113281 C 63.21875 47.875 63.410156 47.753906 63.589844 47.753906 C 63.730469 47.753906 63.988281 47.625 64.160156 47.476562 C 64.988281 46.761719 67.339844 42.761719 68.5 40.078125 C 70.078125 36.394531 71 32.464844 71.140625 28.742188 C 71.199219 27.164062 71.070312 23.640625 70.910156 22.765625 C 70.851562 22.449219 70.730469 21.742188 70.640625 21.195312 C 70.46875 20.152344 70 18.136719 69.75 17.363281 C 69.671875 17.105469 69.601562 16.828125 69.601562 16.738281 C 69.601562 16.660156 69.539062 16.441406 69.460938 16.261719 C 69.390625 16.082031 69.230469 15.617188 69.109375 15.238281 C 68.980469 14.851562 68.851562 14.457031 68.800781 14.347656 C 68.390625 13.402344 68.300781 13.15625 68.300781 13.015625 C 68.300781 12.925781 68.230469 12.765625 68.148438 12.667969 C 68.070312 12.558594 68 12.398438 68 12.3125 C 68 12.222656 67.871094 11.882812 67.699219 11.566406 C 67.539062 11.25 67.398438 10.929688 67.398438 10.859375 C 67.398438 10.800781 67.328125 10.691406 67.25 10.621094 C 67.171875 10.554688 67.101562 10.414062 67.101562 10.316406 C 67.101562 10.226562 67.039062 10.078125 66.960938 10.007812 C 66.890625 9.929688 66.789062 9.71875 66.75 9.550781 C 66.71875 9.371094 66.640625 9.234375 66.589844 9.234375 C 66.539062 9.234375 66.5 9.171875 66.5 9.105469 C 66.5 8.914062 66.101562 8.199219 65.941406 8.109375 C 65.859375 8.070312 65.800781 7.921875 65.800781 7.785156 C 65.800781 7.65625 65.730469 7.515625 65.648438 7.484375 C 65.570312 7.445312 65.53125 7.386719 65.550781 7.335938 C 65.578125 7.289062 65.519531 7.179688 65.398438 7.078125 C 65.289062 6.980469 65.199219 6.800781 65.199219 6.671875 C 65.199219 6.550781 65.128906 6.421875 65.050781 6.394531 C 64.96875 6.355469 64.898438 6.253906 64.898438 6.144531 C 64.898438 6.046875 64.789062 5.796875 64.648438 5.597656 C 64.511719 5.402344 64.398438 5.273438 64.398438 5.320312 C 64.398438 5.402344 64.160156 5.054688 63.171875 3.496094 C 62.910156 3.109375 62.691406 2.78125 62.671875 2.78125 C 62.648438 2.78125 62.148438 3.59375 61.539062 4.585938 Z M 61.539062 4.585938 "/>
<path style=" stroke:none;fill-rule:nonzero;fill:rgb(94.901961%,63.137257%,31.37255%);fill-opacity:1;" d="M 105.050781 20.222656 C 93.429688 22.882812 85.511719 27.371094 79.929688 34.449219 C 78.871094 35.789062 77.558594 37.933594 76.601562 39.859375 C 75.199219 42.671875 74.390625 44.945312 73.699219 47.953125 C 73.390625 49.304688 72.859375 52.3125 72.921875 52.371094 C 72.941406 52.390625 73.289062 52.359375 73.699219 52.3125 C 74.109375 52.261719 74.738281 52.242188 75.101562 52.28125 C 75.828125 52.351562 76.390625 52.261719 78.5 51.773438 C 86.53125 49.917969 93.101562 45.730469 97.808594 39.464844 C 99.351562 37.429688 100.238281 35.949219 101.550781 33.308594 C 102.988281 30.410156 104.21875 27.144531 105 24.125 C 105.328125 22.875 105.351562 22.597656 105.191406 22.03125 C 105.078125 21.683594 105.171875 20.800781 105.371094 20.292969 C 105.421875 20.152344 105.390625 20.144531 105.050781 20.222656 Z M 105.050781 20.222656 "/>
<path style=" stroke:none;fill-rule:nonzero;fill:rgb(94.901961%,63.137257%,31.37255%);fill-opacity:1;" d="M 20.199219 20.621094 C 20.199219 20.828125 20.761719 23.132812 21.109375 24.324219 C 23.429688 32.375 26.839844 38.511719 31.589844 43.1875 C 36.550781 48.0625 42.78125 51.121094 50.5 52.46875 C 51.289062 52.609375 52.109375 52.71875 52.308594 52.71875 C 52.648438 52.71875 52.691406 52.6875 52.761719 52.390625 C 52.859375 51.953125 52.820312 51.457031 52.578125 50.285156 C 52.46875 49.738281 52.339844 49.085938 52.300781 48.816406 C 52.25 48.558594 52.160156 48.199219 52.109375 48.023438 C 52.050781 47.851562 51.910156 47.347656 51.800781 46.910156 C 51.679688 46.472656 51.539062 45.976562 51.488281 45.816406 C 51.429688 45.648438 51.339844 45.371094 51.300781 45.183594 C 51.25 45.003906 51.171875 44.804688 51.109375 44.746094 C 51.050781 44.6875 51 44.515625 51 44.367188 C 51 44.21875 50.929688 44.03125 50.851562 43.941406 C 50.769531 43.863281 50.699219 43.695312 50.699219 43.5625 C 50.699219 43.433594 50.628906 43.238281 50.550781 43.128906 C 50.46875 43.027344 50.398438 42.871094 50.398438 42.789062 C 50.398438 42.710938 50.308594 42.460938 50.199219 42.242188 C 50.089844 42.027344 50.011719 41.789062 50 41.71875 C 50 41.660156 49.960938 41.597656 49.898438 41.597656 C 49.851562 41.597656 49.800781 41.519531 49.800781 41.421875 C 49.800781 41.332031 49.710938 41.113281 49.601562 40.953125 C 49.488281 40.785156 49.398438 40.585938 49.398438 40.496094 C 49.398438 40.40625 49.328125 40.308594 49.25 40.269531 C 49.171875 40.238281 49.101562 40.097656 49.101562 39.960938 C 49.101562 39.820312 49.03125 39.683594 48.949219 39.652344 C 48.871094 39.613281 48.800781 39.515625 48.800781 39.414062 C 48.800781 39.316406 48.730469 39.214844 48.648438 39.175781 C 48.570312 39.144531 48.5 39.039062 48.5 38.929688 C 48.5 38.820312 48.429688 38.667969 48.351562 38.582031 C 48.269531 38.5 48.199219 38.390625 48.199219 38.332031 C 48.199219 38.273438 48.160156 38.222656 48.109375 38.222656 C 48.019531 38.222656 47.871094 37.894531 47.851562 37.695312 C 47.851562 37.65625 47.808594 37.585938 47.75 37.546875 C 47.699219 37.507812 47.46875 37.210938 47.25 36.882812 C 44.628906 32.960938 41.058594 29.488281 37 26.933594 C 32.710938 24.234375 27.261719 22.070312 21.429688 20.757812 C 20.429688 20.53125 20.199219 20.511719 20.199219 20.621094 Z M 20.199219 20.621094 "/>
<path style=" stroke:none;fill-rule:nonzero;fill:rgb(94.901961%,63.137257%,31.37255%);fill-opacity:1;" d="M 96.398438 54.476562 C 90.261719 55.070312 84.871094 57.105469 79.199219 60.9375 C 78.460938 61.433594 77.699219 61.972656 77.511719 62.128906 L 77.179688 62.417969 L 78.308594 63.242188 C 83.089844 66.746094 88.519531 69.140625 93.75 70.03125 C 94.789062 70.210938 97.058594 70.46875 97.980469 70.507812 C 98.320312 70.519531 98.601562 70.570312 98.601562 70.609375 C 98.601562 70.71875 100.390625 70.707031 102 70.589844 C 108.511719 70.121094 114.148438 68.296875 121.050781 64.433594 C 122.101562 63.847656 122.441406 63.539062 122.511719 63.09375 C 122.53125 62.984375 122.699219 62.796875 122.878906 62.667969 C 123.058594 62.535156 123.179688 62.398438 123.148438 62.347656 C 123.070312 62.210938 120.070312 60.453125 118.648438 59.707031 C 112.980469 56.730469 107.480469 54.980469 102.25 54.503906 C 101.238281 54.414062 97.230469 54.386719 96.398438 54.476562 Z M 96.398438 54.476562 "/>
<path style=" stroke:none;fill-rule:nonzero;fill:rgb(94.901961%,63.137257%,31.37255%);fill-opacity:1;" d="M 24.050781 54.761719 C 19.671875 55.21875 15.988281 56.171875 11.851562 57.929688 C 9.398438 58.960938 5.511719 61.039062 3.511719 62.378906 L 2.769531 62.863281 L 3.511719 63.332031 C 5.140625 64.363281 6.441406 65.109375 8.25 66.03125 C 13.070312 68.492188 17.609375 69.992188 22.199219 70.636719 C 22.828125 70.726562 23.441406 70.816406 23.550781 70.835938 C 23.660156 70.855469 24.101562 70.875 24.53125 70.875 C 25.019531 70.886719 25.289062 70.925781 25.25 70.984375 C 25.160156 71.132812 29.230469 71.105469 30.75 70.945312 C 35.859375 70.390625 40.300781 68.910156 44.898438 66.21875 C 47.488281 64.703125 48.230469 64.105469 48.328125 63.449219 C 48.351562 63.320312 48.46875 63.144531 48.601562 63.042969 L 48.839844 62.863281 L 48.601562 62.65625 C 48.460938 62.546875 47.839844 62.089844 47.21875 61.644531 C 42.179688 58.050781 36.921875 55.84375 31.351562 55 C 30.230469 54.824219 29.410156 54.773438 27.199219 54.753906 C 25.691406 54.734375 24.269531 54.742188 24.050781 54.761719 Z M 24.050781 54.761719 "/>
<path style=" stroke:none;fill-rule:nonzero;fill:rgb(94.901961%,63.137257%,31.37255%);fill-opacity:1;" d="M 61.511719 57.445312 C 60.648438 57.671875 59.800781 58.179688 59.101562 58.875 C 56.648438 61.304688 57.058594 65.179688 59.960938 67.113281 C 60.96875 67.777344 61.640625 67.976562 63.53125 68.167969 C 66.28125 68.453125 69.070312 65.8125 68.871094 63.101562 C 68.808594 62.230469 68.578125 61.246094 68.429688 61.1875 C 68.359375 61.15625 68.300781 61.007812 68.300781 60.859375 C 68.300781 60.699219 68.261719 60.5625 68.21875 60.542969 C 68.171875 60.523438 67.949219 60.242188 67.730469 59.914062 C 66.921875 58.734375 65.769531 57.859375 64.511719 57.484375 C 63.75 57.246094 62.320312 57.226562 61.511719 57.445312 Z M 61.511719 57.445312 "/>
<path style=" stroke:none;fill-rule:nonzero;fill:rgb(94.901961%,63.137257%,31.37255%);fill-opacity:1;" d="M 73.261719 72.992188 C 74.738281 83.652344 79.628906 91.933594 87.75 97.503906 C 91.140625 99.835938 94.859375 101.625 99.398438 103.113281 C 101.648438 103.859375 105.789062 104.910156 105.808594 104.761719 C 105.871094 104.335938 105.78125 103.152344 105.648438 102.695312 C 105.550781 102.367188 105.410156 101.910156 105.339844 101.664062 C 105.269531 101.414062 105.179688 101.027344 105.140625 100.789062 C 105.101562 100.5625 105.039062 100.371094 105 100.371094 C 104.960938 100.371094 104.898438 100.183594 104.859375 99.957031 C 104.820312 99.726562 104.761719 99.488281 104.710938 99.429688 C 104.671875 99.378906 104.53125 98.992188 104.410156 98.585938 C 104.191406 97.859375 104.109375 97.664062 103.761719 96.867188 C 103.671875 96.660156 103.601562 96.410156 103.601562 96.320312 C 103.601562 96.222656 103.53125 96.054688 103.449219 95.945312 C 103.371094 95.84375 103.300781 95.675781 103.300781 95.585938 C 103.300781 95.488281 103.210938 95.25 103.109375 95.042969 C 102.738281 94.328125 102.300781 93.332031 102.300781 93.226562 C 102.300781 93.175781 102.261719 93.125 102.210938 93.125 C 102.160156 93.125 102.089844 92.988281 102.050781 92.816406 C 102.011719 92.648438 101.929688 92.5 101.859375 92.46875 C 101.800781 92.449219 101.730469 92.3125 101.71875 92.171875 C 101.710938 92.035156 101.628906 91.855469 101.550781 91.773438 C 101.46875 91.6875 101.398438 91.535156 101.398438 91.425781 C 101.398438 91.320312 101.328125 91.210938 101.25 91.179688 C 101.171875 91.140625 101.101562 91.03125 101.101562 90.929688 C 101.101562 90.820312 101.03125 90.710938 100.949219 90.683594 C 100.871094 90.644531 100.800781 90.542969 100.800781 90.445312 C 100.800781 90.34375 100.730469 90.195312 100.648438 90.105469 C 100.570312 90.027344 100.5 89.917969 100.5 89.859375 C 100.5 89.808594 100.441406 89.699219 100.378906 89.628906 C 100.308594 89.5625 100.140625 89.285156 100 89.035156 C 99.871094 88.777344 99.699219 88.539062 99.628906 88.519531 C 99.558594 88.488281 99.5 88.371094 99.5 88.261719 C 99.5 88.140625 99.460938 88.082031 99.398438 88.113281 C 99.351562 88.140625 99.28125 88.050781 99.238281 87.914062 C 99.210938 87.773438 99.140625 87.664062 99.101562 87.664062 C 99.058594 87.664062 98.820312 87.355469 98.558594 86.96875 C 97.089844 84.796875 94.179688 81.679688 92.050781 79.980469 C 87.339844 76.238281 81.71875 73.863281 75 72.773438 C 74.308594 72.664062 73.628906 72.574219 73.46875 72.574219 C 73.210938 72.574219 73.199219 72.585938 73.261719 72.992188 Z M 73.261719 72.992188 "/>
<path style=" stroke:none;fill-rule:nonzero;fill:rgb(94.901961%,63.137257%,31.37255%);fill-opacity:1;" d="M 52.5 72.742188 C 52.359375 72.761719 51.621094 72.890625 50.859375 73.03125 C 34.648438 75.96875 24.609375 86.53125 20.640625 104.820312 C 20.589844 105.089844 20.550781 105.089844 21.761719 104.839844 C 22.421875 104.703125 22.769531 104.671875 22.839844 104.742188 C 23 104.898438 23.308594 104.859375 24.71875 104.503906 C 28.929688 103.421875 33.871094 101.335938 37.410156 99.152344 C 45.78125 94 50.96875 86.363281 53.011719 76.21875 C 53.21875 75.164062 53.210938 74.460938 52.980469 74.460938 C 52.878906 74.460938 52.941406 73.457031 53.070312 72.890625 C 53.121094 72.664062 53.070312 72.644531 52.5 72.742188 Z M 52.5 72.742188 "/>
<path style=" stroke:none;fill-rule:nonzero;fill:rgb(94.901961%,63.137257%,31.37255%);fill-opacity:1;" d="M 62.679688 77.558594 C 58.941406 82.523438 56.519531 87.773438 55.558594 93.027344 C 54.910156 96.558594 54.941406 100.976562 55.648438 104.769531 C 56.628906 110.042969 58.871094 115.453125 62.421875 121.140625 C 62.859375 121.835938 63.238281 122.414062 63.28125 122.414062 C 63.320312 122.414062 63.460938 122.253906 63.589844 122.066406 C 63.71875 121.867188 63.851562 121.738281 63.878906 121.757812 C 63.898438 121.789062 64.089844 121.726562 64.300781 121.617188 C 64.800781 121.359375 64.96875 121.132812 66.128906 119.085938 C 66.640625 118.183594 68.28125 114.828125 68.648438 113.925781 C 71.101562 107.917969 72 103.003906 71.710938 97.253906 C 71.648438 96.042969 71.558594 94.882812 71.511719 94.664062 C 71.460938 94.445312 71.371094 93.949219 71.300781 93.570312 C 71.171875 92.738281 70.851562 91.359375 70.648438 90.742188 C 70.570312 90.496094 70.5 90.175781 70.5 90.039062 C 70.5 89.898438 70.429688 89.699219 70.351562 89.589844 C 70.269531 89.492188 70.199219 89.285156 70.199219 89.144531 C 70.199219 89.003906 70.128906 88.808594 70.050781 88.699219 C 69.96875 88.597656 69.898438 88.417969 69.898438 88.300781 C 69.898438 88.191406 69.828125 88.011719 69.75 87.902344 C 69.671875 87.804688 69.601562 87.644531 69.601562 87.554688 C 69.601562 87.347656 69.199219 86.445312 69.078125 86.363281 C 69.03125 86.335938 68.988281 86.273438 69 86.234375 C 69.039062 86.046875 68.859375 85.480469 68.761719 85.480469 C 68.699219 85.480469 68.628906 85.363281 68.621094 85.203125 C 68.609375 85.054688 68.53125 84.886719 68.449219 84.824219 C 68.371094 84.765625 68.300781 84.597656 68.300781 84.449219 C 68.300781 84.289062 68.25 84.191406 68.148438 84.191406 C 68.058594 84.191406 68 84.101562 68 83.953125 C 68 83.8125 67.941406 83.644531 67.859375 83.574219 C 67.789062 83.496094 67.691406 83.335938 67.660156 83.21875 C 67.621094 83.097656 67.539062 83 67.488281 83 C 67.441406 83 67.398438 82.910156 67.398438 82.808594 C 67.398438 82.699219 67.320312 82.542969 67.230469 82.441406 C 67.128906 82.351562 67.050781 82.203125 67.039062 82.125 C 67.019531 82.035156 66.941406 81.9375 66.859375 81.886719 C 66.769531 81.835938 66.699219 81.6875 66.699219 81.550781 C 66.699219 81.410156 66.660156 81.320312 66.609375 81.359375 C 66.558594 81.390625 66.480469 81.3125 66.441406 81.191406 C 66.398438 81.0625 66.308594 80.921875 66.238281 80.863281 C 66.171875 80.816406 66.101562 80.707031 66.078125 80.625 C 66.058594 80.554688 65.949219 80.378906 65.820312 80.230469 C 65.691406 80.089844 65.558594 79.851562 65.53125 79.703125 C 65.5 79.554688 65.441406 79.453125 65.390625 79.472656 C 65.300781 79.535156 65.078125 79.1875 65.148438 79.085938 C 65.179688 79.058594 65.171875 79.046875 65.140625 79.078125 C 65.101562 79.097656 64.691406 78.609375 64.21875 77.984375 C 63.75 77.359375 63.339844 76.84375 63.300781 76.84375 C 63.261719 76.84375 62.980469 77.171875 62.679688 77.558594 Z M 62.679688 77.558594 "/>
</g>
</svg>
