<?xml version="1.0" encoding="UTF-8"?>
<svg version="1.1" xmlns="http://www.w3.org/2000/svg" width="128" height="128">
<path d="M0 0 C3.53171051 2.82130897 6.79921634 5.8103689 10 9 C10.63679688 9.61359375 11.27359375 10.2271875 11.9296875 10.859375 C23.54792304 22.94233997 27.52952992 39.12816282 27.41992188 55.42626953 C26.89154076 73.41493671 19.59494867 87.36101305 7 100 C6.38640625 100.63679688 5.7728125 101.27359375 5.140625 101.9296875 C-6.94233997 113.54792304 -23.12816282 117.52952992 -39.42626953 117.41992188 C-57.41493671 116.89154076 -71.36101305 109.59494867 -84 97 C-84.63679688 96.38640625 -85.27359375 95.7728125 -85.9296875 95.140625 C-97.54792304 83.05766003 -101.52952992 66.87183718 -101.41992188 50.57373047 C-100.89154076 32.58506329 -93.59494867 18.63898695 -81 6 C-80.38640625 5.36320312 -79.7728125 4.72640625 -79.140625 4.0703125 C-58.27297325 -15.99473726 -22.91521298 -16.34961825 0 0 Z M-80 16 C-90.9374851 30.55526863 -94.86127283 45.27902399 -92.5703125 63.3984375 C-90.96349384 71.59122895 -87.81711631 79.15244327 -83 86 C-80.91823276 87.38123692 -80.91823276 87.38123692 -79 88 C-78.54109375 87.03578125 -78.0821875 86.0715625 -77.609375 85.078125 C-76.99001725 83.80187267 -76.37020128 82.52584263 -75.75 81.25 C-75.29947266 80.29867187 -75.29947266 80.29867187 -74.83984375 79.328125 C-72.991441 75.55266406 -71.03647571 72.87524691 -68 70 C-68 69.34 -68 68.68 -68 68 C-67.484375 67.7525 -66.96875 67.505 -66.4375 67.25 C-64.42004002 66.21540514 -62.46332273 65.13154944 -60.5 64 C-58.03684185 62.58037337 -55.56447147 61.23094631 -53 60 C-52.76746111 57.68634745 -52.76746111 57.68634745 -55.3125 55.625 C-56.199375 54.75875 -57.08625 53.8925 -58 53 C-62.92275752 47.34794507 -63.45140151 41.29790098 -63.31640625 34.03515625 C-62.56426184 26.82014138 -59.05442851 21.05442851 -54 16 C-46.63634688 10.82554105 -39.79012676 10.38910316 -31 11 C-24.93323664 12.20721429 -20.06834728 15.37406198 -16 20 C-11.36046663 27.42325339 -10.21140976 34.30390213 -11 43 C-12.85006991 49.41293663 -16.30667251 54.30667251 -21 59 C-20.24074219 59.47050781 -19.48148437 59.94101563 -18.69921875 60.42578125 C-17.70535156 61.04839844 -16.71148437 61.67101562 -15.6875 62.3125 C-14.70136719 62.92738281 -13.71523437 63.54226562 -12.69921875 64.17578125 C-10.48655918 65.67116767 -8.86500316 67.13499684 -7 69 C-6.34 69 -5.68 69 -5 69 C-4.5978125 69.83724609 -4.5978125 69.83724609 -4.1875 70.69140625 C-2.45386159 74.06173619 -0.42966277 77.24252048 1.5625 80.46484375 C2.95596837 82.92234639 4.01600895 85.35552405 5 88 C10.36178775 86.07918373 11.92558453 81.43262875 14.3828125 76.62890625 C20.45585864 63.00122541 21.19151732 47.04111447 16 33 C9.0223486 17.11591552 -1.77749699 6.35791863 -17.84765625 -0.22265625 C-39.85345815 -8.17030521 -64.42868966 -1.21616707 -80 16 Z M-53 26 C-56.25534921 30.93915052 -56.71325999 35.25373641 -56 41 C-53.97231756 48.03725081 -49.77698641 51.86939228 -43.5625 55.375 C-37.28171348 56.90689915 -32.49755554 56.44526747 -26.89453125 53.33984375 C-22.47632182 50.21521316 -18.93921013 46.42884099 -18 41 C-17.45729674 35.25986941 -17.74379897 30.94044294 -21 26 C-24.77727474 21.61019423 -28.48410877 18.41869504 -34.39453125 17.71484375 C-42.58659041 17.43235895 -47.59112484 19.71400995 -53 26 Z M-62.328125 74.078125 C-68.29857779 80.4023824 -72.10367887 87.26086899 -73 96 C-60.06431375 106.32102626 -46.70111529 110.33383485 -30 109 C-20.09137216 107.70452569 -9.29635361 104.30709672 -2.07421875 97.0703125 C-0.79987145 95.05250403 -0.79987145 95.05250403 -1.15234375 92.73828125 C-4.82242136 81.39938476 -10.74921747 73.26809348 -21.484375 67.71484375 C-35.69857937 61.55682664 -50.60162928 63.6108503 -62.328125 74.078125 Z " fill="#DB7733" transform="translate(101,11)"/>
</svg>
